solid ascii
  facet normal 0.000000e+000 -0.000000e+000 -1.000000e+000
    outer loop
      vertex   0.000000e+000 0.000000e+000 -2.540000e+000
      vertex   1.587500e+001 0.000000e+000 -2.540000e+000
      vertex   0.000000e+000 -2.032000e+000 -2.540000e+000
    endloop
  endfacet
  facet normal 0.000000e+000 0.000000e+000 -1.000000e+000
    outer loop
      vertex   0.000000e+000 -2.032000e+000 -2.540000e+000
      vertex   1.587500e+001 0.000000e+000 -2.540000e+000
      vertex   1.587500e+001 -2.032000e+000 -2.540000e+000
    endloop
  endfacet
  facet normal -1.000000e+000 -0.000000e+000 -0.000000e+000
    outer loop
      vertex   0.000000e+000 0.000000e+000 0.000000e+000
      vertex   0.000000e+000 0.000000e+000 -2.540000e+000
      vertex   0.000000e+000 -2.032000e+000 0.000000e+000
    endloop
  endfacet
  facet normal -1.000000e+000 -0.000000e+000 -0.000000e+000
    outer loop
      vertex   0.000000e+000 -2.032000e+000 0.000000e+000
      vertex   0.000000e+000 0.000000e+000 -2.540000e+000
      vertex   0.000000e+000 -2.032000e+000 -2.540000e+000
    endloop
  endfacet
  facet normal -9.205049e-001 0.000000e+000 3.907311e-001
    outer loop
      vertex   1.333500e+001 0.000000e+000 3.141529e+001
      vertex   0.000000e+000 0.000000e+000 0.000000e+000
      vertex   1.333500e+001 -2.032000e+000 3.141529e+001
    endloop
  endfacet
  facet normal -9.205049e-001 0.000000e+000 3.907311e-001
    outer loop
      vertex   1.333500e+001 -2.032000e+000 3.141529e+001
      vertex   0.000000e+000 0.000000e+000 0.000000e+000
      vertex   0.000000e+000 -2.032000e+000 0.000000e+000
    endloop
  endfacet
  facet normal -1.000000e+000 -0.000000e+000 -0.000000e+000
    outer loop
      vertex   1.333500e+001 0.000000e+000 4.007997e+001
      vertex   1.333500e+001 0.000000e+000 3.141529e+001
      vertex   1.333500e+001 -2.032000e+000 4.007997e+001
    endloop
  endfacet
  facet normal -1.000000e+000 -0.000000e+000 -0.000000e+000
    outer loop
      vertex   1.333500e+001 -2.032000e+000 4.007997e+001
      vertex   1.333500e+001 0.000000e+000 3.141529e+001
      vertex   1.333500e+001 -2.032000e+000 3.141529e+001
    endloop
  endfacet
  facet normal 0.000000e+000 -3.496765e-015 -1.000000e+000
    outer loop
      vertex   0.000000e+000 0.000000e+000 4.007997e+001
      vertex   1.333500e+001 0.000000e+000 4.007997e+001
      vertex   0.000000e+000 -2.032000e+000 4.007997e+001
    endloop
  endfacet
  facet normal 0.000000e+000 -3.496765e-015 -1.000000e+000
    outer loop
      vertex   0.000000e+000 -2.032000e+000 4.007997e+001
      vertex   1.333500e+001 0.000000e+000 4.007997e+001
      vertex   1.333500e+001 -2.032000e+000 4.007997e+001
    endloop
  endfacet
  facet normal -1.000000e+000 -0.000000e+000 -0.000000e+000
    outer loop
      vertex   0.000000e+000 0.000000e+000 4.261997e+001
      vertex   0.000000e+000 0.000000e+000 4.007997e+001
      vertex   0.000000e+000 -2.032000e+000 4.261997e+001
    endloop
  endfacet
  facet normal -1.000000e+000 -0.000000e+000 -0.000000e+000
    outer loop
      vertex   0.000000e+000 -2.032000e+000 4.261997e+001
      vertex   0.000000e+000 0.000000e+000 4.007997e+001
      vertex   0.000000e+000 -2.032000e+000 4.007997e+001
    endloop
  endfacet
  facet normal 0.000000e+000 0.000000e+000 1.000000e+000
    outer loop
      vertex   1.587500e+001 0.000000e+000 4.261997e+001
      vertex   0.000000e+000 0.000000e+000 4.261997e+001
      vertex   1.587500e+001 -2.032000e+000 4.261997e+001
    endloop
  endfacet
  facet normal 0.000000e+000 0.000000e+000 1.000000e+000
    outer loop
      vertex   1.587500e+001 -2.032000e+000 4.261997e+001
      vertex   0.000000e+000 0.000000e+000 4.261997e+001
      vertex   0.000000e+000 -2.032000e+000 4.261997e+001
    endloop
  endfacet
  facet normal 1.000000e+000 0.000000e+000 -0.000000e+000
    outer loop
      vertex   1.587500e+001 0.000000e+000 -2.540000e+000
      vertex   1.587500e+001 0.000000e+000 4.261997e+001
      vertex   1.587500e+001 -2.032000e+000 -2.540000e+000
    endloop
  endfacet
  facet normal 1.000000e+000 0.000000e+000 -0.000000e+000
    outer loop
      vertex   1.587500e+001 -2.032000e+000 -2.540000e+000
      vertex   1.587500e+001 0.000000e+000 4.261997e+001
      vertex   1.587500e+001 -2.032000e+000 4.261997e+001
    endloop
  endfacet
  facet normal 0.000000e+000 -1.000000e+000 -0.000000e+000
    outer loop
      vertex   1.587500e+001 -2.032000e+000 4.261997e+001
      vertex   1.333500e+001 -2.032000e+000 3.141529e+001
      vertex   1.587500e+001 -2.032000e+000 -2.540000e+000
    endloop
  endfacet
  facet normal 0.000000e+000 -1.000000e+000 -0.000000e+000
    outer loop
      vertex   1.587500e+001 -2.032000e+000 4.261997e+001
      vertex   1.333500e+001 -2.032000e+000 4.007997e+001
      vertex   1.333500e+001 -2.032000e+000 3.141529e+001
    endloop
  endfacet
  facet normal -0.000000e+000 -1.000000e+000 -0.000000e+000
    outer loop
      vertex   1.587500e+001 -2.032000e+000 4.261997e+001
      vertex   0.000000e+000 -2.032000e+000 4.261997e+001
      vertex   1.333500e+001 -2.032000e+000 4.007997e+001
    endloop
  endfacet
  facet normal -0.000000e+000 -1.000000e+000 -0.000000e+000
    outer loop
      vertex   1.333500e+001 -2.032000e+000 4.007997e+001
      vertex   0.000000e+000 -2.032000e+000 4.261997e+001
      vertex   0.000000e+000 -2.032000e+000 4.007997e+001
    endloop
  endfacet
  facet normal 0.000000e+000 -1.000000e+000 -0.000000e+000
    outer loop
      vertex   1.333500e+001 -2.032000e+000 3.141529e+001
      vertex   0.000000e+000 -2.032000e+000 0.000000e+000
      vertex   1.587500e+001 -2.032000e+000 -2.540000e+000
    endloop
  endfacet
  facet normal -0.000000e+000 -1.000000e+000 -0.000000e+000
    outer loop
      vertex   1.587500e+001 -2.032000e+000 -2.540000e+000
      vertex   0.000000e+000 -2.032000e+000 0.000000e+000
      vertex   0.000000e+000 -2.032000e+000 -2.540000e+000
    endloop
  endfacet
  facet normal 0.000000e+000 1.000000e+000 -0.000000e+000
    outer loop
      vertex   1.587500e+001 0.000000e+000 -2.540000e+000
      vertex   1.333500e+001 0.000000e+000 3.141529e+001
      vertex   1.587500e+001 0.000000e+000 4.261997e+001
    endloop
  endfacet
  facet normal 0.000000e+000 1.000000e+000 -0.000000e+000
    outer loop
      vertex   1.587500e+001 0.000000e+000 -2.540000e+000
      vertex   0.000000e+000 0.000000e+000 0.000000e+000
      vertex   1.333500e+001 0.000000e+000 3.141529e+001
    endloop
  endfacet
  facet normal 0.000000e+000 1.000000e+000 -0.000000e+000
    outer loop
      vertex   1.587500e+001 0.000000e+000 -2.540000e+000
      vertex   0.000000e+000 0.000000e+000 -2.540000e+000
      vertex   0.000000e+000 0.000000e+000 0.000000e+000
    endloop
  endfacet
  facet normal 0.000000e+000 1.000000e+000 0.000000e+000
    outer loop
      vertex   1.333500e+001 0.000000e+000 3.141529e+001
      vertex   1.333500e+001 0.000000e+000 4.007997e+001
      vertex   1.587500e+001 0.000000e+000 4.261997e+001
    endloop
  endfacet
  facet normal 0.000000e+000 1.000000e+000 0.000000e+000
    outer loop
      vertex   1.587500e+001 0.000000e+000 4.261997e+001
      vertex   1.333500e+001 0.000000e+000 4.007997e+001
      vertex   0.000000e+000 0.000000e+000 4.261997e+001
    endloop
  endfacet
  facet normal 0.000000e+000 1.000000e+000 0.000000e+000
    outer loop
      vertex   0.000000e+000 0.000000e+000 4.261997e+001
      vertex   1.333500e+001 0.000000e+000 4.007997e+001
      vertex   0.000000e+000 0.000000e+000 4.007997e+001
    endloop
  endfacet
endsolid
