solid ascii
  facet normal 0.000000e+000 -0.000000e+000 -1.000000e+000
    outer loop
      vertex   -1.270000e+001 0.000000e+000 0.000000e+000
      vertex   -7.619997e+000 0.000000e+000 0.000000e+000
      vertex   -1.270000e+001 -2.032000e+000 0.000000e+000
    endloop
  endfacet
  facet normal 0.000000e+000 0.000000e+000 -1.000000e+000
    outer loop
      vertex   -1.270000e+001 -2.032000e+000 0.000000e+000
      vertex   -7.619997e+000 0.000000e+000 0.000000e+000
      vertex   -7.619997e+000 -2.032000e+000 0.000000e+000
    endloop
  endfacet
  facet normal -1.000000e+000 -0.000000e+000 -0.000000e+000
    outer loop
      vertex   -1.270000e+001 0.000000e+000 2.423726e+001
      vertex   -1.270000e+001 0.000000e+000 0.000000e+000
      vertex   -1.270000e+001 -2.032000e+000 2.423726e+001
    endloop
  endfacet
  facet normal -1.000000e+000 -0.000000e+000 -0.000000e+000
    outer loop
      vertex   -1.270000e+001 -2.032000e+000 2.423726e+001
      vertex   -1.270000e+001 0.000000e+000 0.000000e+000
      vertex   -1.270000e+001 -2.032000e+000 0.000000e+000
    endloop
  endfacet
  facet normal 3.312982e-001 0.000000e+000 -9.435261e-001
    outer loop
      vertex   -2.232935e+001 0.000000e+000 3.086370e+001
      vertex   -2.195910e+001 0.000000e+000 3.099371e+001
      vertex   -2.232935e+001 -2.032000e+000 3.086370e+001
    endloop
  endfacet
  facet normal 3.312982e-001 0.000000e+000 -9.435261e-001
    outer loop
      vertex   -2.232935e+001 -2.032000e+000 3.086370e+001
      vertex   -2.195910e+001 0.000000e+000 3.099371e+001
      vertex   -2.195910e+001 -2.032000e+000 3.099371e+001
    endloop
  endfacet
  facet normal 2.786239e-001 0.000000e+000 -9.604003e-001
    outer loop
      vertex   -2.195910e+001 -2.032000e+000 3.099371e+001
      vertex   -2.195910e+001 0.000000e+000 3.099371e+001
      vertex   -2.158222e+001 0.000000e+000 3.110305e+001
    endloop
  endfacet
  facet normal 2.250973e-001 0.000000e+000 -9.743363e-001
    outer loop
      vertex   -2.158222e+001 -2.032000e+000 3.110305e+001
      vertex   -2.158222e+001 0.000000e+000 3.110305e+001
      vertex   -2.119988e+001 0.000000e+000 3.119138e+001
    endloop
  endfacet
  facet normal 1.708820e-001 0.000000e+000 -9.852915e-001
    outer loop
      vertex   -2.119988e+001 -2.032000e+000 3.119138e+001
      vertex   -2.119988e+001 0.000000e+000 3.119138e+001
      vertex   -2.081324e+001 0.000000e+000 3.125843e+001
    endloop
  endfacet
  facet normal 1.161439e-001 0.000000e+000 -9.932324e-001
    outer loop
      vertex   -2.081324e+001 -2.032000e+000 3.125843e+001
      vertex   -2.081324e+001 0.000000e+000 3.125843e+001
      vertex   -2.042348e+001 0.000000e+000 3.130401e+001
    endloop
  endfacet
  facet normal 6.105049e-002 0.000000e+000 -9.981347e-001
    outer loop
      vertex   -2.042348e+001 -2.032000e+000 3.130401e+001
      vertex   -2.042348e+001 0.000000e+000 3.130401e+001
      vertex   -2.003180e+001 0.000000e+000 3.132797e+001
    endloop
  endfacet
  facet normal 5.770316e-003 -1.008872e-017 -9.999834e-001
    outer loop
      vertex   -2.003180e+001 -2.032000e+000 3.132797e+001
      vertex   -2.003180e+001 0.000000e+000 3.132797e+001
      vertex   -1.963939e+001 0.000000e+000 3.133023e+001
    endloop
  endfacet
  facet normal -4.952751e-002 0.000000e+000 -9.987728e-001
    outer loop
      vertex   -1.963939e+001 -2.032000e+000 3.133023e+001
      vertex   -1.963939e+001 0.000000e+000 3.133023e+001
      vertex   -1.924746e+001 0.000000e+000 3.131080e+001
    endloop
  endfacet
  facet normal -1.046738e-001 0.000000e+000 -9.945066e-001
    outer loop
      vertex   -1.924746e+001 -2.032000e+000 3.131080e+001
      vertex   -1.924746e+001 0.000000e+000 3.131080e+001
      vertex   -1.885720e+001 0.000000e+000 3.126972e+001
    endloop
  endfacet
  facet normal -1.594999e-001 0.000000e+000 -9.871979e-001
    outer loop
      vertex   -1.885720e+001 -2.032000e+000 3.126972e+001
      vertex   -1.885720e+001 0.000000e+000 3.126972e+001
      vertex   -1.846981e+001 0.000000e+000 3.120713e+001
    endloop
  endfacet
  facet normal -2.138380e-001 0.000000e+000 -9.768691e-001
    outer loop
      vertex   -1.846981e+001 -2.032000e+000 3.120713e+001
      vertex   -1.846981e+001 0.000000e+000 3.120713e+001
      vertex   -1.808647e+001 0.000000e+000 3.112322e+001
    endloop
  endfacet
  facet normal -2.675219e-001 0.000000e+000 -9.635518e-001
    outer loop
      vertex   -1.808647e+001 -2.032000e+000 3.112322e+001
      vertex   -1.808647e+001 0.000000e+000 3.112322e+001
      vertex   -1.770836e+001 0.000000e+000 3.101824e+001
    endloop
  endfacet
  facet normal -3.203874e-001 0.000000e+000 -9.472866e-001
    outer loop
      vertex   -1.770836e+001 -2.032000e+000 3.101824e+001
      vertex   -1.770836e+001 0.000000e+000 3.101824e+001
      vertex   -1.733663e+001 0.000000e+000 3.089251e+001
    endloop
  endfacet
  facet normal -3.722727e-001 6.508752e-016 -9.281234e-001
    outer loop
      vertex   -1.733663e+001 -2.032000e+000 3.089251e+001
      vertex   -1.733663e+001 0.000000e+000 3.089251e+001
      vertex   -1.697242e+001 0.000000e+000 3.074643e+001
    endloop
  endfacet
  facet normal -4.230191e-001 0.000000e+000 -9.061207e-001
    outer loop
      vertex   -1.697242e+001 -2.032000e+000 3.074643e+001
      vertex   -1.697242e+001 0.000000e+000 3.074643e+001
      vertex   -1.661685e+001 0.000000e+000 3.058043e+001
    endloop
  endfacet
  facet normal -4.724714e-001 0.000000e+000 -8.813460e-001
    outer loop
      vertex   -1.661685e+001 -2.032000e+000 3.058043e+001
      vertex   -1.661685e+001 0.000000e+000 3.058043e+001
      vertex   -1.627100e+001 0.000000e+000 3.039503e+001
    endloop
  endfacet
  facet normal -5.204782e-001 -1.492900e-015 -8.538749e-001
    outer loop
      vertex   -1.627100e+001 -2.032000e+000 3.039503e+001
      vertex   -1.627100e+001 0.000000e+000 3.039503e+001
      vertex   -1.593592e+001 0.000000e+000 3.019078e+001
    endloop
  endfacet
  facet normal -5.668928e-001 -1.440303e-015 -8.237916e-001
    outer loop
      vertex   -1.593592e+001 -2.032000e+000 3.019078e+001
      vertex   -1.593592e+001 0.000000e+000 3.019078e+001
      vertex   -1.561266e+001 0.000000e+000 2.996833e+001
    endloop
  endfacet
  facet normal -6.115730e-001 5.346318e-016 -7.911880e-001
    outer loop
      vertex   -1.561266e+001 -2.032000e+000 2.996833e+001
      vertex   -1.561266e+001 0.000000e+000 2.996833e+001
      vertex   -1.530218e+001 0.000000e+000 2.972834e+001
    endloop
  endfacet
  facet normal -6.543822e-001 5.720553e-016 -7.561640e-001
    outer loop
      vertex   -1.530218e+001 -2.032000e+000 2.972834e+001
      vertex   -1.530218e+001 0.000000e+000 2.972834e+001
      vertex   -1.500545e+001 0.000000e+000 2.947155e+001
    endloop
  endfacet
  facet normal -6.951895e-001 0.000000e+000 -7.188265e-001
    outer loop
      vertex   -1.500545e+001 -2.032000e+000 2.947155e+001
      vertex   -1.500545e+001 0.000000e+000 2.947155e+001
      vertex   -1.472338e+001 0.000000e+000 2.919875e+001
    endloop
  endfacet
  facet normal -7.338699e-001 6.415428e-016 -6.792900e-001
    outer loop
      vertex   -1.472338e+001 -2.032000e+000 2.919875e+001
      vertex   -1.472338e+001 0.000000e+000 2.919875e+001
      vertex   -1.445681e+001 0.000000e+000 2.891076e+001
    endloop
  endfacet
  facet normal -7.703053e-001 0.000000e+000 -6.376753e-001
    outer loop
      vertex   -1.445681e+001 -2.032000e+000 2.891076e+001
      vertex   -1.445681e+001 0.000000e+000 2.891076e+001
      vertex   -1.420658e+001 0.000000e+000 2.860849e+001
    endloop
  endfacet
  facet normal -8.043840e-001 0.000000e+000 -5.941098e-001
    outer loop
      vertex   -1.420658e+001 -2.032000e+000 2.860849e+001
      vertex   -1.420658e+001 0.000000e+000 2.860849e+001
      vertex   -1.397344e+001 0.000000e+000 2.829283e+001
    endloop
  endfacet
  facet normal -8.360018e-001 7.308256e-016 -5.487267e-001
    outer loop
      vertex   -1.397344e+001 -2.032000e+000 2.829283e+001
      vertex   -1.397344e+001 0.000000e+000 2.829283e+001
      vertex   -1.375812e+001 0.000000e+000 2.796478e+001
    endloop
  endfacet
  facet normal -8.650621e-001 0.000000e+000 -5.016648e-001
    outer loop
      vertex   -1.375812e+001 -2.032000e+000 2.796478e+001
      vertex   -1.375812e+001 0.000000e+000 2.796478e+001
      vertex   -1.356126e+001 0.000000e+000 2.762531e+001
    endloop
  endfacet
  facet normal -8.914758e-001 0.000000e+000 -4.530682e-001
    outer loop
      vertex   -1.356126e+001 -2.032000e+000 2.762531e+001
      vertex   -1.356126e+001 0.000000e+000 2.762531e+001
      vertex   -1.338346e+001 0.000000e+000 2.727549e+001
    endloop
  endfacet
  facet normal -9.151623e-001 0.000000e+000 -4.030856e-001
    outer loop
      vertex   -1.338346e+001 -2.032000e+000 2.727549e+001
      vertex   -1.338346e+001 0.000000e+000 2.727549e+001
      vertex   -1.322529e+001 0.000000e+000 2.691636e+001
    endloop
  endfacet
  facet normal -9.360490e-001 0.000000e+000 -3.518697e-001
    outer loop
      vertex   -1.322529e+001 -2.032000e+000 2.691636e+001
      vertex   -1.322529e+001 0.000000e+000 2.691636e+001
      vertex   -1.308721e+001 0.000000e+000 2.654904e+001
    endloop
  endfacet
  facet normal -9.540720e-001 -5.237760e-016 -2.995774e-001
    outer loop
      vertex   -1.308721e+001 -2.032000e+000 2.654904e+001
      vertex   -1.308721e+001 0.000000e+000 2.654904e+001
      vertex   -1.296965e+001 0.000000e+000 2.617465e+001
    endloop
  endfacet
  facet normal -9.691762e-001 0.000000e+000 -2.463686e-001
    outer loop
      vertex   -1.296965e+001 -2.032000e+000 2.617465e+001
      vertex   -1.296965e+001 0.000000e+000 2.617465e+001
      vertex   -1.287297e+001 0.000000e+000 2.579434e+001
    endloop
  endfacet
  facet normal -9.813154e-001 0.000000e+000 -1.924061e-001
    outer loop
      vertex   -1.287297e+001 -2.032000e+000 2.579434e+001
      vertex   -1.287297e+001 0.000000e+000 2.579434e+001
      vertex   -1.279747e+001 0.000000e+000 2.540925e+001
    endloop
  endfacet
  facet normal -9.904524e-001 0.000000e+000 -1.378549e-001
    outer loop
      vertex   -1.279747e+001 -2.032000e+000 2.540925e+001
      vertex   -1.279747e+001 0.000000e+000 2.540925e+001
      vertex   -1.274337e+001 0.000000e+000 2.502059e+001
    endloop
  endfacet
  facet normal -9.965594e-001 0.000000e+000 -8.288201e-002
    outer loop
      vertex   -1.274337e+001 -2.032000e+000 2.502059e+001
      vertex   -1.274337e+001 0.000000e+000 2.502059e+001
      vertex   -1.271085e+001 0.000000e+000 2.462952e+001
    endloop
  endfacet
  facet normal -9.996175e-001 0.000000e+000 -2.765554e-002
    outer loop
      vertex   -1.271085e+001 -2.032000e+000 2.462952e+001
      vertex   -1.271085e+001 0.000000e+000 2.462952e+001
      vertex   -1.270000e+001 -2.032000e+000 2.423726e+001
    endloop
  endfacet
  facet normal -9.965594e-001 0.000000e+000 -8.288201e-002
    outer loop
      vertex   -1.271085e+001 -2.032000e+000 2.462952e+001
      vertex   -1.274337e+001 -2.032000e+000 2.502059e+001
      vertex   -1.271085e+001 0.000000e+000 2.462952e+001
    endloop
  endfacet
  facet normal 2.786239e-001 0.000000e+000 -9.604003e-001
    outer loop
      vertex   -2.195910e+001 -2.032000e+000 3.099371e+001
      vertex   -2.158222e+001 0.000000e+000 3.110305e+001
      vertex   -2.158222e+001 -2.032000e+000 3.110305e+001
    endloop
  endfacet
  facet normal 2.250973e-001 0.000000e+000 -9.743363e-001
    outer loop
      vertex   -2.158222e+001 -2.032000e+000 3.110305e+001
      vertex   -2.119988e+001 0.000000e+000 3.119138e+001
      vertex   -2.119988e+001 -2.032000e+000 3.119138e+001
    endloop
  endfacet
  facet normal 1.708820e-001 0.000000e+000 -9.852915e-001
    outer loop
      vertex   -2.119988e+001 -2.032000e+000 3.119138e+001
      vertex   -2.081324e+001 0.000000e+000 3.125843e+001
      vertex   -2.081324e+001 -2.032000e+000 3.125843e+001
    endloop
  endfacet
  facet normal 1.161439e-001 0.000000e+000 -9.932324e-001
    outer loop
      vertex   -2.081324e+001 -2.032000e+000 3.125843e+001
      vertex   -2.042348e+001 0.000000e+000 3.130401e+001
      vertex   -2.042348e+001 -2.032000e+000 3.130401e+001
    endloop
  endfacet
  facet normal 6.105049e-002 -1.067396e-016 -9.981347e-001
    outer loop
      vertex   -2.042348e+001 -2.032000e+000 3.130401e+001
      vertex   -2.003180e+001 0.000000e+000 3.132797e+001
      vertex   -2.003180e+001 -2.032000e+000 3.132797e+001
    endloop
  endfacet
  facet normal 5.770316e-003 0.000000e+000 -9.999834e-001
    outer loop
      vertex   -2.003180e+001 -2.032000e+000 3.132797e+001
      vertex   -1.963939e+001 0.000000e+000 3.133023e+001
      vertex   -1.963939e+001 -2.032000e+000 3.133023e+001
    endloop
  endfacet
  facet normal -4.952751e-002 -0.000000e+000 -9.987728e-001
    outer loop
      vertex   -1.963939e+001 -2.032000e+000 3.133023e+001
      vertex   -1.924746e+001 0.000000e+000 3.131080e+001
      vertex   -1.924746e+001 -2.032000e+000 3.131080e+001
    endloop
  endfacet
  facet normal -1.046738e-001 -0.000000e+000 -9.945066e-001
    outer loop
      vertex   -1.924746e+001 -2.032000e+000 3.131080e+001
      vertex   -1.885720e+001 0.000000e+000 3.126972e+001
      vertex   -1.885720e+001 -2.032000e+000 3.126972e+001
    endloop
  endfacet
  facet normal -1.594999e-001 -0.000000e+000 -9.871979e-001
    outer loop
      vertex   -1.885720e+001 -2.032000e+000 3.126972e+001
      vertex   -1.846981e+001 0.000000e+000 3.120713e+001
      vertex   -1.846981e+001 -2.032000e+000 3.120713e+001
    endloop
  endfacet
  facet normal -2.138380e-001 -0.000000e+000 -9.768691e-001
    outer loop
      vertex   -1.846981e+001 -2.032000e+000 3.120713e+001
      vertex   -1.808647e+001 0.000000e+000 3.112322e+001
      vertex   -1.808647e+001 -2.032000e+000 3.112322e+001
    endloop
  endfacet
  facet normal -2.675219e-001 -0.000000e+000 -9.635518e-001
    outer loop
      vertex   -1.808647e+001 -2.032000e+000 3.112322e+001
      vertex   -1.770836e+001 0.000000e+000 3.101824e+001
      vertex   -1.770836e+001 -2.032000e+000 3.101824e+001
    endloop
  endfacet
  facet normal -3.203874e-001 5.601598e-016 -9.472866e-001
    outer loop
      vertex   -1.770836e+001 -2.032000e+000 3.101824e+001
      vertex   -1.733663e+001 0.000000e+000 3.089251e+001
      vertex   -1.733663e+001 -2.032000e+000 3.089251e+001
    endloop
  endfacet
  facet normal -3.722727e-001 -0.000000e+000 -9.281234e-001
    outer loop
      vertex   -1.733663e+001 -2.032000e+000 3.089251e+001
      vertex   -1.697242e+001 0.000000e+000 3.074643e+001
      vertex   -1.697242e+001 -2.032000e+000 3.074643e+001
    endloop
  endfacet
  facet normal -4.230191e-001 -0.000000e+000 -9.061207e-001
    outer loop
      vertex   -1.697242e+001 -2.032000e+000 3.074643e+001
      vertex   -1.661685e+001 0.000000e+000 3.058043e+001
      vertex   -1.661685e+001 -2.032000e+000 3.058043e+001
    endloop
  endfacet
  facet normal -4.724714e-001 -1.540930e-015 -8.813460e-001
    outer loop
      vertex   -1.661685e+001 -2.032000e+000 3.058043e+001
      vertex   -1.627100e+001 0.000000e+000 3.039503e+001
      vertex   -1.627100e+001 -2.032000e+000 3.039503e+001
    endloop
  endfacet
  facet normal -5.204782e-001 -1.492900e-015 -8.538749e-001
    outer loop
      vertex   -1.627100e+001 -2.032000e+000 3.039503e+001
      vertex   -1.593592e+001 0.000000e+000 3.019078e+001
      vertex   -1.593592e+001 -2.032000e+000 3.019078e+001
    endloop
  endfacet
  facet normal -5.668928e-001 4.955728e-016 -8.237916e-001
    outer loop
      vertex   -1.593592e+001 -2.032000e+000 3.019078e+001
      vertex   -1.561266e+001 0.000000e+000 2.996833e+001
      vertex   -1.561266e+001 -2.032000e+000 2.996833e+001
    endloop
  endfacet
  facet normal -6.115730e-001 5.346318e-016 -7.911880e-001
    outer loop
      vertex   -1.561266e+001 -2.032000e+000 2.996833e+001
      vertex   -1.530218e+001 0.000000e+000 2.972834e+001
      vertex   -1.530218e+001 -2.032000e+000 2.972834e+001
    endloop
  endfacet
  facet normal -6.543822e-001 -0.000000e+000 -7.561640e-001
    outer loop
      vertex   -1.530218e+001 -2.032000e+000 2.972834e+001
      vertex   -1.500545e+001 0.000000e+000 2.947155e+001
      vertex   -1.500545e+001 -2.032000e+000 2.947155e+001
    endloop
  endfacet
  facet normal -6.951895e-001 6.077286e-016 -7.188265e-001
    outer loop
      vertex   -1.500545e+001 -2.032000e+000 2.947155e+001
      vertex   -1.472338e+001 0.000000e+000 2.919875e+001
      vertex   -1.472338e+001 -2.032000e+000 2.919875e+001
    endloop
  endfacet
  facet normal -7.338699e-001 -0.000000e+000 -6.792900e-001
    outer loop
      vertex   -1.472338e+001 -2.032000e+000 2.919875e+001
      vertex   -1.445681e+001 0.000000e+000 2.891076e+001
      vertex   -1.445681e+001 -2.032000e+000 2.891076e+001
    endloop
  endfacet
  facet normal -7.703053e-001 -0.000000e+000 -6.376753e-001
    outer loop
      vertex   -1.445681e+001 -2.032000e+000 2.891076e+001
      vertex   -1.420658e+001 0.000000e+000 2.860849e+001
      vertex   -1.420658e+001 -2.032000e+000 2.860849e+001
    endloop
  endfacet
  facet normal -8.043840e-001 7.031855e-016 -5.941098e-001
    outer loop
      vertex   -1.420658e+001 -2.032000e+000 2.860849e+001
      vertex   -1.397344e+001 0.000000e+000 2.829283e+001
      vertex   -1.397344e+001 -2.032000e+000 2.829283e+001
    endloop
  endfacet
  facet normal -8.360018e-001 -0.000000e+000 -5.487267e-001
    outer loop
      vertex   -1.397344e+001 -2.032000e+000 2.829283e+001
      vertex   -1.375812e+001 0.000000e+000 2.796478e+001
      vertex   -1.375812e+001 -2.032000e+000 2.796478e+001
    endloop
  endfacet
  facet normal -8.650621e-001 -0.000000e+000 -5.016648e-001
    outer loop
      vertex   -1.375812e+001 -2.032000e+000 2.796478e+001
      vertex   -1.356126e+001 0.000000e+000 2.762531e+001
      vertex   -1.356126e+001 -2.032000e+000 2.762531e+001
    endloop
  endfacet
  facet normal -8.914758e-001 -0.000000e+000 -4.530682e-001
    outer loop
      vertex   -1.356126e+001 -2.032000e+000 2.762531e+001
      vertex   -1.338346e+001 0.000000e+000 2.727549e+001
      vertex   -1.338346e+001 -2.032000e+000 2.727549e+001
    endloop
  endfacet
  facet normal -9.151623e-001 -0.000000e+000 -4.030856e-001
    outer loop
      vertex   -1.338346e+001 -2.032000e+000 2.727549e+001
      vertex   -1.322529e+001 0.000000e+000 2.691636e+001
      vertex   -1.322529e+001 -2.032000e+000 2.691636e+001
    endloop
  endfacet
  facet normal -9.360490e-001 -6.152030e-016 -3.518697e-001
    outer loop
      vertex   -1.322529e+001 -2.032000e+000 2.691636e+001
      vertex   -1.308721e+001 0.000000e+000 2.654904e+001
      vertex   -1.308721e+001 -2.032000e+000 2.654904e+001
    endloop
  endfacet
  facet normal -9.540720e-001 -0.000000e+000 -2.995774e-001
    outer loop
      vertex   -1.308721e+001 -2.032000e+000 2.654904e+001
      vertex   -1.296965e+001 0.000000e+000 2.617465e+001
      vertex   -1.296965e+001 -2.032000e+000 2.617465e+001
    endloop
  endfacet
  facet normal -9.691762e-001 -0.000000e+000 -2.463686e-001
    outer loop
      vertex   -1.296965e+001 -2.032000e+000 2.617465e+001
      vertex   -1.287297e+001 0.000000e+000 2.579434e+001
      vertex   -1.287297e+001 -2.032000e+000 2.579434e+001
    endloop
  endfacet
  facet normal -9.813154e-001 -0.000000e+000 -1.924061e-001
    outer loop
      vertex   -1.287297e+001 -2.032000e+000 2.579434e+001
      vertex   -1.279747e+001 0.000000e+000 2.540925e+001
      vertex   -1.279747e+001 -2.032000e+000 2.540925e+001
    endloop
  endfacet
  facet normal -9.904524e-001 -0.000000e+000 -1.378549e-001
    outer loop
      vertex   -1.279747e+001 -2.032000e+000 2.540925e+001
      vertex   -1.274337e+001 0.000000e+000 2.502059e+001
      vertex   -1.274337e+001 -2.032000e+000 2.502059e+001
    endloop
  endfacet
  facet normal -9.996175e-001 -0.000000e+000 -2.765554e-002
    outer loop
      vertex   -1.271085e+001 0.000000e+000 2.462952e+001
      vertex   -1.270000e+001 0.000000e+000 2.423726e+001
      vertex   -1.270000e+001 -2.032000e+000 2.423726e+001
    endloop
  endfacet
  facet normal -8.858883e-001 0.000000e+000 -4.638986e-001
    outer loop
      vertex   -2.469538e+001 0.000000e+000 3.538202e+001
      vertex   -2.232935e+001 0.000000e+000 3.086370e+001
      vertex   -2.469538e+001 -2.032000e+000 3.538202e+001
    endloop
  endfacet
  facet normal -8.858883e-001 -0.000000e+000 -4.638986e-001
    outer loop
      vertex   -2.469538e+001 -2.032000e+000 3.538202e+001
      vertex   -2.232935e+001 0.000000e+000 3.086370e+001
      vertex   -2.232935e+001 -2.032000e+000 3.086370e+001
    endloop
  endfacet
  facet normal 9.997770e-001 -0.000000e+000 2.111629e-002
    outer loop
      vertex   -7.619997e+000 -2.032000e+000 2.423726e+001
      vertex   -7.619997e+000 0.000000e+000 2.423726e+001
      vertex   -7.630855e+000 -2.032000e+000 2.475131e+001
    endloop
  endfacet
  facet normal 9.997770e-001 0.000000e+000 2.111629e-002
    outer loop
      vertex   -7.630855e+000 -2.032000e+000 2.475131e+001
      vertex   -7.619997e+000 0.000000e+000 2.423726e+001
      vertex   -7.630855e+000 0.000000e+000 2.475131e+001
    endloop
  endfacet
  facet normal 9.979938e-001 -0.000000e+000 6.331121e-002
    outer loop
      vertex   -7.663407e+000 0.000000e+000 2.526445e+001
      vertex   -7.630855e+000 -2.032000e+000 2.475131e+001
      vertex   -7.630855e+000 0.000000e+000 2.475131e+001
    endloop
  endfacet
  facet normal 9.979938e-001 0.000000e+000 6.331121e-002
    outer loop
      vertex   -7.663407e+000 0.000000e+000 2.526445e+001
      vertex   -7.663407e+000 -2.032000e+000 2.526445e+001
      vertex   -7.630855e+000 -2.032000e+000 2.475131e+001
    endloop
  endfacet
  facet normal 9.944306e-001 0.000000e+000 1.053932e-001
    outer loop
      vertex   -7.663407e+000 0.000000e+000 2.526445e+001
      vertex   -7.717597e+000 0.000000e+000 2.577575e+001
      vertex   -7.663407e+000 -2.032000e+000 2.526445e+001
    endloop
  endfacet
  facet normal 9.944306e-001 0.000000e+000 1.053932e-001
    outer loop
      vertex   -7.663407e+000 -2.032000e+000 2.526445e+001
      vertex   -7.717597e+000 0.000000e+000 2.577575e+001
      vertex   -7.717597e+000 -2.032000e+000 2.577575e+001
    endloop
  endfacet
  facet normal 9.890938e-001 -0.000000e+000 1.472872e-001
    outer loop
      vertex   -7.717597e+000 -2.032000e+000 2.577575e+001
      vertex   -7.717597e+000 0.000000e+000 2.577575e+001
      vertex   -7.793327e+000 0.000000e+000 2.628431e+001
    endloop
  endfacet
  facet normal 9.819928e-001 -0.000000e+000 1.889186e-001
    outer loop
      vertex   -7.793327e+000 -2.032000e+000 2.628431e+001
      vertex   -7.793327e+000 0.000000e+000 2.628431e+001
      vertex   -7.890463e+000 0.000000e+000 2.678922e+001
    endloop
  endfacet
  facet normal 9.731403e-001 -0.000000e+000 2.302129e-001
    outer loop
      vertex   -7.890463e+000 -2.032000e+000 2.678922e+001
      vertex   -7.890463e+000 0.000000e+000 2.678922e+001
      vertex   -8.008831e+000 0.000000e+000 2.728958e+001
    endloop
  endfacet
  facet normal 9.625521e-001 -0.000000e+000 2.710967e-001
    outer loop
      vertex   -8.008831e+000 -2.032000e+000 2.728958e+001
      vertex   -8.008831e+000 0.000000e+000 2.728958e+001
      vertex   -8.148221e+000 0.000000e+000 2.778449e+001
    endloop
  endfacet
  facet normal 9.502472e-001 -0.000000e+000 3.114969e-001
    outer loop
      vertex   -8.148221e+000 -2.032000e+000 2.778449e+001
      vertex   -8.148221e+000 0.000000e+000 2.778449e+001
      vertex   -8.308382e+000 0.000000e+000 2.827308e+001
    endloop
  endfacet
  facet normal 9.362474e-001 -0.000000e+000 3.513416e-001
    outer loop
      vertex   -8.308382e+000 -2.032000e+000 2.827308e+001
      vertex   -8.308382e+000 0.000000e+000 2.827308e+001
      vertex   -8.489031e+000 0.000000e+000 2.875447e+001
    endloop
  endfacet
  facet normal 9.205777e-001 -0.000000e+000 3.905596e-001
    outer loop
      vertex   -8.489031e+000 -2.032000e+000 2.875447e+001
      vertex   -8.489031e+000 0.000000e+000 2.875447e+001
      vertex   -8.689844e+000 0.000000e+000 2.922780e+001
    endloop
  endfacet
  facet normal 9.032660e-001 -0.000000e+000 4.290810e-001
    outer loop
      vertex   -8.689844e+000 -2.032000e+000 2.922780e+001
      vertex   -8.689844e+000 0.000000e+000 2.922780e+001
      vertex   -8.910464e+000 0.000000e+000 2.969223e+001
    endloop
  endfacet
  facet normal 8.843433e-001 -0.000000e+000 4.668371e-001
    outer loop
      vertex   -8.910464e+000 -2.032000e+000 2.969223e+001
      vertex   -8.910464e+000 0.000000e+000 2.969223e+001
      vertex   -9.150496e+000 0.000000e+000 3.014693e+001
    endloop
  endfacet
  facet normal 8.638433e-001 -0.000000e+000 5.037605e-001
    outer loop
      vertex   -9.150496e+000 -2.032000e+000 3.014693e+001
      vertex   -9.150496e+000 0.000000e+000 3.014693e+001
      vertex   -9.409514e+000 0.000000e+000 3.059109e+001
    endloop
  endfacet
  facet normal 8.418026e-001 -0.000000e+000 5.397855e-001
    outer loop
      vertex   -9.409514e+000 -2.032000e+000 3.059109e+001
      vertex   -9.409514e+000 0.000000e+000 3.059109e+001
      vertex   -9.687054e+000 0.000000e+000 3.102392e+001
    endloop
  endfacet
  facet normal 8.182604e-001 -0.000000e+000 5.748477e-001
    outer loop
      vertex   -9.687054e+000 -2.032000e+000 3.102392e+001
      vertex   -9.687054e+000 0.000000e+000 3.102392e+001
      vertex   -9.982622e+000 0.000000e+000 3.144464e+001
    endloop
  endfacet
  facet normal 7.932588e-001 -0.000000e+000 6.088846e-001
    outer loop
      vertex   -9.982622e+000 -2.032000e+000 3.144464e+001
      vertex   -9.982622e+000 0.000000e+000 3.144464e+001
      vertex   -1.029569e+001 0.000000e+000 3.185251e+001
    endloop
  endfacet
  facet normal 7.668424e-001 -0.000000e+000 6.418355e-001
    outer loop
      vertex   -1.029569e+001 -2.032000e+000 3.185251e+001
      vertex   -1.029569e+001 0.000000e+000 3.185251e+001
      vertex   -1.062570e+001 0.000000e+000 3.224680e+001
    endloop
  endfacet
  facet normal 7.390582e-001 -0.000000e+000 6.736416e-001
    outer loop
      vertex   -1.062570e+001 -2.032000e+000 3.224680e+001
      vertex   -1.062570e+001 0.000000e+000 3.224680e+001
      vertex   -1.097207e+001 0.000000e+000 3.262680e+001
    endloop
  endfacet
  facet normal 7.099558e-001 -0.000000e+000 7.042462e-001
    outer loop
      vertex   -1.097207e+001 -2.032000e+000 3.262680e+001
      vertex   -1.097207e+001 0.000000e+000 3.262680e+001
      vertex   -1.133417e+001 0.000000e+000 3.299183e+001
    endloop
  endfacet
  facet normal 6.795872e-001 -0.000000e+000 7.335948e-001
    outer loop
      vertex   -1.133417e+001 -2.032000e+000 3.299183e+001
      vertex   -1.133417e+001 0.000000e+000 3.299183e+001
      vertex   -1.171136e+001 0.000000e+000 3.334125e+001
    endloop
  endfacet
  facet normal 6.480064e-001 -0.000000e+000 7.616349e-001
    outer loop
      vertex   -1.171136e+001 -2.032000e+000 3.334125e+001
      vertex   -1.171136e+001 0.000000e+000 3.334125e+001
      vertex   -1.210297e+001 0.000000e+000 3.367444e+001
    endloop
  endfacet
  facet normal 6.152699e-001 -0.000000e+000 7.883165e-001
    outer loop
      vertex   -1.210297e+001 -2.032000e+000 3.367444e+001
      vertex   -1.210297e+001 0.000000e+000 3.367444e+001
      vertex   -1.250829e+001 0.000000e+000 3.399079e+001
    endloop
  endfacet
  facet normal 5.814360e-001 -0.000000e+000 8.135922e-001
    outer loop
      vertex   -1.250829e+001 -2.032000e+000 3.399079e+001
      vertex   -1.250829e+001 0.000000e+000 3.399079e+001
      vertex   -1.292662e+001 0.000000e+000 3.428975e+001
    endloop
  endfacet
  facet normal 5.465650e-001 -0.000000e+000 8.374167e-001
    outer loop
      vertex   -1.292662e+001 -2.032000e+000 3.428975e+001
      vertex   -1.292662e+001 0.000000e+000 3.428975e+001
      vertex   -1.335719e+001 0.000000e+000 3.457077e+001
    endloop
  endfacet
  facet normal 5.107192e-001 -0.000000e+000 8.597476e-001
    outer loop
      vertex   -1.335719e+001 -2.032000e+000 3.457077e+001
      vertex   -1.335719e+001 0.000000e+000 3.457077e+001
      vertex   -1.379924e+001 0.000000e+000 3.483337e+001
    endloop
  endfacet
  facet normal 4.739625e-001 -0.000000e+000 8.805450e-001
    outer loop
      vertex   -1.379924e+001 -2.032000e+000 3.483337e+001
      vertex   -1.379924e+001 0.000000e+000 3.483337e+001
      vertex   -1.425199e+001 0.000000e+000 3.507706e+001
    endloop
  endfacet
  facet normal 4.363604e-001 -0.000000e+000 8.997720e-001
    outer loop
      vertex   -1.425199e+001 -2.032000e+000 3.507706e+001
      vertex   -1.425199e+001 0.000000e+000 3.507706e+001
      vertex   -1.471463e+001 0.000000e+000 3.530143e+001
    endloop
  endfacet
  facet normal 3.979801e-001 -0.000000e+000 9.173941e-001
    outer loop
      vertex   -1.471463e+001 -2.032000e+000 3.530143e+001
      vertex   -1.471463e+001 0.000000e+000 3.530143e+001
      vertex   -1.518632e+001 0.000000e+000 3.550605e+001
    endloop
  endfacet
  facet normal 3.588899e-001 -0.000000e+000 9.333799e-001
    outer loop
      vertex   -1.518632e+001 -2.032000e+000 3.550605e+001
      vertex   -1.518632e+001 0.000000e+000 3.550605e+001
      vertex   -1.566623e+001 0.000000e+000 3.569058e+001
    endloop
  endfacet
  facet normal 3.191595e-001 -0.000000e+000 9.477010e-001
    outer loop
      vertex   -1.566623e+001 -2.032000e+000 3.569058e+001
      vertex   -1.566623e+001 0.000000e+000 3.569058e+001
      vertex   -1.615351e+001 0.000000e+000 3.585469e+001
    endloop
  endfacet
  facet normal 2.788600e-001 -0.000000e+000 9.603318e-001
    outer loop
      vertex   -1.615351e+001 -2.032000e+000 3.585469e+001
      vertex   -1.615351e+001 0.000000e+000 3.585469e+001
      vertex   -1.664728e+001 0.000000e+000 3.599807e+001
    endloop
  endfacet
  facet normal 2.380631e-001 -0.000000e+000 9.712497e-001
    outer loop
      vertex   -1.664728e+001 -2.032000e+000 3.599807e+001
      vertex   -1.664728e+001 0.000000e+000 3.599807e+001
      vertex   -1.714667e+001 0.000000e+000 3.612047e+001
    endloop
  endfacet
  facet normal 1.968415e-001 -0.000000e+000 9.804353e-001
    outer loop
      vertex   -1.714667e+001 -2.032000e+000 3.612047e+001
      vertex   -1.714667e+001 0.000000e+000 3.612047e+001
      vertex   -1.765078e+001 0.000000e+000 3.622168e+001
    endloop
  endfacet
  facet normal 1.552689e-001 -0.000000e+000 9.878722e-001
    outer loop
      vertex   -1.765078e+001 -2.032000e+000 3.622168e+001
      vertex   -1.765078e+001 0.000000e+000 3.622168e+001
      vertex   -1.815871e+001 0.000000e+000 3.630151e+001
    endloop
  endfacet
  facet normal 1.134193e-001 -0.000000e+000 9.935472e-001
    outer loop
      vertex   -1.815871e+001 -2.032000e+000 3.630151e+001
      vertex   -1.815871e+001 0.000000e+000 3.630151e+001
      vertex   -1.866956e+001 0.000000e+000 3.635983e+001
    endloop
  endfacet
  facet normal 7.136747e-002 -0.000000e+000 9.974501e-001
    outer loop
      vertex   -1.866956e+001 -2.032000e+000 3.635983e+001
      vertex   -1.866956e+001 0.000000e+000 3.635983e+001
      vertex   -1.918242e+001 0.000000e+000 3.639653e+001
    endloop
  endfacet
  facet normal 2.918832e-002 -0.000000e+000 9.995739e-001
    outer loop
      vertex   -1.918242e+001 -2.032000e+000 3.639653e+001
      vertex   -1.918242e+001 0.000000e+000 3.639653e+001
      vertex   -1.969637e+001 0.000000e+000 3.641153e+001
    endloop
  endfacet
  facet normal -1.304288e-002 0.000000e+000 9.999149e-001
    outer loop
      vertex   -1.969637e+001 -2.032000e+000 3.641153e+001
      vertex   -1.969637e+001 0.000000e+000 3.641153e+001
      vertex   -2.021049e+001 0.000000e+000 3.640483e+001
    endloop
  endfacet
  facet normal -5.525083e-002 0.000000e+000 9.984725e-001
    outer loop
      vertex   -2.021049e+001 -2.032000e+000 3.640483e+001
      vertex   -2.021049e+001 0.000000e+000 3.640483e+001
      vertex   -2.072387e+001 0.000000e+000 3.637642e+001
    endloop
  endfacet
  facet normal -9.736023e-002 0.000000e+000 9.952492e-001
    outer loop
      vertex   -2.072387e+001 -2.032000e+000 3.637642e+001
      vertex   -2.072387e+001 0.000000e+000 3.637642e+001
      vertex   -2.123560e+001 0.000000e+000 3.632636e+001
    endloop
  endfacet
  facet normal -1.392960e-001 0.000000e+000 9.902508e-001
    outer loop
      vertex   -2.123560e+001 -2.032000e+000 3.632636e+001
      vertex   -2.123560e+001 0.000000e+000 3.632636e+001
      vertex   -2.174475e+001 0.000000e+000 3.625474e+001
    endloop
  endfacet
  facet normal -1.809833e-001 0.000000e+000 9.834862e-001
    outer loop
      vertex   -2.174475e+001 -2.032000e+000 3.625474e+001
      vertex   -2.174475e+001 0.000000e+000 3.625474e+001
      vertex   -2.225043e+001 0.000000e+000 3.616168e+001
    endloop
  endfacet
  facet normal -2.223478e-001 0.000000e+000 9.749674e-001
    outer loop
      vertex   -2.225043e+001 -2.032000e+000 3.616168e+001
      vertex   -2.225043e+001 0.000000e+000 3.616168e+001
      vertex   -2.275173e+001 0.000000e+000 3.604736e+001
    endloop
  endfacet
  facet normal -2.633157e-001 0.000000e+000 9.647097e-001
    outer loop
      vertex   -2.275173e+001 -2.032000e+000 3.604736e+001
      vertex   -2.275173e+001 0.000000e+000 3.604736e+001
      vertex   -2.324775e+001 0.000000e+000 3.591197e+001
    endloop
  endfacet
  facet normal -3.038140e-001 0.000000e+000 9.527314e-001
    outer loop
      vertex   -2.324775e+001 -2.032000e+000 3.591197e+001
      vertex   -2.324775e+001 0.000000e+000 3.591197e+001
      vertex   -2.373761e+001 0.000000e+000 3.575576e+001
    endloop
  endfacet
  facet normal -3.437704e-001 0.000000e+000 9.390537e-001
    outer loop
      vertex   -2.373761e+001 -2.032000e+000 3.575576e+001
      vertex   -2.373761e+001 0.000000e+000 3.575576e+001
      vertex   -2.422044e+001 0.000000e+000 3.557900e+001
    endloop
  endfacet
  facet normal -3.831136e-001 0.000000e+000 9.237012e-001
    outer loop
      vertex   -2.422044e+001 -2.032000e+000 3.557900e+001
      vertex   -2.422044e+001 0.000000e+000 3.557900e+001
      vertex   -2.469538e+001 0.000000e+000 3.538202e+001
    endloop
  endfacet
  facet normal -3.831136e-001 0.000000e+000 9.237012e-001
    outer loop
      vertex   -2.469538e+001 -2.032000e+000 3.538202e+001
      vertex   -2.422044e+001 -2.032000e+000 3.557900e+001
      vertex   -2.469538e+001 0.000000e+000 3.538202e+001
    endloop
  endfacet
  facet normal 9.890938e-001 0.000000e+000 1.472872e-001
    outer loop
      vertex   -7.717597e+000 -2.032000e+000 2.577575e+001
      vertex   -7.793327e+000 0.000000e+000 2.628431e+001
      vertex   -7.793327e+000 -2.032000e+000 2.628431e+001
    endloop
  endfacet
  facet normal 9.819928e-001 0.000000e+000 1.889186e-001
    outer loop
      vertex   -7.793327e+000 -2.032000e+000 2.628431e+001
      vertex   -7.890463e+000 0.000000e+000 2.678922e+001
      vertex   -7.890463e+000 -2.032000e+000 2.678922e+001
    endloop
  endfacet
  facet normal 9.731403e-001 0.000000e+000 2.302129e-001
    outer loop
      vertex   -7.890463e+000 -2.032000e+000 2.678922e+001
      vertex   -8.008831e+000 0.000000e+000 2.728958e+001
      vertex   -8.008831e+000 -2.032000e+000 2.728958e+001
    endloop
  endfacet
  facet normal 9.625521e-001 0.000000e+000 2.710967e-001
    outer loop
      vertex   -8.008831e+000 -2.032000e+000 2.728958e+001
      vertex   -8.148221e+000 0.000000e+000 2.778449e+001
      vertex   -8.148221e+000 -2.032000e+000 2.778449e+001
    endloop
  endfacet
  facet normal 9.502472e-001 0.000000e+000 3.114969e-001
    outer loop
      vertex   -8.148221e+000 -2.032000e+000 2.778449e+001
      vertex   -8.308382e+000 0.000000e+000 2.827308e+001
      vertex   -8.308382e+000 -2.032000e+000 2.827308e+001
    endloop
  endfacet
  facet normal 9.362474e-001 0.000000e+000 3.513416e-001
    outer loop
      vertex   -8.308382e+000 -2.032000e+000 2.827308e+001
      vertex   -8.489031e+000 0.000000e+000 2.875447e+001
      vertex   -8.489031e+000 -2.032000e+000 2.875447e+001
    endloop
  endfacet
  facet normal 9.205777e-001 0.000000e+000 3.905596e-001
    outer loop
      vertex   -8.489031e+000 -2.032000e+000 2.875447e+001
      vertex   -8.689844e+000 0.000000e+000 2.922780e+001
      vertex   -8.689844e+000 -2.032000e+000 2.922780e+001
    endloop
  endfacet
  facet normal 9.032660e-001 0.000000e+000 4.290810e-001
    outer loop
      vertex   -8.689844e+000 -2.032000e+000 2.922780e+001
      vertex   -8.910464e+000 0.000000e+000 2.969223e+001
      vertex   -8.910464e+000 -2.032000e+000 2.969223e+001
    endloop
  endfacet
  facet normal 8.843433e-001 0.000000e+000 4.668371e-001
    outer loop
      vertex   -8.910464e+000 -2.032000e+000 2.969223e+001
      vertex   -9.150496e+000 0.000000e+000 3.014693e+001
      vertex   -9.150496e+000 -2.032000e+000 3.014693e+001
    endloop
  endfacet
  facet normal 8.638433e-001 0.000000e+000 5.037605e-001
    outer loop
      vertex   -9.150496e+000 -2.032000e+000 3.014693e+001
      vertex   -9.409514e+000 0.000000e+000 3.059109e+001
      vertex   -9.409514e+000 -2.032000e+000 3.059109e+001
    endloop
  endfacet
  facet normal 8.418026e-001 0.000000e+000 5.397855e-001
    outer loop
      vertex   -9.409514e+000 -2.032000e+000 3.059109e+001
      vertex   -9.687054e+000 0.000000e+000 3.102392e+001
      vertex   -9.687054e+000 -2.032000e+000 3.102392e+001
    endloop
  endfacet
  facet normal 8.182604e-001 0.000000e+000 5.748477e-001
    outer loop
      vertex   -9.687054e+000 -2.032000e+000 3.102392e+001
      vertex   -9.982622e+000 0.000000e+000 3.144464e+001
      vertex   -9.982622e+000 -2.032000e+000 3.144464e+001
    endloop
  endfacet
  facet normal 7.932588e-001 0.000000e+000 6.088846e-001
    outer loop
      vertex   -9.982622e+000 -2.032000e+000 3.144464e+001
      vertex   -1.029569e+001 0.000000e+000 3.185251e+001
      vertex   -1.029569e+001 -2.032000e+000 3.185251e+001
    endloop
  endfacet
  facet normal 7.668424e-001 0.000000e+000 6.418355e-001
    outer loop
      vertex   -1.029569e+001 -2.032000e+000 3.185251e+001
      vertex   -1.062570e+001 0.000000e+000 3.224680e+001
      vertex   -1.062570e+001 -2.032000e+000 3.224680e+001
    endloop
  endfacet
  facet normal 7.390582e-001 0.000000e+000 6.736416e-001
    outer loop
      vertex   -1.062570e+001 -2.032000e+000 3.224680e+001
      vertex   -1.097207e+001 0.000000e+000 3.262680e+001
      vertex   -1.097207e+001 -2.032000e+000 3.262680e+001
    endloop
  endfacet
  facet normal 7.099558e-001 0.000000e+000 7.042462e-001
    outer loop
      vertex   -1.097207e+001 -2.032000e+000 3.262680e+001
      vertex   -1.133417e+001 0.000000e+000 3.299183e+001
      vertex   -1.133417e+001 -2.032000e+000 3.299183e+001
    endloop
  endfacet
  facet normal 6.795872e-001 0.000000e+000 7.335948e-001
    outer loop
      vertex   -1.133417e+001 -2.032000e+000 3.299183e+001
      vertex   -1.171136e+001 0.000000e+000 3.334125e+001
      vertex   -1.171136e+001 -2.032000e+000 3.334125e+001
    endloop
  endfacet
  facet normal 6.480064e-001 0.000000e+000 7.616349e-001
    outer loop
      vertex   -1.171136e+001 -2.032000e+000 3.334125e+001
      vertex   -1.210297e+001 0.000000e+000 3.367444e+001
      vertex   -1.210297e+001 -2.032000e+000 3.367444e+001
    endloop
  endfacet
  facet normal 6.152699e-001 0.000000e+000 7.883165e-001
    outer loop
      vertex   -1.210297e+001 -2.032000e+000 3.367444e+001
      vertex   -1.250829e+001 0.000000e+000 3.399079e+001
      vertex   -1.250829e+001 -2.032000e+000 3.399079e+001
    endloop
  endfacet
  facet normal 5.814360e-001 0.000000e+000 8.135922e-001
    outer loop
      vertex   -1.250829e+001 -2.032000e+000 3.399079e+001
      vertex   -1.292662e+001 0.000000e+000 3.428975e+001
      vertex   -1.292662e+001 -2.032000e+000 3.428975e+001
    endloop
  endfacet
  facet normal 5.465650e-001 0.000000e+000 8.374167e-001
    outer loop
      vertex   -1.292662e+001 -2.032000e+000 3.428975e+001
      vertex   -1.335719e+001 0.000000e+000 3.457077e+001
      vertex   -1.335719e+001 -2.032000e+000 3.457077e+001
    endloop
  endfacet
  facet normal 5.107192e-001 0.000000e+000 8.597476e-001
    outer loop
      vertex   -1.335719e+001 -2.032000e+000 3.457077e+001
      vertex   -1.379924e+001 0.000000e+000 3.483337e+001
      vertex   -1.379924e+001 -2.032000e+000 3.483337e+001
    endloop
  endfacet
  facet normal 4.739625e-001 0.000000e+000 8.805450e-001
    outer loop
      vertex   -1.379924e+001 -2.032000e+000 3.483337e+001
      vertex   -1.425199e+001 0.000000e+000 3.507706e+001
      vertex   -1.425199e+001 -2.032000e+000 3.507706e+001
    endloop
  endfacet
  facet normal 4.363604e-001 0.000000e+000 8.997720e-001
    outer loop
      vertex   -1.425199e+001 -2.032000e+000 3.507706e+001
      vertex   -1.471463e+001 0.000000e+000 3.530143e+001
      vertex   -1.471463e+001 -2.032000e+000 3.530143e+001
    endloop
  endfacet
  facet normal 3.979801e-001 0.000000e+000 9.173941e-001
    outer loop
      vertex   -1.471463e+001 -2.032000e+000 3.530143e+001
      vertex   -1.518632e+001 0.000000e+000 3.550605e+001
      vertex   -1.518632e+001 -2.032000e+000 3.550605e+001
    endloop
  endfacet
  facet normal 3.588899e-001 0.000000e+000 9.333799e-001
    outer loop
      vertex   -1.518632e+001 -2.032000e+000 3.550605e+001
      vertex   -1.566623e+001 0.000000e+000 3.569058e+001
      vertex   -1.566623e+001 -2.032000e+000 3.569058e+001
    endloop
  endfacet
  facet normal 3.191595e-001 0.000000e+000 9.477010e-001
    outer loop
      vertex   -1.566623e+001 -2.032000e+000 3.569058e+001
      vertex   -1.615351e+001 0.000000e+000 3.585469e+001
      vertex   -1.615351e+001 -2.032000e+000 3.585469e+001
    endloop
  endfacet
  facet normal 2.788600e-001 0.000000e+000 9.603318e-001
    outer loop
      vertex   -1.615351e+001 -2.032000e+000 3.585469e+001
      vertex   -1.664728e+001 0.000000e+000 3.599807e+001
      vertex   -1.664728e+001 -2.032000e+000 3.599807e+001
    endloop
  endfacet
  facet normal 2.380631e-001 0.000000e+000 9.712497e-001
    outer loop
      vertex   -1.664728e+001 -2.032000e+000 3.599807e+001
      vertex   -1.714667e+001 0.000000e+000 3.612047e+001
      vertex   -1.714667e+001 -2.032000e+000 3.612047e+001
    endloop
  endfacet
  facet normal 1.968415e-001 0.000000e+000 9.804353e-001
    outer loop
      vertex   -1.714667e+001 -2.032000e+000 3.612047e+001
      vertex   -1.765078e+001 0.000000e+000 3.622168e+001
      vertex   -1.765078e+001 -2.032000e+000 3.622168e+001
    endloop
  endfacet
  facet normal 1.552689e-001 0.000000e+000 9.878722e-001
    outer loop
      vertex   -1.765078e+001 -2.032000e+000 3.622168e+001
      vertex   -1.815871e+001 0.000000e+000 3.630151e+001
      vertex   -1.815871e+001 -2.032000e+000 3.630151e+001
    endloop
  endfacet
  facet normal 1.134193e-001 0.000000e+000 9.935472e-001
    outer loop
      vertex   -1.815871e+001 -2.032000e+000 3.630151e+001
      vertex   -1.866956e+001 0.000000e+000 3.635983e+001
      vertex   -1.866956e+001 -2.032000e+000 3.635983e+001
    endloop
  endfacet
  facet normal 7.136747e-002 0.000000e+000 9.974501e-001
    outer loop
      vertex   -1.866956e+001 -2.032000e+000 3.635983e+001
      vertex   -1.918242e+001 0.000000e+000 3.639653e+001
      vertex   -1.918242e+001 -2.032000e+000 3.639653e+001
    endloop
  endfacet
  facet normal 2.918832e-002 0.000000e+000 9.995739e-001
    outer loop
      vertex   -1.918242e+001 -2.032000e+000 3.639653e+001
      vertex   -1.969637e+001 0.000000e+000 3.641153e+001
      vertex   -1.969637e+001 -2.032000e+000 3.641153e+001
    endloop
  endfacet
  facet normal -1.304288e-002 0.000000e+000 9.999149e-001
    outer loop
      vertex   -1.969637e+001 -2.032000e+000 3.641153e+001
      vertex   -2.021049e+001 0.000000e+000 3.640483e+001
      vertex   -2.021049e+001 -2.032000e+000 3.640483e+001
    endloop
  endfacet
  facet normal -5.525083e-002 0.000000e+000 9.984725e-001
    outer loop
      vertex   -2.021049e+001 -2.032000e+000 3.640483e+001
      vertex   -2.072387e+001 0.000000e+000 3.637642e+001
      vertex   -2.072387e+001 -2.032000e+000 3.637642e+001
    endloop
  endfacet
  facet normal -9.736023e-002 0.000000e+000 9.952492e-001
    outer loop
      vertex   -2.072387e+001 -2.032000e+000 3.637642e+001
      vertex   -2.123560e+001 0.000000e+000 3.632636e+001
      vertex   -2.123560e+001 -2.032000e+000 3.632636e+001
    endloop
  endfacet
  facet normal -1.392960e-001 0.000000e+000 9.902508e-001
    outer loop
      vertex   -2.123560e+001 -2.032000e+000 3.632636e+001
      vertex   -2.174475e+001 0.000000e+000 3.625474e+001
      vertex   -2.174475e+001 -2.032000e+000 3.625474e+001
    endloop
  endfacet
  facet normal -1.809833e-001 0.000000e+000 9.834862e-001
    outer loop
      vertex   -2.174475e+001 -2.032000e+000 3.625474e+001
      vertex   -2.225043e+001 0.000000e+000 3.616168e+001
      vertex   -2.225043e+001 -2.032000e+000 3.616168e+001
    endloop
  endfacet
  facet normal -2.223478e-001 0.000000e+000 9.749674e-001
    outer loop
      vertex   -2.225043e+001 -2.032000e+000 3.616168e+001
      vertex   -2.275173e+001 0.000000e+000 3.604736e+001
      vertex   -2.275173e+001 -2.032000e+000 3.604736e+001
    endloop
  endfacet
  facet normal -2.633157e-001 0.000000e+000 9.647097e-001
    outer loop
      vertex   -2.275173e+001 -2.032000e+000 3.604736e+001
      vertex   -2.324775e+001 0.000000e+000 3.591197e+001
      vertex   -2.324775e+001 -2.032000e+000 3.591197e+001
    endloop
  endfacet
  facet normal -3.038140e-001 0.000000e+000 9.527314e-001
    outer loop
      vertex   -2.324775e+001 -2.032000e+000 3.591197e+001
      vertex   -2.373761e+001 0.000000e+000 3.575576e+001
      vertex   -2.373761e+001 -2.032000e+000 3.575576e+001
    endloop
  endfacet
  facet normal -3.437704e-001 0.000000e+000 9.390537e-001
    outer loop
      vertex   -2.373761e+001 -2.032000e+000 3.575576e+001
      vertex   -2.422044e+001 0.000000e+000 3.557900e+001
      vertex   -2.422044e+001 -2.032000e+000 3.557900e+001
    endloop
  endfacet
  facet normal 9.578949e-001 0.000000e+000 2.871189e-001
    outer loop
      vertex   -1.290848e+000 0.000000e+000 3.121757e+000
      vertex   -7.619997e+000 0.000000e+000 2.423726e+001
      vertex   -1.290848e+000 -2.032000e+000 3.121757e+000
    endloop
  endfacet
  facet normal 9.578949e-001 0.000000e+000 2.871189e-001
    outer loop
      vertex   -1.290848e+000 -2.032000e+000 3.121757e+000
      vertex   -7.619997e+000 0.000000e+000 2.423726e+001
      vertex   -7.619997e+000 -2.032000e+000 2.423726e+001
    endloop
  endfacet
  facet normal 4.423532e-001 0.000000e+000 -8.968409e-001
    outer loop
      vertex   -7.619997e+000 0.000000e+000 0.000000e+000
      vertex   -1.290848e+000 0.000000e+000 3.121757e+000
      vertex   -7.619997e+000 -2.032000e+000 0.000000e+000
    endloop
  endfacet
  facet normal 4.423532e-001 0.000000e+000 -8.968409e-001
    outer loop
      vertex   -7.619997e+000 -2.032000e+000 0.000000e+000
      vertex   -1.290848e+000 0.000000e+000 3.121757e+000
      vertex   -1.290848e+000 -2.032000e+000 3.121757e+000
    endloop
  endfacet
  facet normal -0.000000e+000 -1.000000e+000 0.000000e+000
    outer loop
      vertex   -7.619997e+000 -2.032000e+000 0.000000e+000
      vertex   -1.290848e+000 -2.032000e+000 3.121757e+000
      vertex   -1.270000e+001 -2.032000e+000 0.000000e+000
    endloop
  endfacet
  facet normal 0.000000e+000 -1.000000e+000 0.000000e+000
    outer loop
      vertex   -1.270000e+001 -2.032000e+000 0.000000e+000
      vertex   -1.290848e+000 -2.032000e+000 3.121757e+000
      vertex   -1.270000e+001 -2.032000e+000 2.423726e+001
    endloop
  endfacet
  facet normal 0.000000e+000 -1.000000e+000 0.000000e+000
    outer loop
      vertex   -1.270000e+001 -2.032000e+000 2.423726e+001
      vertex   -1.290848e+000 -2.032000e+000 3.121757e+000
      vertex   -7.619997e+000 -2.032000e+000 2.423726e+001
    endloop
  endfacet
  facet normal 0.000000e+000 -1.000000e+000 0.000000e+000
    outer loop
      vertex   -1.271085e+001 -2.032000e+000 2.462952e+001
      vertex   -7.619997e+000 -2.032000e+000 2.423726e+001
      vertex   -7.630855e+000 -2.032000e+000 2.475131e+001
    endloop
  endfacet
  facet normal 0.000000e+000 -1.000000e+000 0.000000e+000
    outer loop
      vertex   -1.274337e+001 -2.032000e+000 2.502059e+001
      vertex   -7.630855e+000 -2.032000e+000 2.475131e+001
      vertex   -7.663407e+000 -2.032000e+000 2.526445e+001
    endloop
  endfacet
  facet normal 0.000000e+000 -1.000000e+000 0.000000e+000
    outer loop
      vertex   -1.279747e+001 -2.032000e+000 2.540925e+001
      vertex   -7.663407e+000 -2.032000e+000 2.526445e+001
      vertex   -7.717597e+000 -2.032000e+000 2.577575e+001
    endloop
  endfacet
  facet normal 0.000000e+000 -1.000000e+000 0.000000e+000
    outer loop
      vertex   -1.287297e+001 -2.032000e+000 2.579434e+001
      vertex   -7.717597e+000 -2.032000e+000 2.577575e+001
      vertex   -1.296965e+001 -2.032000e+000 2.617465e+001
    endloop
  endfacet
  facet normal 0.000000e+000 -1.000000e+000 0.000000e+000
    outer loop
      vertex   -1.287297e+001 -2.032000e+000 2.579434e+001
      vertex   -1.279747e+001 -2.032000e+000 2.540925e+001
      vertex   -7.717597e+000 -2.032000e+000 2.577575e+001
    endloop
  endfacet
  facet normal 0.000000e+000 -1.000000e+000 0.000000e+000
    outer loop
      vertex   -1.270000e+001 -2.032000e+000 2.423726e+001
      vertex   -7.619997e+000 -2.032000e+000 2.423726e+001
      vertex   -1.271085e+001 -2.032000e+000 2.462952e+001
    endloop
  endfacet
  facet normal 0.000000e+000 -1.000000e+000 0.000000e+000
    outer loop
      vertex   -1.271085e+001 -2.032000e+000 2.462952e+001
      vertex   -7.630855e+000 -2.032000e+000 2.475131e+001
      vertex   -1.274337e+001 -2.032000e+000 2.502059e+001
    endloop
  endfacet
  facet normal 0.000000e+000 -1.000000e+000 0.000000e+000
    outer loop
      vertex   -1.274337e+001 -2.032000e+000 2.502059e+001
      vertex   -7.663407e+000 -2.032000e+000 2.526445e+001
      vertex   -1.279747e+001 -2.032000e+000 2.540925e+001
    endloop
  endfacet
  facet normal -0.000000e+000 -1.000000e+000 0.000000e+000
    outer loop
      vertex   -7.717597e+000 -2.032000e+000 2.577575e+001
      vertex   -7.793327e+000 -2.032000e+000 2.628431e+001
      vertex   -1.296965e+001 -2.032000e+000 2.617465e+001
    endloop
  endfacet
  facet normal 0.000000e+000 -1.000000e+000 0.000000e+000
    outer loop
      vertex   -1.296965e+001 -2.032000e+000 2.617465e+001
      vertex   -7.793327e+000 -2.032000e+000 2.628431e+001
      vertex   -1.308721e+001 -2.032000e+000 2.654904e+001
    endloop
  endfacet
  facet normal 0.000000e+000 -1.000000e+000 0.000000e+000
    outer loop
      vertex   -1.308721e+001 -2.032000e+000 2.654904e+001
      vertex   -7.793327e+000 -2.032000e+000 2.628431e+001
      vertex   -7.890463e+000 -2.032000e+000 2.678922e+001
    endloop
  endfacet
  facet normal 0.000000e+000 -1.000000e+000 0.000000e+000
    outer loop
      vertex   -1.322529e+001 -2.032000e+000 2.691636e+001
      vertex   -7.890463e+000 -2.032000e+000 2.678922e+001
      vertex   -1.338346e+001 -2.032000e+000 2.727549e+001
    endloop
  endfacet
  facet normal 0.000000e+000 -1.000000e+000 0.000000e+000
    outer loop
      vertex   -1.322529e+001 -2.032000e+000 2.691636e+001
      vertex   -1.308721e+001 -2.032000e+000 2.654904e+001
      vertex   -7.890463e+000 -2.032000e+000 2.678922e+001
    endloop
  endfacet
  facet normal -0.000000e+000 -1.000000e+000 0.000000e+000
    outer loop
      vertex   -7.890463e+000 -2.032000e+000 2.678922e+001
      vertex   -8.008831e+000 -2.032000e+000 2.728958e+001
      vertex   -1.338346e+001 -2.032000e+000 2.727549e+001
    endloop
  endfacet
  facet normal 0.000000e+000 -1.000000e+000 0.000000e+000
    outer loop
      vertex   -1.338346e+001 -2.032000e+000 2.727549e+001
      vertex   -8.008831e+000 -2.032000e+000 2.728958e+001
      vertex   -8.148221e+000 -2.032000e+000 2.778449e+001
    endloop
  endfacet
  facet normal 0.000000e+000 -1.000000e+000 -0.000000e+000
    outer loop
      vertex   -8.308382e+000 -2.032000e+000 2.827308e+001
      vertex   -1.338346e+001 -2.032000e+000 2.727549e+001
      vertex   -8.148221e+000 -2.032000e+000 2.778449e+001
    endloop
  endfacet
  facet normal -0.000000e+000 -1.000000e+000 0.000000e+000
    outer loop
      vertex   -8.308382e+000 -2.032000e+000 2.827308e+001
      vertex   -8.489031e+000 -2.032000e+000 2.875447e+001
      vertex   -1.338346e+001 -2.032000e+000 2.727549e+001
    endloop
  endfacet
  facet normal 0.000000e+000 -1.000000e+000 0.000000e+000
    outer loop
      vertex   -1.338346e+001 -2.032000e+000 2.727549e+001
      vertex   -8.489031e+000 -2.032000e+000 2.875447e+001
      vertex   -8.689844e+000 -2.032000e+000 2.922780e+001
    endloop
  endfacet
  facet normal 0.000000e+000 -1.000000e+000 -0.000000e+000
    outer loop
      vertex   -8.910464e+000 -2.032000e+000 2.969223e+001
      vertex   -1.338346e+001 -2.032000e+000 2.727549e+001
      vertex   -8.689844e+000 -2.032000e+000 2.922780e+001
    endloop
  endfacet
  facet normal -0.000000e+000 -1.000000e+000 0.000000e+000
    outer loop
      vertex   -8.910464e+000 -2.032000e+000 2.969223e+001
      vertex   -9.150496e+000 -2.032000e+000 3.014693e+001
      vertex   -1.338346e+001 -2.032000e+000 2.727549e+001
    endloop
  endfacet
  facet normal 0.000000e+000 -1.000000e+000 0.000000e+000
    outer loop
      vertex   -1.338346e+001 -2.032000e+000 2.727549e+001
      vertex   -9.150496e+000 -2.032000e+000 3.014693e+001
      vertex   -9.409514e+000 -2.032000e+000 3.059109e+001
    endloop
  endfacet
  facet normal 0.000000e+000 -1.000000e+000 -0.000000e+000
    outer loop
      vertex   -9.687054e+000 -2.032000e+000 3.102392e+001
      vertex   -1.338346e+001 -2.032000e+000 2.727549e+001
      vertex   -9.409514e+000 -2.032000e+000 3.059109e+001
    endloop
  endfacet
  facet normal -0.000000e+000 -1.000000e+000 0.000000e+000
    outer loop
      vertex   -9.687054e+000 -2.032000e+000 3.102392e+001
      vertex   -9.982622e+000 -2.032000e+000 3.144464e+001
      vertex   -1.338346e+001 -2.032000e+000 2.727549e+001
    endloop
  endfacet
  facet normal -0.000000e+000 -1.000000e+000 0.000000e+000
    outer loop
      vertex   -1.338346e+001 -2.032000e+000 2.727549e+001
      vertex   -9.982622e+000 -2.032000e+000 3.144464e+001
      vertex   -1.356126e+001 -2.032000e+000 2.762531e+001
    endloop
  endfacet
  facet normal -0.000000e+000 -1.000000e+000 0.000000e+000
    outer loop
      vertex   -1.356126e+001 -2.032000e+000 2.762531e+001
      vertex   -9.982622e+000 -2.032000e+000 3.144464e+001
      vertex   -1.375812e+001 -2.032000e+000 2.796478e+001
    endloop
  endfacet
  facet normal -0.000000e+000 -1.000000e+000 0.000000e+000
    outer loop
      vertex   -1.375812e+001 -2.032000e+000 2.796478e+001
      vertex   -9.982622e+000 -2.032000e+000 3.144464e+001
      vertex   -1.397344e+001 -2.032000e+000 2.829283e+001
    endloop
  endfacet
  facet normal -0.000000e+000 -1.000000e+000 0.000000e+000
    outer loop
      vertex   -1.397344e+001 -2.032000e+000 2.829283e+001
      vertex   -9.982622e+000 -2.032000e+000 3.144464e+001
      vertex   -1.420658e+001 -2.032000e+000 2.860849e+001
    endloop
  endfacet
  facet normal -0.000000e+000 -1.000000e+000 0.000000e+000
    outer loop
      vertex   -1.420658e+001 -2.032000e+000 2.860849e+001
      vertex   -9.982622e+000 -2.032000e+000 3.144464e+001
      vertex   -1.445681e+001 -2.032000e+000 2.891076e+001
    endloop
  endfacet
  facet normal -0.000000e+000 -1.000000e+000 0.000000e+000
    outer loop
      vertex   -1.445681e+001 -2.032000e+000 2.891076e+001
      vertex   -9.982622e+000 -2.032000e+000 3.144464e+001
      vertex   -1.472338e+001 -2.032000e+000 2.919875e+001
    endloop
  endfacet
  facet normal -0.000000e+000 -1.000000e+000 0.000000e+000
    outer loop
      vertex   -1.472338e+001 -2.032000e+000 2.919875e+001
      vertex   -9.982622e+000 -2.032000e+000 3.144464e+001
      vertex   -1.500545e+001 -2.032000e+000 2.947155e+001
    endloop
  endfacet
  facet normal -0.000000e+000 -1.000000e+000 0.000000e+000
    outer loop
      vertex   -1.500545e+001 -2.032000e+000 2.947155e+001
      vertex   -9.982622e+000 -2.032000e+000 3.144464e+001
      vertex   -1.530218e+001 -2.032000e+000 2.972834e+001
    endloop
  endfacet
  facet normal -0.000000e+000 -1.000000e+000 0.000000e+000
    outer loop
      vertex   -1.530218e+001 -2.032000e+000 2.972834e+001
      vertex   -9.982622e+000 -2.032000e+000 3.144464e+001
      vertex   -1.561266e+001 -2.032000e+000 2.996833e+001
    endloop
  endfacet
  facet normal -0.000000e+000 -1.000000e+000 0.000000e+000
    outer loop
      vertex   -1.561266e+001 -2.032000e+000 2.996833e+001
      vertex   -9.982622e+000 -2.032000e+000 3.144464e+001
      vertex   -1.593592e+001 -2.032000e+000 3.019078e+001
    endloop
  endfacet
  facet normal -0.000000e+000 -1.000000e+000 0.000000e+000
    outer loop
      vertex   -1.593592e+001 -2.032000e+000 3.019078e+001
      vertex   -9.982622e+000 -2.032000e+000 3.144464e+001
      vertex   -1.627100e+001 -2.032000e+000 3.039503e+001
    endloop
  endfacet
  facet normal -0.000000e+000 -1.000000e+000 0.000000e+000
    outer loop
      vertex   -1.627100e+001 -2.032000e+000 3.039503e+001
      vertex   -9.982622e+000 -2.032000e+000 3.144464e+001
      vertex   -1.661685e+001 -2.032000e+000 3.058043e+001
    endloop
  endfacet
  facet normal -0.000000e+000 -1.000000e+000 0.000000e+000
    outer loop
      vertex   -1.661685e+001 -2.032000e+000 3.058043e+001
      vertex   -9.982622e+000 -2.032000e+000 3.144464e+001
      vertex   -1.697242e+001 -2.032000e+000 3.074643e+001
    endloop
  endfacet
  facet normal -0.000000e+000 -1.000000e+000 0.000000e+000
    outer loop
      vertex   -1.697242e+001 -2.032000e+000 3.074643e+001
      vertex   -9.982622e+000 -2.032000e+000 3.144464e+001
      vertex   -1.733663e+001 -2.032000e+000 3.089251e+001
    endloop
  endfacet
  facet normal -0.000000e+000 -1.000000e+000 0.000000e+000
    outer loop
      vertex   -1.733663e+001 -2.032000e+000 3.089251e+001
      vertex   -9.982622e+000 -2.032000e+000 3.144464e+001
      vertex   -1.770836e+001 -2.032000e+000 3.101824e+001
    endloop
  endfacet
  facet normal -0.000000e+000 -1.000000e+000 0.000000e+000
    outer loop
      vertex   -1.770836e+001 -2.032000e+000 3.101824e+001
      vertex   -9.982622e+000 -2.032000e+000 3.144464e+001
      vertex   -1.808647e+001 -2.032000e+000 3.112322e+001
    endloop
  endfacet
  facet normal -0.000000e+000 -1.000000e+000 0.000000e+000
    outer loop
      vertex   -1.808647e+001 -2.032000e+000 3.112322e+001
      vertex   -9.982622e+000 -2.032000e+000 3.144464e+001
      vertex   -1.846981e+001 -2.032000e+000 3.120713e+001
    endloop
  endfacet
  facet normal -0.000000e+000 -1.000000e+000 0.000000e+000
    outer loop
      vertex   -1.846981e+001 -2.032000e+000 3.120713e+001
      vertex   -9.982622e+000 -2.032000e+000 3.144464e+001
      vertex   -1.885720e+001 -2.032000e+000 3.126972e+001
    endloop
  endfacet
  facet normal -0.000000e+000 -1.000000e+000 0.000000e+000
    outer loop
      vertex   -1.885720e+001 -2.032000e+000 3.126972e+001
      vertex   -9.982622e+000 -2.032000e+000 3.144464e+001
      vertex   -1.924746e+001 -2.032000e+000 3.131080e+001
    endloop
  endfacet
  facet normal -0.000000e+000 -1.000000e+000 0.000000e+000
    outer loop
      vertex   -1.924746e+001 -2.032000e+000 3.131080e+001
      vertex   -9.982622e+000 -2.032000e+000 3.144464e+001
      vertex   -1.963939e+001 -2.032000e+000 3.133023e+001
    endloop
  endfacet
  facet normal 0.000000e+000 -1.000000e+000 0.000000e+000
    outer loop
      vertex   -1.963939e+001 -2.032000e+000 3.133023e+001
      vertex   -9.982622e+000 -2.032000e+000 3.144464e+001
      vertex   -1.029569e+001 -2.032000e+000 3.185251e+001
    endloop
  endfacet
  facet normal 0.000000e+000 -1.000000e+000 -0.000000e+000
    outer loop
      vertex   -1.062570e+001 -2.032000e+000 3.224680e+001
      vertex   -1.963939e+001 -2.032000e+000 3.133023e+001
      vertex   -1.029569e+001 -2.032000e+000 3.185251e+001
    endloop
  endfacet
  facet normal -0.000000e+000 -1.000000e+000 0.000000e+000
    outer loop
      vertex   -1.062570e+001 -2.032000e+000 3.224680e+001
      vertex   -1.097207e+001 -2.032000e+000 3.262680e+001
      vertex   -1.963939e+001 -2.032000e+000 3.133023e+001
    endloop
  endfacet
  facet normal 0.000000e+000 -1.000000e+000 0.000000e+000
    outer loop
      vertex   -1.963939e+001 -2.032000e+000 3.133023e+001
      vertex   -1.097207e+001 -2.032000e+000 3.262680e+001
      vertex   -1.133417e+001 -2.032000e+000 3.299183e+001
    endloop
  endfacet
  facet normal 0.000000e+000 -1.000000e+000 -0.000000e+000
    outer loop
      vertex   -1.171136e+001 -2.032000e+000 3.334125e+001
      vertex   -1.963939e+001 -2.032000e+000 3.133023e+001
      vertex   -1.133417e+001 -2.032000e+000 3.299183e+001
    endloop
  endfacet
  facet normal -0.000000e+000 -1.000000e+000 0.000000e+000
    outer loop
      vertex   -1.171136e+001 -2.032000e+000 3.334125e+001
      vertex   -1.210297e+001 -2.032000e+000 3.367444e+001
      vertex   -1.963939e+001 -2.032000e+000 3.133023e+001
    endloop
  endfacet
  facet normal 0.000000e+000 -1.000000e+000 0.000000e+000
    outer loop
      vertex   -1.963939e+001 -2.032000e+000 3.133023e+001
      vertex   -1.210297e+001 -2.032000e+000 3.367444e+001
      vertex   -1.250829e+001 -2.032000e+000 3.399079e+001
    endloop
  endfacet
  facet normal 0.000000e+000 -1.000000e+000 -0.000000e+000
    outer loop
      vertex   -1.292662e+001 -2.032000e+000 3.428975e+001
      vertex   -1.963939e+001 -2.032000e+000 3.133023e+001
      vertex   -1.250829e+001 -2.032000e+000 3.399079e+001
    endloop
  endfacet
  facet normal -0.000000e+000 -1.000000e+000 0.000000e+000
    outer loop
      vertex   -1.292662e+001 -2.032000e+000 3.428975e+001
      vertex   -1.335719e+001 -2.032000e+000 3.457077e+001
      vertex   -1.963939e+001 -2.032000e+000 3.133023e+001
    endloop
  endfacet
  facet normal 0.000000e+000 -1.000000e+000 0.000000e+000
    outer loop
      vertex   -1.963939e+001 -2.032000e+000 3.133023e+001
      vertex   -1.335719e+001 -2.032000e+000 3.457077e+001
      vertex   -1.379924e+001 -2.032000e+000 3.483337e+001
    endloop
  endfacet
  facet normal 0.000000e+000 -1.000000e+000 -0.000000e+000
    outer loop
      vertex   -1.425199e+001 -2.032000e+000 3.507706e+001
      vertex   -1.963939e+001 -2.032000e+000 3.133023e+001
      vertex   -1.379924e+001 -2.032000e+000 3.483337e+001
    endloop
  endfacet
  facet normal -0.000000e+000 -1.000000e+000 0.000000e+000
    outer loop
      vertex   -1.425199e+001 -2.032000e+000 3.507706e+001
      vertex   -1.471463e+001 -2.032000e+000 3.530143e+001
      vertex   -1.963939e+001 -2.032000e+000 3.133023e+001
    endloop
  endfacet
  facet normal 0.000000e+000 -1.000000e+000 0.000000e+000
    outer loop
      vertex   -1.963939e+001 -2.032000e+000 3.133023e+001
      vertex   -1.471463e+001 -2.032000e+000 3.530143e+001
      vertex   -1.518632e+001 -2.032000e+000 3.550605e+001
    endloop
  endfacet
  facet normal 0.000000e+000 -1.000000e+000 -0.000000e+000
    outer loop
      vertex   -1.566623e+001 -2.032000e+000 3.569058e+001
      vertex   -1.963939e+001 -2.032000e+000 3.133023e+001
      vertex   -1.518632e+001 -2.032000e+000 3.550605e+001
    endloop
  endfacet
  facet normal -0.000000e+000 -1.000000e+000 0.000000e+000
    outer loop
      vertex   -1.566623e+001 -2.032000e+000 3.569058e+001
      vertex   -1.615351e+001 -2.032000e+000 3.585469e+001
      vertex   -1.963939e+001 -2.032000e+000 3.133023e+001
    endloop
  endfacet
  facet normal 0.000000e+000 -1.000000e+000 0.000000e+000
    outer loop
      vertex   -1.963939e+001 -2.032000e+000 3.133023e+001
      vertex   -1.615351e+001 -2.032000e+000 3.585469e+001
      vertex   -1.664728e+001 -2.032000e+000 3.599807e+001
    endloop
  endfacet
  facet normal 0.000000e+000 -1.000000e+000 -0.000000e+000
    outer loop
      vertex   -1.714667e+001 -2.032000e+000 3.612047e+001
      vertex   -1.963939e+001 -2.032000e+000 3.133023e+001
      vertex   -1.664728e+001 -2.032000e+000 3.599807e+001
    endloop
  endfacet
  facet normal -0.000000e+000 -1.000000e+000 0.000000e+000
    outer loop
      vertex   -1.714667e+001 -2.032000e+000 3.612047e+001
      vertex   -1.765078e+001 -2.032000e+000 3.622168e+001
      vertex   -1.963939e+001 -2.032000e+000 3.133023e+001
    endloop
  endfacet
  facet normal 0.000000e+000 -1.000000e+000 0.000000e+000
    outer loop
      vertex   -1.963939e+001 -2.032000e+000 3.133023e+001
      vertex   -1.765078e+001 -2.032000e+000 3.622168e+001
      vertex   -1.815871e+001 -2.032000e+000 3.630151e+001
    endloop
  endfacet
  facet normal 0.000000e+000 -1.000000e+000 -0.000000e+000
    outer loop
      vertex   -1.866956e+001 -2.032000e+000 3.635983e+001
      vertex   -1.963939e+001 -2.032000e+000 3.133023e+001
      vertex   -1.815871e+001 -2.032000e+000 3.630151e+001
    endloop
  endfacet
  facet normal -0.000000e+000 -1.000000e+000 0.000000e+000
    outer loop
      vertex   -1.866956e+001 -2.032000e+000 3.635983e+001
      vertex   -1.918242e+001 -2.032000e+000 3.639653e+001
      vertex   -1.963939e+001 -2.032000e+000 3.133023e+001
    endloop
  endfacet
  facet normal 0.000000e+000 -1.000000e+000 0.000000e+000
    outer loop
      vertex   -1.963939e+001 -2.032000e+000 3.133023e+001
      vertex   -1.918242e+001 -2.032000e+000 3.639653e+001
      vertex   -1.969637e+001 -2.032000e+000 3.641153e+001
    endloop
  endfacet
  facet normal -0.000000e+000 -1.000000e+000 0.000000e+000
    outer loop
      vertex   -2.003180e+001 -2.032000e+000 3.132797e+001
      vertex   -1.969637e+001 -2.032000e+000 3.641153e+001
      vertex   -2.021049e+001 -2.032000e+000 3.640483e+001
    endloop
  endfacet
  facet normal -0.000000e+000 -1.000000e+000 0.000000e+000
    outer loop
      vertex   -2.042348e+001 -2.032000e+000 3.130401e+001
      vertex   -2.021049e+001 -2.032000e+000 3.640483e+001
      vertex   -2.072387e+001 -2.032000e+000 3.637642e+001
    endloop
  endfacet
  facet normal -0.000000e+000 -1.000000e+000 0.000000e+000
    outer loop
      vertex   -2.081324e+001 -2.032000e+000 3.125843e+001
      vertex   -2.072387e+001 -2.032000e+000 3.637642e+001
      vertex   -2.123560e+001 -2.032000e+000 3.632636e+001
    endloop
  endfacet
  facet normal -0.000000e+000 -1.000000e+000 0.000000e+000
    outer loop
      vertex   -2.119988e+001 -2.032000e+000 3.119138e+001
      vertex   -2.123560e+001 -2.032000e+000 3.632636e+001
      vertex   -2.174475e+001 -2.032000e+000 3.625474e+001
    endloop
  endfacet
  facet normal -0.000000e+000 -1.000000e+000 0.000000e+000
    outer loop
      vertex   -2.158222e+001 -2.032000e+000 3.110305e+001
      vertex   -2.174475e+001 -2.032000e+000 3.625474e+001
      vertex   -2.225043e+001 -2.032000e+000 3.616168e+001
    endloop
  endfacet
  facet normal -0.000000e+000 -1.000000e+000 0.000000e+000
    outer loop
      vertex   -2.195910e+001 -2.032000e+000 3.099371e+001
      vertex   -2.225043e+001 -2.032000e+000 3.616168e+001
      vertex   -2.275173e+001 -2.032000e+000 3.604736e+001
    endloop
  endfacet
  facet normal -0.000000e+000 -1.000000e+000 0.000000e+000
    outer loop
      vertex   -2.232935e+001 -2.032000e+000 3.086370e+001
      vertex   -2.275173e+001 -2.032000e+000 3.604736e+001
      vertex   -2.324775e+001 -2.032000e+000 3.591197e+001
    endloop
  endfacet
  facet normal 0.000000e+000 -1.000000e+000 0.000000e+000
    outer loop
      vertex   -2.373761e+001 -2.032000e+000 3.575576e+001
      vertex   -2.232935e+001 -2.032000e+000 3.086370e+001
      vertex   -2.324775e+001 -2.032000e+000 3.591197e+001
    endloop
  endfacet
  facet normal 0.000000e+000 -1.000000e+000 -0.000000e+000
    outer loop
      vertex   -2.373761e+001 -2.032000e+000 3.575576e+001
      vertex   -2.422044e+001 -2.032000e+000 3.557900e+001
      vertex   -2.232935e+001 -2.032000e+000 3.086370e+001
    endloop
  endfacet
  facet normal -0.000000e+000 -1.000000e+000 0.000000e+000
    outer loop
      vertex   -2.232935e+001 -2.032000e+000 3.086370e+001
      vertex   -2.422044e+001 -2.032000e+000 3.557900e+001
      vertex   -2.469538e+001 -2.032000e+000 3.538202e+001
    endloop
  endfacet
  facet normal -0.000000e+000 -1.000000e+000 0.000000e+000
    outer loop
      vertex   -1.963939e+001 -2.032000e+000 3.133023e+001
      vertex   -1.969637e+001 -2.032000e+000 3.641153e+001
      vertex   -2.003180e+001 -2.032000e+000 3.132797e+001
    endloop
  endfacet
  facet normal -0.000000e+000 -1.000000e+000 0.000000e+000
    outer loop
      vertex   -2.003180e+001 -2.032000e+000 3.132797e+001
      vertex   -2.021049e+001 -2.032000e+000 3.640483e+001
      vertex   -2.042348e+001 -2.032000e+000 3.130401e+001
    endloop
  endfacet
  facet normal -0.000000e+000 -1.000000e+000 0.000000e+000
    outer loop
      vertex   -2.042348e+001 -2.032000e+000 3.130401e+001
      vertex   -2.072387e+001 -2.032000e+000 3.637642e+001
      vertex   -2.081324e+001 -2.032000e+000 3.125843e+001
    endloop
  endfacet
  facet normal -0.000000e+000 -1.000000e+000 -0.000000e+000
    outer loop
      vertex   -2.081324e+001 -2.032000e+000 3.125843e+001
      vertex   -2.123560e+001 -2.032000e+000 3.632636e+001
      vertex   -2.119988e+001 -2.032000e+000 3.119138e+001
    endloop
  endfacet
  facet normal -0.000000e+000 -1.000000e+000 -0.000000e+000
    outer loop
      vertex   -2.119988e+001 -2.032000e+000 3.119138e+001
      vertex   -2.174475e+001 -2.032000e+000 3.625474e+001
      vertex   -2.158222e+001 -2.032000e+000 3.110305e+001
    endloop
  endfacet
  facet normal -0.000000e+000 -1.000000e+000 -0.000000e+000
    outer loop
      vertex   -2.158222e+001 -2.032000e+000 3.110305e+001
      vertex   -2.225043e+001 -2.032000e+000 3.616168e+001
      vertex   -2.195910e+001 -2.032000e+000 3.099371e+001
    endloop
  endfacet
  facet normal -0.000000e+000 -1.000000e+000 -0.000000e+000
    outer loop
      vertex   -2.195910e+001 -2.032000e+000 3.099371e+001
      vertex   -2.275173e+001 -2.032000e+000 3.604736e+001
      vertex   -2.232935e+001 -2.032000e+000 3.086370e+001
    endloop
  endfacet
  facet normal 0.000000e+000 1.000000e+000 -0.000000e+000
    outer loop
      vertex   -7.619997e+000 0.000000e+000 0.000000e+000
      vertex   -1.270000e+001 0.000000e+000 0.000000e+000
      vertex   -1.290848e+000 0.000000e+000 3.121757e+000
    endloop
  endfacet
  facet normal 0.000000e+000 1.000000e+000 -0.000000e+000
    outer loop
      vertex   -1.290848e+000 0.000000e+000 3.121757e+000
      vertex   -1.270000e+001 0.000000e+000 0.000000e+000
      vertex   -7.619997e+000 0.000000e+000 2.423726e+001
    endloop
  endfacet
  facet normal 0.000000e+000 1.000000e+000 -0.000000e+000
    outer loop
      vertex   -7.619997e+000 0.000000e+000 2.423726e+001
      vertex   -1.270000e+001 0.000000e+000 0.000000e+000
      vertex   -1.270000e+001 0.000000e+000 2.423726e+001
    endloop
  endfacet
  facet normal 0.000000e+000 1.000000e+000 0.000000e+000
    outer loop
      vertex   -1.271085e+001 0.000000e+000 2.462952e+001
      vertex   -7.619997e+000 0.000000e+000 2.423726e+001
      vertex   -1.270000e+001 0.000000e+000 2.423726e+001
    endloop
  endfacet
  facet normal -0.000000e+000 1.000000e+000 0.000000e+000
    outer loop
      vertex   -1.271085e+001 0.000000e+000 2.462952e+001
      vertex   -7.630855e+000 0.000000e+000 2.475131e+001
      vertex   -7.619997e+000 0.000000e+000 2.423726e+001
    endloop
  endfacet
  facet normal -0.000000e+000 1.000000e+000 -0.000000e+000
    outer loop
      vertex   -1.271085e+001 0.000000e+000 2.462952e+001
      vertex   -1.274337e+001 0.000000e+000 2.502059e+001
      vertex   -7.630855e+000 0.000000e+000 2.475131e+001
    endloop
  endfacet
  facet normal 0.000000e+000 1.000000e+000 -0.000000e+000
    outer loop
      vertex   -7.630855e+000 0.000000e+000 2.475131e+001
      vertex   -1.274337e+001 0.000000e+000 2.502059e+001
      vertex   -7.663407e+000 0.000000e+000 2.526445e+001
    endloop
  endfacet
  facet normal 0.000000e+000 1.000000e+000 0.000000e+000
    outer loop
      vertex   -7.663407e+000 0.000000e+000 2.526445e+001
      vertex   -1.274337e+001 0.000000e+000 2.502059e+001
      vertex   -1.279747e+001 0.000000e+000 2.540925e+001
    endloop
  endfacet
  facet normal 0.000000e+000 1.000000e+000 0.000000e+000
    outer loop
      vertex   -7.717597e+000 0.000000e+000 2.577575e+001
      vertex   -1.279747e+001 0.000000e+000 2.540925e+001
      vertex   -1.287297e+001 0.000000e+000 2.579434e+001
    endloop
  endfacet
  facet normal 0.000000e+000 1.000000e+000 0.000000e+000
    outer loop
      vertex   -1.296965e+001 0.000000e+000 2.617465e+001
      vertex   -7.717597e+000 0.000000e+000 2.577575e+001
      vertex   -1.287297e+001 0.000000e+000 2.579434e+001
    endloop
  endfacet
  facet normal -0.000000e+000 1.000000e+000 0.000000e+000
    outer loop
      vertex   -1.296965e+001 0.000000e+000 2.617465e+001
      vertex   -7.793327e+000 0.000000e+000 2.628431e+001
      vertex   -7.717597e+000 0.000000e+000 2.577575e+001
    endloop
  endfacet
  facet normal -0.000000e+000 1.000000e+000 -0.000000e+000
    outer loop
      vertex   -1.296965e+001 0.000000e+000 2.617465e+001
      vertex   -1.308721e+001 0.000000e+000 2.654904e+001
      vertex   -7.793327e+000 0.000000e+000 2.628431e+001
    endloop
  endfacet
  facet normal 0.000000e+000 1.000000e+000 -0.000000e+000
    outer loop
      vertex   -7.793327e+000 0.000000e+000 2.628431e+001
      vertex   -1.308721e+001 0.000000e+000 2.654904e+001
      vertex   -7.890463e+000 0.000000e+000 2.678922e+001
    endloop
  endfacet
  facet normal 0.000000e+000 1.000000e+000 0.000000e+000
    outer loop
      vertex   -7.890463e+000 0.000000e+000 2.678922e+001
      vertex   -1.308721e+001 0.000000e+000 2.654904e+001
      vertex   -1.322529e+001 0.000000e+000 2.691636e+001
    endloop
  endfacet
  facet normal 0.000000e+000 1.000000e+000 0.000000e+000
    outer loop
      vertex   -1.338346e+001 0.000000e+000 2.727549e+001
      vertex   -7.890463e+000 0.000000e+000 2.678922e+001
      vertex   -1.322529e+001 0.000000e+000 2.691636e+001
    endloop
  endfacet
  facet normal -0.000000e+000 1.000000e+000 0.000000e+000
    outer loop
      vertex   -1.338346e+001 0.000000e+000 2.727549e+001
      vertex   -8.008831e+000 0.000000e+000 2.728958e+001
      vertex   -7.890463e+000 0.000000e+000 2.678922e+001
    endloop
  endfacet
  facet normal -0.000000e+000 1.000000e+000 0.000000e+000
    outer loop
      vertex   -1.338346e+001 0.000000e+000 2.727549e+001
      vertex   -8.148221e+000 0.000000e+000 2.778449e+001
      vertex   -8.008831e+000 0.000000e+000 2.728958e+001
    endloop
  endfacet
  facet normal -0.000000e+000 1.000000e+000 0.000000e+000
    outer loop
      vertex   -1.338346e+001 0.000000e+000 2.727549e+001
      vertex   -8.308382e+000 0.000000e+000 2.827308e+001
      vertex   -8.148221e+000 0.000000e+000 2.778449e+001
    endloop
  endfacet
  facet normal -0.000000e+000 1.000000e+000 0.000000e+000
    outer loop
      vertex   -1.338346e+001 0.000000e+000 2.727549e+001
      vertex   -8.489031e+000 0.000000e+000 2.875447e+001
      vertex   -8.308382e+000 0.000000e+000 2.827308e+001
    endloop
  endfacet
  facet normal -0.000000e+000 1.000000e+000 0.000000e+000
    outer loop
      vertex   -1.338346e+001 0.000000e+000 2.727549e+001
      vertex   -8.689844e+000 0.000000e+000 2.922780e+001
      vertex   -8.489031e+000 0.000000e+000 2.875447e+001
    endloop
  endfacet
  facet normal -0.000000e+000 1.000000e+000 0.000000e+000
    outer loop
      vertex   -1.338346e+001 0.000000e+000 2.727549e+001
      vertex   -8.910464e+000 0.000000e+000 2.969223e+001
      vertex   -8.689844e+000 0.000000e+000 2.922780e+001
    endloop
  endfacet
  facet normal -0.000000e+000 1.000000e+000 0.000000e+000
    outer loop
      vertex   -1.338346e+001 0.000000e+000 2.727549e+001
      vertex   -9.150496e+000 0.000000e+000 3.014693e+001
      vertex   -8.910464e+000 0.000000e+000 2.969223e+001
    endloop
  endfacet
  facet normal -0.000000e+000 1.000000e+000 0.000000e+000
    outer loop
      vertex   -1.338346e+001 0.000000e+000 2.727549e+001
      vertex   -9.409514e+000 0.000000e+000 3.059109e+001
      vertex   -9.150496e+000 0.000000e+000 3.014693e+001
    endloop
  endfacet
  facet normal -0.000000e+000 1.000000e+000 0.000000e+000
    outer loop
      vertex   -1.338346e+001 0.000000e+000 2.727549e+001
      vertex   -9.687054e+000 0.000000e+000 3.102392e+001
      vertex   -9.409514e+000 0.000000e+000 3.059109e+001
    endloop
  endfacet
  facet normal -0.000000e+000 1.000000e+000 0.000000e+000
    outer loop
      vertex   -1.338346e+001 0.000000e+000 2.727549e+001
      vertex   -9.982622e+000 0.000000e+000 3.144464e+001
      vertex   -9.687054e+000 0.000000e+000 3.102392e+001
    endloop
  endfacet
  facet normal 0.000000e+000 1.000000e+000 -0.000000e+000
    outer loop
      vertex   -1.338346e+001 0.000000e+000 2.727549e+001
      vertex   -1.356126e+001 0.000000e+000 2.762531e+001
      vertex   -9.982622e+000 0.000000e+000 3.144464e+001
    endloop
  endfacet
  facet normal 0.000000e+000 1.000000e+000 0.000000e+000
    outer loop
      vertex   -9.982622e+000 0.000000e+000 3.144464e+001
      vertex   -1.356126e+001 0.000000e+000 2.762531e+001
      vertex   -1.375812e+001 0.000000e+000 2.796478e+001
    endloop
  endfacet
  facet normal -0.000000e+000 1.000000e+000 0.000000e+000
    outer loop
      vertex   -1.397344e+001 0.000000e+000 2.829283e+001
      vertex   -9.982622e+000 0.000000e+000 3.144464e+001
      vertex   -1.375812e+001 0.000000e+000 2.796478e+001
    endloop
  endfacet
  facet normal 0.000000e+000 1.000000e+000 -0.000000e+000
    outer loop
      vertex   -1.397344e+001 0.000000e+000 2.829283e+001
      vertex   -1.420658e+001 0.000000e+000 2.860849e+001
      vertex   -9.982622e+000 0.000000e+000 3.144464e+001
    endloop
  endfacet
  facet normal 0.000000e+000 1.000000e+000 0.000000e+000
    outer loop
      vertex   -9.982622e+000 0.000000e+000 3.144464e+001
      vertex   -1.420658e+001 0.000000e+000 2.860849e+001
      vertex   -1.445681e+001 0.000000e+000 2.891076e+001
    endloop
  endfacet
  facet normal -0.000000e+000 1.000000e+000 0.000000e+000
    outer loop
      vertex   -1.472338e+001 0.000000e+000 2.919875e+001
      vertex   -9.982622e+000 0.000000e+000 3.144464e+001
      vertex   -1.445681e+001 0.000000e+000 2.891076e+001
    endloop
  endfacet
  facet normal 0.000000e+000 1.000000e+000 -0.000000e+000
    outer loop
      vertex   -1.472338e+001 0.000000e+000 2.919875e+001
      vertex   -1.500545e+001 0.000000e+000 2.947155e+001
      vertex   -9.982622e+000 0.000000e+000 3.144464e+001
    endloop
  endfacet
  facet normal 0.000000e+000 1.000000e+000 0.000000e+000
    outer loop
      vertex   -9.982622e+000 0.000000e+000 3.144464e+001
      vertex   -1.500545e+001 0.000000e+000 2.947155e+001
      vertex   -1.530218e+001 0.000000e+000 2.972834e+001
    endloop
  endfacet
  facet normal -0.000000e+000 1.000000e+000 0.000000e+000
    outer loop
      vertex   -1.561266e+001 0.000000e+000 2.996833e+001
      vertex   -9.982622e+000 0.000000e+000 3.144464e+001
      vertex   -1.530218e+001 0.000000e+000 2.972834e+001
    endloop
  endfacet
  facet normal 0.000000e+000 1.000000e+000 -0.000000e+000
    outer loop
      vertex   -1.561266e+001 0.000000e+000 2.996833e+001
      vertex   -1.593592e+001 0.000000e+000 3.019078e+001
      vertex   -9.982622e+000 0.000000e+000 3.144464e+001
    endloop
  endfacet
  facet normal 0.000000e+000 1.000000e+000 0.000000e+000
    outer loop
      vertex   -9.982622e+000 0.000000e+000 3.144464e+001
      vertex   -1.593592e+001 0.000000e+000 3.019078e+001
      vertex   -1.627100e+001 0.000000e+000 3.039503e+001
    endloop
  endfacet
  facet normal -0.000000e+000 1.000000e+000 0.000000e+000
    outer loop
      vertex   -1.661685e+001 0.000000e+000 3.058043e+001
      vertex   -9.982622e+000 0.000000e+000 3.144464e+001
      vertex   -1.627100e+001 0.000000e+000 3.039503e+001
    endloop
  endfacet
  facet normal 0.000000e+000 1.000000e+000 -0.000000e+000
    outer loop
      vertex   -1.661685e+001 0.000000e+000 3.058043e+001
      vertex   -1.697242e+001 0.000000e+000 3.074643e+001
      vertex   -9.982622e+000 0.000000e+000 3.144464e+001
    endloop
  endfacet
  facet normal 0.000000e+000 1.000000e+000 0.000000e+000
    outer loop
      vertex   -9.982622e+000 0.000000e+000 3.144464e+001
      vertex   -1.697242e+001 0.000000e+000 3.074643e+001
      vertex   -1.733663e+001 0.000000e+000 3.089251e+001
    endloop
  endfacet
  facet normal -0.000000e+000 1.000000e+000 0.000000e+000
    outer loop
      vertex   -1.770836e+001 0.000000e+000 3.101824e+001
      vertex   -9.982622e+000 0.000000e+000 3.144464e+001
      vertex   -1.733663e+001 0.000000e+000 3.089251e+001
    endloop
  endfacet
  facet normal 0.000000e+000 1.000000e+000 -0.000000e+000
    outer loop
      vertex   -1.770836e+001 0.000000e+000 3.101824e+001
      vertex   -1.808647e+001 0.000000e+000 3.112322e+001
      vertex   -9.982622e+000 0.000000e+000 3.144464e+001
    endloop
  endfacet
  facet normal 0.000000e+000 1.000000e+000 0.000000e+000
    outer loop
      vertex   -9.982622e+000 0.000000e+000 3.144464e+001
      vertex   -1.808647e+001 0.000000e+000 3.112322e+001
      vertex   -1.846981e+001 0.000000e+000 3.120713e+001
    endloop
  endfacet
  facet normal -0.000000e+000 1.000000e+000 0.000000e+000
    outer loop
      vertex   -1.885720e+001 0.000000e+000 3.126972e+001
      vertex   -9.982622e+000 0.000000e+000 3.144464e+001
      vertex   -1.846981e+001 0.000000e+000 3.120713e+001
    endloop
  endfacet
  facet normal 0.000000e+000 1.000000e+000 -0.000000e+000
    outer loop
      vertex   -1.885720e+001 0.000000e+000 3.126972e+001
      vertex   -1.924746e+001 0.000000e+000 3.131080e+001
      vertex   -9.982622e+000 0.000000e+000 3.144464e+001
    endloop
  endfacet
  facet normal 0.000000e+000 1.000000e+000 0.000000e+000
    outer loop
      vertex   -9.982622e+000 0.000000e+000 3.144464e+001
      vertex   -1.924746e+001 0.000000e+000 3.131080e+001
      vertex   -1.963939e+001 0.000000e+000 3.133023e+001
    endloop
  endfacet
  facet normal 0.000000e+000 1.000000e+000 -0.000000e+000
    outer loop
      vertex   -1.029569e+001 0.000000e+000 3.185251e+001
      vertex   -1.963939e+001 0.000000e+000 3.133023e+001
      vertex   -1.062570e+001 0.000000e+000 3.224680e+001
    endloop
  endfacet
  facet normal 0.000000e+000 1.000000e+000 0.000000e+000
    outer loop
      vertex   -1.029569e+001 0.000000e+000 3.185251e+001
      vertex   -9.982622e+000 0.000000e+000 3.144464e+001
      vertex   -1.963939e+001 0.000000e+000 3.133023e+001
    endloop
  endfacet
  facet normal 0.000000e+000 1.000000e+000 -0.000000e+000
    outer loop
      vertex   -7.663407e+000 0.000000e+000 2.526445e+001
      vertex   -1.279747e+001 0.000000e+000 2.540925e+001
      vertex   -7.717597e+000 0.000000e+000 2.577575e+001
    endloop
  endfacet
  facet normal -0.000000e+000 1.000000e+000 0.000000e+000
    outer loop
      vertex   -2.003180e+001 0.000000e+000 3.132797e+001
      vertex   -1.969637e+001 0.000000e+000 3.641153e+001
      vertex   -1.963939e+001 0.000000e+000 3.133023e+001
    endloop
  endfacet
  facet normal 0.000000e+000 1.000000e+000 -0.000000e+000
    outer loop
      vertex   -2.003180e+001 0.000000e+000 3.132797e+001
      vertex   -2.021049e+001 0.000000e+000 3.640483e+001
      vertex   -1.969637e+001 0.000000e+000 3.641153e+001
    endloop
  endfacet
  facet normal 0.000000e+000 1.000000e+000 -0.000000e+000
    outer loop
      vertex   -2.003180e+001 0.000000e+000 3.132797e+001
      vertex   -2.042348e+001 0.000000e+000 3.130401e+001
      vertex   -2.021049e+001 0.000000e+000 3.640483e+001
    endloop
  endfacet
  facet normal 0.000000e+000 1.000000e+000 0.000000e+000
    outer loop
      vertex   -2.021049e+001 0.000000e+000 3.640483e+001
      vertex   -2.042348e+001 0.000000e+000 3.130401e+001
      vertex   -2.072387e+001 0.000000e+000 3.637642e+001
    endloop
  endfacet
  facet normal 0.000000e+000 1.000000e+000 0.000000e+000
    outer loop
      vertex   -2.072387e+001 0.000000e+000 3.637642e+001
      vertex   -2.042348e+001 0.000000e+000 3.130401e+001
      vertex   -2.081324e+001 0.000000e+000 3.125843e+001
    endloop
  endfacet
  facet normal 0.000000e+000 1.000000e+000 0.000000e+000
    outer loop
      vertex   -2.123560e+001 0.000000e+000 3.632636e+001
      vertex   -2.081324e+001 0.000000e+000 3.125843e+001
      vertex   -2.119988e+001 0.000000e+000 3.119138e+001
    endloop
  endfacet
  facet normal 0.000000e+000 1.000000e+000 0.000000e+000
    outer loop
      vertex   -2.174475e+001 0.000000e+000 3.625474e+001
      vertex   -2.119988e+001 0.000000e+000 3.119138e+001
      vertex   -2.158222e+001 0.000000e+000 3.110305e+001
    endloop
  endfacet
  facet normal 0.000000e+000 1.000000e+000 0.000000e+000
    outer loop
      vertex   -2.225043e+001 0.000000e+000 3.616168e+001
      vertex   -2.158222e+001 0.000000e+000 3.110305e+001
      vertex   -2.195910e+001 0.000000e+000 3.099371e+001
    endloop
  endfacet
  facet normal 0.000000e+000 1.000000e+000 0.000000e+000
    outer loop
      vertex   -2.275173e+001 0.000000e+000 3.604736e+001
      vertex   -2.195910e+001 0.000000e+000 3.099371e+001
      vertex   -2.232935e+001 0.000000e+000 3.086370e+001
    endloop
  endfacet
  facet normal 0.000000e+000 1.000000e+000 0.000000e+000
    outer loop
      vertex   -2.324775e+001 0.000000e+000 3.591197e+001
      vertex   -2.232935e+001 0.000000e+000 3.086370e+001
      vertex   -2.373761e+001 0.000000e+000 3.575576e+001
    endloop
  endfacet
  facet normal -0.000000e+000 1.000000e+000 0.000000e+000
    outer loop
      vertex   -2.324775e+001 0.000000e+000 3.591197e+001
      vertex   -2.275173e+001 0.000000e+000 3.604736e+001
      vertex   -2.232935e+001 0.000000e+000 3.086370e+001
    endloop
  endfacet
  facet normal 0.000000e+000 1.000000e+000 0.000000e+000
    outer loop
      vertex   -2.072387e+001 0.000000e+000 3.637642e+001
      vertex   -2.081324e+001 0.000000e+000 3.125843e+001
      vertex   -2.123560e+001 0.000000e+000 3.632636e+001
    endloop
  endfacet
  facet normal 0.000000e+000 1.000000e+000 0.000000e+000
    outer loop
      vertex   -2.123560e+001 0.000000e+000 3.632636e+001
      vertex   -2.119988e+001 0.000000e+000 3.119138e+001
      vertex   -2.174475e+001 0.000000e+000 3.625474e+001
    endloop
  endfacet
  facet normal 0.000000e+000 1.000000e+000 0.000000e+000
    outer loop
      vertex   -2.174475e+001 0.000000e+000 3.625474e+001
      vertex   -2.158222e+001 0.000000e+000 3.110305e+001
      vertex   -2.225043e+001 0.000000e+000 3.616168e+001
    endloop
  endfacet
  facet normal 0.000000e+000 1.000000e+000 0.000000e+000
    outer loop
      vertex   -2.225043e+001 0.000000e+000 3.616168e+001
      vertex   -2.195910e+001 0.000000e+000 3.099371e+001
      vertex   -2.275173e+001 0.000000e+000 3.604736e+001
    endloop
  endfacet
  facet normal -0.000000e+000 1.000000e+000 0.000000e+000
    outer loop
      vertex   -2.469538e+001 0.000000e+000 3.538202e+001
      vertex   -2.422044e+001 0.000000e+000 3.557900e+001
      vertex   -2.232935e+001 0.000000e+000 3.086370e+001
    endloop
  endfacet
  facet normal 0.000000e+000 1.000000e+000 -0.000000e+000
    outer loop
      vertex   -2.232935e+001 0.000000e+000 3.086370e+001
      vertex   -2.422044e+001 0.000000e+000 3.557900e+001
      vertex   -2.373761e+001 0.000000e+000 3.575576e+001
    endloop
  endfacet
  facet normal 0.000000e+000 1.000000e+000 0.000000e+000
    outer loop
      vertex   -1.969637e+001 0.000000e+000 3.641153e+001
      vertex   -1.918242e+001 0.000000e+000 3.639653e+001
      vertex   -1.963939e+001 0.000000e+000 3.133023e+001
    endloop
  endfacet
  facet normal -0.000000e+000 1.000000e+000 0.000000e+000
    outer loop
      vertex   -1.963939e+001 0.000000e+000 3.133023e+001
      vertex   -1.918242e+001 0.000000e+000 3.639653e+001
      vertex   -1.866956e+001 0.000000e+000 3.635983e+001
    endloop
  endfacet
  facet normal 0.000000e+000 1.000000e+000 -0.000000e+000
    outer loop
      vertex   -1.815871e+001 0.000000e+000 3.630151e+001
      vertex   -1.963939e+001 0.000000e+000 3.133023e+001
      vertex   -1.866956e+001 0.000000e+000 3.635983e+001
    endloop
  endfacet
  facet normal 0.000000e+000 1.000000e+000 0.000000e+000
    outer loop
      vertex   -1.815871e+001 0.000000e+000 3.630151e+001
      vertex   -1.765078e+001 0.000000e+000 3.622168e+001
      vertex   -1.963939e+001 0.000000e+000 3.133023e+001
    endloop
  endfacet
  facet normal -0.000000e+000 1.000000e+000 0.000000e+000
    outer loop
      vertex   -1.963939e+001 0.000000e+000 3.133023e+001
      vertex   -1.765078e+001 0.000000e+000 3.622168e+001
      vertex   -1.714667e+001 0.000000e+000 3.612047e+001
    endloop
  endfacet
  facet normal 0.000000e+000 1.000000e+000 -0.000000e+000
    outer loop
      vertex   -1.664728e+001 0.000000e+000 3.599807e+001
      vertex   -1.963939e+001 0.000000e+000 3.133023e+001
      vertex   -1.714667e+001 0.000000e+000 3.612047e+001
    endloop
  endfacet
  facet normal 0.000000e+000 1.000000e+000 0.000000e+000
    outer loop
      vertex   -1.664728e+001 0.000000e+000 3.599807e+001
      vertex   -1.615351e+001 0.000000e+000 3.585469e+001
      vertex   -1.963939e+001 0.000000e+000 3.133023e+001
    endloop
  endfacet
  facet normal -0.000000e+000 1.000000e+000 0.000000e+000
    outer loop
      vertex   -1.963939e+001 0.000000e+000 3.133023e+001
      vertex   -1.615351e+001 0.000000e+000 3.585469e+001
      vertex   -1.566623e+001 0.000000e+000 3.569058e+001
    endloop
  endfacet
  facet normal 0.000000e+000 1.000000e+000 -0.000000e+000
    outer loop
      vertex   -1.518632e+001 0.000000e+000 3.550605e+001
      vertex   -1.963939e+001 0.000000e+000 3.133023e+001
      vertex   -1.566623e+001 0.000000e+000 3.569058e+001
    endloop
  endfacet
  facet normal 0.000000e+000 1.000000e+000 0.000000e+000
    outer loop
      vertex   -1.518632e+001 0.000000e+000 3.550605e+001
      vertex   -1.471463e+001 0.000000e+000 3.530143e+001
      vertex   -1.963939e+001 0.000000e+000 3.133023e+001
    endloop
  endfacet
  facet normal -0.000000e+000 1.000000e+000 0.000000e+000
    outer loop
      vertex   -1.963939e+001 0.000000e+000 3.133023e+001
      vertex   -1.471463e+001 0.000000e+000 3.530143e+001
      vertex   -1.425199e+001 0.000000e+000 3.507706e+001
    endloop
  endfacet
  facet normal 0.000000e+000 1.000000e+000 -0.000000e+000
    outer loop
      vertex   -1.379924e+001 0.000000e+000 3.483337e+001
      vertex   -1.963939e+001 0.000000e+000 3.133023e+001
      vertex   -1.425199e+001 0.000000e+000 3.507706e+001
    endloop
  endfacet
  facet normal 0.000000e+000 1.000000e+000 0.000000e+000
    outer loop
      vertex   -1.379924e+001 0.000000e+000 3.483337e+001
      vertex   -1.335719e+001 0.000000e+000 3.457077e+001
      vertex   -1.963939e+001 0.000000e+000 3.133023e+001
    endloop
  endfacet
  facet normal -0.000000e+000 1.000000e+000 0.000000e+000
    outer loop
      vertex   -1.963939e+001 0.000000e+000 3.133023e+001
      vertex   -1.335719e+001 0.000000e+000 3.457077e+001
      vertex   -1.292662e+001 0.000000e+000 3.428975e+001
    endloop
  endfacet
  facet normal 0.000000e+000 1.000000e+000 -0.000000e+000
    outer loop
      vertex   -1.250829e+001 0.000000e+000 3.399079e+001
      vertex   -1.963939e+001 0.000000e+000 3.133023e+001
      vertex   -1.292662e+001 0.000000e+000 3.428975e+001
    endloop
  endfacet
  facet normal 0.000000e+000 1.000000e+000 0.000000e+000
    outer loop
      vertex   -1.250829e+001 0.000000e+000 3.399079e+001
      vertex   -1.210297e+001 0.000000e+000 3.367444e+001
      vertex   -1.963939e+001 0.000000e+000 3.133023e+001
    endloop
  endfacet
  facet normal -0.000000e+000 1.000000e+000 0.000000e+000
    outer loop
      vertex   -1.963939e+001 0.000000e+000 3.133023e+001
      vertex   -1.210297e+001 0.000000e+000 3.367444e+001
      vertex   -1.171136e+001 0.000000e+000 3.334125e+001
    endloop
  endfacet
  facet normal 0.000000e+000 1.000000e+000 -0.000000e+000
    outer loop
      vertex   -1.133417e+001 0.000000e+000 3.299183e+001
      vertex   -1.963939e+001 0.000000e+000 3.133023e+001
      vertex   -1.171136e+001 0.000000e+000 3.334125e+001
    endloop
  endfacet
  facet normal 0.000000e+000 1.000000e+000 0.000000e+000
    outer loop
      vertex   -1.133417e+001 0.000000e+000 3.299183e+001
      vertex   -1.097207e+001 0.000000e+000 3.262680e+001
      vertex   -1.963939e+001 0.000000e+000 3.133023e+001
    endloop
  endfacet
  facet normal -0.000000e+000 1.000000e+000 0.000000e+000
    outer loop
      vertex   -1.963939e+001 0.000000e+000 3.133023e+001
      vertex   -1.097207e+001 0.000000e+000 3.262680e+001
      vertex   -1.062570e+001 0.000000e+000 3.224680e+001
    endloop
  endfacet
endsolid
