solid ascii
  facet normal 9.531025e-001 0.000000e+000 3.026477e-001
    outer loop
      vertex   -3.220076e+000 0.000000e+000 4.061467e+000
      vertex   -1.016000e+001 0.000000e+000 2.591677e+001
      vertex   -3.220076e+000 -2.032000e+000 4.061467e+000
    endloop
  endfacet
  facet normal 9.531025e-001 0.000000e+000 3.026477e-001
    outer loop
      vertex   -3.220076e+000 -2.032000e+000 4.061467e+000
      vertex   -1.016000e+001 0.000000e+000 2.591677e+001
      vertex   -1.016000e+001 -2.032000e+000 2.591677e+001
    endloop
  endfacet
  facet normal 5.050934e-001 0.000000e+000 -8.630647e-001
    outer loop
      vertex   -1.016000e+001 0.000000e+000 0.000000e+000
      vertex   -3.220076e+000 0.000000e+000 4.061467e+000
      vertex   -1.016000e+001 -2.032000e+000 0.000000e+000
    endloop
  endfacet
  facet normal 5.050934e-001 0.000000e+000 -8.630647e-001
    outer loop
      vertex   -1.016000e+001 -2.032000e+000 0.000000e+000
      vertex   -3.220076e+000 0.000000e+000 4.061467e+000
      vertex   -3.220076e+000 -2.032000e+000 4.061467e+000
    endloop
  endfacet
  facet normal 0.000000e+000 -0.000000e+000 -1.000000e+000
    outer loop
      vertex   -1.270000e+001 0.000000e+000 0.000000e+000
      vertex   -1.016000e+001 0.000000e+000 0.000000e+000
      vertex   -1.270000e+001 -2.032000e+000 0.000000e+000
    endloop
  endfacet
  facet normal 0.000000e+000 0.000000e+000 -1.000000e+000
    outer loop
      vertex   -1.270000e+001 -2.032000e+000 0.000000e+000
      vertex   -1.016000e+001 0.000000e+000 0.000000e+000
      vertex   -1.016000e+001 -2.032000e+000 0.000000e+000
    endloop
  endfacet
  facet normal -1.000000e+000 -0.000000e+000 -0.000000e+000
    outer loop
      vertex   -1.270000e+001 0.000000e+000 2.540000e+001
      vertex   -1.270000e+001 0.000000e+000 0.000000e+000
      vertex   -1.270000e+001 -2.032000e+000 2.540000e+001
    endloop
  endfacet
  facet normal -1.000000e+000 -0.000000e+000 -0.000000e+000
    outer loop
      vertex   -1.270000e+001 -2.032000e+000 2.540000e+001
      vertex   -1.270000e+001 0.000000e+000 0.000000e+000
      vertex   -1.270000e+001 -2.032000e+000 0.000000e+000
    endloop
  endfacet
  facet normal -9.205049e-001 0.000000e+000 -3.907311e-001
    outer loop
      vertex   -1.280917e+001 0.000000e+000 2.565719e+001
      vertex   -1.270000e+001 0.000000e+000 2.540000e+001
      vertex   -1.280917e+001 -2.032000e+000 2.565719e+001
    endloop
  endfacet
  facet normal -9.205049e-001 -0.000000e+000 -3.907311e-001
    outer loop
      vertex   -1.280917e+001 -2.032000e+000 2.565719e+001
      vertex   -1.270000e+001 0.000000e+000 2.540000e+001
      vertex   -1.270000e+001 -2.032000e+000 2.540000e+001
    endloop
  endfacet
  facet normal 3.672868e-001 0.000000e+000 -9.301077e-001
    outer loop
      vertex   -2.379995e+001 0.000000e+000 3.009775e+001
      vertex   -2.340495e+001 0.000000e+000 3.025373e+001
      vertex   -2.379995e+001 -2.032000e+000 3.009775e+001
    endloop
  endfacet
  facet normal 3.672868e-001 -1.626184e-015 -9.301077e-001
    outer loop
      vertex   -2.379995e+001 -2.032000e+000 3.009775e+001
      vertex   -2.340495e+001 0.000000e+000 3.025373e+001
      vertex   -2.340495e+001 -2.032000e+000 3.025373e+001
    endloop
  endfacet
  facet normal 3.197063e-001 -1.656622e-015 -9.475167e-001
    outer loop
      vertex   -2.340495e+001 -2.032000e+000 3.025373e+001
      vertex   -2.340495e+001 0.000000e+000 3.025373e+001
      vertex   -2.300256e+001 0.000000e+000 3.038950e+001
    endloop
  endfacet
  facet normal 2.713050e-001 0.000000e+000 -9.624934e-001
    outer loop
      vertex   -2.300256e+001 -2.032000e+000 3.038950e+001
      vertex   -2.300256e+001 0.000000e+000 3.038950e+001
      vertex   -2.259381e+001 0.000000e+000 3.050472e+001
    endloop
  endfacet
  facet normal 2.222073e-001 0.000000e+000 -9.749995e-001
    outer loop
      vertex   -2.259381e+001 -2.032000e+000 3.050472e+001
      vertex   -2.259381e+001 0.000000e+000 3.050472e+001
      vertex   -2.217975e+001 0.000000e+000 3.059909e+001
    endloop
  endfacet
  facet normal 1.725392e-001 0.000000e+000 -9.850027e-001
    outer loop
      vertex   -2.217975e+001 -2.032000e+000 3.059909e+001
      vertex   -2.217975e+001 0.000000e+000 3.059909e+001
      vertex   -2.176144e+001 0.000000e+000 3.067236e+001
    endloop
  endfacet
  facet normal 1.224281e-001 0.000000e+000 -9.924774e-001
    outer loop
      vertex   -2.176144e+001 -2.032000e+000 3.067236e+001
      vertex   -2.176144e+001 0.000000e+000 3.067236e+001
      vertex   -2.133996e+001 0.000000e+000 3.072435e+001
    endloop
  endfacet
  facet normal 7.200285e-002 0.000000e+000 -9.974044e-001
    outer loop
      vertex   -2.133996e+001 -2.032000e+000 3.072435e+001
      vertex   -2.133996e+001 0.000000e+000 3.072435e+001
      vertex   -2.091639e+001 0.000000e+000 3.075493e+001
    endloop
  endfacet
  facet normal 2.139273e-002 3.740267e-017 -9.997711e-001
    outer loop
      vertex   -2.091639e+001 -2.032000e+000 3.075493e+001
      vertex   -2.091639e+001 0.000000e+000 3.075493e+001
      vertex   -2.049181e+001 0.000000e+000 3.076402e+001
    endloop
  endfacet
  facet normal -2.927231e-002 0.000000e+000 -9.995715e-001
    outer loop
      vertex   -2.049181e+001 -2.032000e+000 3.076402e+001
      vertex   -2.049181e+001 0.000000e+000 3.076402e+001
      vertex   -2.006731e+001 0.000000e+000 3.075158e+001
    endloop
  endfacet
  facet normal -7.986220e-002 0.000000e+000 -9.968059e-001
    outer loop
      vertex   -2.006731e+001 -2.032000e+000 3.075158e+001
      vertex   -2.006731e+001 0.000000e+000 3.075158e+001
      vertex   -1.964399e+001 -2.032000e+000 3.071767e+001
    endloop
  endfacet
  facet normal -2.927231e-002 0.000000e+000 -9.995715e-001
    outer loop
      vertex   -2.006731e+001 -2.032000e+000 3.075158e+001
      vertex   -2.049181e+001 -2.032000e+000 3.076402e+001
      vertex   -2.006731e+001 0.000000e+000 3.075158e+001
    endloop
  endfacet
  facet normal 3.197063e-001 0.000000e+000 -9.475167e-001
    outer loop
      vertex   -2.340495e+001 -2.032000e+000 3.025373e+001
      vertex   -2.300256e+001 0.000000e+000 3.038950e+001
      vertex   -2.300256e+001 -2.032000e+000 3.038950e+001
    endloop
  endfacet
  facet normal 2.713050e-001 0.000000e+000 -9.624934e-001
    outer loop
      vertex   -2.300256e+001 -2.032000e+000 3.038950e+001
      vertex   -2.259381e+001 0.000000e+000 3.050472e+001
      vertex   -2.259381e+001 -2.032000e+000 3.050472e+001
    endloop
  endfacet
  facet normal 2.222073e-001 0.000000e+000 -9.749995e-001
    outer loop
      vertex   -2.259381e+001 -2.032000e+000 3.050472e+001
      vertex   -2.217975e+001 0.000000e+000 3.059909e+001
      vertex   -2.217975e+001 -2.032000e+000 3.059909e+001
    endloop
  endfacet
  facet normal 1.725392e-001 0.000000e+000 -9.850027e-001
    outer loop
      vertex   -2.217975e+001 -2.032000e+000 3.059909e+001
      vertex   -2.176144e+001 0.000000e+000 3.067236e+001
      vertex   -2.176144e+001 -2.032000e+000 3.067236e+001
    endloop
  endfacet
  facet normal 1.224281e-001 0.000000e+000 -9.924774e-001
    outer loop
      vertex   -2.176144e+001 -2.032000e+000 3.067236e+001
      vertex   -2.133996e+001 0.000000e+000 3.072435e+001
      vertex   -2.133996e+001 -2.032000e+000 3.072435e+001
    endloop
  endfacet
  facet normal 7.200285e-002 1.258885e-016 -9.974044e-001
    outer loop
      vertex   -2.133996e+001 -2.032000e+000 3.072435e+001
      vertex   -2.091639e+001 0.000000e+000 3.075493e+001
      vertex   -2.091639e+001 -2.032000e+000 3.075493e+001
    endloop
  endfacet
  facet normal 2.139273e-002 0.000000e+000 -9.997711e-001
    outer loop
      vertex   -2.091639e+001 -2.032000e+000 3.075493e+001
      vertex   -2.049181e+001 0.000000e+000 3.076402e+001
      vertex   -2.049181e+001 -2.032000e+000 3.076402e+001
    endloop
  endfacet
  facet normal -7.986220e-002 -1.396297e-016 -9.968059e-001
    outer loop
      vertex   -2.006731e+001 0.000000e+000 3.075158e+001
      vertex   -1.964399e+001 0.000000e+000 3.071767e+001
      vertex   -1.964399e+001 -2.032000e+000 3.071767e+001
    endloop
  endfacet
  facet normal -1.302471e-001 -2.277218e-016 -9.914816e-001
    outer loop
      vertex   -1.964399e+001 -2.032000e+000 3.071767e+001
      vertex   -1.964399e+001 0.000000e+000 3.071767e+001
      vertex   -1.922293e+001 -2.032000e+000 3.066236e+001
    endloop
  endfacet
  facet normal -1.302471e-001 0.000000e+000 -9.914816e-001
    outer loop
      vertex   -1.922293e+001 -2.032000e+000 3.066236e+001
      vertex   -1.964399e+001 0.000000e+000 3.071767e+001
      vertex   -1.922293e+001 0.000000e+000 3.066236e+001
    endloop
  endfacet
  facet normal -1.802976e-001 0.000000e+000 -9.836121e-001
    outer loop
      vertex   -1.880521e+001 0.000000e+000 3.058579e+001
      vertex   -1.922293e+001 -2.032000e+000 3.066236e+001
      vertex   -1.922293e+001 0.000000e+000 3.066236e+001
    endloop
  endfacet
  facet normal -1.802976e-001 -0.000000e+000 -9.836121e-001
    outer loop
      vertex   -1.880521e+001 0.000000e+000 3.058579e+001
      vertex   -1.880521e+001 -2.032000e+000 3.058579e+001
      vertex   -1.922293e+001 -2.032000e+000 3.066236e+001
    endloop
  endfacet
  facet normal -2.298854e-001 0.000000e+000 -9.732177e-001
    outer loop
      vertex   -1.880521e+001 0.000000e+000 3.058579e+001
      vertex   -1.839191e+001 0.000000e+000 3.048816e+001
      vertex   -1.880521e+001 -2.032000e+000 3.058579e+001
    endloop
  endfacet
  facet normal -2.298854e-001 -0.000000e+000 -9.732177e-001
    outer loop
      vertex   -1.880521e+001 -2.032000e+000 3.058579e+001
      vertex   -1.839191e+001 0.000000e+000 3.048816e+001
      vertex   -1.839191e+001 -2.032000e+000 3.048816e+001
    endloop
  endfacet
  facet normal -2.788830e-001 0.000000e+000 -9.603251e-001
    outer loop
      vertex   -1.839191e+001 -2.032000e+000 3.048816e+001
      vertex   -1.839191e+001 0.000000e+000 3.048816e+001
      vertex   -1.798408e+001 0.000000e+000 3.036972e+001
    endloop
  endfacet
  facet normal -3.271647e-001 0.000000e+000 -9.449673e-001
    outer loop
      vertex   -1.798408e+001 -2.032000e+000 3.036972e+001
      vertex   -1.798408e+001 0.000000e+000 3.036972e+001
      vertex   -1.758277e+001 0.000000e+000 3.023079e+001
    endloop
  endfacet
  facet normal -3.746066e-001 0.000000e+000 -9.271839e-001
    outer loop
      vertex   -1.758277e+001 -2.032000e+000 3.023079e+001
      vertex   -1.758277e+001 0.000000e+000 3.023079e+001
      vertex   -1.718902e+001 0.000000e+000 3.007170e+001
    endloop
  endfacet
  facet normal -4.210869e-001 -7.362210e-016 -9.070203e-001
    outer loop
      vertex   -1.718902e+001 -2.032000e+000 3.007170e+001
      vertex   -1.718902e+001 0.000000e+000 3.007170e+001
      vertex   -1.680383e+001 0.000000e+000 2.989287e+001
    endloop
  endfacet
  facet normal -4.664862e-001 0.000000e+000 -8.845285e-001
    outer loop
      vertex   -1.680383e+001 -2.032000e+000 2.989287e+001
      vertex   -1.680383e+001 0.000000e+000 2.989287e+001
      vertex   -1.642819e+001 0.000000e+000 2.969477e+001
    endloop
  endfacet
  facet normal -5.106881e-001 0.000000e+000 -8.597660e-001
    outer loop
      vertex   -1.642819e+001 -2.032000e+000 2.969477e+001
      vertex   -1.642819e+001 0.000000e+000 2.969477e+001
      vertex   -1.606306e+001 0.000000e+000 2.947789e+001
    endloop
  endfacet
  facet normal -5.535791e-001 0.000000e+000 -8.327966e-001
    outer loop
      vertex   -1.606306e+001 -2.032000e+000 2.947789e+001
      vertex   -1.606306e+001 0.000000e+000 2.947789e+001
      vertex   -1.570939e+001 0.000000e+000 2.924280e+001
    endloop
  endfacet
  facet normal -5.950491e-001 -5.201867e-016 -8.036894e-001
    outer loop
      vertex   -1.570939e+001 -2.032000e+000 2.924280e+001
      vertex   -1.570939e+001 0.000000e+000 2.924280e+001
      vertex   -1.536808e+001 0.000000e+000 2.899009e+001
    endloop
  endfacet
  facet normal -6.349915e-001 0.000000e+000 -7.725191e-001
    outer loop
      vertex   -1.536808e+001 -2.032000e+000 2.899009e+001
      vertex   -1.536808e+001 0.000000e+000 2.899009e+001
      vertex   -1.504001e+001 0.000000e+000 2.872042e+001
    endloop
  endfacet
  facet normal -6.733040e-001 0.000000e+000 -7.393658e-001
    outer loop
      vertex   -1.504001e+001 -2.032000e+000 2.872042e+001
      vertex   -1.504001e+001 0.000000e+000 2.872042e+001
      vertex   -1.472602e+001 0.000000e+000 2.843449e+001
    endloop
  endfacet
  facet normal -7.098880e-001 0.000000e+000 -7.043145e-001
    outer loop
      vertex   -1.472602e+001 -2.032000e+000 2.843449e+001
      vertex   -1.472602e+001 0.000000e+000 2.843449e+001
      vertex   -1.442691e+001 0.000000e+000 2.813301e+001
    endloop
  endfacet
  facet normal -7.446498e-001 0.000000e+000 -6.674553e-001
    outer loop
      vertex   -1.442691e+001 -2.032000e+000 2.813301e+001
      vertex   -1.442691e+001 0.000000e+000 2.813301e+001
      vertex   -1.414346e+001 0.000000e+000 2.781678e+001
    endloop
  endfacet
  facet normal -7.775002e-001 0.000000e+000 -6.288828e-001
    outer loop
      vertex   -1.414346e+001 -2.032000e+000 2.781678e+001
      vertex   -1.414346e+001 0.000000e+000 2.781678e+001
      vertex   -1.387639e+001 0.000000e+000 2.748659e+001
    endloop
  endfacet
  facet normal -8.083546e-001 -1.413313e-015 -5.886958e-001
    outer loop
      vertex   -1.387639e+001 -2.032000e+000 2.748659e+001
      vertex   -1.387639e+001 0.000000e+000 2.748659e+001
      vertex   -1.362638e+001 0.000000e+000 2.714330e+001
    endloop
  endfacet
  facet normal -8.371341e-001 0.000000e+000 -5.469978e-001
    outer loop
      vertex   -1.362638e+001 -2.032000e+000 2.714330e+001
      vertex   -1.362638e+001 0.000000e+000 2.714330e+001
      vertex   -1.339408e+001 0.000000e+000 2.678779e+001
    endloop
  endfacet
  facet normal -8.637646e-001 0.000000e+000 -5.038956e-001
    outer loop
      vertex   -1.339408e+001 -2.032000e+000 2.678779e+001
      vertex   -1.339408e+001 0.000000e+000 2.678779e+001
      vertex   -1.318009e+001 0.000000e+000 2.642097e+001
    endloop
  endfacet
  facet normal -8.881778e-001 0.000000e+000 -4.594999e-001
    outer loop
      vertex   -1.318009e+001 -2.032000e+000 2.642097e+001
      vertex   -1.318009e+001 0.000000e+000 2.642097e+001
      vertex   -1.298495e+001 0.000000e+000 2.604378e+001
    endloop
  endfacet
  facet normal -9.103112e-001 -1.519485e-015 -4.139246e-001
    outer loop
      vertex   -1.298495e+001 -2.032000e+000 2.604378e+001
      vertex   -1.298495e+001 0.000000e+000 2.604378e+001
      vertex   -1.280917e+001 0.000000e+000 2.565719e+001
    endloop
  endfacet
  facet normal -9.103112e-001 0.000000e+000 -4.139246e-001
    outer loop
      vertex   -1.280917e+001 -2.032000e+000 2.565719e+001
      vertex   -1.298495e+001 -2.032000e+000 2.604378e+001
      vertex   -1.280917e+001 0.000000e+000 2.565719e+001
    endloop
  endfacet
  facet normal -2.788830e-001 -0.000000e+000 -9.603251e-001
    outer loop
      vertex   -1.839191e+001 -2.032000e+000 3.048816e+001
      vertex   -1.798408e+001 0.000000e+000 3.036972e+001
      vertex   -1.798408e+001 -2.032000e+000 3.036972e+001
    endloop
  endfacet
  facet normal -3.271647e-001 -0.000000e+000 -9.449673e-001
    outer loop
      vertex   -1.798408e+001 -2.032000e+000 3.036972e+001
      vertex   -1.758277e+001 0.000000e+000 3.023079e+001
      vertex   -1.758277e+001 -2.032000e+000 3.023079e+001
    endloop
  endfacet
  facet normal -3.746066e-001 -6.549557e-016 -9.271839e-001
    outer loop
      vertex   -1.758277e+001 -2.032000e+000 3.023079e+001
      vertex   -1.718902e+001 0.000000e+000 3.007170e+001
      vertex   -1.718902e+001 -2.032000e+000 3.007170e+001
    endloop
  endfacet
  facet normal -4.210869e-001 -0.000000e+000 -9.070203e-001
    outer loop
      vertex   -1.718902e+001 -2.032000e+000 3.007170e+001
      vertex   -1.680383e+001 0.000000e+000 2.989287e+001
      vertex   -1.680383e+001 -2.032000e+000 2.989287e+001
    endloop
  endfacet
  facet normal -4.664862e-001 -0.000000e+000 -8.845285e-001
    outer loop
      vertex   -1.680383e+001 -2.032000e+000 2.989287e+001
      vertex   -1.642819e+001 0.000000e+000 2.969477e+001
      vertex   -1.642819e+001 -2.032000e+000 2.969477e+001
    endloop
  endfacet
  facet normal -5.106881e-001 -0.000000e+000 -8.597660e-001
    outer loop
      vertex   -1.642819e+001 -2.032000e+000 2.969477e+001
      vertex   -1.606306e+001 0.000000e+000 2.947789e+001
      vertex   -1.606306e+001 -2.032000e+000 2.947789e+001
    endloop
  endfacet
  facet normal -5.535791e-001 -4.839341e-016 -8.327966e-001
    outer loop
      vertex   -1.606306e+001 -2.032000e+000 2.947789e+001
      vertex   -1.570939e+001 0.000000e+000 2.924280e+001
      vertex   -1.570939e+001 -2.032000e+000 2.924280e+001
    endloop
  endfacet
  facet normal -5.950491e-001 -0.000000e+000 -8.036894e-001
    outer loop
      vertex   -1.570939e+001 -2.032000e+000 2.924280e+001
      vertex   -1.536808e+001 0.000000e+000 2.899009e+001
      vertex   -1.536808e+001 -2.032000e+000 2.899009e+001
    endloop
  endfacet
  facet normal -6.349915e-001 -0.000000e+000 -7.725191e-001
    outer loop
      vertex   -1.536808e+001 -2.032000e+000 2.899009e+001
      vertex   -1.504001e+001 0.000000e+000 2.872042e+001
      vertex   -1.504001e+001 -2.032000e+000 2.872042e+001
    endloop
  endfacet
  facet normal -6.733040e-001 -0.000000e+000 -7.393658e-001
    outer loop
      vertex   -1.504001e+001 -2.032000e+000 2.872042e+001
      vertex   -1.472602e+001 0.000000e+000 2.843449e+001
      vertex   -1.472602e+001 -2.032000e+000 2.843449e+001
    endloop
  endfacet
  facet normal -7.098880e-001 -0.000000e+000 -7.043145e-001
    outer loop
      vertex   -1.472602e+001 -2.032000e+000 2.843449e+001
      vertex   -1.442691e+001 0.000000e+000 2.813301e+001
      vertex   -1.442691e+001 -2.032000e+000 2.813301e+001
    endloop
  endfacet
  facet normal -7.446498e-001 -0.000000e+000 -6.674553e-001
    outer loop
      vertex   -1.442691e+001 -2.032000e+000 2.813301e+001
      vertex   -1.414346e+001 0.000000e+000 2.781678e+001
      vertex   -1.414346e+001 -2.032000e+000 2.781678e+001
    endloop
  endfacet
  facet normal -7.775002e-001 -1.359368e-015 -6.288828e-001
    outer loop
      vertex   -1.414346e+001 -2.032000e+000 2.781678e+001
      vertex   -1.387639e+001 0.000000e+000 2.748659e+001
      vertex   -1.387639e+001 -2.032000e+000 2.748659e+001
    endloop
  endfacet
  facet normal -8.083546e-001 -0.000000e+000 -5.886958e-001
    outer loop
      vertex   -1.387639e+001 -2.032000e+000 2.748659e+001
      vertex   -1.362638e+001 0.000000e+000 2.714330e+001
      vertex   -1.362638e+001 -2.032000e+000 2.714330e+001
    endloop
  endfacet
  facet normal -8.371341e-001 -0.000000e+000 -5.469978e-001
    outer loop
      vertex   -1.362638e+001 -2.032000e+000 2.714330e+001
      vertex   -1.339408e+001 0.000000e+000 2.678779e+001
      vertex   -1.339408e+001 -2.032000e+000 2.678779e+001
    endloop
  endfacet
  facet normal -8.637646e-001 -0.000000e+000 -5.038956e-001
    outer loop
      vertex   -1.339408e+001 -2.032000e+000 2.678779e+001
      vertex   -1.318009e+001 0.000000e+000 2.642097e+001
      vertex   -1.318009e+001 -2.032000e+000 2.642097e+001
    endloop
  endfacet
  facet normal -8.881778e-001 -1.579819e-015 -4.594999e-001
    outer loop
      vertex   -1.318009e+001 -2.032000e+000 2.642097e+001
      vertex   -1.298495e+001 0.000000e+000 2.604378e+001
      vertex   -1.298495e+001 -2.032000e+000 2.604378e+001
    endloop
  endfacet
  facet normal 3.907311e-001 0.000000e+000 -9.205049e-001
    outer loop
      vertex   -2.777469e+001 0.000000e+000 2.841058e+001
      vertex   -2.379995e+001 0.000000e+000 3.009775e+001
      vertex   -2.777469e+001 -2.032000e+000 2.841058e+001
    endloop
  endfacet
  facet normal 3.907311e-001 0.000000e+000 -9.205049e-001
    outer loop
      vertex   -2.777469e+001 -2.032000e+000 2.841058e+001
      vertex   -2.379995e+001 0.000000e+000 3.009775e+001
      vertex   -2.379995e+001 -2.032000e+000 3.009775e+001
    endloop
  endfacet
  facet normal -9.205049e-001 0.000000e+000 -3.907311e-001
    outer loop
      vertex   -2.876714e+001 0.000000e+000 3.074866e+001
      vertex   -2.777469e+001 0.000000e+000 2.841058e+001
      vertex   -2.876714e+001 -2.032000e+000 3.074866e+001
    endloop
  endfacet
  facet normal -9.205049e-001 -0.000000e+000 -3.907311e-001
    outer loop
      vertex   -2.876714e+001 -2.032000e+000 3.074866e+001
      vertex   -2.777469e+001 0.000000e+000 2.841058e+001
      vertex   -2.777469e+001 -2.032000e+000 2.841058e+001
    endloop
  endfacet
  facet normal -3.907311e-001 0.000000e+000 9.205049e-001
    outer loop
      vertex   -2.479240e+001 0.000000e+000 3.243583e+001
      vertex   -2.876714e+001 0.000000e+000 3.074866e+001
      vertex   -2.479240e+001 -2.032000e+000 3.243583e+001
    endloop
  endfacet
  facet normal -3.907311e-001 0.000000e+000 9.205049e-001
    outer loop
      vertex   -2.479240e+001 -2.032000e+000 3.243583e+001
      vertex   -2.876714e+001 0.000000e+000 3.074866e+001
      vertex   -2.876714e+001 -2.032000e+000 3.074866e+001
    endloop
  endfacet
  facet normal 9.115059e-001 -0.000000e+000 4.112871e-001
    outer loop
      vertex   -1.047109e+001 -2.032000e+000 2.664965e+001
      vertex   -1.047109e+001 0.000000e+000 2.664965e+001
      vertex   -1.067267e+001 -2.032000e+000 2.709641e+001
    endloop
  endfacet
  facet normal 9.115059e-001 0.000000e+000 4.112871e-001
    outer loop
      vertex   -1.067267e+001 -2.032000e+000 2.709641e+001
      vertex   -1.047109e+001 0.000000e+000 2.664965e+001
      vertex   -1.067267e+001 0.000000e+000 2.709641e+001
    endloop
  endfacet
  facet normal 8.921357e-001 -0.000000e+000 4.517675e-001
    outer loop
      vertex   -1.089410e+001 0.000000e+000 2.753368e+001
      vertex   -1.067267e+001 -2.032000e+000 2.709641e+001
      vertex   -1.067267e+001 0.000000e+000 2.709641e+001
    endloop
  endfacet
  facet normal 8.921357e-001 0.000000e+000 4.517675e-001
    outer loop
      vertex   -1.089410e+001 0.000000e+000 2.753368e+001
      vertex   -1.089410e+001 -2.032000e+000 2.753368e+001
      vertex   -1.067267e+001 -2.032000e+000 2.709641e+001
    endloop
  endfacet
  facet normal 8.709689e-001 0.000000e+000 4.913381e-001
    outer loop
      vertex   -1.089410e+001 0.000000e+000 2.753368e+001
      vertex   -1.113492e+001 0.000000e+000 2.796057e+001
      vertex   -1.089410e+001 -2.032000e+000 2.753368e+001
    endloop
  endfacet
  facet normal 8.709689e-001 0.000000e+000 4.913381e-001
    outer loop
      vertex   -1.089410e+001 -2.032000e+000 2.753368e+001
      vertex   -1.113492e+001 0.000000e+000 2.796057e+001
      vertex   -1.113492e+001 -2.032000e+000 2.796057e+001
    endloop
  endfacet
  facet normal 8.480481e-001 -0.000000e+000 5.299193e-001
    outer loop
      vertex   -1.113492e+001 -2.032000e+000 2.796057e+001
      vertex   -1.113492e+001 0.000000e+000 2.796057e+001
      vertex   -1.139466e+001 0.000000e+000 2.837623e+001
    endloop
  endfacet
  facet normal 8.234194e-001 -0.000000e+000 5.674332e-001
    outer loop
      vertex   -1.139466e+001 -2.032000e+000 2.837623e+001
      vertex   -1.139466e+001 0.000000e+000 2.837623e+001
      vertex   -1.167278e+001 0.000000e+000 2.877982e+001
    endloop
  endfacet
  facet normal 7.971325e-001 -0.000000e+000 6.038044e-001
    outer loop
      vertex   -1.167278e+001 -2.032000e+000 2.877982e+001
      vertex   -1.167278e+001 0.000000e+000 2.877982e+001
      vertex   -1.196872e+001 0.000000e+000 2.917052e+001
    endloop
  endfacet
  facet normal 7.692403e-001 -0.000000e+000 6.389596e-001
    outer loop
      vertex   -1.196872e+001 -2.032000e+000 2.917052e+001
      vertex   -1.196872e+001 0.000000e+000 2.917052e+001
      vertex   -1.228190e+001 0.000000e+000 2.954756e+001
    endloop
  endfacet
  facet normal 7.397989e-001 -0.000000e+000 6.728281e-001
    outer loop
      vertex   -1.228190e+001 -2.032000e+000 2.954756e+001
      vertex   -1.228190e+001 0.000000e+000 2.954756e+001
      vertex   -1.261168e+001 0.000000e+000 2.991016e+001
    endloop
  endfacet
  facet normal 7.088676e-001 -0.000000e+000 7.053415e-001
    outer loop
      vertex   -1.261168e+001 -2.032000e+000 2.991016e+001
      vertex   -1.261168e+001 0.000000e+000 2.991016e+001
      vertex   -1.295739e+001 0.000000e+000 3.025760e+001
    endloop
  endfacet
  facet normal 6.765088e-001 -0.000000e+000 7.364345e-001
    outer loop
      vertex   -1.295739e+001 -2.032000e+000 3.025760e+001
      vertex   -1.295739e+001 0.000000e+000 3.025760e+001
      vertex   -1.331835e+001 0.000000e+000 3.058918e+001
    endloop
  endfacet
  facet normal 6.427876e-001 -0.000000e+000 7.660444e-001
    outer loop
      vertex   -1.331835e+001 -2.032000e+000 3.058918e+001
      vertex   -1.331835e+001 0.000000e+000 3.058918e+001
      vertex   -1.369381e+001 0.000000e+000 3.090424e+001
    endloop
  endfacet
  facet normal 6.077719e-001 -0.000000e+000 7.941116e-001
    outer loop
      vertex   -1.369381e+001 -2.032000e+000 3.090424e+001
      vertex   -1.369381e+001 0.000000e+000 3.090424e+001
      vertex   -1.408304e+001 0.000000e+000 3.120213e+001
    endloop
  endfacet
  facet normal 5.715322e-001 -0.000000e+000 8.205796e-001
    outer loop
      vertex   -1.408304e+001 -2.032000e+000 3.120213e+001
      vertex   -1.408304e+001 0.000000e+000 3.120213e+001
      vertex   -1.448523e+001 0.000000e+000 3.148226e+001
    endloop
  endfacet
  facet normal 5.341416e-001 -0.000000e+000 8.453950e-001
    outer loop
      vertex   -1.448523e+001 -2.032000e+000 3.148226e+001
      vertex   -1.448523e+001 0.000000e+000 3.148226e+001
      vertex   -1.489959e+001 0.000000e+000 3.174406e+001
    endloop
  endfacet
  facet normal 4.956752e-001 -0.000000e+000 8.685080e-001
    outer loop
      vertex   -1.489959e+001 -2.032000e+000 3.174406e+001
      vertex   -1.489959e+001 0.000000e+000 3.174406e+001
      vertex   -1.532528e+001 0.000000e+000 3.198701e+001
    endloop
  endfacet
  facet normal 4.562107e-001 -0.000000e+000 8.898718e-001
    outer loop
      vertex   -1.532528e+001 -2.032000e+000 3.198701e+001
      vertex   -1.532528e+001 0.000000e+000 3.198701e+001
      vertex   -1.576144e+001 0.000000e+000 3.221062e+001
    endloop
  endfacet
  facet normal 4.158273e-001 -0.000000e+000 9.094436e-001
    outer loop
      vertex   -1.576144e+001 -2.032000e+000 3.221062e+001
      vertex   -1.576144e+001 0.000000e+000 3.221062e+001
      vertex   -1.620719e+001 0.000000e+000 3.241443e+001
    endloop
  endfacet
  facet normal 3.746066e-001 -0.000000e+000 9.271839e-001
    outer loop
      vertex   -1.620719e+001 -2.032000e+000 3.241443e+001
      vertex   -1.620719e+001 0.000000e+000 3.241443e+001
      vertex   -1.666164e+001 0.000000e+000 3.259804e+001
    endloop
  endfacet
  facet normal 3.326314e-001 -0.000000e+000 9.430569e-001
    outer loop
      vertex   -1.666164e+001 -2.032000e+000 3.259804e+001
      vertex   -1.666164e+001 0.000000e+000 3.259804e+001
      vertex   -1.712387e+001 0.000000e+000 3.276107e+001
    endloop
  endfacet
  facet normal 2.899864e-001 -0.000000e+000 9.570308e-001
    outer loop
      vertex   -1.712387e+001 -2.032000e+000 3.276107e+001
      vertex   -1.712387e+001 0.000000e+000 3.276107e+001
      vertex   -1.759294e+001 0.000000e+000 3.290321e+001
    endloop
  endfacet
  facet normal 2.467574e-001 -0.000000e+000 9.690773e-001
    outer loop
      vertex   -1.759294e+001 -2.032000e+000 3.290321e+001
      vertex   -1.759294e+001 0.000000e+000 3.290321e+001
      vertex   -1.806792e+001 0.000000e+000 3.302415e+001
    endloop
  endfacet
  facet normal 2.030314e-001 -0.000000e+000 9.791722e-001
    outer loop
      vertex   -1.806792e+001 -2.032000e+000 3.302415e+001
      vertex   -1.806792e+001 0.000000e+000 3.302415e+001
      vertex   -1.854785e+001 0.000000e+000 3.312366e+001
    endloop
  endfacet
  facet normal 1.588966e-001 -0.000000e+000 9.872952e-001
    outer loop
      vertex   -1.854785e+001 -2.032000e+000 3.312366e+001
      vertex   -1.854785e+001 0.000000e+000 3.312366e+001
      vertex   -1.903176e+001 0.000000e+000 3.320154e+001
    endloop
  endfacet
  facet normal 1.144418e-001 -0.000000e+000 9.934300e-001
    outer loop
      vertex   -1.903176e+001 -2.032000e+000 3.320154e+001
      vertex   -1.903176e+001 0.000000e+000 3.320154e+001
      vertex   -1.951868e+001 0.000000e+000 3.325764e+001
    endloop
  endfacet
  facet normal 6.975647e-002 -0.000000e+000 9.975641e-001
    outer loop
      vertex   -1.951868e+001 -2.032000e+000 3.325764e+001
      vertex   -1.951868e+001 0.000000e+000 3.325764e+001
      vertex   -2.000762e+001 0.000000e+000 3.329183e+001
    endloop
  endfacet
  facet normal 2.493069e-002 -0.000000e+000 9.996892e-001
    outer loop
      vertex   -2.000762e+001 -2.032000e+000 3.329183e+001
      vertex   -2.000762e+001 0.000000e+000 3.329183e+001
      vertex   -2.049761e+001 0.000000e+000 3.330405e+001
    endloop
  endfacet
  facet normal -1.994530e-002 0.000000e+000 9.998011e-001
    outer loop
      vertex   -2.049761e+001 -2.032000e+000 3.330405e+001
      vertex   -2.049761e+001 0.000000e+000 3.330405e+001
      vertex   -2.098765e+001 0.000000e+000 3.329427e+001
    endloop
  endfacet
  facet normal -6.478112e-002 0.000000e+000 9.978995e-001
    outer loop
      vertex   -2.098765e+001 -2.032000e+000 3.329427e+001
      vertex   -2.098765e+001 0.000000e+000 3.329427e+001
      vertex   -2.147675e+001 0.000000e+000 3.326252e+001
    endloop
  endfacet
  facet normal -1.094865e-001 0.000000e+000 9.939883e-001
    outer loop
      vertex   -2.147675e+001 -2.032000e+000 3.326252e+001
      vertex   -2.147675e+001 0.000000e+000 3.326252e+001
      vertex   -2.196394e+001 0.000000e+000 3.320886e+001
    endloop
  endfacet
  facet normal -1.539714e-001 0.000000e+000 9.880753e-001
    outer loop
      vertex   -2.196394e+001 -2.032000e+000 3.320886e+001
      vertex   -2.196394e+001 0.000000e+000 3.320886e+001
      vertex   -2.244824e+001 0.000000e+000 3.313339e+001
    endloop
  endfacet
  facet normal -1.981461e-001 0.000000e+000 9.801725e-001
    outer loop
      vertex   -2.244824e+001 -2.032000e+000 3.313339e+001
      vertex   -2.244824e+001 0.000000e+000 3.313339e+001
      vertex   -2.292866e+001 0.000000e+000 3.303627e+001
    endloop
  endfacet
  facet normal -2.419219e-001 0.000000e+000 9.702957e-001
    outer loop
      vertex   -2.292866e+001 -2.032000e+000 3.303627e+001
      vertex   -2.292866e+001 0.000000e+000 3.303627e+001
      vertex   -2.340423e+001 0.000000e+000 3.291770e+001
    endloop
  endfacet
  facet normal -2.852104e-001 0.000000e+000 9.584649e-001
    outer loop
      vertex   -2.340423e+001 -2.032000e+000 3.291770e+001
      vertex   -2.340423e+001 0.000000e+000 3.291770e+001
      vertex   -2.387401e+001 0.000000e+000 3.277790e+001
    endloop
  endfacet
  facet normal -3.279246e-001 0.000000e+000 9.447039e-001
    outer loop
      vertex   -2.387401e+001 -2.032000e+000 3.277790e+001
      vertex   -2.387401e+001 0.000000e+000 3.277790e+001
      vertex   -2.433705e+001 0.000000e+000 3.261717e+001
    endloop
  endfacet
  facet normal -3.699784e-001 0.000000e+000 9.290404e-001
    outer loop
      vertex   -2.433705e+001 -2.032000e+000 3.261717e+001
      vertex   -2.433705e+001 0.000000e+000 3.261717e+001
      vertex   -2.479240e+001 0.000000e+000 3.243583e+001
    endloop
  endfacet
  facet normal -3.699784e-001 0.000000e+000 9.290404e-001
    outer loop
      vertex   -2.479240e+001 -2.032000e+000 3.243583e+001
      vertex   -2.433705e+001 -2.032000e+000 3.261717e+001
      vertex   -2.479240e+001 0.000000e+000 3.243583e+001
    endloop
  endfacet
  facet normal 8.480481e-001 0.000000e+000 5.299193e-001
    outer loop
      vertex   -1.113492e+001 -2.032000e+000 2.796057e+001
      vertex   -1.139466e+001 0.000000e+000 2.837623e+001
      vertex   -1.139466e+001 -2.032000e+000 2.837623e+001
    endloop
  endfacet
  facet normal 8.234194e-001 0.000000e+000 5.674332e-001
    outer loop
      vertex   -1.139466e+001 -2.032000e+000 2.837623e+001
      vertex   -1.167278e+001 0.000000e+000 2.877982e+001
      vertex   -1.167278e+001 -2.032000e+000 2.877982e+001
    endloop
  endfacet
  facet normal 7.971325e-001 0.000000e+000 6.038044e-001
    outer loop
      vertex   -1.167278e+001 -2.032000e+000 2.877982e+001
      vertex   -1.196872e+001 0.000000e+000 2.917052e+001
      vertex   -1.196872e+001 -2.032000e+000 2.917052e+001
    endloop
  endfacet
  facet normal 7.692403e-001 0.000000e+000 6.389596e-001
    outer loop
      vertex   -1.196872e+001 -2.032000e+000 2.917052e+001
      vertex   -1.228190e+001 0.000000e+000 2.954756e+001
      vertex   -1.228190e+001 -2.032000e+000 2.954756e+001
    endloop
  endfacet
  facet normal 7.397989e-001 0.000000e+000 6.728281e-001
    outer loop
      vertex   -1.228190e+001 -2.032000e+000 2.954756e+001
      vertex   -1.261168e+001 0.000000e+000 2.991016e+001
      vertex   -1.261168e+001 -2.032000e+000 2.991016e+001
    endloop
  endfacet
  facet normal 7.088676e-001 0.000000e+000 7.053415e-001
    outer loop
      vertex   -1.261168e+001 -2.032000e+000 2.991016e+001
      vertex   -1.295739e+001 0.000000e+000 3.025760e+001
      vertex   -1.295739e+001 -2.032000e+000 3.025760e+001
    endloop
  endfacet
  facet normal 6.765088e-001 0.000000e+000 7.364345e-001
    outer loop
      vertex   -1.295739e+001 -2.032000e+000 3.025760e+001
      vertex   -1.331835e+001 0.000000e+000 3.058918e+001
      vertex   -1.331835e+001 -2.032000e+000 3.058918e+001
    endloop
  endfacet
  facet normal 6.427876e-001 0.000000e+000 7.660444e-001
    outer loop
      vertex   -1.331835e+001 -2.032000e+000 3.058918e+001
      vertex   -1.369381e+001 0.000000e+000 3.090424e+001
      vertex   -1.369381e+001 -2.032000e+000 3.090424e+001
    endloop
  endfacet
  facet normal 6.077719e-001 0.000000e+000 7.941116e-001
    outer loop
      vertex   -1.369381e+001 -2.032000e+000 3.090424e+001
      vertex   -1.408304e+001 0.000000e+000 3.120213e+001
      vertex   -1.408304e+001 -2.032000e+000 3.120213e+001
    endloop
  endfacet
  facet normal 5.715322e-001 0.000000e+000 8.205796e-001
    outer loop
      vertex   -1.408304e+001 -2.032000e+000 3.120213e+001
      vertex   -1.448523e+001 0.000000e+000 3.148226e+001
      vertex   -1.448523e+001 -2.032000e+000 3.148226e+001
    endloop
  endfacet
  facet normal 5.341416e-001 0.000000e+000 8.453950e-001
    outer loop
      vertex   -1.448523e+001 -2.032000e+000 3.148226e+001
      vertex   -1.489959e+001 0.000000e+000 3.174406e+001
      vertex   -1.489959e+001 -2.032000e+000 3.174406e+001
    endloop
  endfacet
  facet normal 4.956752e-001 0.000000e+000 8.685080e-001
    outer loop
      vertex   -1.489959e+001 -2.032000e+000 3.174406e+001
      vertex   -1.532528e+001 0.000000e+000 3.198701e+001
      vertex   -1.532528e+001 -2.032000e+000 3.198701e+001
    endloop
  endfacet
  facet normal 4.562107e-001 0.000000e+000 8.898718e-001
    outer loop
      vertex   -1.532528e+001 -2.032000e+000 3.198701e+001
      vertex   -1.576144e+001 0.000000e+000 3.221062e+001
      vertex   -1.576144e+001 -2.032000e+000 3.221062e+001
    endloop
  endfacet
  facet normal 4.158273e-001 0.000000e+000 9.094436e-001
    outer loop
      vertex   -1.576144e+001 -2.032000e+000 3.221062e+001
      vertex   -1.620719e+001 0.000000e+000 3.241443e+001
      vertex   -1.620719e+001 -2.032000e+000 3.241443e+001
    endloop
  endfacet
  facet normal 3.746066e-001 0.000000e+000 9.271839e-001
    outer loop
      vertex   -1.620719e+001 -2.032000e+000 3.241443e+001
      vertex   -1.666164e+001 0.000000e+000 3.259804e+001
      vertex   -1.666164e+001 -2.032000e+000 3.259804e+001
    endloop
  endfacet
  facet normal 3.326314e-001 0.000000e+000 9.430569e-001
    outer loop
      vertex   -1.666164e+001 -2.032000e+000 3.259804e+001
      vertex   -1.712387e+001 0.000000e+000 3.276107e+001
      vertex   -1.712387e+001 -2.032000e+000 3.276107e+001
    endloop
  endfacet
  facet normal 2.899864e-001 0.000000e+000 9.570308e-001
    outer loop
      vertex   -1.712387e+001 -2.032000e+000 3.276107e+001
      vertex   -1.759294e+001 0.000000e+000 3.290321e+001
      vertex   -1.759294e+001 -2.032000e+000 3.290321e+001
    endloop
  endfacet
  facet normal 2.467574e-001 0.000000e+000 9.690773e-001
    outer loop
      vertex   -1.759294e+001 -2.032000e+000 3.290321e+001
      vertex   -1.806792e+001 0.000000e+000 3.302415e+001
      vertex   -1.806792e+001 -2.032000e+000 3.302415e+001
    endloop
  endfacet
  facet normal 2.030314e-001 0.000000e+000 9.791722e-001
    outer loop
      vertex   -1.806792e+001 -2.032000e+000 3.302415e+001
      vertex   -1.854785e+001 0.000000e+000 3.312366e+001
      vertex   -1.854785e+001 -2.032000e+000 3.312366e+001
    endloop
  endfacet
  facet normal 1.588966e-001 0.000000e+000 9.872952e-001
    outer loop
      vertex   -1.854785e+001 -2.032000e+000 3.312366e+001
      vertex   -1.903176e+001 0.000000e+000 3.320154e+001
      vertex   -1.903176e+001 -2.032000e+000 3.320154e+001
    endloop
  endfacet
  facet normal 1.144418e-001 0.000000e+000 9.934300e-001
    outer loop
      vertex   -1.903176e+001 -2.032000e+000 3.320154e+001
      vertex   -1.951868e+001 0.000000e+000 3.325764e+001
      vertex   -1.951868e+001 -2.032000e+000 3.325764e+001
    endloop
  endfacet
  facet normal 6.975647e-002 0.000000e+000 9.975641e-001
    outer loop
      vertex   -1.951868e+001 -2.032000e+000 3.325764e+001
      vertex   -2.000762e+001 0.000000e+000 3.329183e+001
      vertex   -2.000762e+001 -2.032000e+000 3.329183e+001
    endloop
  endfacet
  facet normal 2.493069e-002 0.000000e+000 9.996892e-001
    outer loop
      vertex   -2.000762e+001 -2.032000e+000 3.329183e+001
      vertex   -2.049761e+001 0.000000e+000 3.330405e+001
      vertex   -2.049761e+001 -2.032000e+000 3.330405e+001
    endloop
  endfacet
  facet normal -1.994530e-002 0.000000e+000 9.998011e-001
    outer loop
      vertex   -2.049761e+001 -2.032000e+000 3.330405e+001
      vertex   -2.098765e+001 0.000000e+000 3.329427e+001
      vertex   -2.098765e+001 -2.032000e+000 3.329427e+001
    endloop
  endfacet
  facet normal -6.478112e-002 0.000000e+000 9.978995e-001
    outer loop
      vertex   -2.098765e+001 -2.032000e+000 3.329427e+001
      vertex   -2.147675e+001 0.000000e+000 3.326252e+001
      vertex   -2.147675e+001 -2.032000e+000 3.326252e+001
    endloop
  endfacet
  facet normal -1.094865e-001 0.000000e+000 9.939883e-001
    outer loop
      vertex   -2.147675e+001 -2.032000e+000 3.326252e+001
      vertex   -2.196394e+001 0.000000e+000 3.320886e+001
      vertex   -2.196394e+001 -2.032000e+000 3.320886e+001
    endloop
  endfacet
  facet normal -1.539714e-001 0.000000e+000 9.880753e-001
    outer loop
      vertex   -2.196394e+001 -2.032000e+000 3.320886e+001
      vertex   -2.244824e+001 0.000000e+000 3.313339e+001
      vertex   -2.244824e+001 -2.032000e+000 3.313339e+001
    endloop
  endfacet
  facet normal -1.981461e-001 0.000000e+000 9.801725e-001
    outer loop
      vertex   -2.244824e+001 -2.032000e+000 3.313339e+001
      vertex   -2.292866e+001 0.000000e+000 3.303627e+001
      vertex   -2.292866e+001 -2.032000e+000 3.303627e+001
    endloop
  endfacet
  facet normal -2.419219e-001 0.000000e+000 9.702957e-001
    outer loop
      vertex   -2.292866e+001 -2.032000e+000 3.303627e+001
      vertex   -2.340423e+001 0.000000e+000 3.291770e+001
      vertex   -2.340423e+001 -2.032000e+000 3.291770e+001
    endloop
  endfacet
  facet normal -2.852104e-001 0.000000e+000 9.584649e-001
    outer loop
      vertex   -2.340423e+001 -2.032000e+000 3.291770e+001
      vertex   -2.387401e+001 0.000000e+000 3.277790e+001
      vertex   -2.387401e+001 -2.032000e+000 3.277790e+001
    endloop
  endfacet
  facet normal -3.279246e-001 0.000000e+000 9.447039e-001
    outer loop
      vertex   -2.387401e+001 -2.032000e+000 3.277790e+001
      vertex   -2.433705e+001 0.000000e+000 3.261717e+001
      vertex   -2.433705e+001 -2.032000e+000 3.261717e+001
    endloop
  endfacet
  facet normal 9.205049e-001 0.000000e+000 3.907311e-001
    outer loop
      vertex   -1.016000e+001 0.000000e+000 2.591677e+001
      vertex   -1.047109e+001 0.000000e+000 2.664965e+001
      vertex   -1.016000e+001 -2.032000e+000 2.591677e+001
    endloop
  endfacet
  facet normal 9.205049e-001 0.000000e+000 3.907311e-001
    outer loop
      vertex   -1.016000e+001 -2.032000e+000 2.591677e+001
      vertex   -1.047109e+001 0.000000e+000 2.664965e+001
      vertex   -1.047109e+001 -2.032000e+000 2.664965e+001
    endloop
  endfacet
  facet normal 0.000000e+000 -1.000000e+000 -0.000000e+000
    outer loop
      vertex   -1.047109e+001 -2.032000e+000 2.664965e+001
      vertex   -1.270000e+001 -2.032000e+000 2.540000e+001
      vertex   -1.016000e+001 -2.032000e+000 2.591677e+001
    endloop
  endfacet
  facet normal -0.000000e+000 -1.000000e+000 0.000000e+000
    outer loop
      vertex   -1.047109e+001 -2.032000e+000 2.664965e+001
      vertex   -1.067267e+001 -2.032000e+000 2.709641e+001
      vertex   -1.270000e+001 -2.032000e+000 2.540000e+001
    endloop
  endfacet
  facet normal 0.000000e+000 -1.000000e+000 0.000000e+000
    outer loop
      vertex   -1.270000e+001 -2.032000e+000 2.540000e+001
      vertex   -1.067267e+001 -2.032000e+000 2.709641e+001
      vertex   -1.089410e+001 -2.032000e+000 2.753368e+001
    endloop
  endfacet
  facet normal 0.000000e+000 -1.000000e+000 0.000000e+000
    outer loop
      vertex   -1.280917e+001 -2.032000e+000 2.565719e+001
      vertex   -1.089410e+001 -2.032000e+000 2.753368e+001
      vertex   -1.113492e+001 -2.032000e+000 2.796057e+001
    endloop
  endfacet
  facet normal 0.000000e+000 -1.000000e+000 0.000000e+000
    outer loop
      vertex   -1.298495e+001 -2.032000e+000 2.604378e+001
      vertex   -1.113492e+001 -2.032000e+000 2.796057e+001
      vertex   -1.139466e+001 -2.032000e+000 2.837623e+001
    endloop
  endfacet
  facet normal 0.000000e+000 -1.000000e+000 0.000000e+000
    outer loop
      vertex   -1.318009e+001 -2.032000e+000 2.642097e+001
      vertex   -1.139466e+001 -2.032000e+000 2.837623e+001
      vertex   -1.167278e+001 -2.032000e+000 2.877982e+001
    endloop
  endfacet
  facet normal 0.000000e+000 -1.000000e+000 0.000000e+000
    outer loop
      vertex   -1.339408e+001 -2.032000e+000 2.678779e+001
      vertex   -1.167278e+001 -2.032000e+000 2.877982e+001
      vertex   -1.196872e+001 -2.032000e+000 2.917052e+001
    endloop
  endfacet
  facet normal 0.000000e+000 -1.000000e+000 0.000000e+000
    outer loop
      vertex   -1.362638e+001 -2.032000e+000 2.714330e+001
      vertex   -1.196872e+001 -2.032000e+000 2.917052e+001
      vertex   -1.228190e+001 -2.032000e+000 2.954756e+001
    endloop
  endfacet
  facet normal 0.000000e+000 -1.000000e+000 0.000000e+000
    outer loop
      vertex   -1.387639e+001 -2.032000e+000 2.748659e+001
      vertex   -1.228190e+001 -2.032000e+000 2.954756e+001
      vertex   -1.261168e+001 -2.032000e+000 2.991016e+001
    endloop
  endfacet
  facet normal 0.000000e+000 -1.000000e+000 0.000000e+000
    outer loop
      vertex   -1.414346e+001 -2.032000e+000 2.781678e+001
      vertex   -1.261168e+001 -2.032000e+000 2.991016e+001
      vertex   -1.295739e+001 -2.032000e+000 3.025760e+001
    endloop
  endfacet
  facet normal 0.000000e+000 -1.000000e+000 0.000000e+000
    outer loop
      vertex   -1.442691e+001 -2.032000e+000 2.813301e+001
      vertex   -1.295739e+001 -2.032000e+000 3.025760e+001
      vertex   -1.331835e+001 -2.032000e+000 3.058918e+001
    endloop
  endfacet
  facet normal 0.000000e+000 -1.000000e+000 0.000000e+000
    outer loop
      vertex   -1.472602e+001 -2.032000e+000 2.843449e+001
      vertex   -1.331835e+001 -2.032000e+000 3.058918e+001
      vertex   -1.369381e+001 -2.032000e+000 3.090424e+001
    endloop
  endfacet
  facet normal 0.000000e+000 -1.000000e+000 0.000000e+000
    outer loop
      vertex   -1.504001e+001 -2.032000e+000 2.872042e+001
      vertex   -1.369381e+001 -2.032000e+000 3.090424e+001
      vertex   -1.408304e+001 -2.032000e+000 3.120213e+001
    endloop
  endfacet
  facet normal -0.000000e+000 -1.000000e+000 0.000000e+000
    outer loop
      vertex   -1.536808e+001 -2.032000e+000 2.899009e+001
      vertex   -1.408304e+001 -2.032000e+000 3.120213e+001
      vertex   -1.570939e+001 -2.032000e+000 2.924280e+001
    endloop
  endfacet
  facet normal 0.000000e+000 -1.000000e+000 0.000000e+000
    outer loop
      vertex   -1.536808e+001 -2.032000e+000 2.899009e+001
      vertex   -1.504001e+001 -2.032000e+000 2.872042e+001
      vertex   -1.408304e+001 -2.032000e+000 3.120213e+001
    endloop
  endfacet
  facet normal -0.000000e+000 -1.000000e+000 0.000000e+000
    outer loop
      vertex   -1.270000e+001 -2.032000e+000 2.540000e+001
      vertex   -1.089410e+001 -2.032000e+000 2.753368e+001
      vertex   -1.280917e+001 -2.032000e+000 2.565719e+001
    endloop
  endfacet
  facet normal -0.000000e+000 -1.000000e+000 0.000000e+000
    outer loop
      vertex   -1.280917e+001 -2.032000e+000 2.565719e+001
      vertex   -1.113492e+001 -2.032000e+000 2.796057e+001
      vertex   -1.298495e+001 -2.032000e+000 2.604378e+001
    endloop
  endfacet
  facet normal -0.000000e+000 -1.000000e+000 0.000000e+000
    outer loop
      vertex   -1.298495e+001 -2.032000e+000 2.604378e+001
      vertex   -1.139466e+001 -2.032000e+000 2.837623e+001
      vertex   -1.318009e+001 -2.032000e+000 2.642097e+001
    endloop
  endfacet
  facet normal -0.000000e+000 -1.000000e+000 0.000000e+000
    outer loop
      vertex   -1.318009e+001 -2.032000e+000 2.642097e+001
      vertex   -1.167278e+001 -2.032000e+000 2.877982e+001
      vertex   -1.339408e+001 -2.032000e+000 2.678779e+001
    endloop
  endfacet
  facet normal -0.000000e+000 -1.000000e+000 0.000000e+000
    outer loop
      vertex   -1.339408e+001 -2.032000e+000 2.678779e+001
      vertex   -1.196872e+001 -2.032000e+000 2.917052e+001
      vertex   -1.362638e+001 -2.032000e+000 2.714330e+001
    endloop
  endfacet
  facet normal -0.000000e+000 -1.000000e+000 0.000000e+000
    outer loop
      vertex   -1.362638e+001 -2.032000e+000 2.714330e+001
      vertex   -1.228190e+001 -2.032000e+000 2.954756e+001
      vertex   -1.387639e+001 -2.032000e+000 2.748659e+001
    endloop
  endfacet
  facet normal -0.000000e+000 -1.000000e+000 0.000000e+000
    outer loop
      vertex   -1.387639e+001 -2.032000e+000 2.748659e+001
      vertex   -1.261168e+001 -2.032000e+000 2.991016e+001
      vertex   -1.414346e+001 -2.032000e+000 2.781678e+001
    endloop
  endfacet
  facet normal -0.000000e+000 -1.000000e+000 0.000000e+000
    outer loop
      vertex   -1.414346e+001 -2.032000e+000 2.781678e+001
      vertex   -1.295739e+001 -2.032000e+000 3.025760e+001
      vertex   -1.442691e+001 -2.032000e+000 2.813301e+001
    endloop
  endfacet
  facet normal -0.000000e+000 -1.000000e+000 0.000000e+000
    outer loop
      vertex   -1.442691e+001 -2.032000e+000 2.813301e+001
      vertex   -1.331835e+001 -2.032000e+000 3.058918e+001
      vertex   -1.472602e+001 -2.032000e+000 2.843449e+001
    endloop
  endfacet
  facet normal -0.000000e+000 -1.000000e+000 0.000000e+000
    outer loop
      vertex   -1.472602e+001 -2.032000e+000 2.843449e+001
      vertex   -1.369381e+001 -2.032000e+000 3.090424e+001
      vertex   -1.504001e+001 -2.032000e+000 2.872042e+001
    endloop
  endfacet
  facet normal 0.000000e+000 -1.000000e+000 -0.000000e+000
    outer loop
      vertex   -1.448523e+001 -2.032000e+000 3.148226e+001
      vertex   -2.006731e+001 -2.032000e+000 3.075158e+001
      vertex   -1.408304e+001 -2.032000e+000 3.120213e+001
    endloop
  endfacet
  facet normal -0.000000e+000 -1.000000e+000 0.000000e+000
    outer loop
      vertex   -1.448523e+001 -2.032000e+000 3.148226e+001
      vertex   -1.489959e+001 -2.032000e+000 3.174406e+001
      vertex   -2.006731e+001 -2.032000e+000 3.075158e+001
    endloop
  endfacet
  facet normal 0.000000e+000 -1.000000e+000 0.000000e+000
    outer loop
      vertex   -2.006731e+001 -2.032000e+000 3.075158e+001
      vertex   -1.489959e+001 -2.032000e+000 3.174406e+001
      vertex   -1.532528e+001 -2.032000e+000 3.198701e+001
    endloop
  endfacet
  facet normal 0.000000e+000 -1.000000e+000 -0.000000e+000
    outer loop
      vertex   -1.576144e+001 -2.032000e+000 3.221062e+001
      vertex   -2.006731e+001 -2.032000e+000 3.075158e+001
      vertex   -1.532528e+001 -2.032000e+000 3.198701e+001
    endloop
  endfacet
  facet normal -0.000000e+000 -1.000000e+000 0.000000e+000
    outer loop
      vertex   -1.576144e+001 -2.032000e+000 3.221062e+001
      vertex   -1.620719e+001 -2.032000e+000 3.241443e+001
      vertex   -2.006731e+001 -2.032000e+000 3.075158e+001
    endloop
  endfacet
  facet normal 0.000000e+000 -1.000000e+000 0.000000e+000
    outer loop
      vertex   -2.006731e+001 -2.032000e+000 3.075158e+001
      vertex   -1.620719e+001 -2.032000e+000 3.241443e+001
      vertex   -1.666164e+001 -2.032000e+000 3.259804e+001
    endloop
  endfacet
  facet normal 0.000000e+000 -1.000000e+000 -0.000000e+000
    outer loop
      vertex   -1.712387e+001 -2.032000e+000 3.276107e+001
      vertex   -2.006731e+001 -2.032000e+000 3.075158e+001
      vertex   -1.666164e+001 -2.032000e+000 3.259804e+001
    endloop
  endfacet
  facet normal -0.000000e+000 -1.000000e+000 0.000000e+000
    outer loop
      vertex   -1.712387e+001 -2.032000e+000 3.276107e+001
      vertex   -1.759294e+001 -2.032000e+000 3.290321e+001
      vertex   -2.006731e+001 -2.032000e+000 3.075158e+001
    endloop
  endfacet
  facet normal 0.000000e+000 -1.000000e+000 0.000000e+000
    outer loop
      vertex   -2.006731e+001 -2.032000e+000 3.075158e+001
      vertex   -1.759294e+001 -2.032000e+000 3.290321e+001
      vertex   -1.806792e+001 -2.032000e+000 3.302415e+001
    endloop
  endfacet
  facet normal 0.000000e+000 -1.000000e+000 -0.000000e+000
    outer loop
      vertex   -1.854785e+001 -2.032000e+000 3.312366e+001
      vertex   -2.006731e+001 -2.032000e+000 3.075158e+001
      vertex   -1.806792e+001 -2.032000e+000 3.302415e+001
    endloop
  endfacet
  facet normal -0.000000e+000 -1.000000e+000 0.000000e+000
    outer loop
      vertex   -1.854785e+001 -2.032000e+000 3.312366e+001
      vertex   -1.903176e+001 -2.032000e+000 3.320154e+001
      vertex   -2.006731e+001 -2.032000e+000 3.075158e+001
    endloop
  endfacet
  facet normal 0.000000e+000 -1.000000e+000 0.000000e+000
    outer loop
      vertex   -2.006731e+001 -2.032000e+000 3.075158e+001
      vertex   -1.903176e+001 -2.032000e+000 3.320154e+001
      vertex   -1.951868e+001 -2.032000e+000 3.325764e+001
    endloop
  endfacet
  facet normal 0.000000e+000 -1.000000e+000 -0.000000e+000
    outer loop
      vertex   -2.000762e+001 -2.032000e+000 3.329183e+001
      vertex   -2.006731e+001 -2.032000e+000 3.075158e+001
      vertex   -1.951868e+001 -2.032000e+000 3.325764e+001
    endloop
  endfacet
  facet normal 0.000000e+000 -1.000000e+000 -0.000000e+000
    outer loop
      vertex   -2.000762e+001 -2.032000e+000 3.329183e+001
      vertex   -2.049181e+001 -2.032000e+000 3.076402e+001
      vertex   -2.006731e+001 -2.032000e+000 3.075158e+001
    endloop
  endfacet
  facet normal -0.000000e+000 -1.000000e+000 -0.000000e+000
    outer loop
      vertex   -2.000762e+001 -2.032000e+000 3.329183e+001
      vertex   -2.049761e+001 -2.032000e+000 3.330405e+001
      vertex   -2.049181e+001 -2.032000e+000 3.076402e+001
    endloop
  endfacet
  facet normal -0.000000e+000 -1.000000e+000 0.000000e+000
    outer loop
      vertex   -2.049181e+001 -2.032000e+000 3.076402e+001
      vertex   -2.049761e+001 -2.032000e+000 3.330405e+001
      vertex   -2.091639e+001 -2.032000e+000 3.075493e+001
    endloop
  endfacet
  facet normal -0.000000e+000 -1.000000e+000 0.000000e+000
    outer loop
      vertex   -2.091639e+001 -2.032000e+000 3.075493e+001
      vertex   -2.049761e+001 -2.032000e+000 3.330405e+001
      vertex   -2.098765e+001 -2.032000e+000 3.329427e+001
    endloop
  endfacet
  facet normal -0.000000e+000 -1.000000e+000 0.000000e+000
    outer loop
      vertex   -2.133996e+001 -2.032000e+000 3.072435e+001
      vertex   -2.098765e+001 -2.032000e+000 3.329427e+001
      vertex   -2.147675e+001 -2.032000e+000 3.326252e+001
    endloop
  endfacet
  facet normal -0.000000e+000 -1.000000e+000 0.000000e+000
    outer loop
      vertex   -2.176144e+001 -2.032000e+000 3.067236e+001
      vertex   -2.147675e+001 -2.032000e+000 3.326252e+001
      vertex   -2.196394e+001 -2.032000e+000 3.320886e+001
    endloop
  endfacet
  facet normal -0.000000e+000 -1.000000e+000 0.000000e+000
    outer loop
      vertex   -2.217975e+001 -2.032000e+000 3.059909e+001
      vertex   -2.196394e+001 -2.032000e+000 3.320886e+001
      vertex   -2.244824e+001 -2.032000e+000 3.313339e+001
    endloop
  endfacet
  facet normal -0.000000e+000 -1.000000e+000 0.000000e+000
    outer loop
      vertex   -2.259381e+001 -2.032000e+000 3.050472e+001
      vertex   -2.244824e+001 -2.032000e+000 3.313339e+001
      vertex   -2.292866e+001 -2.032000e+000 3.303627e+001
    endloop
  endfacet
  facet normal -0.000000e+000 -1.000000e+000 0.000000e+000
    outer loop
      vertex   -2.300256e+001 -2.032000e+000 3.038950e+001
      vertex   -2.292866e+001 -2.032000e+000 3.303627e+001
      vertex   -2.340423e+001 -2.032000e+000 3.291770e+001
    endloop
  endfacet
  facet normal -0.000000e+000 -1.000000e+000 0.000000e+000
    outer loop
      vertex   -2.340495e+001 -2.032000e+000 3.025373e+001
      vertex   -2.340423e+001 -2.032000e+000 3.291770e+001
      vertex   -2.387401e+001 -2.032000e+000 3.277790e+001
    endloop
  endfacet
  facet normal -0.000000e+000 -1.000000e+000 0.000000e+000
    outer loop
      vertex   -2.379995e+001 -2.032000e+000 3.009775e+001
      vertex   -2.387401e+001 -2.032000e+000 3.277790e+001
      vertex   -2.433705e+001 -2.032000e+000 3.261717e+001
    endloop
  endfacet
  facet normal 0.000000e+000 -1.000000e+000 0.000000e+000
    outer loop
      vertex   -2.479240e+001 -2.032000e+000 3.243583e+001
      vertex   -2.379995e+001 -2.032000e+000 3.009775e+001
      vertex   -2.433705e+001 -2.032000e+000 3.261717e+001
    endloop
  endfacet
  facet normal 0.000000e+000 -1.000000e+000 -0.000000e+000
    outer loop
      vertex   -2.479240e+001 -2.032000e+000 3.243583e+001
      vertex   -2.777469e+001 -2.032000e+000 2.841058e+001
      vertex   -2.379995e+001 -2.032000e+000 3.009775e+001
    endloop
  endfacet
  facet normal 0.000000e+000 -1.000000e+000 -0.000000e+000
    outer loop
      vertex   -2.479240e+001 -2.032000e+000 3.243583e+001
      vertex   -2.876714e+001 -2.032000e+000 3.074866e+001
      vertex   -2.777469e+001 -2.032000e+000 2.841058e+001
    endloop
  endfacet
  facet normal -0.000000e+000 -1.000000e+000 0.000000e+000
    outer loop
      vertex   -2.091639e+001 -2.032000e+000 3.075493e+001
      vertex   -2.098765e+001 -2.032000e+000 3.329427e+001
      vertex   -2.133996e+001 -2.032000e+000 3.072435e+001
    endloop
  endfacet
  facet normal -0.000000e+000 -1.000000e+000 0.000000e+000
    outer loop
      vertex   -2.133996e+001 -2.032000e+000 3.072435e+001
      vertex   -2.147675e+001 -2.032000e+000 3.326252e+001
      vertex   -2.176144e+001 -2.032000e+000 3.067236e+001
    endloop
  endfacet
  facet normal -0.000000e+000 -1.000000e+000 0.000000e+000
    outer loop
      vertex   -2.176144e+001 -2.032000e+000 3.067236e+001
      vertex   -2.196394e+001 -2.032000e+000 3.320886e+001
      vertex   -2.217975e+001 -2.032000e+000 3.059909e+001
    endloop
  endfacet
  facet normal -0.000000e+000 -1.000000e+000 0.000000e+000
    outer loop
      vertex   -2.217975e+001 -2.032000e+000 3.059909e+001
      vertex   -2.244824e+001 -2.032000e+000 3.313339e+001
      vertex   -2.259381e+001 -2.032000e+000 3.050472e+001
    endloop
  endfacet
  facet normal -0.000000e+000 -1.000000e+000 0.000000e+000
    outer loop
      vertex   -2.259381e+001 -2.032000e+000 3.050472e+001
      vertex   -2.292866e+001 -2.032000e+000 3.303627e+001
      vertex   -2.300256e+001 -2.032000e+000 3.038950e+001
    endloop
  endfacet
  facet normal -0.000000e+000 -1.000000e+000 0.000000e+000
    outer loop
      vertex   -2.300256e+001 -2.032000e+000 3.038950e+001
      vertex   -2.340423e+001 -2.032000e+000 3.291770e+001
      vertex   -2.340495e+001 -2.032000e+000 3.025373e+001
    endloop
  endfacet
  facet normal -0.000000e+000 -1.000000e+000 -0.000000e+000
    outer loop
      vertex   -2.340495e+001 -2.032000e+000 3.025373e+001
      vertex   -2.387401e+001 -2.032000e+000 3.277790e+001
      vertex   -2.379995e+001 -2.032000e+000 3.009775e+001
    endloop
  endfacet
  facet normal 0.000000e+000 -1.000000e+000 0.000000e+000
    outer loop
      vertex   -2.006731e+001 -2.032000e+000 3.075158e+001
      vertex   -1.964399e+001 -2.032000e+000 3.071767e+001
      vertex   -1.408304e+001 -2.032000e+000 3.120213e+001
    endloop
  endfacet
  facet normal 0.000000e+000 -1.000000e+000 -0.000000e+000
    outer loop
      vertex   -1.408304e+001 -2.032000e+000 3.120213e+001
      vertex   -1.964399e+001 -2.032000e+000 3.071767e+001
      vertex   -1.922293e+001 -2.032000e+000 3.066236e+001
    endloop
  endfacet
  facet normal -0.000000e+000 -1.000000e+000 0.000000e+000
    outer loop
      vertex   -1.880521e+001 -2.032000e+000 3.058579e+001
      vertex   -1.408304e+001 -2.032000e+000 3.120213e+001
      vertex   -1.922293e+001 -2.032000e+000 3.066236e+001
    endloop
  endfacet
  facet normal 0.000000e+000 -1.000000e+000 0.000000e+000
    outer loop
      vertex   -1.880521e+001 -2.032000e+000 3.058579e+001
      vertex   -1.839191e+001 -2.032000e+000 3.048816e+001
      vertex   -1.408304e+001 -2.032000e+000 3.120213e+001
    endloop
  endfacet
  facet normal 0.000000e+000 -1.000000e+000 -0.000000e+000
    outer loop
      vertex   -1.408304e+001 -2.032000e+000 3.120213e+001
      vertex   -1.839191e+001 -2.032000e+000 3.048816e+001
      vertex   -1.798408e+001 -2.032000e+000 3.036972e+001
    endloop
  endfacet
  facet normal -0.000000e+000 -1.000000e+000 0.000000e+000
    outer loop
      vertex   -1.758277e+001 -2.032000e+000 3.023079e+001
      vertex   -1.408304e+001 -2.032000e+000 3.120213e+001
      vertex   -1.798408e+001 -2.032000e+000 3.036972e+001
    endloop
  endfacet
  facet normal 0.000000e+000 -1.000000e+000 0.000000e+000
    outer loop
      vertex   -1.758277e+001 -2.032000e+000 3.023079e+001
      vertex   -1.718902e+001 -2.032000e+000 3.007170e+001
      vertex   -1.408304e+001 -2.032000e+000 3.120213e+001
    endloop
  endfacet
  facet normal 0.000000e+000 -1.000000e+000 -0.000000e+000
    outer loop
      vertex   -1.408304e+001 -2.032000e+000 3.120213e+001
      vertex   -1.718902e+001 -2.032000e+000 3.007170e+001
      vertex   -1.680383e+001 -2.032000e+000 2.989287e+001
    endloop
  endfacet
  facet normal -0.000000e+000 -1.000000e+000 0.000000e+000
    outer loop
      vertex   -1.642819e+001 -2.032000e+000 2.969477e+001
      vertex   -1.408304e+001 -2.032000e+000 3.120213e+001
      vertex   -1.680383e+001 -2.032000e+000 2.989287e+001
    endloop
  endfacet
  facet normal 0.000000e+000 -1.000000e+000 0.000000e+000
    outer loop
      vertex   -1.642819e+001 -2.032000e+000 2.969477e+001
      vertex   -1.606306e+001 -2.032000e+000 2.947789e+001
      vertex   -1.408304e+001 -2.032000e+000 3.120213e+001
    endloop
  endfacet
  facet normal 0.000000e+000 -1.000000e+000 -0.000000e+000
    outer loop
      vertex   -1.408304e+001 -2.032000e+000 3.120213e+001
      vertex   -1.606306e+001 -2.032000e+000 2.947789e+001
      vertex   -1.570939e+001 -2.032000e+000 2.924280e+001
    endloop
  endfacet
  facet normal 0.000000e+000 -1.000000e+000 0.000000e+000
    outer loop
      vertex   -1.270000e+001 -2.032000e+000 0.000000e+000
      vertex   -1.016000e+001 -2.032000e+000 0.000000e+000
      vertex   -1.270000e+001 -2.032000e+000 2.540000e+001
    endloop
  endfacet
  facet normal 0.000000e+000 -1.000000e+000 0.000000e+000
    outer loop
      vertex   -1.270000e+001 -2.032000e+000 2.540000e+001
      vertex   -1.016000e+001 -2.032000e+000 0.000000e+000
      vertex   -1.016000e+001 -2.032000e+000 2.591677e+001
    endloop
  endfacet
  facet normal 0.000000e+000 -1.000000e+000 0.000000e+000
    outer loop
      vertex   -1.016000e+001 -2.032000e+000 2.591677e+001
      vertex   -1.016000e+001 -2.032000e+000 0.000000e+000
      vertex   -3.220076e+000 -2.032000e+000 4.061467e+000
    endloop
  endfacet
  facet normal 0.000000e+000 1.000000e+000 0.000000e+000
    outer loop
      vertex   -1.067267e+001 0.000000e+000 2.709641e+001
      vertex   -1.047109e+001 0.000000e+000 2.664965e+001
      vertex   -1.270000e+001 0.000000e+000 2.540000e+001
    endloop
  endfacet
  facet normal 0.000000e+000 1.000000e+000 0.000000e+000
    outer loop
      vertex   -1.089410e+001 0.000000e+000 2.753368e+001
      vertex   -1.270000e+001 0.000000e+000 2.540000e+001
      vertex   -1.280917e+001 0.000000e+000 2.565719e+001
    endloop
  endfacet
  facet normal 0.000000e+000 1.000000e+000 0.000000e+000
    outer loop
      vertex   -1.113492e+001 0.000000e+000 2.796057e+001
      vertex   -1.280917e+001 0.000000e+000 2.565719e+001
      vertex   -1.298495e+001 0.000000e+000 2.604378e+001
    endloop
  endfacet
  facet normal 0.000000e+000 1.000000e+000 0.000000e+000
    outer loop
      vertex   -1.139466e+001 0.000000e+000 2.837623e+001
      vertex   -1.298495e+001 0.000000e+000 2.604378e+001
      vertex   -1.318009e+001 0.000000e+000 2.642097e+001
    endloop
  endfacet
  facet normal 0.000000e+000 1.000000e+000 0.000000e+000
    outer loop
      vertex   -1.167278e+001 0.000000e+000 2.877982e+001
      vertex   -1.318009e+001 0.000000e+000 2.642097e+001
      vertex   -1.339408e+001 0.000000e+000 2.678779e+001
    endloop
  endfacet
  facet normal 0.000000e+000 1.000000e+000 0.000000e+000
    outer loop
      vertex   -1.196872e+001 0.000000e+000 2.917052e+001
      vertex   -1.339408e+001 0.000000e+000 2.678779e+001
      vertex   -1.362638e+001 0.000000e+000 2.714330e+001
    endloop
  endfacet
  facet normal 0.000000e+000 1.000000e+000 0.000000e+000
    outer loop
      vertex   -1.228190e+001 0.000000e+000 2.954756e+001
      vertex   -1.362638e+001 0.000000e+000 2.714330e+001
      vertex   -1.387639e+001 0.000000e+000 2.748659e+001
    endloop
  endfacet
  facet normal 0.000000e+000 1.000000e+000 0.000000e+000
    outer loop
      vertex   -1.261168e+001 0.000000e+000 2.991016e+001
      vertex   -1.387639e+001 0.000000e+000 2.748659e+001
      vertex   -1.414346e+001 0.000000e+000 2.781678e+001
    endloop
  endfacet
  facet normal 0.000000e+000 1.000000e+000 0.000000e+000
    outer loop
      vertex   -1.295739e+001 0.000000e+000 3.025760e+001
      vertex   -1.414346e+001 0.000000e+000 2.781678e+001
      vertex   -1.442691e+001 0.000000e+000 2.813301e+001
    endloop
  endfacet
  facet normal 0.000000e+000 1.000000e+000 0.000000e+000
    outer loop
      vertex   -1.331835e+001 0.000000e+000 3.058918e+001
      vertex   -1.442691e+001 0.000000e+000 2.813301e+001
      vertex   -1.472602e+001 0.000000e+000 2.843449e+001
    endloop
  endfacet
  facet normal 0.000000e+000 1.000000e+000 0.000000e+000
    outer loop
      vertex   -1.369381e+001 0.000000e+000 3.090424e+001
      vertex   -1.472602e+001 0.000000e+000 2.843449e+001
      vertex   -1.504001e+001 0.000000e+000 2.872042e+001
    endloop
  endfacet
  facet normal -0.000000e+000 1.000000e+000 0.000000e+000
    outer loop
      vertex   -1.536808e+001 0.000000e+000 2.899009e+001
      vertex   -1.369381e+001 0.000000e+000 3.090424e+001
      vertex   -1.504001e+001 0.000000e+000 2.872042e+001
    endloop
  endfacet
  facet normal 0.000000e+000 1.000000e+000 -0.000000e+000
    outer loop
      vertex   -1.536808e+001 0.000000e+000 2.899009e+001
      vertex   -1.570939e+001 0.000000e+000 2.924280e+001
      vertex   -1.369381e+001 0.000000e+000 3.090424e+001
    endloop
  endfacet
  facet normal 0.000000e+000 1.000000e+000 0.000000e+000
    outer loop
      vertex   -1.369381e+001 0.000000e+000 3.090424e+001
      vertex   -1.570939e+001 0.000000e+000 2.924280e+001
      vertex   -1.606306e+001 0.000000e+000 2.947789e+001
    endloop
  endfacet
  facet normal -0.000000e+000 1.000000e+000 0.000000e+000
    outer loop
      vertex   -1.642819e+001 0.000000e+000 2.969477e+001
      vertex   -1.369381e+001 0.000000e+000 3.090424e+001
      vertex   -1.606306e+001 0.000000e+000 2.947789e+001
    endloop
  endfacet
  facet normal 0.000000e+000 1.000000e+000 -0.000000e+000
    outer loop
      vertex   -1.642819e+001 0.000000e+000 2.969477e+001
      vertex   -1.680383e+001 0.000000e+000 2.989287e+001
      vertex   -1.369381e+001 0.000000e+000 3.090424e+001
    endloop
  endfacet
  facet normal 0.000000e+000 1.000000e+000 0.000000e+000
    outer loop
      vertex   -1.369381e+001 0.000000e+000 3.090424e+001
      vertex   -1.680383e+001 0.000000e+000 2.989287e+001
      vertex   -1.718902e+001 0.000000e+000 3.007170e+001
    endloop
  endfacet
  facet normal -0.000000e+000 1.000000e+000 0.000000e+000
    outer loop
      vertex   -1.758277e+001 0.000000e+000 3.023079e+001
      vertex   -1.369381e+001 0.000000e+000 3.090424e+001
      vertex   -1.718902e+001 0.000000e+000 3.007170e+001
    endloop
  endfacet
  facet normal 0.000000e+000 1.000000e+000 -0.000000e+000
    outer loop
      vertex   -1.758277e+001 0.000000e+000 3.023079e+001
      vertex   -1.798408e+001 0.000000e+000 3.036972e+001
      vertex   -1.369381e+001 0.000000e+000 3.090424e+001
    endloop
  endfacet
  facet normal 0.000000e+000 1.000000e+000 0.000000e+000
    outer loop
      vertex   -1.369381e+001 0.000000e+000 3.090424e+001
      vertex   -1.798408e+001 0.000000e+000 3.036972e+001
      vertex   -1.839191e+001 0.000000e+000 3.048816e+001
    endloop
  endfacet
  facet normal -0.000000e+000 1.000000e+000 0.000000e+000
    outer loop
      vertex   -1.880521e+001 0.000000e+000 3.058579e+001
      vertex   -1.369381e+001 0.000000e+000 3.090424e+001
      vertex   -1.839191e+001 0.000000e+000 3.048816e+001
    endloop
  endfacet
  facet normal 0.000000e+000 1.000000e+000 -0.000000e+000
    outer loop
      vertex   -1.880521e+001 0.000000e+000 3.058579e+001
      vertex   -1.922293e+001 0.000000e+000 3.066236e+001
      vertex   -1.369381e+001 0.000000e+000 3.090424e+001
    endloop
  endfacet
  facet normal 0.000000e+000 1.000000e+000 0.000000e+000
    outer loop
      vertex   -1.369381e+001 0.000000e+000 3.090424e+001
      vertex   -1.922293e+001 0.000000e+000 3.066236e+001
      vertex   -1.964399e+001 0.000000e+000 3.071767e+001
    endloop
  endfacet
  facet normal -0.000000e+000 1.000000e+000 0.000000e+000
    outer loop
      vertex   -2.006731e+001 0.000000e+000 3.075158e+001
      vertex   -1.369381e+001 0.000000e+000 3.090424e+001
      vertex   -1.964399e+001 0.000000e+000 3.071767e+001
    endloop
  endfacet
  facet normal -0.000000e+000 1.000000e+000 0.000000e+000
    outer loop
      vertex   -2.006731e+001 0.000000e+000 3.075158e+001
      vertex   -1.408304e+001 0.000000e+000 3.120213e+001
      vertex   -1.369381e+001 0.000000e+000 3.090424e+001
    endloop
  endfacet
  facet normal -0.000000e+000 1.000000e+000 0.000000e+000
    outer loop
      vertex   -2.006731e+001 0.000000e+000 3.075158e+001
      vertex   -1.448523e+001 0.000000e+000 3.148226e+001
      vertex   -1.408304e+001 0.000000e+000 3.120213e+001
    endloop
  endfacet
  facet normal -0.000000e+000 1.000000e+000 0.000000e+000
    outer loop
      vertex   -2.006731e+001 0.000000e+000 3.075158e+001
      vertex   -1.489959e+001 0.000000e+000 3.174406e+001
      vertex   -1.448523e+001 0.000000e+000 3.148226e+001
    endloop
  endfacet
  facet normal -0.000000e+000 1.000000e+000 0.000000e+000
    outer loop
      vertex   -2.006731e+001 0.000000e+000 3.075158e+001
      vertex   -1.532528e+001 0.000000e+000 3.198701e+001
      vertex   -1.489959e+001 0.000000e+000 3.174406e+001
    endloop
  endfacet
  facet normal -0.000000e+000 1.000000e+000 0.000000e+000
    outer loop
      vertex   -2.006731e+001 0.000000e+000 3.075158e+001
      vertex   -1.576144e+001 0.000000e+000 3.221062e+001
      vertex   -1.532528e+001 0.000000e+000 3.198701e+001
    endloop
  endfacet
  facet normal -0.000000e+000 1.000000e+000 0.000000e+000
    outer loop
      vertex   -2.006731e+001 0.000000e+000 3.075158e+001
      vertex   -1.620719e+001 0.000000e+000 3.241443e+001
      vertex   -1.576144e+001 0.000000e+000 3.221062e+001
    endloop
  endfacet
  facet normal -0.000000e+000 1.000000e+000 0.000000e+000
    outer loop
      vertex   -2.006731e+001 0.000000e+000 3.075158e+001
      vertex   -1.666164e+001 0.000000e+000 3.259804e+001
      vertex   -1.620719e+001 0.000000e+000 3.241443e+001
    endloop
  endfacet
  facet normal -0.000000e+000 1.000000e+000 0.000000e+000
    outer loop
      vertex   -2.006731e+001 0.000000e+000 3.075158e+001
      vertex   -1.712387e+001 0.000000e+000 3.276107e+001
      vertex   -1.666164e+001 0.000000e+000 3.259804e+001
    endloop
  endfacet
  facet normal -0.000000e+000 1.000000e+000 0.000000e+000
    outer loop
      vertex   -2.006731e+001 0.000000e+000 3.075158e+001
      vertex   -1.759294e+001 0.000000e+000 3.290321e+001
      vertex   -1.712387e+001 0.000000e+000 3.276107e+001
    endloop
  endfacet
  facet normal -0.000000e+000 1.000000e+000 0.000000e+000
    outer loop
      vertex   -2.006731e+001 0.000000e+000 3.075158e+001
      vertex   -1.806792e+001 0.000000e+000 3.302415e+001
      vertex   -1.759294e+001 0.000000e+000 3.290321e+001
    endloop
  endfacet
  facet normal -0.000000e+000 1.000000e+000 0.000000e+000
    outer loop
      vertex   -2.006731e+001 0.000000e+000 3.075158e+001
      vertex   -1.854785e+001 0.000000e+000 3.312366e+001
      vertex   -1.806792e+001 0.000000e+000 3.302415e+001
    endloop
  endfacet
  facet normal -0.000000e+000 1.000000e+000 0.000000e+000
    outer loop
      vertex   -2.006731e+001 0.000000e+000 3.075158e+001
      vertex   -1.903176e+001 0.000000e+000 3.320154e+001
      vertex   -1.854785e+001 0.000000e+000 3.312366e+001
    endloop
  endfacet
  facet normal -0.000000e+000 1.000000e+000 0.000000e+000
    outer loop
      vertex   -2.006731e+001 0.000000e+000 3.075158e+001
      vertex   -1.951868e+001 0.000000e+000 3.325764e+001
      vertex   -1.903176e+001 0.000000e+000 3.320154e+001
    endloop
  endfacet
  facet normal -0.000000e+000 1.000000e+000 0.000000e+000
    outer loop
      vertex   -2.006731e+001 0.000000e+000 3.075158e+001
      vertex   -2.000762e+001 0.000000e+000 3.329183e+001
      vertex   -1.951868e+001 0.000000e+000 3.325764e+001
    endloop
  endfacet
  facet normal 0.000000e+000 1.000000e+000 -0.000000e+000
    outer loop
      vertex   -2.006731e+001 0.000000e+000 3.075158e+001
      vertex   -2.049181e+001 0.000000e+000 3.076402e+001
      vertex   -2.000762e+001 0.000000e+000 3.329183e+001
    endloop
  endfacet
  facet normal 0.000000e+000 1.000000e+000 0.000000e+000
    outer loop
      vertex   -2.000762e+001 0.000000e+000 3.329183e+001
      vertex   -2.049181e+001 0.000000e+000 3.076402e+001
      vertex   -2.049761e+001 0.000000e+000 3.330405e+001
    endloop
  endfacet
  facet normal 0.000000e+000 1.000000e+000 0.000000e+000
    outer loop
      vertex   -2.049761e+001 0.000000e+000 3.330405e+001
      vertex   -2.049181e+001 0.000000e+000 3.076402e+001
      vertex   -2.091639e+001 0.000000e+000 3.075493e+001
    endloop
  endfacet
  facet normal 0.000000e+000 1.000000e+000 0.000000e+000
    outer loop
      vertex   -2.098765e+001 0.000000e+000 3.329427e+001
      vertex   -2.091639e+001 0.000000e+000 3.075493e+001
      vertex   -2.133996e+001 0.000000e+000 3.072435e+001
    endloop
  endfacet
  facet normal 0.000000e+000 1.000000e+000 0.000000e+000
    outer loop
      vertex   -2.147675e+001 0.000000e+000 3.326252e+001
      vertex   -2.133996e+001 0.000000e+000 3.072435e+001
      vertex   -2.176144e+001 0.000000e+000 3.067236e+001
    endloop
  endfacet
  facet normal 0.000000e+000 1.000000e+000 0.000000e+000
    outer loop
      vertex   -2.196394e+001 0.000000e+000 3.320886e+001
      vertex   -2.176144e+001 0.000000e+000 3.067236e+001
      vertex   -2.217975e+001 0.000000e+000 3.059909e+001
    endloop
  endfacet
  facet normal 0.000000e+000 1.000000e+000 0.000000e+000
    outer loop
      vertex   -2.244824e+001 0.000000e+000 3.313339e+001
      vertex   -2.217975e+001 0.000000e+000 3.059909e+001
      vertex   -2.259381e+001 0.000000e+000 3.050472e+001
    endloop
  endfacet
  facet normal 0.000000e+000 1.000000e+000 0.000000e+000
    outer loop
      vertex   -2.292866e+001 0.000000e+000 3.303627e+001
      vertex   -2.259381e+001 0.000000e+000 3.050472e+001
      vertex   -2.300256e+001 0.000000e+000 3.038950e+001
    endloop
  endfacet
  facet normal 0.000000e+000 1.000000e+000 0.000000e+000
    outer loop
      vertex   -2.340423e+001 0.000000e+000 3.291770e+001
      vertex   -2.300256e+001 0.000000e+000 3.038950e+001
      vertex   -2.340495e+001 0.000000e+000 3.025373e+001
    endloop
  endfacet
  facet normal 0.000000e+000 1.000000e+000 0.000000e+000
    outer loop
      vertex   -2.387401e+001 0.000000e+000 3.277790e+001
      vertex   -2.340495e+001 0.000000e+000 3.025373e+001
      vertex   -2.379995e+001 0.000000e+000 3.009775e+001
    endloop
  endfacet
  facet normal 0.000000e+000 1.000000e+000 0.000000e+000
    outer loop
      vertex   -2.433705e+001 0.000000e+000 3.261717e+001
      vertex   -2.379995e+001 0.000000e+000 3.009775e+001
      vertex   -2.479240e+001 0.000000e+000 3.243583e+001
    endloop
  endfacet
  facet normal -0.000000e+000 1.000000e+000 0.000000e+000
    outer loop
      vertex   -2.433705e+001 0.000000e+000 3.261717e+001
      vertex   -2.387401e+001 0.000000e+000 3.277790e+001
      vertex   -2.379995e+001 0.000000e+000 3.009775e+001
    endloop
  endfacet
  facet normal 0.000000e+000 1.000000e+000 -0.000000e+000
    outer loop
      vertex   -3.220076e+000 0.000000e+000 4.061467e+000
      vertex   -1.016000e+001 0.000000e+000 0.000000e+000
      vertex   -1.016000e+001 0.000000e+000 2.591677e+001
    endloop
  endfacet
  facet normal 0.000000e+000 1.000000e+000 0.000000e+000
    outer loop
      vertex   -1.016000e+001 0.000000e+000 2.591677e+001
      vertex   -1.016000e+001 0.000000e+000 0.000000e+000
      vertex   -1.270000e+001 0.000000e+000 2.540000e+001
    endloop
  endfacet
  facet normal 0.000000e+000 1.000000e+000 0.000000e+000
    outer loop
      vertex   -1.047109e+001 0.000000e+000 2.664965e+001
      vertex   -1.016000e+001 0.000000e+000 2.591677e+001
      vertex   -1.270000e+001 0.000000e+000 2.540000e+001
    endloop
  endfacet
  facet normal 0.000000e+000 1.000000e+000 -0.000000e+000
    outer loop
      vertex   -1.016000e+001 0.000000e+000 0.000000e+000
      vertex   -1.270000e+001 0.000000e+000 0.000000e+000
      vertex   -1.270000e+001 0.000000e+000 2.540000e+001
    endloop
  endfacet
  facet normal 0.000000e+000 1.000000e+000 -0.000000e+000
    outer loop
      vertex   -1.067267e+001 0.000000e+000 2.709641e+001
      vertex   -1.270000e+001 0.000000e+000 2.540000e+001
      vertex   -1.089410e+001 0.000000e+000 2.753368e+001
    endloop
  endfacet
  facet normal 0.000000e+000 1.000000e+000 -0.000000e+000
    outer loop
      vertex   -1.089410e+001 0.000000e+000 2.753368e+001
      vertex   -1.280917e+001 0.000000e+000 2.565719e+001
      vertex   -1.113492e+001 0.000000e+000 2.796057e+001
    endloop
  endfacet
  facet normal 0.000000e+000 1.000000e+000 -0.000000e+000
    outer loop
      vertex   -1.113492e+001 0.000000e+000 2.796057e+001
      vertex   -1.298495e+001 0.000000e+000 2.604378e+001
      vertex   -1.139466e+001 0.000000e+000 2.837623e+001
    endloop
  endfacet
  facet normal 0.000000e+000 1.000000e+000 -0.000000e+000
    outer loop
      vertex   -1.139466e+001 0.000000e+000 2.837623e+001
      vertex   -1.318009e+001 0.000000e+000 2.642097e+001
      vertex   -1.167278e+001 0.000000e+000 2.877982e+001
    endloop
  endfacet
  facet normal 0.000000e+000 1.000000e+000 -0.000000e+000
    outer loop
      vertex   -1.167278e+001 0.000000e+000 2.877982e+001
      vertex   -1.339408e+001 0.000000e+000 2.678779e+001
      vertex   -1.196872e+001 0.000000e+000 2.917052e+001
    endloop
  endfacet
  facet normal 0.000000e+000 1.000000e+000 -0.000000e+000
    outer loop
      vertex   -1.196872e+001 0.000000e+000 2.917052e+001
      vertex   -1.362638e+001 0.000000e+000 2.714330e+001
      vertex   -1.228190e+001 0.000000e+000 2.954756e+001
    endloop
  endfacet
  facet normal 0.000000e+000 1.000000e+000 -0.000000e+000
    outer loop
      vertex   -1.228190e+001 0.000000e+000 2.954756e+001
      vertex   -1.387639e+001 0.000000e+000 2.748659e+001
      vertex   -1.261168e+001 0.000000e+000 2.991016e+001
    endloop
  endfacet
  facet normal 0.000000e+000 1.000000e+000 -0.000000e+000
    outer loop
      vertex   -1.261168e+001 0.000000e+000 2.991016e+001
      vertex   -1.414346e+001 0.000000e+000 2.781678e+001
      vertex   -1.295739e+001 0.000000e+000 3.025760e+001
    endloop
  endfacet
  facet normal 0.000000e+000 1.000000e+000 -0.000000e+000
    outer loop
      vertex   -1.295739e+001 0.000000e+000 3.025760e+001
      vertex   -1.442691e+001 0.000000e+000 2.813301e+001
      vertex   -1.331835e+001 0.000000e+000 3.058918e+001
    endloop
  endfacet
  facet normal 0.000000e+000 1.000000e+000 -0.000000e+000
    outer loop
      vertex   -1.331835e+001 0.000000e+000 3.058918e+001
      vertex   -1.472602e+001 0.000000e+000 2.843449e+001
      vertex   -1.369381e+001 0.000000e+000 3.090424e+001
    endloop
  endfacet
  facet normal 0.000000e+000 1.000000e+000 0.000000e+000
    outer loop
      vertex   -2.049761e+001 0.000000e+000 3.330405e+001
      vertex   -2.091639e+001 0.000000e+000 3.075493e+001
      vertex   -2.098765e+001 0.000000e+000 3.329427e+001
    endloop
  endfacet
  facet normal 0.000000e+000 1.000000e+000 0.000000e+000
    outer loop
      vertex   -2.098765e+001 0.000000e+000 3.329427e+001
      vertex   -2.133996e+001 0.000000e+000 3.072435e+001
      vertex   -2.147675e+001 0.000000e+000 3.326252e+001
    endloop
  endfacet
  facet normal 0.000000e+000 1.000000e+000 0.000000e+000
    outer loop
      vertex   -2.147675e+001 0.000000e+000 3.326252e+001
      vertex   -2.176144e+001 0.000000e+000 3.067236e+001
      vertex   -2.196394e+001 0.000000e+000 3.320886e+001
    endloop
  endfacet
  facet normal 0.000000e+000 1.000000e+000 0.000000e+000
    outer loop
      vertex   -2.196394e+001 0.000000e+000 3.320886e+001
      vertex   -2.217975e+001 0.000000e+000 3.059909e+001
      vertex   -2.244824e+001 0.000000e+000 3.313339e+001
    endloop
  endfacet
  facet normal 0.000000e+000 1.000000e+000 0.000000e+000
    outer loop
      vertex   -2.244824e+001 0.000000e+000 3.313339e+001
      vertex   -2.259381e+001 0.000000e+000 3.050472e+001
      vertex   -2.292866e+001 0.000000e+000 3.303627e+001
    endloop
  endfacet
  facet normal 0.000000e+000 1.000000e+000 0.000000e+000
    outer loop
      vertex   -2.292866e+001 0.000000e+000 3.303627e+001
      vertex   -2.300256e+001 0.000000e+000 3.038950e+001
      vertex   -2.340423e+001 0.000000e+000 3.291770e+001
    endloop
  endfacet
  facet normal 0.000000e+000 1.000000e+000 0.000000e+000
    outer loop
      vertex   -2.340423e+001 0.000000e+000 3.291770e+001
      vertex   -2.340495e+001 0.000000e+000 3.025373e+001
      vertex   -2.387401e+001 0.000000e+000 3.277790e+001
    endloop
  endfacet
  facet normal 0.000000e+000 1.000000e+000 -0.000000e+000
    outer loop
      vertex   -2.379995e+001 0.000000e+000 3.009775e+001
      vertex   -2.777469e+001 0.000000e+000 2.841058e+001
      vertex   -2.479240e+001 0.000000e+000 3.243583e+001
    endloop
  endfacet
  facet normal 0.000000e+000 1.000000e+000 0.000000e+000
    outer loop
      vertex   -2.479240e+001 0.000000e+000 3.243583e+001
      vertex   -2.777469e+001 0.000000e+000 2.841058e+001
      vertex   -2.876714e+001 0.000000e+000 3.074866e+001
    endloop
  endfacet
endsolid
