solid ascii
  facet normal 9.632727e-001 0.000000e+000 2.685249e-001
    outer loop
      vertex   -3.548758e+000 0.000000e+000 0.000000e+000
      vertex   -1.016000e+001 0.000000e+000 2.371633e+001
      vertex   -3.548758e+000 -2.032000e+000 0.000000e+000
    endloop
  endfacet
  facet normal 9.632727e-001 0.000000e+000 2.685249e-001
    outer loop
      vertex   -3.548758e+000 -2.032000e+000 0.000000e+000
      vertex   -1.016000e+001 0.000000e+000 2.371633e+001
      vertex   -1.016000e+001 -2.032000e+000 2.371633e+001
    endloop
  endfacet
  facet normal 0.000000e+000 -0.000000e+000 -1.000000e+000
    outer loop
      vertex   -1.270000e+001 0.000000e+000 0.000000e+000
      vertex   -3.548758e+000 0.000000e+000 0.000000e+000
      vertex   -1.270000e+001 -2.032000e+000 0.000000e+000
    endloop
  endfacet
  facet normal 0.000000e+000 0.000000e+000 -1.000000e+000
    outer loop
      vertex   -1.270000e+001 -2.032000e+000 0.000000e+000
      vertex   -3.548758e+000 0.000000e+000 0.000000e+000
      vertex   -3.548758e+000 -2.032000e+000 0.000000e+000
    endloop
  endfacet
  facet normal -1.000000e+000 -0.000000e+000 -0.000000e+000
    outer loop
      vertex   -1.270000e+001 0.000000e+000 2.371633e+001
      vertex   -1.270000e+001 0.000000e+000 0.000000e+000
      vertex   -1.270000e+001 -2.032000e+000 2.371633e+001
    endloop
  endfacet
  facet normal -1.000000e+000 -0.000000e+000 -0.000000e+000
    outer loop
      vertex   -1.270000e+001 -2.032000e+000 2.371633e+001
      vertex   -1.270000e+001 0.000000e+000 0.000000e+000
      vertex   -1.270000e+001 -2.032000e+000 0.000000e+000
    endloop
  endfacet
  facet normal -7.398932e-001 0.000000e+000 -6.727243e-001
    outer loop
      vertex   -1.444419e+001 0.000000e+000 2.803675e+001
      vertex   -1.419710e+001 0.000000e+000 2.776499e+001
      vertex   -1.444419e+001 -2.032000e+000 2.803675e+001
    endloop
  endfacet
  facet normal -7.398932e-001 -0.000000e+000 -6.727243e-001
    outer loop
      vertex   -1.444419e+001 -2.032000e+000 2.803675e+001
      vertex   -1.419710e+001 0.000000e+000 2.776499e+001
      vertex   -1.419710e+001 -2.032000e+000 2.776499e+001
    endloop
  endfacet
  facet normal -7.782929e-001 0.000000e+000 -6.279014e-001
    outer loop
      vertex   -1.419710e+001 -2.032000e+000 2.776499e+001
      vertex   -1.419710e+001 0.000000e+000 2.776499e+001
      vertex   -1.396648e+001 0.000000e+000 2.747913e+001
    endloop
  endfacet
  facet normal -8.139812e-001 -1.015620e-015 -5.808912e-001
    outer loop
      vertex   -1.396648e+001 -2.032000e+000 2.747913e+001
      vertex   -1.396648e+001 0.000000e+000 2.747913e+001
      vertex   -1.375312e+001 0.000000e+000 2.718016e+001
    endloop
  endfacet
  facet normal -8.468340e-001 0.000000e+000 -5.318574e-001
    outer loop
      vertex   -1.375312e+001 -2.032000e+000 2.718016e+001
      vertex   -1.375312e+001 0.000000e+000 2.718016e+001
      vertex   -1.355777e+001 0.000000e+000 2.686912e+001
    endloop
  endfacet
  facet normal -8.767367e-001 0.000000e+000 -4.809707e-001
    outer loop
      vertex   -1.355777e+001 -2.032000e+000 2.686912e+001
      vertex   -1.355777e+001 0.000000e+000 2.686912e+001
      vertex   -1.338111e+001 0.000000e+000 2.654710e+001
    endloop
  endfacet
  facet normal -9.035851e-001 0.000000e+000 -4.284086e-001
    outer loop
      vertex   -1.338111e+001 -2.032000e+000 2.654710e+001
      vertex   -1.338111e+001 0.000000e+000 2.654710e+001
      vertex   -1.322376e+001 0.000000e+000 2.621521e+001
    endloop
  endfacet
  facet normal -9.272859e-001 0.000000e+000 -3.743540e-001
    outer loop
      vertex   -1.322376e+001 -2.032000e+000 2.621521e+001
      vertex   -1.322376e+001 0.000000e+000 2.621521e+001
      vertex   -1.308626e+001 0.000000e+000 2.587463e+001
    endloop
  endfacet
  facet normal -9.477563e-001 -5.577259e-016 -3.189953e-001
    outer loop
      vertex   -1.308626e+001 -2.032000e+000 2.587463e+001
      vertex   -1.308626e+001 0.000000e+000 2.587463e+001
      vertex   -1.296910e+001 0.000000e+000 2.552652e+001
    endloop
  endfacet
  facet normal -9.649251e-001 0.000000e+000 -2.625254e-001
    outer loop
      vertex   -1.296910e+001 -2.032000e+000 2.552652e+001
      vertex   -1.296910e+001 0.000000e+000 2.552652e+001
      vertex   -1.287267e+001 0.000000e+000 2.517211e+001
    endloop
  endfacet
  facet normal -9.787324e-001 0.000000e+000 -2.051409e-001
    outer loop
      vertex   -1.287267e+001 -2.032000e+000 2.517211e+001
      vertex   -1.287267e+001 0.000000e+000 2.517211e+001
      vertex   -1.279732e+001 0.000000e+000 2.481262e+001
    endloop
  endfacet
  facet normal -9.891303e-001 0.000000e+000 -1.470418e-001
    outer loop
      vertex   -1.279732e+001 -2.032000e+000 2.481262e+001
      vertex   -1.279732e+001 0.000000e+000 2.481262e+001
      vertex   -1.274332e+001 0.000000e+000 2.444932e+001
    endloop
  endfacet
  facet normal -9.960823e-001 0.000000e+000 -8.843050e-002
    outer loop
      vertex   -1.274332e+001 -2.032000e+000 2.444932e+001
      vertex   -1.274332e+001 0.000000e+000 2.444932e+001
      vertex   -1.271084e+001 0.000000e+000 2.408347e+001
    endloop
  endfacet
  facet normal -9.995645e-001 0.000000e+000 -2.951110e-002
    outer loop
      vertex   -1.271084e+001 -2.032000e+000 2.408347e+001
      vertex   -1.271084e+001 0.000000e+000 2.408347e+001
      vertex   -1.270000e+001 0.000000e+000 2.371633e+001
    endloop
  endfacet
  facet normal -9.995645e-001 0.000000e+000 -2.951110e-002
    outer loop
      vertex   -1.270000e+001 -2.032000e+000 2.371633e+001
      vertex   -1.271084e+001 -2.032000e+000 2.408347e+001
      vertex   -1.270000e+001 0.000000e+000 2.371633e+001
    endloop
  endfacet
  facet normal -7.782929e-001 -1.097812e-015 -6.279014e-001
    outer loop
      vertex   -1.419710e+001 -2.032000e+000 2.776499e+001
      vertex   -1.396648e+001 0.000000e+000 2.747913e+001
      vertex   -1.396648e+001 -2.032000e+000 2.747913e+001
    endloop
  endfacet
  facet normal -8.139812e-001 -0.000000e+000 -5.808912e-001
    outer loop
      vertex   -1.396648e+001 -2.032000e+000 2.747913e+001
      vertex   -1.375312e+001 0.000000e+000 2.718016e+001
      vertex   -1.375312e+001 -2.032000e+000 2.718016e+001
    endloop
  endfacet
  facet normal -8.468340e-001 -0.000000e+000 -5.318574e-001
    outer loop
      vertex   -1.375312e+001 -2.032000e+000 2.718016e+001
      vertex   -1.355777e+001 0.000000e+000 2.686912e+001
      vertex   -1.355777e+001 -2.032000e+000 2.686912e+001
    endloop
  endfacet
  facet normal -8.767367e-001 -0.000000e+000 -4.809707e-001
    outer loop
      vertex   -1.355777e+001 -2.032000e+000 2.686912e+001
      vertex   -1.338111e+001 0.000000e+000 2.654710e+001
      vertex   -1.338111e+001 -2.032000e+000 2.654710e+001
    endloop
  endfacet
  facet normal -9.035851e-001 -0.000000e+000 -4.284086e-001
    outer loop
      vertex   -1.338111e+001 -2.032000e+000 2.654710e+001
      vertex   -1.322376e+001 0.000000e+000 2.621521e+001
      vertex   -1.322376e+001 -2.032000e+000 2.621521e+001
    endloop
  endfacet
  facet normal -9.272859e-001 -6.545141e-016 -3.743540e-001
    outer loop
      vertex   -1.322376e+001 -2.032000e+000 2.621521e+001
      vertex   -1.308626e+001 0.000000e+000 2.587463e+001
      vertex   -1.308626e+001 -2.032000e+000 2.587463e+001
    endloop
  endfacet
  facet normal -9.477563e-001 -0.000000e+000 -3.189953e-001
    outer loop
      vertex   -1.308626e+001 -2.032000e+000 2.587463e+001
      vertex   -1.296910e+001 0.000000e+000 2.552652e+001
      vertex   -1.296910e+001 -2.032000e+000 2.552652e+001
    endloop
  endfacet
  facet normal -9.649251e-001 -0.000000e+000 -2.625254e-001
    outer loop
      vertex   -1.296910e+001 -2.032000e+000 2.552652e+001
      vertex   -1.287267e+001 0.000000e+000 2.517211e+001
      vertex   -1.287267e+001 -2.032000e+000 2.517211e+001
    endloop
  endfacet
  facet normal -9.787324e-001 -0.000000e+000 -2.051409e-001
    outer loop
      vertex   -1.287267e+001 -2.032000e+000 2.517211e+001
      vertex   -1.279732e+001 0.000000e+000 2.481262e+001
      vertex   -1.279732e+001 -2.032000e+000 2.481262e+001
    endloop
  endfacet
  facet normal -9.891303e-001 -0.000000e+000 -1.470418e-001
    outer loop
      vertex   -1.279732e+001 -2.032000e+000 2.481262e+001
      vertex   -1.274332e+001 0.000000e+000 2.444932e+001
      vertex   -1.274332e+001 -2.032000e+000 2.444932e+001
    endloop
  endfacet
  facet normal -9.960823e-001 -0.000000e+000 -8.843050e-002
    outer loop
      vertex   -1.274332e+001 -2.032000e+000 2.444932e+001
      vertex   -1.271084e+001 0.000000e+000 2.408347e+001
      vertex   -1.271084e+001 -2.032000e+000 2.408347e+001
    endloop
  endfacet
  facet normal 3.675054e-001 0.000000e+000 -9.300214e-001
    outer loop
      vertex   -2.409044e+001 0.000000e+000 3.000204e+001
      vertex   -2.368492e+001 0.000000e+000 3.016229e+001
      vertex   -2.409044e+001 -2.032000e+000 3.000204e+001
    endloop
  endfacet
  facet normal 3.675054e-001 0.000000e+000 -9.300214e-001
    outer loop
      vertex   -2.409044e+001 -2.032000e+000 3.000204e+001
      vertex   -2.368492e+001 0.000000e+000 3.016229e+001
      vertex   -2.368492e+001 -2.032000e+000 3.016229e+001
    endloop
  endfacet
  facet normal 3.203741e-001 0.000000e+000 -9.472911e-001
    outer loop
      vertex   -2.368492e+001 -2.032000e+000 3.016229e+001
      vertex   -2.368492e+001 0.000000e+000 3.016229e+001
      vertex   -2.327186e+001 0.000000e+000 3.030198e+001
    endloop
  endfacet
  facet normal 2.724356e-001 0.000000e+000 -9.621740e-001
    outer loop
      vertex   -2.327186e+001 -2.032000e+000 3.030198e+001
      vertex   -2.327186e+001 0.000000e+000 3.030198e+001
      vertex   -2.285231e+001 0.000000e+000 3.042077e+001
    endloop
  endfacet
  facet normal 2.238106e-001 0.000000e+000 -9.746327e-001
    outer loop
      vertex   -2.285231e+001 -2.032000e+000 3.042077e+001
      vertex   -2.285231e+001 0.000000e+000 3.042077e+001
      vertex   -2.242734e+001 0.000000e+000 3.051836e+001
    endloop
  endfacet
  facet normal 1.746218e-001 0.000000e+000 -9.846356e-001
    outer loop
      vertex   -2.242734e+001 -2.032000e+000 3.051836e+001
      vertex   -2.242734e+001 0.000000e+000 3.051836e+001
      vertex   -2.199800e+001 0.000000e+000 3.059451e+001
    endloop
  endfacet
  facet normal 1.249929e-001 0.000000e+000 -9.921576e-001
    outer loop
      vertex   -2.199800e+001 -2.032000e+000 3.059451e+001
      vertex   -2.199800e+001 0.000000e+000 3.059451e+001
      vertex   -2.156538e+001 0.000000e+000 3.064901e+001
    endloop
  endfacet
  facet normal 7.504914e-002 0.000000e+000 -9.971798e-001
    outer loop
      vertex   -2.156538e+001 -2.032000e+000 3.064901e+001
      vertex   -2.156538e+001 0.000000e+000 3.064901e+001
      vertex   -2.113057e+001 0.000000e+000 3.068173e+001
    endloop
  endfacet
  facet normal 2.491628e-002 0.000000e+000 -9.996895e-001
    outer loop
      vertex   -2.113057e+001 -2.032000e+000 3.068173e+001
      vertex   -2.113057e+001 0.000000e+000 3.068173e+001
      vertex   -2.069466e+001 0.000000e+000 3.069260e+001
    endloop
  endfacet
  facet normal -2.527936e-002 0.000000e+000 -9.996804e-001
    outer loop
      vertex   -2.069466e+001 -2.032000e+000 3.069260e+001
      vertex   -2.069466e+001 0.000000e+000 3.069260e+001
      vertex   -2.025876e+001 0.000000e+000 3.068157e+001
    endloop
  endfacet
  facet normal -7.541131e-002 0.000000e+000 -9.971525e-001
    outer loop
      vertex   -2.025876e+001 -2.032000e+000 3.068157e+001
      vertex   -2.025876e+001 0.000000e+000 3.068157e+001
      vertex   -1.982396e+001 0.000000e+000 3.064869e+001
    endloop
  endfacet
  facet normal -1.253533e-001 0.000000e+000 -9.921122e-001
    outer loop
      vertex   -1.982396e+001 -2.032000e+000 3.064869e+001
      vertex   -1.982396e+001 0.000000e+000 3.064869e+001
      vertex   -1.939136e+001 0.000000e+000 3.059403e+001
    endloop
  endfacet
  facet normal -1.749794e-001 0.000000e+000 -9.845721e-001
    outer loop
      vertex   -1.939136e+001 -2.032000e+000 3.059403e+001
      vertex   -1.939136e+001 0.000000e+000 3.059403e+001
      vertex   -1.896205e+001 0.000000e+000 3.051773e+001
    endloop
  endfacet
  facet normal -2.241646e-001 0.000000e+000 -9.745513e-001
    outer loop
      vertex   -1.896205e+001 -2.032000e+000 3.051773e+001
      vertex   -1.896205e+001 0.000000e+000 3.051773e+001
      vertex   -1.853711e+001 0.000000e+000 3.041999e+001
    endloop
  endfacet
  facet normal -2.727850e-001 0.000000e+000 -9.620750e-001
    outer loop
      vertex   -1.853711e+001 -2.032000e+000 3.041999e+001
      vertex   -1.853711e+001 0.000000e+000 3.041999e+001
      vertex   -1.811761e+001 0.000000e+000 3.030105e+001
    endloop
  endfacet
  facet normal -3.207181e-001 0.000000e+000 -9.471747e-001
    outer loop
      vertex   -1.811761e+001 -2.032000e+000 3.030105e+001
      vertex   -1.811761e+001 0.000000e+000 3.030105e+001
      vertex   -1.770460e+001 0.000000e+000 3.016120e+001
    endloop
  endfacet
  facet normal -3.678431e-001 0.000000e+000 -9.298879e-001
    outer loop
      vertex   -1.770460e+001 -2.032000e+000 3.016120e+001
      vertex   -1.770460e+001 0.000000e+000 3.016120e+001
      vertex   -1.729913e+001 0.000000e+000 3.000081e+001
    endloop
  endfacet
  facet normal -4.140413e-001 0.000000e+000 -9.102581e-001
    outer loop
      vertex   -1.729913e+001 -2.032000e+000 3.000081e+001
      vertex   -1.729913e+001 0.000000e+000 3.000081e+001
      vertex   -1.690222e+001 0.000000e+000 2.982027e+001
    endloop
  endfacet
  facet normal -4.591963e-001 0.000000e+000 -8.883348e-001
    outer loop
      vertex   -1.690222e+001 -2.032000e+000 2.982027e+001
      vertex   -1.690222e+001 0.000000e+000 2.982027e+001
      vertex   -1.651487e+001 0.000000e+000 2.962004e+001
    endloop
  endfacet
  facet normal -5.031943e-001 1.510906e-015 -8.641733e-001
    outer loop
      vertex   -1.651487e+001 -2.032000e+000 2.962004e+001
      vertex   -1.651487e+001 0.000000e+000 2.962004e+001
      vertex   -1.613806e+001 0.000000e+000 2.940063e+001
    endloop
  endfacet
  facet normal -5.459245e-001 0.000000e+000 -8.378344e-001
    outer loop
      vertex   -1.613806e+001 -2.032000e+000 2.940063e+001
      vertex   -1.613806e+001 0.000000e+000 2.940063e+001
      vertex   -1.577273e+001 0.000000e+000 2.916258e+001
    endloop
  endfacet
  facet normal -5.872791e-001 1.415114e-015 -8.093845e-001
    outer loop
      vertex   -1.577273e+001 -2.032000e+000 2.916258e+001
      vertex   -1.577273e+001 0.000000e+000 2.916258e+001
      vertex   -1.541981e+001 0.000000e+000 2.890650e+001
    endloop
  endfacet
  facet normal -6.271540e-001 0.000000e+000 -7.788953e-001
    outer loop
      vertex   -1.541981e+001 -2.032000e+000 2.890650e+001
      vertex   -1.541981e+001 0.000000e+000 2.890650e+001
      vertex   -1.508018e+001 0.000000e+000 2.863304e+001
    endloop
  endfacet
  facet normal -6.654488e-001 0.000000e+000 -7.464435e-001
    outer loop
      vertex   -1.508018e+001 -2.032000e+000 2.863304e+001
      vertex   -1.508018e+001 0.000000e+000 2.863304e+001
      vertex   -1.475470e+001 -2.032000e+000 2.834288e+001
    endloop
  endfacet
  facet normal -6.271540e-001 0.000000e+000 -7.788953e-001
    outer loop
      vertex   -1.508018e+001 -2.032000e+000 2.863304e+001
      vertex   -1.541981e+001 -2.032000e+000 2.890650e+001
      vertex   -1.508018e+001 0.000000e+000 2.863304e+001
    endloop
  endfacet
  facet normal 3.203741e-001 0.000000e+000 -9.472911e-001
    outer loop
      vertex   -2.368492e+001 -2.032000e+000 3.016229e+001
      vertex   -2.327186e+001 0.000000e+000 3.030198e+001
      vertex   -2.327186e+001 -2.032000e+000 3.030198e+001
    endloop
  endfacet
  facet normal 2.724356e-001 0.000000e+000 -9.621740e-001
    outer loop
      vertex   -2.327186e+001 -2.032000e+000 3.030198e+001
      vertex   -2.285231e+001 0.000000e+000 3.042077e+001
      vertex   -2.285231e+001 -2.032000e+000 3.042077e+001
    endloop
  endfacet
  facet normal 2.238106e-001 0.000000e+000 -9.746327e-001
    outer loop
      vertex   -2.285231e+001 -2.032000e+000 3.042077e+001
      vertex   -2.242734e+001 0.000000e+000 3.051836e+001
      vertex   -2.242734e+001 -2.032000e+000 3.051836e+001
    endloop
  endfacet
  facet normal 1.746218e-001 0.000000e+000 -9.846356e-001
    outer loop
      vertex   -2.242734e+001 -2.032000e+000 3.051836e+001
      vertex   -2.199800e+001 0.000000e+000 3.059451e+001
      vertex   -2.199800e+001 -2.032000e+000 3.059451e+001
    endloop
  endfacet
  facet normal 1.249929e-001 0.000000e+000 -9.921576e-001
    outer loop
      vertex   -2.199800e+001 -2.032000e+000 3.059451e+001
      vertex   -2.156538e+001 0.000000e+000 3.064901e+001
      vertex   -2.156538e+001 -2.032000e+000 3.064901e+001
    endloop
  endfacet
  facet normal 7.504914e-002 0.000000e+000 -9.971798e-001
    outer loop
      vertex   -2.156538e+001 -2.032000e+000 3.064901e+001
      vertex   -2.113057e+001 0.000000e+000 3.068173e+001
      vertex   -2.113057e+001 -2.032000e+000 3.068173e+001
    endloop
  endfacet
  facet normal 2.491628e-002 0.000000e+000 -9.996895e-001
    outer loop
      vertex   -2.113057e+001 -2.032000e+000 3.068173e+001
      vertex   -2.069466e+001 0.000000e+000 3.069260e+001
      vertex   -2.069466e+001 -2.032000e+000 3.069260e+001
    endloop
  endfacet
  facet normal -2.527936e-002 -0.000000e+000 -9.996804e-001
    outer loop
      vertex   -2.069466e+001 -2.032000e+000 3.069260e+001
      vertex   -2.025876e+001 0.000000e+000 3.068157e+001
      vertex   -2.025876e+001 -2.032000e+000 3.068157e+001
    endloop
  endfacet
  facet normal -7.541131e-002 -0.000000e+000 -9.971525e-001
    outer loop
      vertex   -2.025876e+001 -2.032000e+000 3.068157e+001
      vertex   -1.982396e+001 0.000000e+000 3.064869e+001
      vertex   -1.982396e+001 -2.032000e+000 3.064869e+001
    endloop
  endfacet
  facet normal -1.253533e-001 -0.000000e+000 -9.921122e-001
    outer loop
      vertex   -1.982396e+001 -2.032000e+000 3.064869e+001
      vertex   -1.939136e+001 0.000000e+000 3.059403e+001
      vertex   -1.939136e+001 -2.032000e+000 3.059403e+001
    endloop
  endfacet
  facet normal -1.749794e-001 -0.000000e+000 -9.845721e-001
    outer loop
      vertex   -1.939136e+001 -2.032000e+000 3.059403e+001
      vertex   -1.896205e+001 0.000000e+000 3.051773e+001
      vertex   -1.896205e+001 -2.032000e+000 3.051773e+001
    endloop
  endfacet
  facet normal -2.241646e-001 -0.000000e+000 -9.745513e-001
    outer loop
      vertex   -1.896205e+001 -2.032000e+000 3.051773e+001
      vertex   -1.853711e+001 0.000000e+000 3.041999e+001
      vertex   -1.853711e+001 -2.032000e+000 3.041999e+001
    endloop
  endfacet
  facet normal -2.727850e-001 -0.000000e+000 -9.620750e-001
    outer loop
      vertex   -1.853711e+001 -2.032000e+000 3.041999e+001
      vertex   -1.811761e+001 0.000000e+000 3.030105e+001
      vertex   -1.811761e+001 -2.032000e+000 3.030105e+001
    endloop
  endfacet
  facet normal -3.207181e-001 -0.000000e+000 -9.471747e-001
    outer loop
      vertex   -1.811761e+001 -2.032000e+000 3.030105e+001
      vertex   -1.770460e+001 0.000000e+000 3.016120e+001
      vertex   -1.770460e+001 -2.032000e+000 3.016120e+001
    endloop
  endfacet
  facet normal -3.678431e-001 -0.000000e+000 -9.298879e-001
    outer loop
      vertex   -1.770460e+001 -2.032000e+000 3.016120e+001
      vertex   -1.729913e+001 0.000000e+000 3.000081e+001
      vertex   -1.729913e+001 -2.032000e+000 3.000081e+001
    endloop
  endfacet
  facet normal -4.140413e-001 -0.000000e+000 -9.102581e-001
    outer loop
      vertex   -1.729913e+001 -2.032000e+000 3.000081e+001
      vertex   -1.690222e+001 0.000000e+000 2.982027e+001
      vertex   -1.690222e+001 -2.032000e+000 2.982027e+001
    endloop
  endfacet
  facet normal -4.591963e-001 1.553149e-015 -8.883348e-001
    outer loop
      vertex   -1.690222e+001 -2.032000e+000 2.982027e+001
      vertex   -1.651487e+001 0.000000e+000 2.962004e+001
      vertex   -1.651487e+001 -2.032000e+000 2.962004e+001
    endloop
  endfacet
  facet normal -5.031943e-001 -0.000000e+000 -8.641733e-001
    outer loop
      vertex   -1.651487e+001 -2.032000e+000 2.962004e+001
      vertex   -1.613806e+001 0.000000e+000 2.940063e+001
      vertex   -1.613806e+001 -2.032000e+000 2.940063e+001
    endloop
  endfacet
  facet normal -5.459245e-001 1.464855e-015 -8.378344e-001
    outer loop
      vertex   -1.613806e+001 -2.032000e+000 2.940063e+001
      vertex   -1.577273e+001 0.000000e+000 2.916258e+001
      vertex   -1.577273e+001 -2.032000e+000 2.916258e+001
    endloop
  endfacet
  facet normal -5.872791e-001 -0.000000e+000 -8.093845e-001
    outer loop
      vertex   -1.577273e+001 -2.032000e+000 2.916258e+001
      vertex   -1.541981e+001 0.000000e+000 2.890650e+001
      vertex   -1.541981e+001 -2.032000e+000 2.890650e+001
    endloop
  endfacet
  facet normal -6.654488e-001 -0.000000e+000 -7.464435e-001
    outer loop
      vertex   -1.508018e+001 0.000000e+000 2.863304e+001
      vertex   -1.475470e+001 0.000000e+000 2.834288e+001
      vertex   -1.475470e+001 -2.032000e+000 2.834288e+001
    endloop
  endfacet
  facet normal -7.020669e-001 0.000000e+000 -7.121110e-001
    outer loop
      vertex   -1.475470e+001 -2.032000e+000 2.834288e+001
      vertex   -1.475470e+001 0.000000e+000 2.834288e+001
      vertex   -1.444419e+001 -2.032000e+000 2.803675e+001
    endloop
  endfacet
  facet normal -7.020669e-001 0.000000e+000 -7.121110e-001
    outer loop
      vertex   -1.444419e+001 -2.032000e+000 2.803675e+001
      vertex   -1.475470e+001 0.000000e+000 2.834288e+001
      vertex   -1.444419e+001 0.000000e+000 2.803675e+001
    endloop
  endfacet
  facet normal -9.205049e-001 0.000000e+000 -3.907311e-001
    outer loop
      vertex   -2.508290e+001 0.000000e+000 3.234012e+001
      vertex   -2.409044e+001 0.000000e+000 3.000204e+001
      vertex   -2.508290e+001 -2.032000e+000 3.234012e+001
    endloop
  endfacet
  facet normal -9.205049e-001 -0.000000e+000 -3.907311e-001
    outer loop
      vertex   -2.508290e+001 -2.032000e+000 3.234012e+001
      vertex   -2.409044e+001 0.000000e+000 3.000204e+001
      vertex   -2.409044e+001 -2.032000e+000 3.000204e+001
    endloop
  endfacet
  facet normal 7.040502e-001 -0.000000e+000 7.101502e-001
    outer loop
      vertex   -1.261611e+001 -2.032000e+000 2.980019e+001
      vertex   -1.261611e+001 0.000000e+000 2.980019e+001
      vertex   -1.297184e+001 -2.032000e+000 3.015287e+001
    endloop
  endfacet
  facet normal 7.040502e-001 0.000000e+000 7.101502e-001
    outer loop
      vertex   -1.297184e+001 -2.032000e+000 3.015287e+001
      vertex   -1.261611e+001 0.000000e+000 2.980019e+001
      vertex   -1.297184e+001 0.000000e+000 3.015287e+001
    endloop
  endfacet
  facet normal 6.716708e-001 0.000000e+000 7.408498e-001
    outer loop
      vertex   -1.334296e+001 -2.032000e+000 3.048933e+001
      vertex   -1.297184e+001 0.000000e+000 3.015287e+001
      vertex   -1.334296e+001 0.000000e+000 3.048933e+001
    endloop
  endfacet
  facet normal 6.379542e-001 -0.000000e+000 7.700743e-001
    outer loop
      vertex   -1.372872e+001 0.000000e+000 3.080890e+001
      vertex   -1.334296e+001 -2.032000e+000 3.048933e+001
      vertex   -1.334296e+001 0.000000e+000 3.048933e+001
    endloop
  endfacet
  facet normal 6.379542e-001 0.000000e+000 7.700743e-001
    outer loop
      vertex   -1.372872e+001 0.000000e+000 3.080890e+001
      vertex   -1.372872e+001 -2.032000e+000 3.080890e+001
      vertex   -1.334296e+001 -2.032000e+000 3.048933e+001
    endloop
  endfacet
  facet normal 6.029675e-001 0.000000e+000 7.977658e-001
    outer loop
      vertex   -1.372872e+001 0.000000e+000 3.080890e+001
      vertex   -1.412834e+001 0.000000e+000 3.111095e+001
      vertex   -1.372872e+001 -2.032000e+000 3.080890e+001
    endloop
  endfacet
  facet normal 6.029675e-001 0.000000e+000 7.977658e-001
    outer loop
      vertex   -1.372872e+001 -2.032000e+000 3.080890e+001
      vertex   -1.412834e+001 0.000000e+000 3.111095e+001
      vertex   -1.412834e+001 -2.032000e+000 3.111095e+001
    endloop
  endfacet
  facet normal 5.667803e-001 -0.000000e+000 8.238690e-001
    outer loop
      vertex   -1.412834e+001 -2.032000e+000 3.111095e+001
      vertex   -1.412834e+001 0.000000e+000 3.111095e+001
      vertex   -1.454104e+001 0.000000e+000 3.139487e+001
    endloop
  endfacet
  facet normal 5.294648e-001 -0.000000e+000 8.483319e-001
    outer loop
      vertex   -1.454104e+001 -2.032000e+000 3.139487e+001
      vertex   -1.454104e+001 0.000000e+000 3.139487e+001
      vertex   -1.496600e+001 0.000000e+000 3.166009e+001
    endloop
  endfacet
  facet normal 4.910952e-001 -0.000000e+000 8.711059e-001
    outer loop
      vertex   -1.496600e+001 -2.032000e+000 3.166009e+001
      vertex   -1.496600e+001 0.000000e+000 3.166009e+001
      vertex   -1.540237e+001 0.000000e+000 3.190610e+001
    endloop
  endfacet
  facet normal 4.517478e-001 -0.000000e+000 8.921457e-001
    outer loop
      vertex   -1.540237e+001 -2.032000e+000 3.190610e+001
      vertex   -1.540237e+001 0.000000e+000 3.190610e+001
      vertex   -1.584927e+001 0.000000e+000 3.213239e+001
    endloop
  endfacet
  facet normal 4.115011e-001 -0.000000e+000 9.114093e-001
    outer loop
      vertex   -1.584927e+001 -2.032000e+000 3.213239e+001
      vertex   -1.584927e+001 0.000000e+000 3.213239e+001
      vertex   -1.630583e+001 0.000000e+000 3.233853e+001
    endloop
  endfacet
  facet normal 3.704351e-001 -0.000000e+000 9.288583e-001
    outer loop
      vertex   -1.630583e+001 -2.032000e+000 3.233853e+001
      vertex   -1.630583e+001 0.000000e+000 3.233853e+001
      vertex   -1.677112e+001 0.000000e+000 3.252409e+001
    endloop
  endfacet
  facet normal 3.286316e-001 -0.000000e+000 9.444582e-001
    outer loop
      vertex   -1.677112e+001 -2.032000e+000 3.252409e+001
      vertex   -1.677112e+001 0.000000e+000 3.252409e+001
      vertex   -1.724423e+001 0.000000e+000 3.268871e+001
    endloop
  endfacet
  facet normal 2.861739e-001 -0.000000e+000 9.581777e-001
    outer loop
      vertex   -1.724423e+001 -2.032000e+000 3.268871e+001
      vertex   -1.724423e+001 0.000000e+000 3.268871e+001
      vertex   -1.772421e+001 0.000000e+000 3.283207e+001
    endloop
  endfacet
  facet normal 2.431464e-001 -0.000000e+000 9.699896e-001
    outer loop
      vertex   -1.772421e+001 -2.032000e+000 3.283207e+001
      vertex   -1.772421e+001 0.000000e+000 3.283207e+001
      vertex   -1.821011e+001 0.000000e+000 3.295387e+001
    endloop
  endfacet
  facet normal 1.996349e-001 -0.000000e+000 9.798704e-001
    outer loop
      vertex   -1.821011e+001 -2.032000e+000 3.295387e+001
      vertex   -1.821011e+001 0.000000e+000 3.295387e+001
      vertex   -1.870096e+001 0.000000e+000 3.305387e+001
    endloop
  endfacet
  facet normal 1.557259e-001 -0.000000e+000 9.878003e-001
    outer loop
      vertex   -1.870096e+001 -2.032000e+000 3.305387e+001
      vertex   -1.870096e+001 0.000000e+000 3.305387e+001
      vertex   -1.919578e+001 0.000000e+000 3.313188e+001
    endloop
  endfacet
  facet normal 1.115068e-001 -0.000000e+000 9.937637e-001
    outer loop
      vertex   -1.919578e+001 -2.032000e+000 3.313188e+001
      vertex   -1.919578e+001 0.000000e+000 3.313188e+001
      vertex   -1.969359e+001 0.000000e+000 3.318773e+001
    endloop
  endfacet
  facet normal 6.706578e-002 -0.000000e+000 9.977486e-001
    outer loop
      vertex   -1.969359e+001 -2.032000e+000 3.318773e+001
      vertex   -1.969359e+001 0.000000e+000 3.318773e+001
      vertex   -2.019339e+001 0.000000e+000 3.322133e+001
    endloop
  endfacet
  facet normal 2.249122e-002 -0.000000e+000 9.997470e-001
    outer loop
      vertex   -2.019339e+001 -2.032000e+000 3.322133e+001
      vertex   -2.019339e+001 0.000000e+000 3.322133e+001
      vertex   -2.069420e+001 0.000000e+000 3.323260e+001
    endloop
  endfacet
  facet normal -2.212811e-002 0.000000e+000 9.997551e-001
    outer loop
      vertex   -2.069420e+001 -2.032000e+000 3.323260e+001
      vertex   -2.069420e+001 0.000000e+000 3.323260e+001
      vertex   -2.119501e+001 0.000000e+000 3.322151e+001
    endloop
  endfacet
  facet normal -6.670339e-002 0.000000e+000 9.977728e-001
    outer loop
      vertex   -2.119501e+001 -2.032000e+000 3.322151e+001
      vertex   -2.119501e+001 0.000000e+000 3.322151e+001
      vertex   -2.169483e+001 0.000000e+000 3.318810e+001
    endloop
  endfacet
  facet normal -1.111459e-001 0.000000e+000 9.938041e-001
    outer loop
      vertex   -2.169483e+001 -2.032000e+000 3.318810e+001
      vertex   -2.169483e+001 0.000000e+000 3.318810e+001
      vertex   -2.219266e+001 0.000000e+000 3.313242e+001
    endloop
  endfacet
  facet normal -1.553671e-001 0.000000e+000 9.878568e-001
    outer loop
      vertex   -2.219266e+001 -2.032000e+000 3.313242e+001
      vertex   -2.219266e+001 0.000000e+000 3.313242e+001
      vertex   -2.268750e+001 0.000000e+000 3.305459e+001
    endloop
  endfacet
  facet normal -1.992790e-001 0.000000e+000 9.799428e-001
    outer loop
      vertex   -2.268750e+001 -2.032000e+000 3.305459e+001
      vertex   -2.268750e+001 0.000000e+000 3.305459e+001
      vertex   -2.317839e+001 0.000000e+000 3.295477e+001
    endloop
  endfacet
  facet normal -2.427941e-001 0.000000e+000 9.700778e-001
    outer loop
      vertex   -2.317839e+001 -2.032000e+000 3.295477e+001
      vertex   -2.317839e+001 0.000000e+000 3.295477e+001
      vertex   -2.366433e+001 0.000000e+000 3.283314e+001
    endloop
  endfacet
  facet normal -2.858259e-001 0.000000e+000 9.582816e-001
    outer loop
      vertex   -2.366433e+001 -2.032000e+000 3.283314e+001
      vertex   -2.366433e+001 0.000000e+000 3.283314e+001
      vertex   -2.414437e+001 0.000000e+000 3.268997e+001
    endloop
  endfacet
  facet normal -3.282886e-001 0.000000e+000 9.445775e-001
    outer loop
      vertex   -2.414437e+001 -2.032000e+000 3.268997e+001
      vertex   -2.414437e+001 0.000000e+000 3.268997e+001
      vertex   -2.461754e+001 0.000000e+000 3.252551e+001
    endloop
  endfacet
  facet normal -3.700977e-001 0.000000e+000 9.289928e-001
    outer loop
      vertex   -2.461754e+001 -2.032000e+000 3.252551e+001
      vertex   -2.461754e+001 0.000000e+000 3.252551e+001
      vertex   -2.508290e+001 0.000000e+000 3.234012e+001
    endloop
  endfacet
  facet normal -3.700977e-001 0.000000e+000 9.289928e-001
    outer loop
      vertex   -2.508290e+001 -2.032000e+000 3.234012e+001
      vertex   -2.461754e+001 -2.032000e+000 3.252551e+001
      vertex   -2.508290e+001 0.000000e+000 3.234012e+001
    endloop
  endfacet
  facet normal 6.716708e-001 -0.000000e+000 7.408498e-001
    outer loop
      vertex   -1.297184e+001 -2.032000e+000 3.015287e+001
      vertex   -1.297184e+001 0.000000e+000 3.015287e+001
      vertex   -1.334296e+001 -2.032000e+000 3.048933e+001
    endloop
  endfacet
  facet normal 5.667803e-001 0.000000e+000 8.238690e-001
    outer loop
      vertex   -1.412834e+001 -2.032000e+000 3.111095e+001
      vertex   -1.454104e+001 0.000000e+000 3.139487e+001
      vertex   -1.454104e+001 -2.032000e+000 3.139487e+001
    endloop
  endfacet
  facet normal 5.294648e-001 0.000000e+000 8.483319e-001
    outer loop
      vertex   -1.454104e+001 -2.032000e+000 3.139487e+001
      vertex   -1.496600e+001 0.000000e+000 3.166009e+001
      vertex   -1.496600e+001 -2.032000e+000 3.166009e+001
    endloop
  endfacet
  facet normal 4.910952e-001 0.000000e+000 8.711059e-001
    outer loop
      vertex   -1.496600e+001 -2.032000e+000 3.166009e+001
      vertex   -1.540237e+001 0.000000e+000 3.190610e+001
      vertex   -1.540237e+001 -2.032000e+000 3.190610e+001
    endloop
  endfacet
  facet normal 4.517478e-001 0.000000e+000 8.921457e-001
    outer loop
      vertex   -1.540237e+001 -2.032000e+000 3.190610e+001
      vertex   -1.584927e+001 0.000000e+000 3.213239e+001
      vertex   -1.584927e+001 -2.032000e+000 3.213239e+001
    endloop
  endfacet
  facet normal 4.115011e-001 0.000000e+000 9.114093e-001
    outer loop
      vertex   -1.584927e+001 -2.032000e+000 3.213239e+001
      vertex   -1.630583e+001 0.000000e+000 3.233853e+001
      vertex   -1.630583e+001 -2.032000e+000 3.233853e+001
    endloop
  endfacet
  facet normal 3.704351e-001 0.000000e+000 9.288583e-001
    outer loop
      vertex   -1.630583e+001 -2.032000e+000 3.233853e+001
      vertex   -1.677112e+001 0.000000e+000 3.252409e+001
      vertex   -1.677112e+001 -2.032000e+000 3.252409e+001
    endloop
  endfacet
  facet normal 3.286316e-001 0.000000e+000 9.444582e-001
    outer loop
      vertex   -1.677112e+001 -2.032000e+000 3.252409e+001
      vertex   -1.724423e+001 0.000000e+000 3.268871e+001
      vertex   -1.724423e+001 -2.032000e+000 3.268871e+001
    endloop
  endfacet
  facet normal 2.861739e-001 0.000000e+000 9.581777e-001
    outer loop
      vertex   -1.724423e+001 -2.032000e+000 3.268871e+001
      vertex   -1.772421e+001 0.000000e+000 3.283207e+001
      vertex   -1.772421e+001 -2.032000e+000 3.283207e+001
    endloop
  endfacet
  facet normal 2.431464e-001 0.000000e+000 9.699896e-001
    outer loop
      vertex   -1.772421e+001 -2.032000e+000 3.283207e+001
      vertex   -1.821011e+001 0.000000e+000 3.295387e+001
      vertex   -1.821011e+001 -2.032000e+000 3.295387e+001
    endloop
  endfacet
  facet normal 1.996349e-001 0.000000e+000 9.798704e-001
    outer loop
      vertex   -1.821011e+001 -2.032000e+000 3.295387e+001
      vertex   -1.870096e+001 0.000000e+000 3.305387e+001
      vertex   -1.870096e+001 -2.032000e+000 3.305387e+001
    endloop
  endfacet
  facet normal 1.557259e-001 0.000000e+000 9.878003e-001
    outer loop
      vertex   -1.870096e+001 -2.032000e+000 3.305387e+001
      vertex   -1.919578e+001 0.000000e+000 3.313188e+001
      vertex   -1.919578e+001 -2.032000e+000 3.313188e+001
    endloop
  endfacet
  facet normal 1.115068e-001 0.000000e+000 9.937637e-001
    outer loop
      vertex   -1.919578e+001 -2.032000e+000 3.313188e+001
      vertex   -1.969359e+001 0.000000e+000 3.318773e+001
      vertex   -1.969359e+001 -2.032000e+000 3.318773e+001
    endloop
  endfacet
  facet normal 6.706578e-002 0.000000e+000 9.977486e-001
    outer loop
      vertex   -1.969359e+001 -2.032000e+000 3.318773e+001
      vertex   -2.019339e+001 0.000000e+000 3.322133e+001
      vertex   -2.019339e+001 -2.032000e+000 3.322133e+001
    endloop
  endfacet
  facet normal 2.249122e-002 0.000000e+000 9.997470e-001
    outer loop
      vertex   -2.019339e+001 -2.032000e+000 3.322133e+001
      vertex   -2.069420e+001 0.000000e+000 3.323260e+001
      vertex   -2.069420e+001 -2.032000e+000 3.323260e+001
    endloop
  endfacet
  facet normal -2.212811e-002 0.000000e+000 9.997551e-001
    outer loop
      vertex   -2.069420e+001 -2.032000e+000 3.323260e+001
      vertex   -2.119501e+001 0.000000e+000 3.322151e+001
      vertex   -2.119501e+001 -2.032000e+000 3.322151e+001
    endloop
  endfacet
  facet normal -6.670339e-002 0.000000e+000 9.977728e-001
    outer loop
      vertex   -2.119501e+001 -2.032000e+000 3.322151e+001
      vertex   -2.169483e+001 0.000000e+000 3.318810e+001
      vertex   -2.169483e+001 -2.032000e+000 3.318810e+001
    endloop
  endfacet
  facet normal -1.111459e-001 0.000000e+000 9.938041e-001
    outer loop
      vertex   -2.169483e+001 -2.032000e+000 3.318810e+001
      vertex   -2.219266e+001 0.000000e+000 3.313242e+001
      vertex   -2.219266e+001 -2.032000e+000 3.313242e+001
    endloop
  endfacet
  facet normal -1.553671e-001 0.000000e+000 9.878568e-001
    outer loop
      vertex   -2.219266e+001 -2.032000e+000 3.313242e+001
      vertex   -2.268750e+001 0.000000e+000 3.305459e+001
      vertex   -2.268750e+001 -2.032000e+000 3.305459e+001
    endloop
  endfacet
  facet normal -1.992790e-001 0.000000e+000 9.799428e-001
    outer loop
      vertex   -2.268750e+001 -2.032000e+000 3.305459e+001
      vertex   -2.317839e+001 0.000000e+000 3.295477e+001
      vertex   -2.317839e+001 -2.032000e+000 3.295477e+001
    endloop
  endfacet
  facet normal -2.427941e-001 0.000000e+000 9.700778e-001
    outer loop
      vertex   -2.317839e+001 -2.032000e+000 3.295477e+001
      vertex   -2.366433e+001 0.000000e+000 3.283314e+001
      vertex   -2.366433e+001 -2.032000e+000 3.283314e+001
    endloop
  endfacet
  facet normal -2.858259e-001 0.000000e+000 9.582816e-001
    outer loop
      vertex   -2.366433e+001 -2.032000e+000 3.283314e+001
      vertex   -2.414437e+001 0.000000e+000 3.268997e+001
      vertex   -2.414437e+001 -2.032000e+000 3.268997e+001
    endloop
  endfacet
  facet normal -3.282886e-001 0.000000e+000 9.445775e-001
    outer loop
      vertex   -2.414437e+001 -2.032000e+000 3.268997e+001
      vertex   -2.461754e+001 0.000000e+000 3.252551e+001
      vertex   -2.461754e+001 -2.032000e+000 3.252551e+001
    endloop
  endfacet
  facet normal 9.997125e-001 -0.000000e+000 2.397895e-002
    outer loop
      vertex   -1.016000e+001 -2.032000e+000 2.371633e+001
      vertex   -1.016000e+001 0.000000e+000 2.371633e+001
      vertex   -1.017007e+001 -2.032000e+000 2.413646e+001
    endloop
  endfacet
  facet normal 9.997125e-001 0.000000e+000 2.397895e-002
    outer loop
      vertex   -1.017007e+001 -2.032000e+000 2.413646e+001
      vertex   -1.016000e+001 0.000000e+000 2.371633e+001
      vertex   -1.017007e+001 0.000000e+000 2.413646e+001
    endloop
  endfacet
  facet normal 9.974132e-001 -0.000000e+000 7.188171e-002
    outer loop
      vertex   -1.020028e+001 0.000000e+000 2.455563e+001
      vertex   -1.017007e+001 -2.032000e+000 2.413646e+001
      vertex   -1.017007e+001 0.000000e+000 2.413646e+001
    endloop
  endfacet
  facet normal 9.974132e-001 0.000000e+000 7.188171e-002
    outer loop
      vertex   -1.020028e+001 0.000000e+000 2.455563e+001
      vertex   -1.020028e+001 -2.032000e+000 2.455563e+001
      vertex   -1.017007e+001 -2.032000e+000 2.413646e+001
    endloop
  endfacet
  facet normal 9.928199e-001 0.000000e+000 1.196191e-001
    outer loop
      vertex   -1.020028e+001 0.000000e+000 2.455563e+001
      vertex   -1.025055e+001 0.000000e+000 2.497287e+001
      vertex   -1.020028e+001 -2.032000e+000 2.455563e+001
    endloop
  endfacet
  facet normal 9.928199e-001 0.000000e+000 1.196191e-001
    outer loop
      vertex   -1.020028e+001 -2.032000e+000 2.455563e+001
      vertex   -1.025055e+001 0.000000e+000 2.497287e+001
      vertex   -1.025055e+001 -2.032000e+000 2.497287e+001
    endloop
  endfacet
  facet normal 9.859431e-001 -0.000000e+000 1.670815e-001
    outer loop
      vertex   -1.025055e+001 -2.032000e+000 2.497287e+001
      vertex   -1.025055e+001 0.000000e+000 2.497287e+001
      vertex   -1.032077e+001 0.000000e+000 2.538722e+001
    endloop
  endfacet
  facet normal 9.767987e-001 -0.000000e+000 2.141595e-001
    outer loop
      vertex   -1.032077e+001 -2.032000e+000 2.538722e+001
      vertex   -1.032077e+001 0.000000e+000 2.538722e+001
      vertex   -1.041077e+001 0.000000e+000 2.579772e+001
    endloop
  endfacet
  facet normal 9.654077e-001 -0.000000e+000 2.607450e-001
    outer loop
      vertex   -1.041077e+001 -2.032000e+000 2.579772e+001
      vertex   -1.041077e+001 0.000000e+000 2.579772e+001
      vertex   -1.052035e+001 0.000000e+000 2.620344e+001
    endloop
  endfacet
  facet normal 9.517963e-001 -0.000000e+000 3.067307e-001
    outer loop
      vertex   -1.052035e+001 -2.032000e+000 2.620344e+001
      vertex   -1.052035e+001 0.000000e+000 2.620344e+001
      vertex   -1.064926e+001 0.000000e+000 2.660344e+001
    endloop
  endfacet
  facet normal 9.359959e-001 -0.000000e+000 3.520110e-001
    outer loop
      vertex   -1.064926e+001 -2.032000e+000 2.660344e+001
      vertex   -1.064926e+001 0.000000e+000 2.660344e+001
      vertex   -1.079719e+001 0.000000e+000 2.699679e+001
    endloop
  endfacet
  facet normal 9.180426e-001 -0.000000e+000 3.964817e-001
    outer loop
      vertex   -1.079719e+001 -2.032000e+000 2.699679e+001
      vertex   -1.079719e+001 0.000000e+000 2.699679e+001
      vertex   -1.096381e+001 0.000000e+000 2.738261e+001
    endloop
  endfacet
  facet normal 8.979779e-001 -0.000000e+000 4.400405e-001
    outer loop
      vertex   -1.096381e+001 -2.032000e+000 2.738261e+001
      vertex   -1.096381e+001 0.000000e+000 2.738261e+001
      vertex   -1.114874e+001 0.000000e+000 2.775999e+001
    endloop
  endfacet
  facet normal 8.758479e-001 -0.000000e+000 4.825872e-001
    outer loop
      vertex   -1.114874e+001 -2.032000e+000 2.775999e+001
      vertex   -1.114874e+001 0.000000e+000 2.775999e+001
      vertex   -1.135155e+001 0.000000e+000 2.812807e+001
    endloop
  endfacet
  facet normal 8.517035e-001 -0.000000e+000 5.240240e-001
    outer loop
      vertex   -1.135155e+001 -2.032000e+000 2.812807e+001
      vertex   -1.135155e+001 0.000000e+000 2.812807e+001
      vertex   -1.157178e+001 0.000000e+000 2.848600e+001
    endloop
  endfacet
  facet normal 8.256002e-001 -0.000000e+000 5.642556e-001
    outer loop
      vertex   -1.157178e+001 -2.032000e+000 2.848600e+001
      vertex   -1.157178e+001 0.000000e+000 2.848600e+001
      vertex   -1.180891e+001 0.000000e+000 2.883296e+001
    endloop
  endfacet
  facet normal 7.975980e-001 -0.000000e+000 6.031894e-001
    outer loop
      vertex   -1.180891e+001 -2.032000e+000 2.883296e+001
      vertex   -1.180891e+001 0.000000e+000 2.883296e+001
      vertex   -1.206240e+001 0.000000e+000 2.916816e+001
    endloop
  endfacet
  facet normal 7.677614e-001 -0.000000e+000 6.407358e-001
    outer loop
      vertex   -1.206240e+001 -2.032000e+000 2.916816e+001
      vertex   -1.206240e+001 0.000000e+000 2.916816e+001
      vertex   -1.233168e+001 0.000000e+000 2.949081e+001
    endloop
  endfacet
  facet normal 7.361590e-001 -0.000000e+000 6.768087e-001
    outer loop
      vertex   -1.233168e+001 -2.032000e+000 2.949081e+001
      vertex   -1.233168e+001 0.000000e+000 2.949081e+001
      vertex   -1.261611e+001 0.000000e+000 2.980019e+001
    endloop
  endfacet
  facet normal 7.361590e-001 0.000000e+000 6.768087e-001
    outer loop
      vertex   -1.261611e+001 -2.032000e+000 2.980019e+001
      vertex   -1.233168e+001 -2.032000e+000 2.949081e+001
      vertex   -1.261611e+001 0.000000e+000 2.980019e+001
    endloop
  endfacet
  facet normal 9.859431e-001 0.000000e+000 1.670815e-001
    outer loop
      vertex   -1.025055e+001 -2.032000e+000 2.497287e+001
      vertex   -1.032077e+001 0.000000e+000 2.538722e+001
      vertex   -1.032077e+001 -2.032000e+000 2.538722e+001
    endloop
  endfacet
  facet normal 9.767987e-001 0.000000e+000 2.141595e-001
    outer loop
      vertex   -1.032077e+001 -2.032000e+000 2.538722e+001
      vertex   -1.041077e+001 0.000000e+000 2.579772e+001
      vertex   -1.041077e+001 -2.032000e+000 2.579772e+001
    endloop
  endfacet
  facet normal 9.654077e-001 0.000000e+000 2.607450e-001
    outer loop
      vertex   -1.041077e+001 -2.032000e+000 2.579772e+001
      vertex   -1.052035e+001 0.000000e+000 2.620344e+001
      vertex   -1.052035e+001 -2.032000e+000 2.620344e+001
    endloop
  endfacet
  facet normal 9.517963e-001 0.000000e+000 3.067307e-001
    outer loop
      vertex   -1.052035e+001 -2.032000e+000 2.620344e+001
      vertex   -1.064926e+001 0.000000e+000 2.660344e+001
      vertex   -1.064926e+001 -2.032000e+000 2.660344e+001
    endloop
  endfacet
  facet normal 9.359959e-001 0.000000e+000 3.520110e-001
    outer loop
      vertex   -1.064926e+001 -2.032000e+000 2.660344e+001
      vertex   -1.079719e+001 0.000000e+000 2.699679e+001
      vertex   -1.079719e+001 -2.032000e+000 2.699679e+001
    endloop
  endfacet
  facet normal 9.180426e-001 0.000000e+000 3.964817e-001
    outer loop
      vertex   -1.079719e+001 -2.032000e+000 2.699679e+001
      vertex   -1.096381e+001 0.000000e+000 2.738261e+001
      vertex   -1.096381e+001 -2.032000e+000 2.738261e+001
    endloop
  endfacet
  facet normal 8.979779e-001 0.000000e+000 4.400405e-001
    outer loop
      vertex   -1.096381e+001 -2.032000e+000 2.738261e+001
      vertex   -1.114874e+001 0.000000e+000 2.775999e+001
      vertex   -1.114874e+001 -2.032000e+000 2.775999e+001
    endloop
  endfacet
  facet normal 8.758479e-001 0.000000e+000 4.825872e-001
    outer loop
      vertex   -1.114874e+001 -2.032000e+000 2.775999e+001
      vertex   -1.135155e+001 0.000000e+000 2.812807e+001
      vertex   -1.135155e+001 -2.032000e+000 2.812807e+001
    endloop
  endfacet
  facet normal 8.517035e-001 0.000000e+000 5.240240e-001
    outer loop
      vertex   -1.135155e+001 -2.032000e+000 2.812807e+001
      vertex   -1.157178e+001 0.000000e+000 2.848600e+001
      vertex   -1.157178e+001 -2.032000e+000 2.848600e+001
    endloop
  endfacet
  facet normal 8.256002e-001 0.000000e+000 5.642556e-001
    outer loop
      vertex   -1.157178e+001 -2.032000e+000 2.848600e+001
      vertex   -1.180891e+001 0.000000e+000 2.883296e+001
      vertex   -1.180891e+001 -2.032000e+000 2.883296e+001
    endloop
  endfacet
  facet normal 7.975980e-001 0.000000e+000 6.031894e-001
    outer loop
      vertex   -1.180891e+001 -2.032000e+000 2.883296e+001
      vertex   -1.206240e+001 0.000000e+000 2.916816e+001
      vertex   -1.206240e+001 -2.032000e+000 2.916816e+001
    endloop
  endfacet
  facet normal 7.677614e-001 0.000000e+000 6.407358e-001
    outer loop
      vertex   -1.206240e+001 -2.032000e+000 2.916816e+001
      vertex   -1.233168e+001 0.000000e+000 2.949081e+001
      vertex   -1.233168e+001 -2.032000e+000 2.949081e+001
    endloop
  endfacet
  facet normal 0.000000e+000 -1.000000e+000 -0.000000e+000
    outer loop
      vertex   -1.017007e+001 -2.032000e+000 2.413646e+001
      vertex   -1.270000e+001 -2.032000e+000 2.371633e+001
      vertex   -1.016000e+001 -2.032000e+000 2.371633e+001
    endloop
  endfacet
  facet normal 0.000000e+000 -1.000000e+000 -0.000000e+000
    outer loop
      vertex   -1.017007e+001 -2.032000e+000 2.413646e+001
      vertex   -1.271084e+001 -2.032000e+000 2.408347e+001
      vertex   -1.270000e+001 -2.032000e+000 2.371633e+001
    endloop
  endfacet
  facet normal -0.000000e+000 -1.000000e+000 0.000000e+000
    outer loop
      vertex   -1.017007e+001 -2.032000e+000 2.413646e+001
      vertex   -1.020028e+001 -2.032000e+000 2.455563e+001
      vertex   -1.271084e+001 -2.032000e+000 2.408347e+001
    endloop
  endfacet
  facet normal 0.000000e+000 -1.000000e+000 0.000000e+000
    outer loop
      vertex   -1.271084e+001 -2.032000e+000 2.408347e+001
      vertex   -1.020028e+001 -2.032000e+000 2.455563e+001
      vertex   -1.025055e+001 -2.032000e+000 2.497287e+001
    endloop
  endfacet
  facet normal 0.000000e+000 -1.000000e+000 0.000000e+000
    outer loop
      vertex   -1.274332e+001 -2.032000e+000 2.444932e+001
      vertex   -1.025055e+001 -2.032000e+000 2.497287e+001
      vertex   -1.032077e+001 -2.032000e+000 2.538722e+001
    endloop
  endfacet
  facet normal 0.000000e+000 -1.000000e+000 -0.000000e+000
    outer loop
      vertex   -1.041077e+001 -2.032000e+000 2.579772e+001
      vertex   -1.274332e+001 -2.032000e+000 2.444932e+001
      vertex   -1.032077e+001 -2.032000e+000 2.538722e+001
    endloop
  endfacet
  facet normal 0.000000e+000 -1.000000e+000 -0.000000e+000
    outer loop
      vertex   -1.041077e+001 -2.032000e+000 2.579772e+001
      vertex   -1.279732e+001 -2.032000e+000 2.481262e+001
      vertex   -1.274332e+001 -2.032000e+000 2.444932e+001
    endloop
  endfacet
  facet normal -0.000000e+000 -1.000000e+000 0.000000e+000
    outer loop
      vertex   -1.041077e+001 -2.032000e+000 2.579772e+001
      vertex   -1.052035e+001 -2.032000e+000 2.620344e+001
      vertex   -1.279732e+001 -2.032000e+000 2.481262e+001
    endloop
  endfacet
  facet normal 0.000000e+000 -1.000000e+000 0.000000e+000
    outer loop
      vertex   -1.279732e+001 -2.032000e+000 2.481262e+001
      vertex   -1.052035e+001 -2.032000e+000 2.620344e+001
      vertex   -1.064926e+001 -2.032000e+000 2.660344e+001
    endloop
  endfacet
  facet normal 0.000000e+000 -1.000000e+000 0.000000e+000
    outer loop
      vertex   -1.287267e+001 -2.032000e+000 2.517211e+001
      vertex   -1.064926e+001 -2.032000e+000 2.660344e+001
      vertex   -1.079719e+001 -2.032000e+000 2.699679e+001
    endloop
  endfacet
  facet normal 0.000000e+000 -1.000000e+000 -0.000000e+000
    outer loop
      vertex   -1.096381e+001 -2.032000e+000 2.738261e+001
      vertex   -1.287267e+001 -2.032000e+000 2.517211e+001
      vertex   -1.079719e+001 -2.032000e+000 2.699679e+001
    endloop
  endfacet
  facet normal 0.000000e+000 -1.000000e+000 -0.000000e+000
    outer loop
      vertex   -1.096381e+001 -2.032000e+000 2.738261e+001
      vertex   -1.296910e+001 -2.032000e+000 2.552652e+001
      vertex   -1.287267e+001 -2.032000e+000 2.517211e+001
    endloop
  endfacet
  facet normal -0.000000e+000 -1.000000e+000 0.000000e+000
    outer loop
      vertex   -1.096381e+001 -2.032000e+000 2.738261e+001
      vertex   -1.114874e+001 -2.032000e+000 2.775999e+001
      vertex   -1.296910e+001 -2.032000e+000 2.552652e+001
    endloop
  endfacet
  facet normal -0.000000e+000 -1.000000e+000 0.000000e+000
    outer loop
      vertex   -1.296910e+001 -2.032000e+000 2.552652e+001
      vertex   -1.114874e+001 -2.032000e+000 2.775999e+001
      vertex   -1.308626e+001 -2.032000e+000 2.587463e+001
    endloop
  endfacet
  facet normal 0.000000e+000 -1.000000e+000 0.000000e+000
    outer loop
      vertex   -1.308626e+001 -2.032000e+000 2.587463e+001
      vertex   -1.114874e+001 -2.032000e+000 2.775999e+001
      vertex   -1.135155e+001 -2.032000e+000 2.812807e+001
    endloop
  endfacet
  facet normal 0.000000e+000 -1.000000e+000 -0.000000e+000
    outer loop
      vertex   -1.157178e+001 -2.032000e+000 2.848600e+001
      vertex   -1.308626e+001 -2.032000e+000 2.587463e+001
      vertex   -1.135155e+001 -2.032000e+000 2.812807e+001
    endloop
  endfacet
  facet normal 0.000000e+000 -1.000000e+000 -0.000000e+000
    outer loop
      vertex   -1.157178e+001 -2.032000e+000 2.848600e+001
      vertex   -1.322376e+001 -2.032000e+000 2.621521e+001
      vertex   -1.308626e+001 -2.032000e+000 2.587463e+001
    endloop
  endfacet
  facet normal -0.000000e+000 -1.000000e+000 0.000000e+000
    outer loop
      vertex   -1.157178e+001 -2.032000e+000 2.848600e+001
      vertex   -1.180891e+001 -2.032000e+000 2.883296e+001
      vertex   -1.322376e+001 -2.032000e+000 2.621521e+001
    endloop
  endfacet
  facet normal -0.000000e+000 -1.000000e+000 0.000000e+000
    outer loop
      vertex   -1.322376e+001 -2.032000e+000 2.621521e+001
      vertex   -1.180891e+001 -2.032000e+000 2.883296e+001
      vertex   -1.338111e+001 -2.032000e+000 2.654710e+001
    endloop
  endfacet
  facet normal 0.000000e+000 -1.000000e+000 0.000000e+000
    outer loop
      vertex   -1.338111e+001 -2.032000e+000 2.654710e+001
      vertex   -1.180891e+001 -2.032000e+000 2.883296e+001
      vertex   -1.206240e+001 -2.032000e+000 2.916816e+001
    endloop
  endfacet
  facet normal 0.000000e+000 -1.000000e+000 0.000000e+000
    outer loop
      vertex   -1.355777e+001 -2.032000e+000 2.686912e+001
      vertex   -1.206240e+001 -2.032000e+000 2.916816e+001
      vertex   -1.233168e+001 -2.032000e+000 2.949081e+001
    endloop
  endfacet
  facet normal 0.000000e+000 -1.000000e+000 0.000000e+000
    outer loop
      vertex   -1.375312e+001 -2.032000e+000 2.718016e+001
      vertex   -1.233168e+001 -2.032000e+000 2.949081e+001
      vertex   -1.261611e+001 -2.032000e+000 2.980019e+001
    endloop
  endfacet
  facet normal 0.000000e+000 -1.000000e+000 0.000000e+000
    outer loop
      vertex   -1.396648e+001 -2.032000e+000 2.747913e+001
      vertex   -1.261611e+001 -2.032000e+000 2.980019e+001
      vertex   -1.297184e+001 -2.032000e+000 3.015287e+001
    endloop
  endfacet
  facet normal 0.000000e+000 -1.000000e+000 0.000000e+000
    outer loop
      vertex   -1.419710e+001 -2.032000e+000 2.776499e+001
      vertex   -1.297184e+001 -2.032000e+000 3.015287e+001
      vertex   -1.334296e+001 -2.032000e+000 3.048933e+001
    endloop
  endfacet
  facet normal 0.000000e+000 -1.000000e+000 0.000000e+000
    outer loop
      vertex   -1.444419e+001 -2.032000e+000 2.803675e+001
      vertex   -1.334296e+001 -2.032000e+000 3.048933e+001
      vertex   -1.372872e+001 -2.032000e+000 3.080890e+001
    endloop
  endfacet
  facet normal 0.000000e+000 -1.000000e+000 0.000000e+000
    outer loop
      vertex   -1.475470e+001 -2.032000e+000 2.834288e+001
      vertex   -1.372872e+001 -2.032000e+000 3.080890e+001
      vertex   -1.412834e+001 -2.032000e+000 3.111095e+001
    endloop
  endfacet
  facet normal -0.000000e+000 -1.000000e+000 0.000000e+000
    outer loop
      vertex   -1.508018e+001 -2.032000e+000 2.863304e+001
      vertex   -1.412834e+001 -2.032000e+000 3.111095e+001
      vertex   -1.541981e+001 -2.032000e+000 2.890650e+001
    endloop
  endfacet
  facet normal 0.000000e+000 -1.000000e+000 0.000000e+000
    outer loop
      vertex   -1.508018e+001 -2.032000e+000 2.863304e+001
      vertex   -1.475470e+001 -2.032000e+000 2.834288e+001
      vertex   -1.412834e+001 -2.032000e+000 3.111095e+001
    endloop
  endfacet
  facet normal -0.000000e+000 -1.000000e+000 0.000000e+000
    outer loop
      vertex   -1.271084e+001 -2.032000e+000 2.408347e+001
      vertex   -1.025055e+001 -2.032000e+000 2.497287e+001
      vertex   -1.274332e+001 -2.032000e+000 2.444932e+001
    endloop
  endfacet
  facet normal -0.000000e+000 -1.000000e+000 0.000000e+000
    outer loop
      vertex   -1.279732e+001 -2.032000e+000 2.481262e+001
      vertex   -1.064926e+001 -2.032000e+000 2.660344e+001
      vertex   -1.287267e+001 -2.032000e+000 2.517211e+001
    endloop
  endfacet
  facet normal -0.000000e+000 -1.000000e+000 0.000000e+000
    outer loop
      vertex   -1.338111e+001 -2.032000e+000 2.654710e+001
      vertex   -1.206240e+001 -2.032000e+000 2.916816e+001
      vertex   -1.355777e+001 -2.032000e+000 2.686912e+001
    endloop
  endfacet
  facet normal -0.000000e+000 -1.000000e+000 0.000000e+000
    outer loop
      vertex   -1.355777e+001 -2.032000e+000 2.686912e+001
      vertex   -1.233168e+001 -2.032000e+000 2.949081e+001
      vertex   -1.375312e+001 -2.032000e+000 2.718016e+001
    endloop
  endfacet
  facet normal -0.000000e+000 -1.000000e+000 0.000000e+000
    outer loop
      vertex   -1.375312e+001 -2.032000e+000 2.718016e+001
      vertex   -1.261611e+001 -2.032000e+000 2.980019e+001
      vertex   -1.396648e+001 -2.032000e+000 2.747913e+001
    endloop
  endfacet
  facet normal -0.000000e+000 -1.000000e+000 0.000000e+000
    outer loop
      vertex   -1.396648e+001 -2.032000e+000 2.747913e+001
      vertex   -1.297184e+001 -2.032000e+000 3.015287e+001
      vertex   -1.419710e+001 -2.032000e+000 2.776499e+001
    endloop
  endfacet
  facet normal -0.000000e+000 -1.000000e+000 0.000000e+000
    outer loop
      vertex   -1.419710e+001 -2.032000e+000 2.776499e+001
      vertex   -1.334296e+001 -2.032000e+000 3.048933e+001
      vertex   -1.444419e+001 -2.032000e+000 2.803675e+001
    endloop
  endfacet
  facet normal -0.000000e+000 -1.000000e+000 0.000000e+000
    outer loop
      vertex   -1.444419e+001 -2.032000e+000 2.803675e+001
      vertex   -1.372872e+001 -2.032000e+000 3.080890e+001
      vertex   -1.475470e+001 -2.032000e+000 2.834288e+001
    endloop
  endfacet
  facet normal 0.000000e+000 -1.000000e+000 -0.000000e+000
    outer loop
      vertex   -1.454104e+001 -2.032000e+000 3.139487e+001
      vertex   -2.069466e+001 -2.032000e+000 3.069260e+001
      vertex   -1.412834e+001 -2.032000e+000 3.111095e+001
    endloop
  endfacet
  facet normal -0.000000e+000 -1.000000e+000 0.000000e+000
    outer loop
      vertex   -1.454104e+001 -2.032000e+000 3.139487e+001
      vertex   -1.496600e+001 -2.032000e+000 3.166009e+001
      vertex   -2.069466e+001 -2.032000e+000 3.069260e+001
    endloop
  endfacet
  facet normal 0.000000e+000 -1.000000e+000 0.000000e+000
    outer loop
      vertex   -2.069466e+001 -2.032000e+000 3.069260e+001
      vertex   -1.496600e+001 -2.032000e+000 3.166009e+001
      vertex   -1.540237e+001 -2.032000e+000 3.190610e+001
    endloop
  endfacet
  facet normal 0.000000e+000 -1.000000e+000 -0.000000e+000
    outer loop
      vertex   -1.584927e+001 -2.032000e+000 3.213239e+001
      vertex   -2.069466e+001 -2.032000e+000 3.069260e+001
      vertex   -1.540237e+001 -2.032000e+000 3.190610e+001
    endloop
  endfacet
  facet normal -0.000000e+000 -1.000000e+000 0.000000e+000
    outer loop
      vertex   -1.584927e+001 -2.032000e+000 3.213239e+001
      vertex   -1.630583e+001 -2.032000e+000 3.233853e+001
      vertex   -2.069466e+001 -2.032000e+000 3.069260e+001
    endloop
  endfacet
  facet normal 0.000000e+000 -1.000000e+000 0.000000e+000
    outer loop
      vertex   -2.069466e+001 -2.032000e+000 3.069260e+001
      vertex   -1.630583e+001 -2.032000e+000 3.233853e+001
      vertex   -1.677112e+001 -2.032000e+000 3.252409e+001
    endloop
  endfacet
  facet normal 0.000000e+000 -1.000000e+000 -0.000000e+000
    outer loop
      vertex   -1.724423e+001 -2.032000e+000 3.268871e+001
      vertex   -2.069466e+001 -2.032000e+000 3.069260e+001
      vertex   -1.677112e+001 -2.032000e+000 3.252409e+001
    endloop
  endfacet
  facet normal -0.000000e+000 -1.000000e+000 0.000000e+000
    outer loop
      vertex   -1.724423e+001 -2.032000e+000 3.268871e+001
      vertex   -1.772421e+001 -2.032000e+000 3.283207e+001
      vertex   -2.069466e+001 -2.032000e+000 3.069260e+001
    endloop
  endfacet
  facet normal 0.000000e+000 -1.000000e+000 0.000000e+000
    outer loop
      vertex   -2.069466e+001 -2.032000e+000 3.069260e+001
      vertex   -1.772421e+001 -2.032000e+000 3.283207e+001
      vertex   -1.821011e+001 -2.032000e+000 3.295387e+001
    endloop
  endfacet
  facet normal 0.000000e+000 -1.000000e+000 -0.000000e+000
    outer loop
      vertex   -1.870096e+001 -2.032000e+000 3.305387e+001
      vertex   -2.069466e+001 -2.032000e+000 3.069260e+001
      vertex   -1.821011e+001 -2.032000e+000 3.295387e+001
    endloop
  endfacet
  facet normal -0.000000e+000 -1.000000e+000 0.000000e+000
    outer loop
      vertex   -1.870096e+001 -2.032000e+000 3.305387e+001
      vertex   -1.919578e+001 -2.032000e+000 3.313188e+001
      vertex   -2.069466e+001 -2.032000e+000 3.069260e+001
    endloop
  endfacet
  facet normal 0.000000e+000 -1.000000e+000 0.000000e+000
    outer loop
      vertex   -2.069466e+001 -2.032000e+000 3.069260e+001
      vertex   -1.919578e+001 -2.032000e+000 3.313188e+001
      vertex   -1.969359e+001 -2.032000e+000 3.318773e+001
    endloop
  endfacet
  facet normal 0.000000e+000 -1.000000e+000 -0.000000e+000
    outer loop
      vertex   -2.019339e+001 -2.032000e+000 3.322133e+001
      vertex   -2.069466e+001 -2.032000e+000 3.069260e+001
      vertex   -1.969359e+001 -2.032000e+000 3.318773e+001
    endloop
  endfacet
  facet normal -0.000000e+000 -1.000000e+000 0.000000e+000
    outer loop
      vertex   -2.019339e+001 -2.032000e+000 3.322133e+001
      vertex   -2.069420e+001 -2.032000e+000 3.323260e+001
      vertex   -2.069466e+001 -2.032000e+000 3.069260e+001
    endloop
  endfacet
  facet normal -0.000000e+000 -1.000000e+000 0.000000e+000
    outer loop
      vertex   -2.069466e+001 -2.032000e+000 3.069260e+001
      vertex   -2.069420e+001 -2.032000e+000 3.323260e+001
      vertex   -2.113057e+001 -2.032000e+000 3.068173e+001
    endloop
  endfacet
  facet normal -0.000000e+000 -1.000000e+000 0.000000e+000
    outer loop
      vertex   -2.113057e+001 -2.032000e+000 3.068173e+001
      vertex   -2.069420e+001 -2.032000e+000 3.323260e+001
      vertex   -2.119501e+001 -2.032000e+000 3.322151e+001
    endloop
  endfacet
  facet normal -0.000000e+000 -1.000000e+000 0.000000e+000
    outer loop
      vertex   -2.156538e+001 -2.032000e+000 3.064901e+001
      vertex   -2.119501e+001 -2.032000e+000 3.322151e+001
      vertex   -2.169483e+001 -2.032000e+000 3.318810e+001
    endloop
  endfacet
  facet normal -0.000000e+000 -1.000000e+000 0.000000e+000
    outer loop
      vertex   -2.199800e+001 -2.032000e+000 3.059451e+001
      vertex   -2.169483e+001 -2.032000e+000 3.318810e+001
      vertex   -2.219266e+001 -2.032000e+000 3.313242e+001
    endloop
  endfacet
  facet normal -0.000000e+000 -1.000000e+000 0.000000e+000
    outer loop
      vertex   -2.242734e+001 -2.032000e+000 3.051836e+001
      vertex   -2.219266e+001 -2.032000e+000 3.313242e+001
      vertex   -2.268750e+001 -2.032000e+000 3.305459e+001
    endloop
  endfacet
  facet normal -0.000000e+000 -1.000000e+000 0.000000e+000
    outer loop
      vertex   -2.285231e+001 -2.032000e+000 3.042077e+001
      vertex   -2.268750e+001 -2.032000e+000 3.305459e+001
      vertex   -2.317839e+001 -2.032000e+000 3.295477e+001
    endloop
  endfacet
  facet normal -0.000000e+000 -1.000000e+000 0.000000e+000
    outer loop
      vertex   -2.327186e+001 -2.032000e+000 3.030198e+001
      vertex   -2.317839e+001 -2.032000e+000 3.295477e+001
      vertex   -2.366433e+001 -2.032000e+000 3.283314e+001
    endloop
  endfacet
  facet normal -0.000000e+000 -1.000000e+000 0.000000e+000
    outer loop
      vertex   -2.368492e+001 -2.032000e+000 3.016229e+001
      vertex   -2.366433e+001 -2.032000e+000 3.283314e+001
      vertex   -2.414437e+001 -2.032000e+000 3.268997e+001
    endloop
  endfacet
  facet normal -0.000000e+000 -1.000000e+000 0.000000e+000
    outer loop
      vertex   -2.409044e+001 -2.032000e+000 3.000204e+001
      vertex   -2.414437e+001 -2.032000e+000 3.268997e+001
      vertex   -2.461754e+001 -2.032000e+000 3.252551e+001
    endloop
  endfacet
  facet normal 0.000000e+000 -1.000000e+000 0.000000e+000
    outer loop
      vertex   -2.508290e+001 -2.032000e+000 3.234012e+001
      vertex   -2.409044e+001 -2.032000e+000 3.000204e+001
      vertex   -2.461754e+001 -2.032000e+000 3.252551e+001
    endloop
  endfacet
  facet normal -0.000000e+000 -1.000000e+000 0.000000e+000
    outer loop
      vertex   -2.113057e+001 -2.032000e+000 3.068173e+001
      vertex   -2.119501e+001 -2.032000e+000 3.322151e+001
      vertex   -2.156538e+001 -2.032000e+000 3.064901e+001
    endloop
  endfacet
  facet normal -0.000000e+000 -1.000000e+000 0.000000e+000
    outer loop
      vertex   -2.156538e+001 -2.032000e+000 3.064901e+001
      vertex   -2.169483e+001 -2.032000e+000 3.318810e+001
      vertex   -2.199800e+001 -2.032000e+000 3.059451e+001
    endloop
  endfacet
  facet normal -0.000000e+000 -1.000000e+000 0.000000e+000
    outer loop
      vertex   -2.199800e+001 -2.032000e+000 3.059451e+001
      vertex   -2.219266e+001 -2.032000e+000 3.313242e+001
      vertex   -2.242734e+001 -2.032000e+000 3.051836e+001
    endloop
  endfacet
  facet normal -0.000000e+000 -1.000000e+000 0.000000e+000
    outer loop
      vertex   -2.242734e+001 -2.032000e+000 3.051836e+001
      vertex   -2.268750e+001 -2.032000e+000 3.305459e+001
      vertex   -2.285231e+001 -2.032000e+000 3.042077e+001
    endloop
  endfacet
  facet normal -0.000000e+000 -1.000000e+000 0.000000e+000
    outer loop
      vertex   -2.285231e+001 -2.032000e+000 3.042077e+001
      vertex   -2.317839e+001 -2.032000e+000 3.295477e+001
      vertex   -2.327186e+001 -2.032000e+000 3.030198e+001
    endloop
  endfacet
  facet normal -0.000000e+000 -1.000000e+000 0.000000e+000
    outer loop
      vertex   -2.327186e+001 -2.032000e+000 3.030198e+001
      vertex   -2.366433e+001 -2.032000e+000 3.283314e+001
      vertex   -2.368492e+001 -2.032000e+000 3.016229e+001
    endloop
  endfacet
  facet normal -0.000000e+000 -1.000000e+000 -0.000000e+000
    outer loop
      vertex   -2.368492e+001 -2.032000e+000 3.016229e+001
      vertex   -2.414437e+001 -2.032000e+000 3.268997e+001
      vertex   -2.409044e+001 -2.032000e+000 3.000204e+001
    endloop
  endfacet
  facet normal 0.000000e+000 -1.000000e+000 0.000000e+000
    outer loop
      vertex   -2.069466e+001 -2.032000e+000 3.069260e+001
      vertex   -2.025876e+001 -2.032000e+000 3.068157e+001
      vertex   -1.412834e+001 -2.032000e+000 3.111095e+001
    endloop
  endfacet
  facet normal 0.000000e+000 -1.000000e+000 -0.000000e+000
    outer loop
      vertex   -1.412834e+001 -2.032000e+000 3.111095e+001
      vertex   -2.025876e+001 -2.032000e+000 3.068157e+001
      vertex   -1.982396e+001 -2.032000e+000 3.064869e+001
    endloop
  endfacet
  facet normal -0.000000e+000 -1.000000e+000 0.000000e+000
    outer loop
      vertex   -1.939136e+001 -2.032000e+000 3.059403e+001
      vertex   -1.412834e+001 -2.032000e+000 3.111095e+001
      vertex   -1.982396e+001 -2.032000e+000 3.064869e+001
    endloop
  endfacet
  facet normal 0.000000e+000 -1.000000e+000 0.000000e+000
    outer loop
      vertex   -1.939136e+001 -2.032000e+000 3.059403e+001
      vertex   -1.896205e+001 -2.032000e+000 3.051773e+001
      vertex   -1.412834e+001 -2.032000e+000 3.111095e+001
    endloop
  endfacet
  facet normal 0.000000e+000 -1.000000e+000 -0.000000e+000
    outer loop
      vertex   -1.412834e+001 -2.032000e+000 3.111095e+001
      vertex   -1.896205e+001 -2.032000e+000 3.051773e+001
      vertex   -1.853711e+001 -2.032000e+000 3.041999e+001
    endloop
  endfacet
  facet normal -0.000000e+000 -1.000000e+000 0.000000e+000
    outer loop
      vertex   -1.811761e+001 -2.032000e+000 3.030105e+001
      vertex   -1.412834e+001 -2.032000e+000 3.111095e+001
      vertex   -1.853711e+001 -2.032000e+000 3.041999e+001
    endloop
  endfacet
  facet normal 0.000000e+000 -1.000000e+000 0.000000e+000
    outer loop
      vertex   -1.811761e+001 -2.032000e+000 3.030105e+001
      vertex   -1.770460e+001 -2.032000e+000 3.016120e+001
      vertex   -1.412834e+001 -2.032000e+000 3.111095e+001
    endloop
  endfacet
  facet normal 0.000000e+000 -1.000000e+000 -0.000000e+000
    outer loop
      vertex   -1.412834e+001 -2.032000e+000 3.111095e+001
      vertex   -1.770460e+001 -2.032000e+000 3.016120e+001
      vertex   -1.729913e+001 -2.032000e+000 3.000081e+001
    endloop
  endfacet
  facet normal -0.000000e+000 -1.000000e+000 0.000000e+000
    outer loop
      vertex   -1.690222e+001 -2.032000e+000 2.982027e+001
      vertex   -1.412834e+001 -2.032000e+000 3.111095e+001
      vertex   -1.729913e+001 -2.032000e+000 3.000081e+001
    endloop
  endfacet
  facet normal 0.000000e+000 -1.000000e+000 0.000000e+000
    outer loop
      vertex   -1.690222e+001 -2.032000e+000 2.982027e+001
      vertex   -1.651487e+001 -2.032000e+000 2.962004e+001
      vertex   -1.412834e+001 -2.032000e+000 3.111095e+001
    endloop
  endfacet
  facet normal 0.000000e+000 -1.000000e+000 -0.000000e+000
    outer loop
      vertex   -1.412834e+001 -2.032000e+000 3.111095e+001
      vertex   -1.651487e+001 -2.032000e+000 2.962004e+001
      vertex   -1.613806e+001 -2.032000e+000 2.940063e+001
    endloop
  endfacet
  facet normal -0.000000e+000 -1.000000e+000 0.000000e+000
    outer loop
      vertex   -1.577273e+001 -2.032000e+000 2.916258e+001
      vertex   -1.412834e+001 -2.032000e+000 3.111095e+001
      vertex   -1.613806e+001 -2.032000e+000 2.940063e+001
    endloop
  endfacet
  facet normal 0.000000e+000 -1.000000e+000 0.000000e+000
    outer loop
      vertex   -1.577273e+001 -2.032000e+000 2.916258e+001
      vertex   -1.541981e+001 -2.032000e+000 2.890650e+001
      vertex   -1.412834e+001 -2.032000e+000 3.111095e+001
    endloop
  endfacet
  facet normal 0.000000e+000 -1.000000e+000 0.000000e+000
    outer loop
      vertex   -1.270000e+001 -2.032000e+000 2.371633e+001
      vertex   -1.270000e+001 -2.032000e+000 0.000000e+000
      vertex   -1.016000e+001 -2.032000e+000 2.371633e+001
    endloop
  endfacet
  facet normal 0.000000e+000 -1.000000e+000 -0.000000e+000
    outer loop
      vertex   -1.016000e+001 -2.032000e+000 2.371633e+001
      vertex   -1.270000e+001 -2.032000e+000 0.000000e+000
      vertex   -3.548758e+000 -2.032000e+000 0.000000e+000
    endloop
  endfacet
  facet normal 0.000000e+000 1.000000e+000 -0.000000e+000
    outer loop
      vertex   -1.233168e+001 0.000000e+000 2.949081e+001
      vertex   -1.375312e+001 0.000000e+000 2.718016e+001
      vertex   -1.261611e+001 0.000000e+000 2.980019e+001
    endloop
  endfacet
  facet normal 0.000000e+000 1.000000e+000 0.000000e+000
    outer loop
      vertex   -1.233168e+001 0.000000e+000 2.949081e+001
      vertex   -1.355777e+001 0.000000e+000 2.686912e+001
      vertex   -1.375312e+001 0.000000e+000 2.718016e+001
    endloop
  endfacet
  facet normal 0.000000e+000 1.000000e+000 0.000000e+000
    outer loop
      vertex   -1.233168e+001 0.000000e+000 2.949081e+001
      vertex   -1.206240e+001 0.000000e+000 2.916816e+001
      vertex   -1.355777e+001 0.000000e+000 2.686912e+001
    endloop
  endfacet
  facet normal -0.000000e+000 1.000000e+000 0.000000e+000
    outer loop
      vertex   -1.355777e+001 0.000000e+000 2.686912e+001
      vertex   -1.206240e+001 0.000000e+000 2.916816e+001
      vertex   -1.338111e+001 0.000000e+000 2.654710e+001
    endloop
  endfacet
  facet normal -0.000000e+000 1.000000e+000 0.000000e+000
    outer loop
      vertex   -1.338111e+001 0.000000e+000 2.654710e+001
      vertex   -1.206240e+001 0.000000e+000 2.916816e+001
      vertex   -1.180891e+001 0.000000e+000 2.883296e+001
    endloop
  endfacet
  facet normal -0.000000e+000 1.000000e+000 0.000000e+000
    outer loop
      vertex   -1.322376e+001 0.000000e+000 2.621521e+001
      vertex   -1.180891e+001 0.000000e+000 2.883296e+001
      vertex   -1.157178e+001 0.000000e+000 2.848600e+001
    endloop
  endfacet
  facet normal -0.000000e+000 1.000000e+000 0.000000e+000
    outer loop
      vertex   -1.308626e+001 0.000000e+000 2.587463e+001
      vertex   -1.157178e+001 0.000000e+000 2.848600e+001
      vertex   -1.135155e+001 0.000000e+000 2.812807e+001
    endloop
  endfacet
  facet normal 0.000000e+000 1.000000e+000 -0.000000e+000
    outer loop
      vertex   -1.114874e+001 0.000000e+000 2.775999e+001
      vertex   -1.308626e+001 0.000000e+000 2.587463e+001
      vertex   -1.135155e+001 0.000000e+000 2.812807e+001
    endloop
  endfacet
  facet normal 0.000000e+000 1.000000e+000 0.000000e+000
    outer loop
      vertex   -1.114874e+001 0.000000e+000 2.775999e+001
      vertex   -1.296910e+001 0.000000e+000 2.552652e+001
      vertex   -1.308626e+001 0.000000e+000 2.587463e+001
    endloop
  endfacet
  facet normal 0.000000e+000 1.000000e+000 0.000000e+000
    outer loop
      vertex   -1.114874e+001 0.000000e+000 2.775999e+001
      vertex   -1.096381e+001 0.000000e+000 2.738261e+001
      vertex   -1.296910e+001 0.000000e+000 2.552652e+001
    endloop
  endfacet
  facet normal -0.000000e+000 1.000000e+000 0.000000e+000
    outer loop
      vertex   -1.296910e+001 0.000000e+000 2.552652e+001
      vertex   -1.096381e+001 0.000000e+000 2.738261e+001
      vertex   -1.287267e+001 0.000000e+000 2.517211e+001
    endloop
  endfacet
  facet normal -0.000000e+000 1.000000e+000 0.000000e+000
    outer loop
      vertex   -1.287267e+001 0.000000e+000 2.517211e+001
      vertex   -1.096381e+001 0.000000e+000 2.738261e+001
      vertex   -1.079719e+001 0.000000e+000 2.699679e+001
    endloop
  endfacet
  facet normal 0.000000e+000 1.000000e+000 -0.000000e+000
    outer loop
      vertex   -1.064926e+001 0.000000e+000 2.660344e+001
      vertex   -1.287267e+001 0.000000e+000 2.517211e+001
      vertex   -1.079719e+001 0.000000e+000 2.699679e+001
    endloop
  endfacet
  facet normal 0.000000e+000 1.000000e+000 0.000000e+000
    outer loop
      vertex   -1.064926e+001 0.000000e+000 2.660344e+001
      vertex   -1.279732e+001 0.000000e+000 2.481262e+001
      vertex   -1.287267e+001 0.000000e+000 2.517211e+001
    endloop
  endfacet
  facet normal 0.000000e+000 1.000000e+000 0.000000e+000
    outer loop
      vertex   -1.064926e+001 0.000000e+000 2.660344e+001
      vertex   -1.052035e+001 0.000000e+000 2.620344e+001
      vertex   -1.279732e+001 0.000000e+000 2.481262e+001
    endloop
  endfacet
  facet normal -0.000000e+000 1.000000e+000 0.000000e+000
    outer loop
      vertex   -1.279732e+001 0.000000e+000 2.481262e+001
      vertex   -1.052035e+001 0.000000e+000 2.620344e+001
      vertex   -1.041077e+001 0.000000e+000 2.579772e+001
    endloop
  endfacet
  facet normal -0.000000e+000 1.000000e+000 0.000000e+000
    outer loop
      vertex   -1.274332e+001 0.000000e+000 2.444932e+001
      vertex   -1.041077e+001 0.000000e+000 2.579772e+001
      vertex   -1.032077e+001 0.000000e+000 2.538722e+001
    endloop
  endfacet
  facet normal 0.000000e+000 1.000000e+000 -0.000000e+000
    outer loop
      vertex   -1.025055e+001 0.000000e+000 2.497287e+001
      vertex   -1.274332e+001 0.000000e+000 2.444932e+001
      vertex   -1.032077e+001 0.000000e+000 2.538722e+001
    endloop
  endfacet
  facet normal 0.000000e+000 1.000000e+000 0.000000e+000
    outer loop
      vertex   -1.025055e+001 0.000000e+000 2.497287e+001
      vertex   -1.271084e+001 0.000000e+000 2.408347e+001
      vertex   -1.274332e+001 0.000000e+000 2.444932e+001
    endloop
  endfacet
  facet normal 0.000000e+000 1.000000e+000 0.000000e+000
    outer loop
      vertex   -1.025055e+001 0.000000e+000 2.497287e+001
      vertex   -1.020028e+001 0.000000e+000 2.455563e+001
      vertex   -1.271084e+001 0.000000e+000 2.408347e+001
    endloop
  endfacet
  facet normal -0.000000e+000 1.000000e+000 0.000000e+000
    outer loop
      vertex   -1.271084e+001 0.000000e+000 2.408347e+001
      vertex   -1.020028e+001 0.000000e+000 2.455563e+001
      vertex   -1.017007e+001 0.000000e+000 2.413646e+001
    endloop
  endfacet
  facet normal -0.000000e+000 1.000000e+000 0.000000e+000
    outer loop
      vertex   -1.270000e+001 0.000000e+000 2.371633e+001
      vertex   -1.017007e+001 0.000000e+000 2.413646e+001
      vertex   -1.016000e+001 0.000000e+000 2.371633e+001
    endloop
  endfacet
  facet normal -0.000000e+000 1.000000e+000 0.000000e+000
    outer loop
      vertex   -1.270000e+001 0.000000e+000 0.000000e+000
      vertex   -1.016000e+001 0.000000e+000 2.371633e+001
      vertex   -3.548758e+000 0.000000e+000 0.000000e+000
    endloop
  endfacet
  facet normal -0.000000e+000 1.000000e+000 0.000000e+000
    outer loop
      vertex   -1.270000e+001 0.000000e+000 0.000000e+000
      vertex   -1.270000e+001 0.000000e+000 2.371633e+001
      vertex   -1.016000e+001 0.000000e+000 2.371633e+001
    endloop
  endfacet
  facet normal -0.000000e+000 1.000000e+000 0.000000e+000
    outer loop
      vertex   -1.338111e+001 0.000000e+000 2.654710e+001
      vertex   -1.180891e+001 0.000000e+000 2.883296e+001
      vertex   -1.322376e+001 0.000000e+000 2.621521e+001
    endloop
  endfacet
  facet normal -0.000000e+000 1.000000e+000 0.000000e+000
    outer loop
      vertex   -1.322376e+001 0.000000e+000 2.621521e+001
      vertex   -1.157178e+001 0.000000e+000 2.848600e+001
      vertex   -1.308626e+001 0.000000e+000 2.587463e+001
    endloop
  endfacet
  facet normal -0.000000e+000 1.000000e+000 0.000000e+000
    outer loop
      vertex   -1.279732e+001 0.000000e+000 2.481262e+001
      vertex   -1.041077e+001 0.000000e+000 2.579772e+001
      vertex   -1.274332e+001 0.000000e+000 2.444932e+001
    endloop
  endfacet
  facet normal -0.000000e+000 1.000000e+000 0.000000e+000
    outer loop
      vertex   -1.271084e+001 0.000000e+000 2.408347e+001
      vertex   -1.017007e+001 0.000000e+000 2.413646e+001
      vertex   -1.270000e+001 0.000000e+000 2.371633e+001
    endloop
  endfacet
  facet normal 0.000000e+000 1.000000e+000 -0.000000e+000
    outer loop
      vertex   -1.375312e+001 0.000000e+000 2.718016e+001
      vertex   -1.396648e+001 0.000000e+000 2.747913e+001
      vertex   -1.261611e+001 0.000000e+000 2.980019e+001
    endloop
  endfacet
  facet normal 0.000000e+000 1.000000e+000 -0.000000e+000
    outer loop
      vertex   -1.261611e+001 0.000000e+000 2.980019e+001
      vertex   -1.396648e+001 0.000000e+000 2.747913e+001
      vertex   -1.297184e+001 0.000000e+000 3.015287e+001
    endloop
  endfacet
  facet normal 0.000000e+000 1.000000e+000 0.000000e+000
    outer loop
      vertex   -1.297184e+001 0.000000e+000 3.015287e+001
      vertex   -1.396648e+001 0.000000e+000 2.747913e+001
      vertex   -1.419710e+001 0.000000e+000 2.776499e+001
    endloop
  endfacet
  facet normal 0.000000e+000 1.000000e+000 0.000000e+000
    outer loop
      vertex   -1.334296e+001 0.000000e+000 3.048933e+001
      vertex   -1.419710e+001 0.000000e+000 2.776499e+001
      vertex   -1.444419e+001 0.000000e+000 2.803675e+001
    endloop
  endfacet
  facet normal 0.000000e+000 1.000000e+000 0.000000e+000
    outer loop
      vertex   -1.372872e+001 0.000000e+000 3.080890e+001
      vertex   -1.444419e+001 0.000000e+000 2.803675e+001
      vertex   -1.475470e+001 0.000000e+000 2.834288e+001
    endloop
  endfacet
  facet normal -0.000000e+000 1.000000e+000 0.000000e+000
    outer loop
      vertex   -1.508018e+001 0.000000e+000 2.863304e+001
      vertex   -1.372872e+001 0.000000e+000 3.080890e+001
      vertex   -1.475470e+001 0.000000e+000 2.834288e+001
    endloop
  endfacet
  facet normal 0.000000e+000 1.000000e+000 -0.000000e+000
    outer loop
      vertex   -1.508018e+001 0.000000e+000 2.863304e+001
      vertex   -1.541981e+001 0.000000e+000 2.890650e+001
      vertex   -1.372872e+001 0.000000e+000 3.080890e+001
    endloop
  endfacet
  facet normal 0.000000e+000 1.000000e+000 0.000000e+000
    outer loop
      vertex   -1.372872e+001 0.000000e+000 3.080890e+001
      vertex   -1.541981e+001 0.000000e+000 2.890650e+001
      vertex   -1.577273e+001 0.000000e+000 2.916258e+001
    endloop
  endfacet
  facet normal -0.000000e+000 1.000000e+000 0.000000e+000
    outer loop
      vertex   -1.613806e+001 0.000000e+000 2.940063e+001
      vertex   -1.372872e+001 0.000000e+000 3.080890e+001
      vertex   -1.577273e+001 0.000000e+000 2.916258e+001
    endloop
  endfacet
  facet normal 0.000000e+000 1.000000e+000 -0.000000e+000
    outer loop
      vertex   -1.613806e+001 0.000000e+000 2.940063e+001
      vertex   -1.651487e+001 0.000000e+000 2.962004e+001
      vertex   -1.372872e+001 0.000000e+000 3.080890e+001
    endloop
  endfacet
  facet normal 0.000000e+000 1.000000e+000 0.000000e+000
    outer loop
      vertex   -1.372872e+001 0.000000e+000 3.080890e+001
      vertex   -1.651487e+001 0.000000e+000 2.962004e+001
      vertex   -1.690222e+001 0.000000e+000 2.982027e+001
    endloop
  endfacet
  facet normal -0.000000e+000 1.000000e+000 0.000000e+000
    outer loop
      vertex   -1.729913e+001 0.000000e+000 3.000081e+001
      vertex   -1.372872e+001 0.000000e+000 3.080890e+001
      vertex   -1.690222e+001 0.000000e+000 2.982027e+001
    endloop
  endfacet
  facet normal 0.000000e+000 1.000000e+000 -0.000000e+000
    outer loop
      vertex   -1.729913e+001 0.000000e+000 3.000081e+001
      vertex   -1.770460e+001 0.000000e+000 3.016120e+001
      vertex   -1.372872e+001 0.000000e+000 3.080890e+001
    endloop
  endfacet
  facet normal 0.000000e+000 1.000000e+000 0.000000e+000
    outer loop
      vertex   -1.372872e+001 0.000000e+000 3.080890e+001
      vertex   -1.770460e+001 0.000000e+000 3.016120e+001
      vertex   -1.811761e+001 0.000000e+000 3.030105e+001
    endloop
  endfacet
  facet normal -0.000000e+000 1.000000e+000 0.000000e+000
    outer loop
      vertex   -1.853711e+001 0.000000e+000 3.041999e+001
      vertex   -1.372872e+001 0.000000e+000 3.080890e+001
      vertex   -1.811761e+001 0.000000e+000 3.030105e+001
    endloop
  endfacet
  facet normal 0.000000e+000 1.000000e+000 -0.000000e+000
    outer loop
      vertex   -1.853711e+001 0.000000e+000 3.041999e+001
      vertex   -1.896205e+001 0.000000e+000 3.051773e+001
      vertex   -1.372872e+001 0.000000e+000 3.080890e+001
    endloop
  endfacet
  facet normal 0.000000e+000 1.000000e+000 0.000000e+000
    outer loop
      vertex   -1.372872e+001 0.000000e+000 3.080890e+001
      vertex   -1.896205e+001 0.000000e+000 3.051773e+001
      vertex   -1.939136e+001 0.000000e+000 3.059403e+001
    endloop
  endfacet
  facet normal -0.000000e+000 1.000000e+000 0.000000e+000
    outer loop
      vertex   -1.982396e+001 0.000000e+000 3.064869e+001
      vertex   -1.372872e+001 0.000000e+000 3.080890e+001
      vertex   -1.939136e+001 0.000000e+000 3.059403e+001
    endloop
  endfacet
  facet normal 0.000000e+000 1.000000e+000 -0.000000e+000
    outer loop
      vertex   -1.982396e+001 0.000000e+000 3.064869e+001
      vertex   -2.025876e+001 0.000000e+000 3.068157e+001
      vertex   -1.372872e+001 0.000000e+000 3.080890e+001
    endloop
  endfacet
  facet normal 0.000000e+000 1.000000e+000 -0.000000e+000
    outer loop
      vertex   -1.372872e+001 0.000000e+000 3.080890e+001
      vertex   -2.025876e+001 0.000000e+000 3.068157e+001
      vertex   -1.412834e+001 0.000000e+000 3.111095e+001
    endloop
  endfacet
  facet normal 0.000000e+000 1.000000e+000 -0.000000e+000
    outer loop
      vertex   -1.412834e+001 0.000000e+000 3.111095e+001
      vertex   -2.025876e+001 0.000000e+000 3.068157e+001
      vertex   -1.454104e+001 0.000000e+000 3.139487e+001
    endloop
  endfacet
  facet normal 0.000000e+000 1.000000e+000 -0.000000e+000
    outer loop
      vertex   -1.454104e+001 0.000000e+000 3.139487e+001
      vertex   -2.025876e+001 0.000000e+000 3.068157e+001
      vertex   -1.496600e+001 0.000000e+000 3.166009e+001
    endloop
  endfacet
  facet normal 0.000000e+000 1.000000e+000 -0.000000e+000
    outer loop
      vertex   -1.496600e+001 0.000000e+000 3.166009e+001
      vertex   -2.025876e+001 0.000000e+000 3.068157e+001
      vertex   -1.540237e+001 0.000000e+000 3.190610e+001
    endloop
  endfacet
  facet normal 0.000000e+000 1.000000e+000 -0.000000e+000
    outer loop
      vertex   -1.540237e+001 0.000000e+000 3.190610e+001
      vertex   -2.025876e+001 0.000000e+000 3.068157e+001
      vertex   -1.584927e+001 0.000000e+000 3.213239e+001
    endloop
  endfacet
  facet normal 0.000000e+000 1.000000e+000 -0.000000e+000
    outer loop
      vertex   -1.584927e+001 0.000000e+000 3.213239e+001
      vertex   -2.025876e+001 0.000000e+000 3.068157e+001
      vertex   -1.630583e+001 0.000000e+000 3.233853e+001
    endloop
  endfacet
  facet normal 0.000000e+000 1.000000e+000 -0.000000e+000
    outer loop
      vertex   -1.630583e+001 0.000000e+000 3.233853e+001
      vertex   -2.025876e+001 0.000000e+000 3.068157e+001
      vertex   -1.677112e+001 0.000000e+000 3.252409e+001
    endloop
  endfacet
  facet normal 0.000000e+000 1.000000e+000 -0.000000e+000
    outer loop
      vertex   -1.677112e+001 0.000000e+000 3.252409e+001
      vertex   -2.025876e+001 0.000000e+000 3.068157e+001
      vertex   -1.724423e+001 0.000000e+000 3.268871e+001
    endloop
  endfacet
  facet normal 0.000000e+000 1.000000e+000 -0.000000e+000
    outer loop
      vertex   -1.724423e+001 0.000000e+000 3.268871e+001
      vertex   -2.025876e+001 0.000000e+000 3.068157e+001
      vertex   -1.772421e+001 0.000000e+000 3.283207e+001
    endloop
  endfacet
  facet normal 0.000000e+000 1.000000e+000 -0.000000e+000
    outer loop
      vertex   -1.772421e+001 0.000000e+000 3.283207e+001
      vertex   -2.025876e+001 0.000000e+000 3.068157e+001
      vertex   -1.821011e+001 0.000000e+000 3.295387e+001
    endloop
  endfacet
  facet normal 0.000000e+000 1.000000e+000 -0.000000e+000
    outer loop
      vertex   -1.821011e+001 0.000000e+000 3.295387e+001
      vertex   -2.025876e+001 0.000000e+000 3.068157e+001
      vertex   -1.870096e+001 0.000000e+000 3.305387e+001
    endloop
  endfacet
  facet normal 0.000000e+000 1.000000e+000 -0.000000e+000
    outer loop
      vertex   -1.870096e+001 0.000000e+000 3.305387e+001
      vertex   -2.025876e+001 0.000000e+000 3.068157e+001
      vertex   -1.919578e+001 0.000000e+000 3.313188e+001
    endloop
  endfacet
  facet normal 0.000000e+000 1.000000e+000 -0.000000e+000
    outer loop
      vertex   -1.919578e+001 0.000000e+000 3.313188e+001
      vertex   -2.025876e+001 0.000000e+000 3.068157e+001
      vertex   -1.969359e+001 0.000000e+000 3.318773e+001
    endloop
  endfacet
  facet normal 0.000000e+000 1.000000e+000 -0.000000e+000
    outer loop
      vertex   -1.969359e+001 0.000000e+000 3.318773e+001
      vertex   -2.025876e+001 0.000000e+000 3.068157e+001
      vertex   -2.019339e+001 0.000000e+000 3.322133e+001
    endloop
  endfacet
  facet normal 0.000000e+000 1.000000e+000 0.000000e+000
    outer loop
      vertex   -2.019339e+001 0.000000e+000 3.322133e+001
      vertex   -2.025876e+001 0.000000e+000 3.068157e+001
      vertex   -2.069420e+001 0.000000e+000 3.323260e+001
    endloop
  endfacet
  facet normal 0.000000e+000 1.000000e+000 0.000000e+000
    outer loop
      vertex   -2.069420e+001 0.000000e+000 3.323260e+001
      vertex   -2.025876e+001 0.000000e+000 3.068157e+001
      vertex   -2.069466e+001 0.000000e+000 3.069260e+001
    endloop
  endfacet
  facet normal -0.000000e+000 1.000000e+000 0.000000e+000
    outer loop
      vertex   -2.113057e+001 0.000000e+000 3.068173e+001
      vertex   -2.069420e+001 0.000000e+000 3.323260e+001
      vertex   -2.069466e+001 0.000000e+000 3.069260e+001
    endloop
  endfacet
  facet normal 0.000000e+000 1.000000e+000 -0.000000e+000
    outer loop
      vertex   -2.113057e+001 0.000000e+000 3.068173e+001
      vertex   -2.119501e+001 0.000000e+000 3.322151e+001
      vertex   -2.069420e+001 0.000000e+000 3.323260e+001
    endloop
  endfacet
  facet normal 0.000000e+000 1.000000e+000 -0.000000e+000
    outer loop
      vertex   -2.113057e+001 0.000000e+000 3.068173e+001
      vertex   -2.156538e+001 0.000000e+000 3.064901e+001
      vertex   -2.119501e+001 0.000000e+000 3.322151e+001
    endloop
  endfacet
  facet normal 0.000000e+000 1.000000e+000 0.000000e+000
    outer loop
      vertex   -2.119501e+001 0.000000e+000 3.322151e+001
      vertex   -2.156538e+001 0.000000e+000 3.064901e+001
      vertex   -2.169483e+001 0.000000e+000 3.318810e+001
    endloop
  endfacet
  facet normal 0.000000e+000 1.000000e+000 0.000000e+000
    outer loop
      vertex   -2.169483e+001 0.000000e+000 3.318810e+001
      vertex   -2.156538e+001 0.000000e+000 3.064901e+001
      vertex   -2.199800e+001 0.000000e+000 3.059451e+001
    endloop
  endfacet
  facet normal 0.000000e+000 1.000000e+000 0.000000e+000
    outer loop
      vertex   -2.219266e+001 0.000000e+000 3.313242e+001
      vertex   -2.199800e+001 0.000000e+000 3.059451e+001
      vertex   -2.242734e+001 0.000000e+000 3.051836e+001
    endloop
  endfacet
  facet normal 0.000000e+000 1.000000e+000 0.000000e+000
    outer loop
      vertex   -2.268750e+001 0.000000e+000 3.305459e+001
      vertex   -2.242734e+001 0.000000e+000 3.051836e+001
      vertex   -2.285231e+001 0.000000e+000 3.042077e+001
    endloop
  endfacet
  facet normal 0.000000e+000 1.000000e+000 0.000000e+000
    outer loop
      vertex   -2.317839e+001 0.000000e+000 3.295477e+001
      vertex   -2.285231e+001 0.000000e+000 3.042077e+001
      vertex   -2.327186e+001 0.000000e+000 3.030198e+001
    endloop
  endfacet
  facet normal 0.000000e+000 1.000000e+000 0.000000e+000
    outer loop
      vertex   -2.366433e+001 0.000000e+000 3.283314e+001
      vertex   -2.327186e+001 0.000000e+000 3.030198e+001
      vertex   -2.368492e+001 0.000000e+000 3.016229e+001
    endloop
  endfacet
  facet normal 0.000000e+000 1.000000e+000 0.000000e+000
    outer loop
      vertex   -2.414437e+001 0.000000e+000 3.268997e+001
      vertex   -2.368492e+001 0.000000e+000 3.016229e+001
      vertex   -2.409044e+001 0.000000e+000 3.000204e+001
    endloop
  endfacet
  facet normal 0.000000e+000 1.000000e+000 0.000000e+000
    outer loop
      vertex   -2.461754e+001 0.000000e+000 3.252551e+001
      vertex   -2.409044e+001 0.000000e+000 3.000204e+001
      vertex   -2.508290e+001 0.000000e+000 3.234012e+001
    endloop
  endfacet
  facet normal -0.000000e+000 1.000000e+000 0.000000e+000
    outer loop
      vertex   -2.461754e+001 0.000000e+000 3.252551e+001
      vertex   -2.414437e+001 0.000000e+000 3.268997e+001
      vertex   -2.409044e+001 0.000000e+000 3.000204e+001
    endloop
  endfacet
  facet normal 0.000000e+000 1.000000e+000 -0.000000e+000
    outer loop
      vertex   -1.297184e+001 0.000000e+000 3.015287e+001
      vertex   -1.419710e+001 0.000000e+000 2.776499e+001
      vertex   -1.334296e+001 0.000000e+000 3.048933e+001
    endloop
  endfacet
  facet normal 0.000000e+000 1.000000e+000 -0.000000e+000
    outer loop
      vertex   -1.334296e+001 0.000000e+000 3.048933e+001
      vertex   -1.444419e+001 0.000000e+000 2.803675e+001
      vertex   -1.372872e+001 0.000000e+000 3.080890e+001
    endloop
  endfacet
  facet normal 0.000000e+000 1.000000e+000 0.000000e+000
    outer loop
      vertex   -2.169483e+001 0.000000e+000 3.318810e+001
      vertex   -2.199800e+001 0.000000e+000 3.059451e+001
      vertex   -2.219266e+001 0.000000e+000 3.313242e+001
    endloop
  endfacet
  facet normal 0.000000e+000 1.000000e+000 0.000000e+000
    outer loop
      vertex   -2.219266e+001 0.000000e+000 3.313242e+001
      vertex   -2.242734e+001 0.000000e+000 3.051836e+001
      vertex   -2.268750e+001 0.000000e+000 3.305459e+001
    endloop
  endfacet
  facet normal 0.000000e+000 1.000000e+000 0.000000e+000
    outer loop
      vertex   -2.268750e+001 0.000000e+000 3.305459e+001
      vertex   -2.285231e+001 0.000000e+000 3.042077e+001
      vertex   -2.317839e+001 0.000000e+000 3.295477e+001
    endloop
  endfacet
  facet normal 0.000000e+000 1.000000e+000 0.000000e+000
    outer loop
      vertex   -2.317839e+001 0.000000e+000 3.295477e+001
      vertex   -2.327186e+001 0.000000e+000 3.030198e+001
      vertex   -2.366433e+001 0.000000e+000 3.283314e+001
    endloop
  endfacet
  facet normal 0.000000e+000 1.000000e+000 0.000000e+000
    outer loop
      vertex   -2.366433e+001 0.000000e+000 3.283314e+001
      vertex   -2.368492e+001 0.000000e+000 3.016229e+001
      vertex   -2.414437e+001 0.000000e+000 3.268997e+001
    endloop
  endfacet
endsolid
