solid ascii
  facet normal -4.954914e-001 -8.686129e-001 0.000000e+000
    outer loop
      vertex   -1.584443e-002 3.047959e+000 0.000000e+000
      vertex   2.631688e+000 1.537701e+000 0.000000e+000
      vertex   -1.584443e-002 3.047959e+000 5.080000e+000
    endloop
  endfacet
  facet normal -4.954914e-001 -8.686129e-001 4.331543e-017
    outer loop
      vertex   -1.584443e-002 3.047959e+000 5.080000e+000
      vertex   2.631688e+000 1.537701e+000 0.000000e+000
      vertex   2.631688e+000 1.537701e+000 5.080000e+000
    endloop
  endfacet
  facet normal 5.044951e-001 -8.634146e-001 0.000000e+000
    outer loop
      vertex   -2.647532e+000 1.510258e+000 0.000000e+000
      vertex   -1.584443e-002 3.047959e+000 0.000000e+000
      vertex   -2.647532e+000 1.510258e+000 5.080000e+000
    endloop
  endfacet
  facet normal 5.044951e-001 -8.634146e-001 1.963941e-017
    outer loop
      vertex   -2.647532e+000 1.510258e+000 5.080000e+000
      vertex   -1.584443e-002 3.047959e+000 0.000000e+000
      vertex   -1.584443e-002 3.047959e+000 5.080000e+000
    endloop
  endfacet
  facet normal 9.999865e-001 5.198303e-003 -4.481378e-019
    outer loop
      vertex   -2.631688e+000 -1.537701e+000 0.000000e+000
      vertex   -2.647532e+000 1.510258e+000 0.000000e+000
      vertex   -2.631688e+000 -1.537701e+000 5.080000e+000
    endloop
  endfacet
  facet normal 9.999865e-001 5.198303e-003 -2.272156e-019
    outer loop
      vertex   -2.631688e+000 -1.537701e+000 5.080000e+000
      vertex   -2.647532e+000 1.510258e+000 0.000000e+000
      vertex   -2.647532e+000 1.510258e+000 5.080000e+000
    endloop
  endfacet
  facet normal 4.954914e-001 8.686129e-001 0.000000e+000
    outer loop
      vertex   1.584443e-002 -3.047959e+000 0.000000e+000
      vertex   -2.631688e+000 -1.537701e+000 0.000000e+000
      vertex   1.584443e-002 -3.047959e+000 5.080000e+000
    endloop
  endfacet
  facet normal 4.954914e-001 8.686129e-001 -3.796669e-017
    outer loop
      vertex   1.584443e-002 -3.047959e+000 5.080000e+000
      vertex   -2.631688e+000 -1.537701e+000 0.000000e+000
      vertex   -2.631688e+000 -1.537701e+000 5.080000e+000
    endloop
  endfacet
  facet normal -5.044951e-001 8.634146e-001 0.000000e+000
    outer loop
      vertex   2.647532e+000 -1.510258e+000 0.000000e+000
      vertex   1.584443e-002 -3.047959e+000 0.000000e+000
      vertex   2.647532e+000 -1.510258e+000 5.080000e+000
    endloop
  endfacet
  facet normal -5.044951e-001 8.634146e-001 0.000000e+000
    outer loop
      vertex   2.647532e+000 -1.510258e+000 5.080000e+000
      vertex   1.584443e-002 -3.047959e+000 0.000000e+000
      vertex   1.584443e-002 -3.047959e+000 5.080000e+000
    endloop
  endfacet
  facet normal -9.999865e-001 -5.198303e-003 8.738687e-017
    outer loop
      vertex   2.631688e+000 1.537701e+000 0.000000e+000
      vertex   2.647532e+000 -1.510258e+000 0.000000e+000
      vertex   2.631688e+000 1.537701e+000 5.080000e+000
    endloop
  endfacet
  facet normal -9.999865e-001 -5.198303e-003 0.000000e+000
    outer loop
      vertex   2.631688e+000 1.537701e+000 5.080000e+000
      vertex   2.647532e+000 -1.510258e+000 0.000000e+000
      vertex   2.647532e+000 -1.510258e+000 5.080000e+000
    endloop
  endfacet
  facet normal 0.000000e+000 1.000000e+000 -0.000000e+000
    outer loop
      vertex   3.175000e+000 4.445000e+000 0.000000e+000
      vertex   -3.175000e+000 4.445000e+000 0.000000e+000
      vertex   3.175000e+000 4.445000e+000 5.080000e+000
    endloop
  endfacet
  facet normal 0.000000e+000 1.000000e+000 -0.000000e+000
    outer loop
      vertex   3.175000e+000 4.445000e+000 5.080000e+000
      vertex   -3.175000e+000 4.445000e+000 0.000000e+000
      vertex   -3.175000e+000 4.445000e+000 5.080000e+000
    endloop
  endfacet
  facet normal 1.000000e+000 0.000000e+000 -0.000000e+000
    outer loop
      vertex   3.175000e+000 -4.445000e+000 0.000000e+000
      vertex   3.175000e+000 4.445000e+000 0.000000e+000
      vertex   3.175000e+000 -4.445000e+000 5.080000e+000
    endloop
  endfacet
  facet normal 1.000000e+000 -0.000000e+000 0.000000e+000
    outer loop
      vertex   3.175000e+000 -4.445000e+000 5.080000e+000
      vertex   3.175000e+000 4.445000e+000 0.000000e+000
      vertex   3.175000e+000 4.445000e+000 5.080000e+000
    endloop
  endfacet
  facet normal 0.000000e+000 -1.000000e+000 0.000000e+000
    outer loop
      vertex   -3.175000e+000 -4.445000e+000 0.000000e+000
      vertex   3.175000e+000 -4.445000e+000 0.000000e+000
      vertex   -3.175000e+000 -4.445000e+000 5.080000e+000
    endloop
  endfacet
  facet normal 0.000000e+000 -1.000000e+000 0.000000e+000
    outer loop
      vertex   -3.175000e+000 -4.445000e+000 5.080000e+000
      vertex   3.175000e+000 -4.445000e+000 0.000000e+000
      vertex   3.175000e+000 -4.445000e+000 5.080000e+000
    endloop
  endfacet
  facet normal -1.000000e+000 0.000000e+000 0.000000e+000
    outer loop
      vertex   -3.175000e+000 4.445000e+000 0.000000e+000
      vertex   -3.175000e+000 -4.445000e+000 0.000000e+000
      vertex   -3.175000e+000 4.445000e+000 5.080000e+000
    endloop
  endfacet
  facet normal -1.000000e+000 -0.000000e+000 0.000000e+000
    outer loop
      vertex   -3.175000e+000 4.445000e+000 5.080000e+000
      vertex   -3.175000e+000 -4.445000e+000 0.000000e+000
      vertex   -3.175000e+000 -4.445000e+000 5.080000e+000
    endloop
  endfacet
  facet normal 0.000000e+000 -0.000000e+000 1.000000e+000
    outer loop
      vertex   -3.175000e+000 -4.445000e+000 5.080000e+000
      vertex   -2.647532e+000 1.510258e+000 5.080000e+000
      vertex   -3.175000e+000 4.445000e+000 5.080000e+000
    endloop
  endfacet
  facet normal 0.000000e+000 -0.000000e+000 1.000000e+000
    outer loop
      vertex   -3.175000e+000 -4.445000e+000 5.080000e+000
      vertex   -2.631688e+000 -1.537701e+000 5.080000e+000
      vertex   -2.647532e+000 1.510258e+000 5.080000e+000
    endloop
  endfacet
  facet normal 0.000000e+000 -0.000000e+000 1.000000e+000
    outer loop
      vertex   -3.175000e+000 -4.445000e+000 5.080000e+000
      vertex   1.584443e-002 -3.047959e+000 5.080000e+000
      vertex   -2.631688e+000 -1.537701e+000 5.080000e+000
    endloop
  endfacet
  facet normal 0.000000e+000 -0.000000e+000 1.000000e+000
    outer loop
      vertex   -3.175000e+000 -4.445000e+000 5.080000e+000
      vertex   3.175000e+000 -4.445000e+000 5.080000e+000
      vertex   1.584443e-002 -3.047959e+000 5.080000e+000
    endloop
  endfacet
  facet normal -0.000000e+000 -0.000000e+000 1.000000e+000
    outer loop
      vertex   1.584443e-002 -3.047959e+000 5.080000e+000
      vertex   3.175000e+000 -4.445000e+000 5.080000e+000
      vertex   2.647532e+000 -1.510258e+000 5.080000e+000
    endloop
  endfacet
  facet normal -0.000000e+000 0.000000e+000 1.000000e+000
    outer loop
      vertex   2.647532e+000 -1.510258e+000 5.080000e+000
      vertex   3.175000e+000 -4.445000e+000 5.080000e+000
      vertex   3.175000e+000 4.445000e+000 5.080000e+000
    endloop
  endfacet
  facet normal 0.000000e+000 -0.000000e+000 1.000000e+000
    outer loop
      vertex   2.631688e+000 1.537701e+000 5.080000e+000
      vertex   3.175000e+000 4.445000e+000 5.080000e+000
      vertex   -1.584443e-002 3.047959e+000 5.080000e+000
    endloop
  endfacet
  facet normal -0.000000e+000 0.000000e+000 1.000000e+000
    outer loop
      vertex   2.631688e+000 1.537701e+000 5.080000e+000
      vertex   2.647532e+000 -1.510258e+000 5.080000e+000
      vertex   3.175000e+000 4.445000e+000 5.080000e+000
    endloop
  endfacet
  facet normal 0.000000e+000 0.000000e+000 1.000000e+000
    outer loop
      vertex   3.175000e+000 4.445000e+000 5.080000e+000
      vertex   -3.175000e+000 4.445000e+000 5.080000e+000
      vertex   -1.584443e-002 3.047959e+000 5.080000e+000
    endloop
  endfacet
  facet normal 0.000000e+000 0.000000e+000 1.000000e+000
    outer loop
      vertex   -1.584443e-002 3.047959e+000 5.080000e+000
      vertex   -3.175000e+000 4.445000e+000 5.080000e+000
      vertex   -2.647532e+000 1.510258e+000 5.080000e+000
    endloop
  endfacet
  facet normal 0.000000e+000 -0.000000e+000 -1.000000e+000
    outer loop
      vertex   -3.175000e+000 4.445000e+000 0.000000e+000
      vertex   -2.647532e+000 1.510258e+000 0.000000e+000
      vertex   -3.175000e+000 -4.445000e+000 0.000000e+000
    endloop
  endfacet
  facet normal 0.000000e+000 -0.000000e+000 -1.000000e+000
    outer loop
      vertex   -3.175000e+000 4.445000e+000 0.000000e+000
      vertex   -1.584443e-002 3.047959e+000 0.000000e+000
      vertex   -2.647532e+000 1.510258e+000 0.000000e+000
    endloop
  endfacet
  facet normal 0.000000e+000 -0.000000e+000 -1.000000e+000
    outer loop
      vertex   -3.175000e+000 4.445000e+000 0.000000e+000
      vertex   3.175000e+000 4.445000e+000 0.000000e+000
      vertex   -1.584443e-002 3.047959e+000 0.000000e+000
    endloop
  endfacet
  facet normal 0.000000e+000 -0.000000e+000 -1.000000e+000
    outer loop
      vertex   -1.584443e-002 3.047959e+000 0.000000e+000
      vertex   3.175000e+000 4.445000e+000 0.000000e+000
      vertex   2.631688e+000 1.537701e+000 0.000000e+000
    endloop
  endfacet
  facet normal 0.000000e+000 -0.000000e+000 -1.000000e+000
    outer loop
      vertex   2.631688e+000 1.537701e+000 0.000000e+000
      vertex   3.175000e+000 4.445000e+000 0.000000e+000
      vertex   2.647532e+000 -1.510258e+000 0.000000e+000
    endloop
  endfacet
  facet normal 0.000000e+000 0.000000e+000 -1.000000e+000
    outer loop
      vertex   2.647532e+000 -1.510258e+000 0.000000e+000
      vertex   3.175000e+000 4.445000e+000 0.000000e+000
      vertex   3.175000e+000 -4.445000e+000 0.000000e+000
    endloop
  endfacet
  facet normal -0.000000e+000 -0.000000e+000 -1.000000e+000
    outer loop
      vertex   1.584443e-002 -3.047959e+000 0.000000e+000
      vertex   3.175000e+000 -4.445000e+000 0.000000e+000
      vertex   -3.175000e+000 -4.445000e+000 0.000000e+000
    endloop
  endfacet
  facet normal -0.000000e+000 0.000000e+000 -1.000000e+000
    outer loop
      vertex   -2.631688e+000 -1.537701e+000 0.000000e+000
      vertex   -3.175000e+000 -4.445000e+000 0.000000e+000
      vertex   -2.647532e+000 1.510258e+000 0.000000e+000
    endloop
  endfacet
  facet normal 0.000000e+000 -0.000000e+000 -1.000000e+000
    outer loop
      vertex   -2.631688e+000 -1.537701e+000 0.000000e+000
      vertex   1.584443e-002 -3.047959e+000 0.000000e+000
      vertex   -3.175000e+000 -4.445000e+000 0.000000e+000
    endloop
  endfacet
  facet normal -0.000000e+000 -0.000000e+000 -1.000000e+000
    outer loop
      vertex   2.647532e+000 -1.510258e+000 0.000000e+000
      vertex   3.175000e+000 -4.445000e+000 0.000000e+000
      vertex   1.584443e-002 -3.047959e+000 0.000000e+000
    endloop
  endfacet
endsolid
