solid ascii
  facet normal -7.071068e-001 7.071068e-001 0.000000e+000
    outer loop
      vertex   -2.667000e+000 4.445000e+000 2.540000e+000
      vertex   -2.667000e+000 4.445000e+000 0.000000e+000
      vertex   -3.175000e+000 3.937000e+000 2.540000e+000
    endloop
  endfacet
  facet normal -7.071068e-001 7.071068e-001 0.000000e+000
    outer loop
      vertex   -3.175000e+000 3.937000e+000 2.540000e+000
      vertex   -2.667000e+000 4.445000e+000 0.000000e+000
      vertex   -3.175000e+000 3.937000e+000 0.000000e+000
    endloop
  endfacet
  facet normal -1.000000e+000 0.000000e+000 0.000000e+000
    outer loop
      vertex   -3.175000e+000 3.937000e+000 0.000000e+000
      vertex   -3.175000e+000 -3.937000e+000 0.000000e+000
      vertex   -3.175000e+000 3.937000e+000 2.540000e+000
    endloop
  endfacet
  facet normal -1.000000e+000 -0.000000e+000 0.000000e+000
    outer loop
      vertex   -3.175000e+000 3.937000e+000 2.540000e+000
      vertex   -3.175000e+000 -3.937000e+000 0.000000e+000
      vertex   -3.175000e+000 -3.937000e+000 2.540000e+000
    endloop
  endfacet
  facet normal -0.000000e+000 0.000000e+000 -1.000000e+000
    outer loop
      vertex   -1.893833e+000 -2.059667e-001 0.000000e+000
      vertex   -3.175000e+000 -3.937000e+000 0.000000e+000
      vertex   -1.905000e+000 -2.332952e-016 0.000000e+000
    endloop
  endfacet
  facet normal 0.000000e+000 -0.000000e+000 -1.000000e+000
    outer loop
      vertex   -1.893833e+000 -2.059667e-001 0.000000e+000
      vertex   -1.860462e+000 -4.095187e-001 0.000000e+000
      vertex   -3.175000e+000 -3.937000e+000 0.000000e+000
    endloop
  endfacet
  facet normal 0.000000e+000 0.000000e+000 -1.000000e+000
    outer loop
      vertex   -3.175000e+000 -3.937000e+000 0.000000e+000
      vertex   -1.860462e+000 -4.095187e-001 0.000000e+000
      vertex   -1.805279e+000 -6.082694e-001 0.000000e+000
    endloop
  endfacet
  facet normal -0.000000e+000 0.000000e+000 -1.000000e+000
    outer loop
      vertex   -1.728931e+000 -7.998887e-001 0.000000e+000
      vertex   -3.175000e+000 -3.937000e+000 0.000000e+000
      vertex   -1.805279e+000 -6.082694e-001 0.000000e+000
    endloop
  endfacet
  facet normal 0.000000e+000 -0.000000e+000 -1.000000e+000
    outer loop
      vertex   -1.728931e+000 -7.998887e-001 0.000000e+000
      vertex   -1.632313e+000 -9.821301e-001 0.000000e+000
      vertex   -3.175000e+000 -3.937000e+000 0.000000e+000
    endloop
  endfacet
  facet normal 0.000000e+000 0.000000e+000 -1.000000e+000
    outer loop
      vertex   -3.175000e+000 -3.937000e+000 0.000000e+000
      vertex   -1.632313e+000 -9.821301e-001 0.000000e+000
      vertex   -1.516557e+000 -1.152857e+000 0.000000e+000
    endloop
  endfacet
  facet normal -0.000000e+000 0.000000e+000 -1.000000e+000
    outer loop
      vertex   -1.383021e+000 -1.310067e+000 0.000000e+000
      vertex   -3.175000e+000 -3.937000e+000 0.000000e+000
      vertex   -1.516557e+000 -1.152857e+000 0.000000e+000
    endloop
  endfacet
  facet normal -0.000000e+000 0.000000e+000 -1.000000e+000
    outer loop
      vertex   -1.383021e+000 -1.310067e+000 0.000000e+000
      vertex   -2.667000e+000 -4.445000e+000 0.000000e+000
      vertex   -3.175000e+000 -3.937000e+000 0.000000e+000
    endloop
  endfacet
  facet normal 0.000000e+000 -0.000000e+000 -1.000000e+000
    outer loop
      vertex   -1.383021e+000 -1.310067e+000 0.000000e+000
      vertex   -1.233271e+000 -1.451919e+000 0.000000e+000
      vertex   -2.667000e+000 -4.445000e+000 0.000000e+000
    endloop
  endfacet
  facet normal 0.000000e+000 0.000000e+000 -1.000000e+000
    outer loop
      vertex   -2.667000e+000 -4.445000e+000 0.000000e+000
      vertex   -1.233271e+000 -1.451919e+000 0.000000e+000
      vertex   -1.069061e+000 -1.576748e+000 0.000000e+000
    endloop
  endfacet
  facet normal -0.000000e+000 0.000000e+000 -1.000000e+000
    outer loop
      vertex   -8.923181e-001 -1.683090e+000 0.000000e+000
      vertex   -2.667000e+000 -4.445000e+000 0.000000e+000
      vertex   -1.069061e+000 -1.576748e+000 0.000000e+000
    endloop
  endfacet
  facet normal 0.000000e+000 -0.000000e+000 -1.000000e+000
    outer loop
      vertex   -8.923181e-001 -1.683090e+000 0.000000e+000
      vertex   -7.051132e-001 -1.769701e+000 0.000000e+000
      vertex   -2.667000e+000 -4.445000e+000 0.000000e+000
    endloop
  endfacet
  facet normal 0.000000e+000 0.000000e+000 -1.000000e+000
    outer loop
      vertex   -2.667000e+000 -4.445000e+000 0.000000e+000
      vertex   -7.051132e-001 -1.769701e+000 0.000000e+000
      vertex   -5.096415e-001 -1.835563e+000 0.000000e+000
    endloop
  endfacet
  facet normal -0.000000e+000 0.000000e+000 -1.000000e+000
    outer loop
      vertex   -3.081947e-001 -1.879905e+000 0.000000e+000
      vertex   -2.667000e+000 -4.445000e+000 0.000000e+000
      vertex   -5.096415e-001 -1.835563e+000 0.000000e+000
    endloop
  endfacet
  facet normal 0.000000e+000 -0.000000e+000 -1.000000e+000
    outer loop
      vertex   -3.081947e-001 -1.879905e+000 0.000000e+000
      vertex   -1.031346e-001 -1.902206e+000 0.000000e+000
      vertex   -2.667000e+000 -4.445000e+000 0.000000e+000
    endloop
  endfacet
  facet normal 0.000000e+000 0.000000e+000 -1.000000e+000
    outer loop
      vertex   -2.667000e+000 -4.445000e+000 0.000000e+000
      vertex   -1.031346e-001 -1.902206e+000 0.000000e+000
      vertex   1.031346e-001 -1.902206e+000 0.000000e+000
    endloop
  endfacet
  facet normal 0.000000e+000 0.000000e+000 -1.000000e+000
    outer loop
      vertex   2.667000e+000 -4.445000e+000 0.000000e+000
      vertex   1.031346e-001 -1.902206e+000 0.000000e+000
      vertex   3.081947e-001 -1.879905e+000 0.000000e+000
    endloop
  endfacet
  facet normal -0.000000e+000 -0.000000e+000 -1.000000e+000
    outer loop
      vertex   5.096415e-001 -1.835563e+000 0.000000e+000
      vertex   2.667000e+000 -4.445000e+000 0.000000e+000
      vertex   3.081947e-001 -1.879905e+000 0.000000e+000
    endloop
  endfacet
  facet normal 0.000000e+000 0.000000e+000 -1.000000e+000
    outer loop
      vertex   5.096415e-001 -1.835563e+000 0.000000e+000
      vertex   7.051132e-001 -1.769701e+000 0.000000e+000
      vertex   2.667000e+000 -4.445000e+000 0.000000e+000
    endloop
  endfacet
  facet normal 0.000000e+000 0.000000e+000 -1.000000e+000
    outer loop
      vertex   2.667000e+000 -4.445000e+000 0.000000e+000
      vertex   7.051132e-001 -1.769701e+000 0.000000e+000
      vertex   8.923181e-001 -1.683090e+000 0.000000e+000
    endloop
  endfacet
  facet normal -0.000000e+000 -0.000000e+000 -1.000000e+000
    outer loop
      vertex   1.069061e+000 -1.576748e+000 0.000000e+000
      vertex   2.667000e+000 -4.445000e+000 0.000000e+000
      vertex   8.923181e-001 -1.683090e+000 0.000000e+000
    endloop
  endfacet
  facet normal 0.000000e+000 0.000000e+000 -1.000000e+000
    outer loop
      vertex   1.069061e+000 -1.576748e+000 0.000000e+000
      vertex   1.233271e+000 -1.451919e+000 0.000000e+000
      vertex   2.667000e+000 -4.445000e+000 0.000000e+000
    endloop
  endfacet
  facet normal 0.000000e+000 0.000000e+000 -1.000000e+000
    outer loop
      vertex   2.667000e+000 -4.445000e+000 0.000000e+000
      vertex   1.233271e+000 -1.451919e+000 0.000000e+000
      vertex   1.383021e+000 -1.310067e+000 0.000000e+000
    endloop
  endfacet
  facet normal 0.000000e+000 0.000000e+000 -1.000000e+000
    outer loop
      vertex   3.175000e+000 -3.937000e+000 0.000000e+000
      vertex   1.383021e+000 -1.310067e+000 0.000000e+000
      vertex   1.516557e+000 -1.152857e+000 0.000000e+000
    endloop
  endfacet
  facet normal -0.000000e+000 -0.000000e+000 -1.000000e+000
    outer loop
      vertex   1.632313e+000 -9.821301e-001 0.000000e+000
      vertex   3.175000e+000 -3.937000e+000 0.000000e+000
      vertex   1.516557e+000 -1.152857e+000 0.000000e+000
    endloop
  endfacet
  facet normal 0.000000e+000 0.000000e+000 -1.000000e+000
    outer loop
      vertex   1.632313e+000 -9.821301e-001 0.000000e+000
      vertex   1.728931e+000 -7.998887e-001 0.000000e+000
      vertex   3.175000e+000 -3.937000e+000 0.000000e+000
    endloop
  endfacet
  facet normal 0.000000e+000 0.000000e+000 -1.000000e+000
    outer loop
      vertex   3.175000e+000 -3.937000e+000 0.000000e+000
      vertex   1.728931e+000 -7.998887e-001 0.000000e+000
      vertex   1.805279e+000 -6.082694e-001 0.000000e+000
    endloop
  endfacet
  facet normal -0.000000e+000 -0.000000e+000 -1.000000e+000
    outer loop
      vertex   1.860462e+000 -4.095187e-001 0.000000e+000
      vertex   3.175000e+000 -3.937000e+000 0.000000e+000
      vertex   1.805279e+000 -6.082694e-001 0.000000e+000
    endloop
  endfacet
  facet normal 0.000000e+000 0.000000e+000 -1.000000e+000
    outer loop
      vertex   1.860462e+000 -4.095187e-001 0.000000e+000
      vertex   1.893833e+000 -2.059667e-001 0.000000e+000
      vertex   3.175000e+000 -3.937000e+000 0.000000e+000
    endloop
  endfacet
  facet normal 0.000000e+000 0.000000e+000 -1.000000e+000
    outer loop
      vertex   3.175000e+000 -3.937000e+000 0.000000e+000
      vertex   1.893833e+000 -2.059667e-001 0.000000e+000
      vertex   1.905000e+000 0.000000e+000 0.000000e+000
    endloop
  endfacet
  facet normal -0.000000e+000 0.000000e+000 -1.000000e+000
    outer loop
      vertex   3.175000e+000 3.937000e+000 0.000000e+000
      vertex   1.905000e+000 0.000000e+000 0.000000e+000
      vertex   1.893833e+000 2.059667e-001 0.000000e+000
    endloop
  endfacet
  facet normal 0.000000e+000 -0.000000e+000 -1.000000e+000
    outer loop
      vertex   1.860462e+000 4.095187e-001 0.000000e+000
      vertex   3.175000e+000 3.937000e+000 0.000000e+000
      vertex   1.893833e+000 2.059667e-001 0.000000e+000
    endloop
  endfacet
  facet normal 0.000000e+000 0.000000e+000 -1.000000e+000
    outer loop
      vertex   1.860462e+000 4.095187e-001 0.000000e+000
      vertex   1.805279e+000 6.082694e-001 0.000000e+000
      vertex   3.175000e+000 3.937000e+000 0.000000e+000
    endloop
  endfacet
  facet normal -0.000000e+000 0.000000e+000 -1.000000e+000
    outer loop
      vertex   3.175000e+000 3.937000e+000 0.000000e+000
      vertex   1.805279e+000 6.082694e-001 0.000000e+000
      vertex   1.728931e+000 7.998887e-001 0.000000e+000
    endloop
  endfacet
  facet normal 0.000000e+000 -0.000000e+000 -1.000000e+000
    outer loop
      vertex   1.632313e+000 9.821301e-001 0.000000e+000
      vertex   3.175000e+000 3.937000e+000 0.000000e+000
      vertex   1.728931e+000 7.998887e-001 0.000000e+000
    endloop
  endfacet
  facet normal 0.000000e+000 0.000000e+000 -1.000000e+000
    outer loop
      vertex   1.632313e+000 9.821301e-001 0.000000e+000
      vertex   1.516557e+000 1.152857e+000 0.000000e+000
      vertex   3.175000e+000 3.937000e+000 0.000000e+000
    endloop
  endfacet
  facet normal -0.000000e+000 0.000000e+000 -1.000000e+000
    outer loop
      vertex   3.175000e+000 3.937000e+000 0.000000e+000
      vertex   1.516557e+000 1.152857e+000 0.000000e+000
      vertex   1.383021e+000 1.310067e+000 0.000000e+000
    endloop
  endfacet
  facet normal -0.000000e+000 0.000000e+000 -1.000000e+000
    outer loop
      vertex   2.667000e+000 4.445000e+000 0.000000e+000
      vertex   1.383021e+000 1.310067e+000 0.000000e+000
      vertex   1.233271e+000 1.451919e+000 0.000000e+000
    endloop
  endfacet
  facet normal 0.000000e+000 -0.000000e+000 -1.000000e+000
    outer loop
      vertex   1.069061e+000 1.576748e+000 0.000000e+000
      vertex   2.667000e+000 4.445000e+000 0.000000e+000
      vertex   1.233271e+000 1.451919e+000 0.000000e+000
    endloop
  endfacet
  facet normal 0.000000e+000 0.000000e+000 -1.000000e+000
    outer loop
      vertex   1.069061e+000 1.576748e+000 0.000000e+000
      vertex   8.923181e-001 1.683090e+000 0.000000e+000
      vertex   2.667000e+000 4.445000e+000 0.000000e+000
    endloop
  endfacet
  facet normal -0.000000e+000 0.000000e+000 -1.000000e+000
    outer loop
      vertex   2.667000e+000 4.445000e+000 0.000000e+000
      vertex   8.923181e-001 1.683090e+000 0.000000e+000
      vertex   7.051132e-001 1.769701e+000 0.000000e+000
    endloop
  endfacet
  facet normal 0.000000e+000 -0.000000e+000 -1.000000e+000
    outer loop
      vertex   5.096415e-001 1.835563e+000 0.000000e+000
      vertex   2.667000e+000 4.445000e+000 0.000000e+000
      vertex   7.051132e-001 1.769701e+000 0.000000e+000
    endloop
  endfacet
  facet normal 0.000000e+000 0.000000e+000 -1.000000e+000
    outer loop
      vertex   5.096415e-001 1.835563e+000 0.000000e+000
      vertex   3.081947e-001 1.879905e+000 0.000000e+000
      vertex   2.667000e+000 4.445000e+000 0.000000e+000
    endloop
  endfacet
  facet normal -0.000000e+000 0.000000e+000 -1.000000e+000
    outer loop
      vertex   2.667000e+000 4.445000e+000 0.000000e+000
      vertex   3.081947e-001 1.879905e+000 0.000000e+000
      vertex   1.031346e-001 1.902206e+000 0.000000e+000
    endloop
  endfacet
  facet normal 0.000000e+000 -0.000000e+000 -1.000000e+000
    outer loop
      vertex   -1.031346e-001 1.902206e+000 0.000000e+000
      vertex   2.667000e+000 4.445000e+000 0.000000e+000
      vertex   1.031346e-001 1.902206e+000 0.000000e+000
    endloop
  endfacet
  facet normal 0.000000e+000 0.000000e+000 -1.000000e+000
    outer loop
      vertex   -1.031346e-001 1.902206e+000 0.000000e+000
      vertex   -2.667000e+000 4.445000e+000 0.000000e+000
      vertex   2.667000e+000 4.445000e+000 0.000000e+000
    endloop
  endfacet
  facet normal -0.000000e+000 0.000000e+000 -1.000000e+000
    outer loop
      vertex   -1.031346e-001 1.902206e+000 0.000000e+000
      vertex   -3.081947e-001 1.879905e+000 0.000000e+000
      vertex   -2.667000e+000 4.445000e+000 0.000000e+000
    endloop
  endfacet
  facet normal 0.000000e+000 -0.000000e+000 -1.000000e+000
    outer loop
      vertex   -2.667000e+000 4.445000e+000 0.000000e+000
      vertex   -3.081947e-001 1.879905e+000 0.000000e+000
      vertex   -5.096415e-001 1.835563e+000 0.000000e+000
    endloop
  endfacet
  facet normal 0.000000e+000 0.000000e+000 -1.000000e+000
    outer loop
      vertex   -7.051132e-001 1.769701e+000 0.000000e+000
      vertex   -2.667000e+000 4.445000e+000 0.000000e+000
      vertex   -5.096415e-001 1.835563e+000 0.000000e+000
    endloop
  endfacet
  facet normal -0.000000e+000 0.000000e+000 -1.000000e+000
    outer loop
      vertex   -7.051132e-001 1.769701e+000 0.000000e+000
      vertex   -8.923181e-001 1.683090e+000 0.000000e+000
      vertex   -2.667000e+000 4.445000e+000 0.000000e+000
    endloop
  endfacet
  facet normal 0.000000e+000 -0.000000e+000 -1.000000e+000
    outer loop
      vertex   -2.667000e+000 4.445000e+000 0.000000e+000
      vertex   -8.923181e-001 1.683090e+000 0.000000e+000
      vertex   -1.069061e+000 1.576748e+000 0.000000e+000
    endloop
  endfacet
  facet normal 0.000000e+000 0.000000e+000 -1.000000e+000
    outer loop
      vertex   -1.233271e+000 1.451919e+000 0.000000e+000
      vertex   -2.667000e+000 4.445000e+000 0.000000e+000
      vertex   -1.069061e+000 1.576748e+000 0.000000e+000
    endloop
  endfacet
  facet normal -0.000000e+000 0.000000e+000 -1.000000e+000
    outer loop
      vertex   -1.233271e+000 1.451919e+000 0.000000e+000
      vertex   -1.383021e+000 1.310067e+000 0.000000e+000
      vertex   -2.667000e+000 4.445000e+000 0.000000e+000
    endloop
  endfacet
  facet normal -0.000000e+000 -0.000000e+000 -1.000000e+000
    outer loop
      vertex   -2.667000e+000 4.445000e+000 0.000000e+000
      vertex   -1.383021e+000 1.310067e+000 0.000000e+000
      vertex   -3.175000e+000 3.937000e+000 0.000000e+000
    endloop
  endfacet
  facet normal 0.000000e+000 -0.000000e+000 -1.000000e+000
    outer loop
      vertex   -3.175000e+000 3.937000e+000 0.000000e+000
      vertex   -1.383021e+000 1.310067e+000 0.000000e+000
      vertex   -1.516557e+000 1.152857e+000 0.000000e+000
    endloop
  endfacet
  facet normal 0.000000e+000 0.000000e+000 -1.000000e+000
    outer loop
      vertex   -1.632313e+000 9.821301e-001 0.000000e+000
      vertex   -3.175000e+000 3.937000e+000 0.000000e+000
      vertex   -1.516557e+000 1.152857e+000 0.000000e+000
    endloop
  endfacet
  facet normal -0.000000e+000 0.000000e+000 -1.000000e+000
    outer loop
      vertex   -1.632313e+000 9.821301e-001 0.000000e+000
      vertex   -1.728931e+000 7.998887e-001 0.000000e+000
      vertex   -3.175000e+000 3.937000e+000 0.000000e+000
    endloop
  endfacet
  facet normal 0.000000e+000 -0.000000e+000 -1.000000e+000
    outer loop
      vertex   -3.175000e+000 3.937000e+000 0.000000e+000
      vertex   -1.728931e+000 7.998887e-001 0.000000e+000
      vertex   -1.805279e+000 6.082694e-001 0.000000e+000
    endloop
  endfacet
  facet normal 0.000000e+000 0.000000e+000 -1.000000e+000
    outer loop
      vertex   -1.860462e+000 4.095187e-001 0.000000e+000
      vertex   -3.175000e+000 3.937000e+000 0.000000e+000
      vertex   -1.805279e+000 6.082694e-001 0.000000e+000
    endloop
  endfacet
  facet normal -0.000000e+000 0.000000e+000 -1.000000e+000
    outer loop
      vertex   -1.860462e+000 4.095187e-001 0.000000e+000
      vertex   -1.893833e+000 2.059667e-001 0.000000e+000
      vertex   -3.175000e+000 3.937000e+000 0.000000e+000
    endloop
  endfacet
  facet normal 0.000000e+000 -0.000000e+000 -1.000000e+000
    outer loop
      vertex   -3.175000e+000 3.937000e+000 0.000000e+000
      vertex   -1.893833e+000 2.059667e-001 0.000000e+000
      vertex   -1.905000e+000 -2.332952e-016 0.000000e+000
    endloop
  endfacet
  facet normal 0.000000e+000 0.000000e+000 -1.000000e+000
    outer loop
      vertex   -3.175000e+000 -3.937000e+000 0.000000e+000
      vertex   -3.175000e+000 3.937000e+000 0.000000e+000
      vertex   -1.905000e+000 -2.332952e-016 0.000000e+000
    endloop
  endfacet
  facet normal 0.000000e+000 0.000000e+000 -1.000000e+000
    outer loop
      vertex   -2.667000e+000 -4.445000e+000 0.000000e+000
      vertex   1.031346e-001 -1.902206e+000 0.000000e+000
      vertex   2.667000e+000 -4.445000e+000 0.000000e+000
    endloop
  endfacet
  facet normal 0.000000e+000 0.000000e+000 -1.000000e+000
    outer loop
      vertex   2.667000e+000 -4.445000e+000 0.000000e+000
      vertex   1.383021e+000 -1.310067e+000 0.000000e+000
      vertex   3.175000e+000 -3.937000e+000 0.000000e+000
    endloop
  endfacet
  facet normal 0.000000e+000 0.000000e+000 -1.000000e+000
    outer loop
      vertex   3.175000e+000 -3.937000e+000 0.000000e+000
      vertex   1.905000e+000 0.000000e+000 0.000000e+000
      vertex   3.175000e+000 3.937000e+000 0.000000e+000
    endloop
  endfacet
  facet normal -0.000000e+000 0.000000e+000 -1.000000e+000
    outer loop
      vertex   3.175000e+000 3.937000e+000 0.000000e+000
      vertex   1.383021e+000 1.310067e+000 0.000000e+000
      vertex   2.667000e+000 4.445000e+000 0.000000e+000
    endloop
  endfacet
  facet normal 7.071068e-001 7.071068e-001 0.000000e+000
    outer loop
      vertex   3.175000e+000 3.937000e+000 2.540000e+000
      vertex   3.175000e+000 3.937000e+000 0.000000e+000
      vertex   2.667000e+000 4.445000e+000 2.540000e+000
    endloop
  endfacet
  facet normal 7.071068e-001 7.071068e-001 0.000000e+000
    outer loop
      vertex   2.667000e+000 4.445000e+000 2.540000e+000
      vertex   3.175000e+000 3.937000e+000 0.000000e+000
      vertex   2.667000e+000 4.445000e+000 0.000000e+000
    endloop
  endfacet
  facet normal 1.000000e+000 0.000000e+000 0.000000e+000
    outer loop
      vertex   3.175000e+000 3.937000e+000 2.540000e+000
      vertex   3.175000e+000 -3.937000e+000 2.540000e+000
      vertex   3.175000e+000 3.937000e+000 0.000000e+000
    endloop
  endfacet
  facet normal 1.000000e+000 0.000000e+000 0.000000e+000
    outer loop
      vertex   3.175000e+000 3.937000e+000 0.000000e+000
      vertex   3.175000e+000 -3.937000e+000 2.540000e+000
      vertex   3.175000e+000 -3.937000e+000 0.000000e+000
    endloop
  endfacet
  facet normal 7.071068e-001 -7.071068e-001 0.000000e+000
    outer loop
      vertex   2.667000e+000 -4.445000e+000 2.540000e+000
      vertex   2.667000e+000 -4.445000e+000 0.000000e+000
      vertex   3.175000e+000 -3.937000e+000 2.540000e+000
    endloop
  endfacet
  facet normal 7.071068e-001 -7.071068e-001 0.000000e+000
    outer loop
      vertex   3.175000e+000 -3.937000e+000 2.540000e+000
      vertex   2.667000e+000 -4.445000e+000 0.000000e+000
      vertex   3.175000e+000 -3.937000e+000 0.000000e+000
    endloop
  endfacet
  facet normal -7.071068e-001 -7.071068e-001 -0.000000e+000
    outer loop
      vertex   -3.175000e+000 -3.937000e+000 2.540000e+000
      vertex   -3.175000e+000 -3.937000e+000 0.000000e+000
      vertex   -2.667000e+000 -4.445000e+000 2.540000e+000
    endloop
  endfacet
  facet normal -7.071068e-001 -7.071068e-001 0.000000e+000
    outer loop
      vertex   -2.667000e+000 -4.445000e+000 2.540000e+000
      vertex   -3.175000e+000 -3.937000e+000 0.000000e+000
      vertex   -2.667000e+000 -4.445000e+000 0.000000e+000
    endloop
  endfacet
  facet normal 9.985334e-001 5.413891e-002 -2.450902e-017
    outer loop
      vertex   -1.893833e+000 -2.059667e-001 1.778000e+000
      vertex   -1.893833e+000 -2.059667e-001 0.000000e+000
      vertex   -1.905000e+000 -2.332952e-016 1.778000e+000
    endloop
  endfacet
  facet normal 9.868265e-001 1.617820e-001 -7.331549e-017
    outer loop
      vertex   -1.893833e+000 -2.059667e-001 1.778000e+000
      vertex   -1.860462e+000 -4.095187e-001 0.000000e+000
      vertex   -1.893833e+000 -2.059667e-001 0.000000e+000
    endloop
  endfacet
  facet normal 9.868265e-001 1.617820e-001 0.000000e+000
    outer loop
      vertex   -1.893833e+000 -2.059667e-001 1.778000e+000
      vertex   -1.860462e+000 -4.095187e-001 1.778000e+000
      vertex   -1.860462e+000 -4.095187e-001 0.000000e+000
    endloop
  endfacet
  facet normal 9.635500e-001 2.675283e-001 -0.000000e+000
    outer loop
      vertex   -1.860462e+000 -4.095187e-001 0.000000e+000
      vertex   -1.860462e+000 -4.095187e-001 1.778000e+000
      vertex   -1.805279e+000 -6.082694e-001 0.000000e+000
    endloop
  endfacet
  facet normal 9.635500e-001 2.675283e-001 4.730031e-018
    outer loop
      vertex   -1.805279e+000 -6.082694e-001 0.000000e+000
      vertex   -1.860462e+000 -4.095187e-001 1.778000e+000
      vertex   -1.805279e+000 -6.082694e-001 1.778000e+000
    endloop
  endfacet
  facet normal 9.289767e-001 3.701382e-001 0.000000e+000
    outer loop
      vertex   -1.728931e+000 -7.998887e-001 0.000000e+000
      vertex   -1.805279e+000 -6.082694e-001 1.778000e+000
      vertex   -1.728931e+000 -7.998887e-001 1.778000e+000
    endloop
  endfacet
  facet normal 8.835120e-001 4.684084e-001 0.000000e+000
    outer loop
      vertex   -1.632313e+000 -9.821301e-001 0.000000e+000
      vertex   -1.728931e+000 -7.998887e-001 1.778000e+000
      vertex   -1.632313e+000 -9.821301e-001 1.778000e+000
    endloop
  endfacet
  facet normal 8.276890e-001 5.611871e-001 9.460063e-017
    outer loop
      vertex   -1.516557e+000 -1.152857e+000 0.000000e+000
      vertex   -1.632313e+000 -9.821301e-001 1.778000e+000
      vertex   -1.516557e+000 -1.152857e+000 1.778000e+000
    endloop
  endfacet
  facet normal 7.621621e-001 6.473863e-001 0.000000e+000
    outer loop
      vertex   -1.383021e+000 -1.310067e+000 0.000000e+000
      vertex   -1.516557e+000 -1.152857e+000 1.778000e+000
      vertex   -1.383021e+000 -1.310067e+000 1.778000e+000
    endloop
  endfacet
  facet normal 6.876995e-001 7.259955e-001 7.568050e-017
    outer loop
      vertex   -1.233271e+000 -1.451919e+000 0.000000e+000
      vertex   -1.383021e+000 -1.310067e+000 1.778000e+000
      vertex   -1.233271e+000 -1.451919e+000 1.778000e+000
    endloop
  endfacet
  facet normal 6.051742e-001 7.960931e-001 0.000000e+000
    outer loop
      vertex   -1.069061e+000 -1.576748e+000 0.000000e+000
      vertex   -1.233271e+000 -1.451919e+000 1.778000e+000
      vertex   -1.069061e+000 -1.576748e+000 1.778000e+000
    endloop
  endfacet
  facet normal 5.155539e-001 8.568572e-001 9.460063e-018
    outer loop
      vertex   -8.923181e-001 -1.683090e+000 0.000000e+000
      vertex   -1.069061e+000 -1.576748e+000 1.778000e+000
      vertex   -8.923181e-001 -1.683090e+000 1.778000e+000
    endloop
  endfacet
  facet normal 4.198891e-001 9.075754e-001 0.000000e+000
    outer loop
      vertex   -7.051132e-001 -1.769701e+000 0.000000e+000
      vertex   -8.923181e-001 -1.683090e+000 1.778000e+000
      vertex   -7.051132e-001 -1.769701e+000 1.778000e+000
    endloop
  endfacet
  facet normal 3.193015e-001 9.476532e-001 4.257028e-017
    outer loop
      vertex   -5.096415e-001 -1.835563e+000 0.000000e+000
      vertex   -7.051132e-001 -1.769701e+000 1.778000e+000
      vertex   -5.096415e-001 -1.835563e+000 1.778000e+000
    endloop
  endfacet
  facet normal 2.149704e-001 9.766206e-001 0.000000e+000
    outer loop
      vertex   -3.081947e-001 -1.879905e+000 0.000000e+000
      vertex   -5.096415e-001 -1.835563e+000 1.778000e+000
      vertex   -3.081947e-001 -1.879905e+000 1.778000e+000
    endloop
  endfacet
  facet normal 1.081190e-001 9.941380e-001 2.601517e-017
    outer loop
      vertex   -1.031346e-001 -1.902206e+000 0.000000e+000
      vertex   -3.081947e-001 -1.879905e+000 1.778000e+000
      vertex   -1.031346e-001 -1.902206e+000 1.778000e+000
    endloop
  endfacet
  facet normal 0.000000e+000 1.000000e+000 -0.000000e+000
    outer loop
      vertex   1.031346e-001 -1.902206e+000 0.000000e+000
      vertex   -1.031346e-001 -1.902206e+000 1.778000e+000
      vertex   1.031346e-001 -1.902206e+000 1.778000e+000
    endloop
  endfacet
  facet normal -1.081190e-001 9.941380e-001 -2.365016e-017
    outer loop
      vertex   3.081947e-001 -1.879905e+000 0.000000e+000
      vertex   1.031346e-001 -1.902206e+000 1.778000e+000
      vertex   3.081947e-001 -1.879905e+000 1.778000e+000
    endloop
  endfacet
  facet normal -2.149704e-001 9.766206e-001 -1.419009e-017
    outer loop
      vertex   5.096415e-001 -1.835563e+000 0.000000e+000
      vertex   3.081947e-001 -1.879905e+000 1.778000e+000
      vertex   5.096415e-001 -1.835563e+000 1.778000e+000
    endloop
  endfacet
  facet normal -3.193015e-001 9.476532e-001 3.784025e-017
    outer loop
      vertex   7.051132e-001 -1.769701e+000 0.000000e+000
      vertex   5.096415e-001 -1.835563e+000 1.778000e+000
      vertex   7.051132e-001 -1.769701e+000 1.778000e+000
    endloop
  endfacet
  facet normal -4.198891e-001 9.075754e-001 4.730031e-017
    outer loop
      vertex   8.923181e-001 -1.683090e+000 0.000000e+000
      vertex   7.051132e-001 -1.769701e+000 1.778000e+000
      vertex   8.923181e-001 -1.683090e+000 1.778000e+000
    endloop
  endfacet
  facet normal -5.155539e-001 8.568572e-001 0.000000e+000
    outer loop
      vertex   1.069061e+000 -1.576748e+000 0.000000e+000
      vertex   8.923181e-001 -1.683090e+000 1.778000e+000
      vertex   1.069061e+000 -1.576748e+000 1.778000e+000
    endloop
  endfacet
  facet normal -6.051742e-001 7.960931e-001 7.568050e-017
    outer loop
      vertex   1.233271e+000 -1.451919e+000 0.000000e+000
      vertex   1.069061e+000 -1.576748e+000 1.778000e+000
      vertex   1.233271e+000 -1.451919e+000 1.778000e+000
    endloop
  endfacet
  facet normal -6.876995e-001 7.259955e-001 9.460063e-018
    outer loop
      vertex   1.383021e+000 -1.310067e+000 0.000000e+000
      vertex   1.233271e+000 -1.451919e+000 1.778000e+000
      vertex   1.383021e+000 -1.310067e+000 1.778000e+000
    endloop
  endfacet
  facet normal -7.621621e-001 6.473863e-001 4.730031e-017
    outer loop
      vertex   1.516557e+000 -1.152857e+000 0.000000e+000
      vertex   1.383021e+000 -1.310067e+000 1.778000e+000
      vertex   1.516557e+000 -1.152857e+000 1.778000e+000
    endloop
  endfacet
  facet normal -8.276890e-001 5.611871e-001 1.702811e-016
    outer loop
      vertex   1.632313e+000 -9.821301e-001 0.000000e+000
      vertex   1.516557e+000 -1.152857e+000 1.778000e+000
      vertex   1.632313e+000 -9.821301e-001 1.778000e+000
    endloop
  endfacet
  facet normal -8.835120e-001 4.684084e-001 -3.784025e-017
    outer loop
      vertex   1.728931e+000 -7.998887e-001 0.000000e+000
      vertex   1.632313e+000 -9.821301e-001 1.778000e+000
      vertex   1.728931e+000 -7.998887e-001 1.778000e+000
    endloop
  endfacet
  facet normal -9.289767e-001 3.701382e-001 7.095047e-017
    outer loop
      vertex   1.805279e+000 -6.082694e-001 0.000000e+000
      vertex   1.728931e+000 -7.998887e-001 1.778000e+000
      vertex   1.805279e+000 -6.082694e-001 1.778000e+000
    endloop
  endfacet
  facet normal -9.635500e-001 2.675283e-001 0.000000e+000
    outer loop
      vertex   1.860462e+000 -4.095187e-001 0.000000e+000
      vertex   1.805279e+000 -6.082694e-001 1.778000e+000
      vertex   1.860462e+000 -4.095187e-001 1.778000e+000
    endloop
  endfacet
  facet normal -9.868265e-001 1.617820e-001 0.000000e+000
    outer loop
      vertex   1.893833e+000 -2.059667e-001 0.000000e+000
      vertex   1.860462e+000 -4.095187e-001 1.778000e+000
      vertex   1.893833e+000 -2.059667e-001 1.778000e+000
    endloop
  endfacet
  facet normal -9.985334e-001 5.413891e-002 0.000000e+000
    outer loop
      vertex   1.905000e+000 0.000000e+000 0.000000e+000
      vertex   1.893833e+000 -2.059667e-001 1.778000e+000
      vertex   1.905000e+000 0.000000e+000 1.778000e+000
    endloop
  endfacet
  facet normal -9.985334e-001 -5.413891e-002 0.000000e+000
    outer loop
      vertex   1.893833e+000 2.059667e-001 0.000000e+000
      vertex   1.905000e+000 0.000000e+000 1.778000e+000
      vertex   1.893833e+000 2.059667e-001 1.778000e+000
    endloop
  endfacet
  facet normal -9.868265e-001 -1.617820e-001 0.000000e+000
    outer loop
      vertex   1.860462e+000 4.095187e-001 0.000000e+000
      vertex   1.893833e+000 2.059667e-001 1.778000e+000
      vertex   1.860462e+000 4.095187e-001 1.778000e+000
    endloop
  endfacet
  facet normal -9.635500e-001 -2.675283e-001 -1.419009e-017
    outer loop
      vertex   1.805279e+000 6.082694e-001 0.000000e+000
      vertex   1.860462e+000 4.095187e-001 1.778000e+000
      vertex   1.805279e+000 6.082694e-001 1.778000e+000
    endloop
  endfacet
  facet normal -9.289767e-001 -3.701382e-001 9.460063e-017
    outer loop
      vertex   1.728931e+000 7.998887e-001 0.000000e+000
      vertex   1.805279e+000 6.082694e-001 1.778000e+000
      vertex   1.728931e+000 7.998887e-001 1.778000e+000
    endloop
  endfacet
  facet normal -8.835120e-001 -4.684084e-001 -1.229808e-016
    outer loop
      vertex   1.632313e+000 9.821301e-001 0.000000e+000
      vertex   1.728931e+000 7.998887e-001 1.778000e+000
      vertex   1.632313e+000 9.821301e-001 1.778000e+000
    endloop
  endfacet
  facet normal -8.276890e-001 -5.611871e-001 -9.460063e-018
    outer loop
      vertex   1.516557e+000 1.152857e+000 0.000000e+000
      vertex   1.632313e+000 9.821301e-001 1.778000e+000
      vertex   1.516557e+000 1.152857e+000 1.778000e+000
    endloop
  endfacet
  facet normal -7.621621e-001 -6.473863e-001 4.730031e-017
    outer loop
      vertex   1.383021e+000 1.310067e+000 0.000000e+000
      vertex   1.516557e+000 1.152857e+000 1.778000e+000
      vertex   1.383021e+000 1.310067e+000 1.778000e+000
    endloop
  endfacet
  facet normal -6.876995e-001 -7.259955e-001 -9.460063e-018
    outer loop
      vertex   1.233271e+000 1.451919e+000 0.000000e+000
      vertex   1.383021e+000 1.310067e+000 1.778000e+000
      vertex   1.233271e+000 1.451919e+000 1.778000e+000
    endloop
  endfacet
  facet normal -6.051742e-001 -7.960931e-001 0.000000e+000
    outer loop
      vertex   1.069061e+000 1.576748e+000 0.000000e+000
      vertex   1.233271e+000 1.451919e+000 1.778000e+000
      vertex   1.069061e+000 1.576748e+000 1.778000e+000
    endloop
  endfacet
  facet normal -5.155539e-001 -8.568572e-001 1.892013e-017
    outer loop
      vertex   8.923181e-001 1.683090e+000 0.000000e+000
      vertex   1.069061e+000 1.576748e+000 1.778000e+000
      vertex   8.923181e-001 1.683090e+000 1.778000e+000
    endloop
  endfacet
  facet normal -4.198891e-001 -9.075754e-001 -9.460063e-018
    outer loop
      vertex   7.051132e-001 1.769701e+000 0.000000e+000
      vertex   8.923181e-001 1.683090e+000 1.778000e+000
      vertex   7.051132e-001 1.769701e+000 1.778000e+000
    endloop
  endfacet
  facet normal -3.193015e-001 -9.476532e-001 8.041053e-017
    outer loop
      vertex   5.096415e-001 1.835563e+000 0.000000e+000
      vertex   7.051132e-001 1.769701e+000 1.778000e+000
      vertex   5.096415e-001 1.835563e+000 1.778000e+000
    endloop
  endfacet
  facet normal -2.149704e-001 -9.766206e-001 4.730031e-017
    outer loop
      vertex   3.081947e-001 1.879905e+000 0.000000e+000
      vertex   5.096415e-001 1.835563e+000 1.778000e+000
      vertex   3.081947e-001 1.879905e+000 1.778000e+000
    endloop
  endfacet
  facet normal -1.081190e-001 -9.941380e-001 -2.601517e-017
    outer loop
      vertex   1.031346e-001 1.902206e+000 0.000000e+000
      vertex   3.081947e-001 1.879905e+000 1.778000e+000
      vertex   1.031346e-001 1.902206e+000 1.778000e+000
    endloop
  endfacet
  facet normal 0.000000e+000 -1.000000e+000 0.000000e+000
    outer loop
      vertex   -1.031346e-001 1.902206e+000 0.000000e+000
      vertex   1.031346e-001 1.902206e+000 1.778000e+000
      vertex   -1.031346e-001 1.902206e+000 1.778000e+000
    endloop
  endfacet
  facet normal 1.081190e-001 -9.941380e-001 0.000000e+000
    outer loop
      vertex   -3.081947e-001 1.879905e+000 0.000000e+000
      vertex   -1.031346e-001 1.902206e+000 1.778000e+000
      vertex   -3.081947e-001 1.879905e+000 1.778000e+000
    endloop
  endfacet
  facet normal 2.149704e-001 -9.766206e-001 1.419009e-017
    outer loop
      vertex   -5.096415e-001 1.835563e+000 0.000000e+000
      vertex   -3.081947e-001 1.879905e+000 1.778000e+000
      vertex   -5.096415e-001 1.835563e+000 1.778000e+000
    endloop
  endfacet
  facet normal 3.193015e-001 -9.476532e-001 0.000000e+000
    outer loop
      vertex   -7.051132e-001 1.769701e+000 0.000000e+000
      vertex   -5.096415e-001 1.835563e+000 1.778000e+000
      vertex   -7.051132e-001 1.769701e+000 1.778000e+000
    endloop
  endfacet
  facet normal 4.198891e-001 -9.075754e-001 3.784025e-017
    outer loop
      vertex   -8.923181e-001 1.683090e+000 0.000000e+000
      vertex   -7.051132e-001 1.769701e+000 1.778000e+000
      vertex   -8.923181e-001 1.683090e+000 1.778000e+000
    endloop
  endfacet
  facet normal 5.155539e-001 -8.568572e-001 0.000000e+000
    outer loop
      vertex   -1.069061e+000 1.576748e+000 0.000000e+000
      vertex   -8.923181e-001 1.683090e+000 1.778000e+000
      vertex   -1.069061e+000 1.576748e+000 1.778000e+000
    endloop
  endfacet
  facet normal 6.051742e-001 -7.960931e-001 -2.838019e-017
    outer loop
      vertex   -1.233271e+000 1.451919e+000 0.000000e+000
      vertex   -1.069061e+000 1.576748e+000 1.778000e+000
      vertex   -1.233271e+000 1.451919e+000 1.778000e+000
    endloop
  endfacet
  facet normal 6.876995e-001 -7.259955e-001 0.000000e+000
    outer loop
      vertex   -1.383021e+000 1.310067e+000 0.000000e+000
      vertex   -1.233271e+000 1.451919e+000 1.778000e+000
      vertex   -1.383021e+000 1.310067e+000 1.778000e+000
    endloop
  endfacet
  facet normal 7.621621e-001 -6.473863e-001 9.460063e-018
    outer loop
      vertex   -1.516557e+000 1.152857e+000 0.000000e+000
      vertex   -1.383021e+000 1.310067e+000 1.778000e+000
      vertex   -1.516557e+000 1.152857e+000 1.778000e+000
    endloop
  endfacet
  facet normal 8.276890e-001 -5.611871e-001 0.000000e+000
    outer loop
      vertex   -1.632313e+000 9.821301e-001 0.000000e+000
      vertex   -1.516557e+000 1.152857e+000 1.778000e+000
      vertex   -1.632313e+000 9.821301e-001 1.778000e+000
    endloop
  endfacet
  facet normal 8.835120e-001 -4.684084e-001 0.000000e+000
    outer loop
      vertex   -1.728931e+000 7.998887e-001 0.000000e+000
      vertex   -1.632313e+000 9.821301e-001 1.778000e+000
      vertex   -1.728931e+000 7.998887e-001 1.778000e+000
    endloop
  endfacet
  facet normal 9.289767e-001 -3.701382e-001 4.257028e-017
    outer loop
      vertex   -1.805279e+000 6.082694e-001 0.000000e+000
      vertex   -1.728931e+000 7.998887e-001 1.778000e+000
      vertex   -1.805279e+000 6.082694e-001 1.778000e+000
    endloop
  endfacet
  facet normal 9.635500e-001 -2.675283e-001 0.000000e+000
    outer loop
      vertex   -1.860462e+000 4.095187e-001 0.000000e+000
      vertex   -1.805279e+000 6.082694e-001 1.778000e+000
      vertex   -1.860462e+000 4.095187e-001 1.778000e+000
    endloop
  endfacet
  facet normal 9.868265e-001 -1.617820e-001 7.331549e-017
    outer loop
      vertex   -1.893833e+000 2.059667e-001 0.000000e+000
      vertex   -1.860462e+000 4.095187e-001 1.778000e+000
      vertex   -1.893833e+000 2.059667e-001 1.778000e+000
    endloop
  endfacet
  facet normal 9.985334e-001 -5.413891e-002 0.000000e+000
    outer loop
      vertex   -1.905000e+000 -2.332952e-016 0.000000e+000
      vertex   -1.893833e+000 2.059667e-001 1.778000e+000
      vertex   -1.905000e+000 -2.332952e-016 1.778000e+000
    endloop
  endfacet
  facet normal 9.985334e-001 5.413891e-002 -0.000000e+000
    outer loop
      vertex   -1.893833e+000 -2.059667e-001 0.000000e+000
      vertex   -1.905000e+000 -2.332952e-016 0.000000e+000
      vertex   -1.905000e+000 -2.332952e-016 1.778000e+000
    endloop
  endfacet
  facet normal 9.289767e-001 3.701382e-001 -4.577101e-017
    outer loop
      vertex   -1.805279e+000 -6.082694e-001 0.000000e+000
      vertex   -1.805279e+000 -6.082694e-001 1.778000e+000
      vertex   -1.728931e+000 -7.998887e-001 0.000000e+000
    endloop
  endfacet
  facet normal 8.835120e-001 4.684084e-001 -0.000000e+000
    outer loop
      vertex   -1.728931e+000 -7.998887e-001 0.000000e+000
      vertex   -1.728931e+000 -7.998887e-001 1.778000e+000
      vertex   -1.632313e+000 -9.821301e-001 0.000000e+000
    endloop
  endfacet
  facet normal 8.276890e-001 5.611871e-001 -0.000000e+000
    outer loop
      vertex   -1.632313e+000 -9.821301e-001 0.000000e+000
      vertex   -1.632313e+000 -9.821301e-001 1.778000e+000
      vertex   -1.516557e+000 -1.152857e+000 0.000000e+000
    endloop
  endfacet
  facet normal 7.621621e-001 6.473863e-001 -9.179938e-018
    outer loop
      vertex   -1.516557e+000 -1.152857e+000 0.000000e+000
      vertex   -1.516557e+000 -1.152857e+000 1.778000e+000
      vertex   -1.383021e+000 -1.310067e+000 0.000000e+000
    endloop
  endfacet
  facet normal 6.876995e-001 7.259955e-001 -0.000000e+000
    outer loop
      vertex   -1.383021e+000 -1.310067e+000 0.000000e+000
      vertex   -1.383021e+000 -1.310067e+000 1.778000e+000
      vertex   -1.233271e+000 -1.451919e+000 0.000000e+000
    endloop
  endfacet
  facet normal 6.051742e-001 7.960931e-001 2.789126e-017
    outer loop
      vertex   -1.233271e+000 -1.451919e+000 0.000000e+000
      vertex   -1.233271e+000 -1.451919e+000 1.778000e+000
      vertex   -1.069061e+000 -1.576748e+000 0.000000e+000
    endloop
  endfacet
  facet normal 5.155539e-001 8.568572e-001 -0.000000e+000
    outer loop
      vertex   -1.069061e+000 -1.576748e+000 0.000000e+000
      vertex   -1.069061e+000 -1.576748e+000 1.778000e+000
      vertex   -8.923181e-001 -1.683090e+000 0.000000e+000
    endloop
  endfacet
  facet normal 4.198891e-001 9.075754e-001 -4.315246e-017
    outer loop
      vertex   -8.923181e-001 -1.683090e+000 0.000000e+000
      vertex   -8.923181e-001 -1.683090e+000 1.778000e+000
      vertex   -7.051132e-001 -1.769701e+000 0.000000e+000
    endloop
  endfacet
  facet normal 3.193015e-001 9.476532e-001 -0.000000e+000
    outer loop
      vertex   -7.051132e-001 -1.769701e+000 0.000000e+000
      vertex   -7.051132e-001 -1.769701e+000 1.778000e+000
      vertex   -5.096415e-001 -1.835563e+000 0.000000e+000
    endloop
  endfacet
  facet normal 2.149704e-001 9.766206e-001 -1.457886e-017
    outer loop
      vertex   -5.096415e-001 -1.835563e+000 0.000000e+000
      vertex   -5.096415e-001 -1.835563e+000 1.778000e+000
      vertex   -3.081947e-001 -1.879905e+000 0.000000e+000
    endloop
  endfacet
  facet normal 1.081190e-001 9.941380e-001 -0.000000e+000
    outer loop
      vertex   -3.081947e-001 -1.879905e+000 0.000000e+000
      vertex   -3.081947e-001 -1.879905e+000 1.778000e+000
      vertex   -1.031346e-001 -1.902206e+000 0.000000e+000
    endloop
  endfacet
  facet normal -0.000000e+000 1.000000e+000 -0.000000e+000
    outer loop
      vertex   -1.031346e-001 -1.902206e+000 0.000000e+000
      vertex   -1.031346e-001 -1.902206e+000 1.778000e+000
      vertex   1.031346e-001 -1.902206e+000 0.000000e+000
    endloop
  endfacet
  facet normal -1.081190e-001 9.941380e-001 2.616088e-017
    outer loop
      vertex   1.031346e-001 -1.902206e+000 0.000000e+000
      vertex   1.031346e-001 -1.902206e+000 1.778000e+000
      vertex   3.081947e-001 -1.879905e+000 0.000000e+000
    endloop
  endfacet
  facet normal -2.149704e-001 9.766206e-001 -4.698133e-017
    outer loop
      vertex   3.081947e-001 -1.879905e+000 0.000000e+000
      vertex   3.081947e-001 -1.879905e+000 1.778000e+000
      vertex   5.096415e-001 -1.835563e+000 0.000000e+000
    endloop
  endfacet
  facet normal -3.193015e-001 9.476532e-001 -8.103185e-017
    outer loop
      vertex   5.096415e-001 -1.835563e+000 0.000000e+000
      vertex   5.096415e-001 -1.835563e+000 1.778000e+000
      vertex   7.051132e-001 -1.769701e+000 0.000000e+000
    endloop
  endfacet
  facet normal -4.198891e-001 9.075754e-001 8.466820e-018
    outer loop
      vertex   7.051132e-001 -1.769701e+000 0.000000e+000
      vertex   7.051132e-001 -1.769701e+000 1.778000e+000
      vertex   8.923181e-001 -1.683090e+000 0.000000e+000
    endloop
  endfacet
  facet normal -5.155539e-001 8.568572e-001 -1.133004e-017
    outer loop
      vertex   8.923181e-001 -1.683090e+000 0.000000e+000
      vertex   8.923181e-001 -1.683090e+000 1.778000e+000
      vertex   1.069061e+000 -1.576748e+000 0.000000e+000
    endloop
  endfacet
  facet normal -6.051742e-001 7.960931e-001 0.000000e+000
    outer loop
      vertex   1.069061e+000 -1.576748e+000 0.000000e+000
      vertex   1.069061e+000 -1.576748e+000 1.778000e+000
      vertex   1.233271e+000 -1.451919e+000 0.000000e+000
    endloop
  endfacet
  facet normal -6.876995e-001 7.259955e-001 1.434774e-017
    outer loop
      vertex   1.233271e+000 -1.451919e+000 0.000000e+000
      vertex   1.233271e+000 -1.451919e+000 1.778000e+000
      vertex   1.383021e+000 -1.310067e+000 0.000000e+000
    endloop
  endfacet
  facet normal -7.621621e-001 6.473863e-001 -4.300114e-017
    outer loop
      vertex   1.383021e+000 -1.310067e+000 0.000000e+000
      vertex   1.383021e+000 -1.310067e+000 1.778000e+000
      vertex   1.516557e+000 -1.152857e+000 0.000000e+000
    endloop
  endfacet
  facet normal -8.276890e-001 5.611871e-001 3.519644e-018
    outer loop
      vertex   1.516557e+000 -1.152857e+000 0.000000e+000
      vertex   1.516557e+000 -1.152857e+000 1.778000e+000
      vertex   1.632313e+000 -9.821301e-001 0.000000e+000
    endloop
  endfacet
  facet normal -8.835120e-001 4.684084e-001 1.236508e-016
    outer loop
      vertex   1.632313e+000 -9.821301e-001 0.000000e+000
      vertex   1.632313e+000 -9.821301e-001 1.778000e+000
      vertex   1.728931e+000 -7.998887e-001 0.000000e+000
    endloop
  endfacet
  facet normal -9.289767e-001 3.701382e-001 -9.335602e-017
    outer loop
      vertex   1.728931e+000 -7.998887e-001 0.000000e+000
      vertex   1.728931e+000 -7.998887e-001 1.778000e+000
      vertex   1.805279e+000 -6.082694e-001 0.000000e+000
    endloop
  endfacet
  facet normal -9.635500e-001 2.675283e-001 1.330811e-017
    outer loop
      vertex   1.805279e+000 -6.082694e-001 0.000000e+000
      vertex   1.805279e+000 -6.082694e-001 1.778000e+000
      vertex   1.860462e+000 -4.095187e-001 0.000000e+000
    endloop
  endfacet
  facet normal -9.868265e-001 1.617820e-001 0.000000e+000
    outer loop
      vertex   1.860462e+000 -4.095187e-001 0.000000e+000
      vertex   1.860462e+000 -4.095187e-001 1.778000e+000
      vertex   1.893833e+000 -2.059667e-001 0.000000e+000
    endloop
  endfacet
  facet normal -9.985334e-001 5.413891e-002 0.000000e+000
    outer loop
      vertex   1.893833e+000 -2.059667e-001 0.000000e+000
      vertex   1.893833e+000 -2.059667e-001 1.778000e+000
      vertex   1.905000e+000 0.000000e+000 0.000000e+000
    endloop
  endfacet
  facet normal -9.985334e-001 -5.413891e-002 0.000000e+000
    outer loop
      vertex   1.905000e+000 0.000000e+000 0.000000e+000
      vertex   1.905000e+000 0.000000e+000 1.778000e+000
      vertex   1.893833e+000 2.059667e-001 0.000000e+000
    endloop
  endfacet
  facet normal -9.868265e-001 -1.617820e-001 0.000000e+000
    outer loop
      vertex   1.893833e+000 2.059667e-001 0.000000e+000
      vertex   1.893833e+000 2.059667e-001 1.778000e+000
      vertex   1.860462e+000 4.095187e-001 0.000000e+000
    endloop
  endfacet
  facet normal -9.635500e-001 -2.675283e-001 0.000000e+000
    outer loop
      vertex   1.860462e+000 4.095187e-001 0.000000e+000
      vertex   1.860462e+000 4.095187e-001 1.778000e+000
      vertex   1.805279e+000 6.082694e-001 0.000000e+000
    endloop
  endfacet
  facet normal -9.289767e-001 -3.701382e-001 -6.888327e-017
    outer loop
      vertex   1.805279e+000 6.082694e-001 0.000000e+000
      vertex   1.805279e+000 6.082694e-001 1.778000e+000
      vertex   1.728931e+000 7.998887e-001 0.000000e+000
    endloop
  endfacet
  facet normal -8.835120e-001 -4.684084e-001 4.518305e-017
    outer loop
      vertex   1.728931e+000 7.998887e-001 0.000000e+000
      vertex   1.728931e+000 7.998887e-001 1.778000e+000
      vertex   1.632313e+000 9.821301e-001 0.000000e+000
    endloop
  endfacet
  facet normal -8.276890e-001 -5.611871e-001 -1.769687e-016
    outer loop
      vertex   1.632313e+000 9.821301e-001 0.000000e+000
      vertex   1.632313e+000 9.821301e-001 1.778000e+000
      vertex   1.516557e+000 1.152857e+000 0.000000e+000
    endloop
  endfacet
  facet normal -7.621621e-001 -6.473863e-001 -5.218107e-017
    outer loop
      vertex   1.516557e+000 1.152857e+000 0.000000e+000
      vertex   1.516557e+000 1.152857e+000 1.778000e+000
      vertex   1.383021e+000 1.310067e+000 0.000000e+000
    endloop
  endfacet
  facet normal -6.876995e-001 -7.259955e-001 -1.434774e-017
    outer loop
      vertex   1.383021e+000 1.310067e+000 0.000000e+000
      vertex   1.383021e+000 1.310067e+000 1.778000e+000
      vertex   1.233271e+000 1.451919e+000 0.000000e+000
    endloop
  endfacet
  facet normal -6.051742e-001 -7.960931e-001 -7.152840e-017
    outer loop
      vertex   1.233271e+000 1.451919e+000 0.000000e+000
      vertex   1.233271e+000 1.451919e+000 1.778000e+000
      vertex   1.069061e+000 1.576748e+000 0.000000e+000
    endloop
  endfacet
  facet normal -5.155539e-001 -8.568572e-001 0.000000e+000
    outer loop
      vertex   1.069061e+000 1.576748e+000 0.000000e+000
      vertex   1.069061e+000 1.576748e+000 1.778000e+000
      vertex   8.923181e-001 1.683090e+000 0.000000e+000
    endloop
  endfacet
  facet normal -4.198891e-001 -9.075754e-001 -4.315246e-017
    outer loop
      vertex   8.923181e-001 1.683090e+000 0.000000e+000
      vertex   8.923181e-001 1.683090e+000 1.778000e+000
      vertex   7.051132e-001 1.769701e+000 0.000000e+000
    endloop
  endfacet
  facet normal -3.193015e-001 -9.476532e-001 -3.859556e-017
    outer loop
      vertex   7.051132e-001 1.769701e+000 0.000000e+000
      vertex   7.051132e-001 1.769701e+000 1.778000e+000
      vertex   5.096415e-001 1.835563e+000 0.000000e+000
    endloop
  endfacet
  facet normal -2.149704e-001 -9.766206e-001 1.226761e-017
    outer loop
      vertex   5.096415e-001 1.835563e+000 0.000000e+000
      vertex   5.096415e-001 1.835563e+000 1.778000e+000
      vertex   3.081947e-001 1.879905e+000 0.000000e+000
    endloop
  endfacet
  facet normal -1.081190e-001 -9.941380e-001 2.362918e-017
    outer loop
      vertex   3.081947e-001 1.879905e+000 0.000000e+000
      vertex   3.081947e-001 1.879905e+000 1.778000e+000
      vertex   1.031346e-001 1.902206e+000 0.000000e+000
    endloop
  endfacet
  facet normal -0.000000e+000 -1.000000e+000 0.000000e+000
    outer loop
      vertex   1.031346e-001 1.902206e+000 0.000000e+000
      vertex   1.031346e-001 1.902206e+000 1.778000e+000
      vertex   -1.031346e-001 1.902206e+000 0.000000e+000
    endloop
  endfacet
  facet normal 1.081190e-001 -9.941380e-001 -2.616088e-017
    outer loop
      vertex   -1.031346e-001 1.902206e+000 0.000000e+000
      vertex   -1.031346e-001 1.902206e+000 1.778000e+000
      vertex   -3.081947e-001 1.879905e+000 0.000000e+000
    endloop
  endfacet
  facet normal 2.149704e-001 -9.766206e-001 0.000000e+000
    outer loop
      vertex   -3.081947e-001 1.879905e+000 0.000000e+000
      vertex   -3.081947e-001 1.879905e+000 1.778000e+000
      vertex   -5.096415e-001 1.835563e+000 0.000000e+000
    endloop
  endfacet
  facet normal 3.193015e-001 -9.476532e-001 -4.115605e-017
    outer loop
      vertex   -5.096415e-001 1.835563e+000 0.000000e+000
      vertex   -5.096415e-001 1.835563e+000 1.778000e+000
      vertex   -7.051132e-001 1.769701e+000 0.000000e+000
    endloop
  endfacet
  facet normal 4.198891e-001 -9.075754e-001 0.000000e+000
    outer loop
      vertex   -7.051132e-001 1.769701e+000 0.000000e+000
      vertex   -7.051132e-001 1.769701e+000 1.778000e+000
      vertex   -8.923181e-001 1.683090e+000 0.000000e+000
    endloop
  endfacet
  facet normal 5.155539e-001 -8.568572e-001 -1.133004e-017
    outer loop
      vertex   -8.923181e-001 1.683090e+000 0.000000e+000
      vertex   -8.923181e-001 1.683090e+000 1.778000e+000
      vertex   -1.069061e+000 1.576748e+000 0.000000e+000
    endloop
  endfacet
  facet normal 6.051742e-001 -7.960931e-001 0.000000e+000
    outer loop
      vertex   -1.069061e+000 1.576748e+000 0.000000e+000
      vertex   -1.069061e+000 1.576748e+000 1.778000e+000
      vertex   -1.233271e+000 1.451919e+000 0.000000e+000
    endloop
  endfacet
  facet normal 6.876995e-001 -7.259955e-001 -7.631783e-017
    outer loop
      vertex   -1.233271e+000 1.451919e+000 0.000000e+000
      vertex   -1.233271e+000 1.451919e+000 1.778000e+000
      vertex   -1.383021e+000 1.310067e+000 0.000000e+000
    endloop
  endfacet
  facet normal 7.621621e-001 -6.473863e-001 0.000000e+000
    outer loop
      vertex   -1.383021e+000 1.310067e+000 0.000000e+000
      vertex   -1.383021e+000 1.310067e+000 1.778000e+000
      vertex   -1.516557e+000 1.152857e+000 0.000000e+000
    endloop
  endfacet
  facet normal 8.276890e-001 -5.611871e-001 -9.632622e-017
    outer loop
      vertex   -1.516557e+000 1.152857e+000 0.000000e+000
      vertex   -1.516557e+000 1.152857e+000 1.778000e+000
      vertex   -1.632313e+000 9.821301e-001 0.000000e+000
    endloop
  endfacet
  facet normal 8.835120e-001 -4.684084e-001 0.000000e+000
    outer loop
      vertex   -1.632313e+000 9.821301e-001 0.000000e+000
      vertex   -1.632313e+000 9.821301e-001 1.778000e+000
      vertex   -1.728931e+000 7.998887e-001 0.000000e+000
    endloop
  endfacet
  facet normal 9.289767e-001 -3.701382e-001 0.000000e+000
    outer loop
      vertex   -1.728931e+000 7.998887e-001 0.000000e+000
      vertex   -1.728931e+000 7.998887e-001 1.778000e+000
      vertex   -1.805279e+000 6.082694e-001 0.000000e+000
    endloop
  endfacet
  facet normal 9.635500e-001 -2.675283e-001 -3.396959e-018
    outer loop
      vertex   -1.805279e+000 6.082694e-001 0.000000e+000
      vertex   -1.805279e+000 6.082694e-001 1.778000e+000
      vertex   -1.860462e+000 4.095187e-001 0.000000e+000
    endloop
  endfacet
  facet normal 9.868265e-001 -1.617820e-001 0.000000e+000
    outer loop
      vertex   -1.860462e+000 4.095187e-001 0.000000e+000
      vertex   -1.860462e+000 4.095187e-001 1.778000e+000
      vertex   -1.893833e+000 2.059667e-001 0.000000e+000
    endloop
  endfacet
  facet normal 9.985334e-001 -5.413891e-002 2.450902e-017
    outer loop
      vertex   -1.893833e+000 2.059667e-001 0.000000e+000
      vertex   -1.893833e+000 2.059667e-001 1.778000e+000
      vertex   -1.905000e+000 -2.332952e-016 0.000000e+000
    endloop
  endfacet
  facet normal 0.000000e+000 0.000000e+000 1.000000e+000
    outer loop
      vertex   -1.893833e+000 2.059667e-001 1.778000e+000
      vertex   -2.647532e+000 1.510258e+000 1.778000e+000
      vertex   -1.905000e+000 -2.332952e-016 1.778000e+000
    endloop
  endfacet
  facet normal 0.000000e+000 -0.000000e+000 1.000000e+000
    outer loop
      vertex   -1.893833e+000 2.059667e-001 1.778000e+000
      vertex   -1.860462e+000 4.095187e-001 1.778000e+000
      vertex   -2.647532e+000 1.510258e+000 1.778000e+000
    endloop
  endfacet
  facet normal -0.000000e+000 0.000000e+000 1.000000e+000
    outer loop
      vertex   -2.647532e+000 1.510258e+000 1.778000e+000
      vertex   -1.860462e+000 4.095187e-001 1.778000e+000
      vertex   -1.805279e+000 6.082694e-001 1.778000e+000
    endloop
  endfacet
  facet normal 0.000000e+000 0.000000e+000 1.000000e+000
    outer loop
      vertex   -1.728931e+000 7.998887e-001 1.778000e+000
      vertex   -2.647532e+000 1.510258e+000 1.778000e+000
      vertex   -1.805279e+000 6.082694e-001 1.778000e+000
    endloop
  endfacet
  facet normal 0.000000e+000 -0.000000e+000 1.000000e+000
    outer loop
      vertex   -1.728931e+000 7.998887e-001 1.778000e+000
      vertex   -1.632313e+000 9.821301e-001 1.778000e+000
      vertex   -2.647532e+000 1.510258e+000 1.778000e+000
    endloop
  endfacet
  facet normal -0.000000e+000 0.000000e+000 1.000000e+000
    outer loop
      vertex   -2.647532e+000 1.510258e+000 1.778000e+000
      vertex   -1.632313e+000 9.821301e-001 1.778000e+000
      vertex   -1.516557e+000 1.152857e+000 1.778000e+000
    endloop
  endfacet
  facet normal 0.000000e+000 0.000000e+000 1.000000e+000
    outer loop
      vertex   -1.383021e+000 1.310067e+000 1.778000e+000
      vertex   -2.647532e+000 1.510258e+000 1.778000e+000
      vertex   -1.516557e+000 1.152857e+000 1.778000e+000
    endloop
  endfacet
  facet normal 0.000000e+000 -0.000000e+000 1.000000e+000
    outer loop
      vertex   -1.383021e+000 1.310067e+000 1.778000e+000
      vertex   -1.233271e+000 1.451919e+000 1.778000e+000
      vertex   -2.647532e+000 1.510258e+000 1.778000e+000
    endloop
  endfacet
  facet normal -0.000000e+000 0.000000e+000 1.000000e+000
    outer loop
      vertex   -2.647532e+000 1.510258e+000 1.778000e+000
      vertex   -1.233271e+000 1.451919e+000 1.778000e+000
      vertex   -1.069061e+000 1.576748e+000 1.778000e+000
    endloop
  endfacet
  facet normal -0.000000e+000 0.000000e+000 1.000000e+000
    outer loop
      vertex   -1.584443e-002 3.047959e+000 1.778000e+000
      vertex   -1.069061e+000 1.576748e+000 1.778000e+000
      vertex   -8.923181e-001 1.683090e+000 1.778000e+000
    endloop
  endfacet
  facet normal 0.000000e+000 -0.000000e+000 1.000000e+000
    outer loop
      vertex   -7.051132e-001 1.769701e+000 1.778000e+000
      vertex   -1.584443e-002 3.047959e+000 1.778000e+000
      vertex   -8.923181e-001 1.683090e+000 1.778000e+000
    endloop
  endfacet
  facet normal 0.000000e+000 0.000000e+000 1.000000e+000
    outer loop
      vertex   -7.051132e-001 1.769701e+000 1.778000e+000
      vertex   -5.096415e-001 1.835563e+000 1.778000e+000
      vertex   -1.584443e-002 3.047959e+000 1.778000e+000
    endloop
  endfacet
  facet normal -0.000000e+000 0.000000e+000 1.000000e+000
    outer loop
      vertex   -1.584443e-002 3.047959e+000 1.778000e+000
      vertex   -5.096415e-001 1.835563e+000 1.778000e+000
      vertex   -3.081947e-001 1.879905e+000 1.778000e+000
    endloop
  endfacet
  facet normal 0.000000e+000 -0.000000e+000 1.000000e+000
    outer loop
      vertex   -1.031346e-001 1.902206e+000 1.778000e+000
      vertex   -1.584443e-002 3.047959e+000 1.778000e+000
      vertex   -3.081947e-001 1.879905e+000 1.778000e+000
    endloop
  endfacet
  facet normal 0.000000e+000 -0.000000e+000 1.000000e+000
    outer loop
      vertex   -1.031346e-001 1.902206e+000 1.778000e+000
      vertex   1.031346e-001 1.902206e+000 1.778000e+000
      vertex   -1.584443e-002 3.047959e+000 1.778000e+000
    endloop
  endfacet
  facet normal 0.000000e+000 0.000000e+000 1.000000e+000
    outer loop
      vertex   -1.584443e-002 3.047959e+000 1.778000e+000
      vertex   1.031346e-001 1.902206e+000 1.778000e+000
      vertex   3.081947e-001 1.879905e+000 1.778000e+000
    endloop
  endfacet
  facet normal 0.000000e+000 0.000000e+000 1.000000e+000
    outer loop
      vertex   5.096415e-001 1.835563e+000 1.778000e+000
      vertex   -1.584443e-002 3.047959e+000 1.778000e+000
      vertex   3.081947e-001 1.879905e+000 1.778000e+000
    endloop
  endfacet
  facet normal -0.000000e+000 -0.000000e+000 1.000000e+000
    outer loop
      vertex   5.096415e-001 1.835563e+000 1.778000e+000
      vertex   7.051132e-001 1.769701e+000 1.778000e+000
      vertex   -1.584443e-002 3.047959e+000 1.778000e+000
    endloop
  endfacet
  facet normal 0.000000e+000 0.000000e+000 1.000000e+000
    outer loop
      vertex   -1.584443e-002 3.047959e+000 1.778000e+000
      vertex   7.051132e-001 1.769701e+000 1.778000e+000
      vertex   8.923181e-001 1.683090e+000 1.778000e+000
    endloop
  endfacet
  facet normal 0.000000e+000 0.000000e+000 1.000000e+000
    outer loop
      vertex   2.631688e+000 1.537701e+000 1.778000e+000
      vertex   8.923181e-001 1.683090e+000 1.778000e+000
      vertex   1.069061e+000 1.576748e+000 1.778000e+000
    endloop
  endfacet
  facet normal 0.000000e+000 -0.000000e+000 1.000000e+000
    outer loop
      vertex   1.233271e+000 1.451919e+000 1.778000e+000
      vertex   2.631688e+000 1.537701e+000 1.778000e+000
      vertex   1.069061e+000 1.576748e+000 1.778000e+000
    endloop
  endfacet
  facet normal -0.000000e+000 0.000000e+000 1.000000e+000
    outer loop
      vertex   1.233271e+000 1.451919e+000 1.778000e+000
      vertex   1.383021e+000 1.310067e+000 1.778000e+000
      vertex   2.631688e+000 1.537701e+000 1.778000e+000
    endloop
  endfacet
  facet normal 0.000000e+000 0.000000e+000 1.000000e+000
    outer loop
      vertex   2.631688e+000 1.537701e+000 1.778000e+000
      vertex   1.383021e+000 1.310067e+000 1.778000e+000
      vertex   1.516557e+000 1.152857e+000 1.778000e+000
    endloop
  endfacet
  facet normal 0.000000e+000 -0.000000e+000 1.000000e+000
    outer loop
      vertex   1.632313e+000 9.821301e-001 1.778000e+000
      vertex   2.631688e+000 1.537701e+000 1.778000e+000
      vertex   1.516557e+000 1.152857e+000 1.778000e+000
    endloop
  endfacet
  facet normal -0.000000e+000 0.000000e+000 1.000000e+000
    outer loop
      vertex   1.632313e+000 9.821301e-001 1.778000e+000
      vertex   1.728931e+000 7.998887e-001 1.778000e+000
      vertex   2.631688e+000 1.537701e+000 1.778000e+000
    endloop
  endfacet
  facet normal 0.000000e+000 0.000000e+000 1.000000e+000
    outer loop
      vertex   2.631688e+000 1.537701e+000 1.778000e+000
      vertex   1.728931e+000 7.998887e-001 1.778000e+000
      vertex   1.805279e+000 6.082694e-001 1.778000e+000
    endloop
  endfacet
  facet normal 0.000000e+000 -0.000000e+000 1.000000e+000
    outer loop
      vertex   1.860462e+000 4.095187e-001 1.778000e+000
      vertex   2.631688e+000 1.537701e+000 1.778000e+000
      vertex   1.805279e+000 6.082694e-001 1.778000e+000
    endloop
  endfacet
  facet normal -0.000000e+000 0.000000e+000 1.000000e+000
    outer loop
      vertex   1.860462e+000 4.095187e-001 1.778000e+000
      vertex   1.893833e+000 2.059667e-001 1.778000e+000
      vertex   2.631688e+000 1.537701e+000 1.778000e+000
    endloop
  endfacet
  facet normal 0.000000e+000 0.000000e+000 1.000000e+000
    outer loop
      vertex   2.631688e+000 1.537701e+000 1.778000e+000
      vertex   1.893833e+000 2.059667e-001 1.778000e+000
      vertex   1.905000e+000 0.000000e+000 1.778000e+000
    endloop
  endfacet
  facet normal 0.000000e+000 0.000000e+000 1.000000e+000
    outer loop
      vertex   2.647532e+000 -1.510258e+000 1.778000e+000
      vertex   1.905000e+000 0.000000e+000 1.778000e+000
      vertex   1.893833e+000 -2.059667e-001 1.778000e+000
    endloop
  endfacet
  facet normal -0.000000e+000 -0.000000e+000 1.000000e+000
    outer loop
      vertex   1.860462e+000 -4.095187e-001 1.778000e+000
      vertex   2.647532e+000 -1.510258e+000 1.778000e+000
      vertex   1.893833e+000 -2.059667e-001 1.778000e+000
    endloop
  endfacet
  facet normal 0.000000e+000 0.000000e+000 1.000000e+000
    outer loop
      vertex   1.860462e+000 -4.095187e-001 1.778000e+000
      vertex   1.805279e+000 -6.082694e-001 1.778000e+000
      vertex   2.647532e+000 -1.510258e+000 1.778000e+000
    endloop
  endfacet
  facet normal 0.000000e+000 0.000000e+000 1.000000e+000
    outer loop
      vertex   2.647532e+000 -1.510258e+000 1.778000e+000
      vertex   1.805279e+000 -6.082694e-001 1.778000e+000
      vertex   1.728931e+000 -7.998887e-001 1.778000e+000
    endloop
  endfacet
  facet normal -0.000000e+000 -0.000000e+000 1.000000e+000
    outer loop
      vertex   1.632313e+000 -9.821301e-001 1.778000e+000
      vertex   2.647532e+000 -1.510258e+000 1.778000e+000
      vertex   1.728931e+000 -7.998887e-001 1.778000e+000
    endloop
  endfacet
  facet normal 0.000000e+000 0.000000e+000 1.000000e+000
    outer loop
      vertex   1.632313e+000 -9.821301e-001 1.778000e+000
      vertex   1.516557e+000 -1.152857e+000 1.778000e+000
      vertex   2.647532e+000 -1.510258e+000 1.778000e+000
    endloop
  endfacet
  facet normal 0.000000e+000 0.000000e+000 1.000000e+000
    outer loop
      vertex   2.647532e+000 -1.510258e+000 1.778000e+000
      vertex   1.516557e+000 -1.152857e+000 1.778000e+000
      vertex   1.383021e+000 -1.310067e+000 1.778000e+000
    endloop
  endfacet
  facet normal -0.000000e+000 -0.000000e+000 1.000000e+000
    outer loop
      vertex   1.233271e+000 -1.451919e+000 1.778000e+000
      vertex   2.647532e+000 -1.510258e+000 1.778000e+000
      vertex   1.383021e+000 -1.310067e+000 1.778000e+000
    endloop
  endfacet
  facet normal -0.000000e+000 0.000000e+000 1.000000e+000
    outer loop
      vertex   1.233271e+000 -1.451919e+000 1.778000e+000
      vertex   1.069061e+000 -1.576748e+000 1.778000e+000
      vertex   2.647532e+000 -1.510258e+000 1.778000e+000
    endloop
  endfacet
  facet normal 0.000000e+000 0.000000e+000 1.000000e+000
    outer loop
      vertex   2.647532e+000 -1.510258e+000 1.778000e+000
      vertex   1.069061e+000 -1.576748e+000 1.778000e+000
      vertex   1.584443e-002 -3.047959e+000 1.778000e+000
    endloop
  endfacet
  facet normal 0.000000e+000 -0.000000e+000 1.000000e+000
    outer loop
      vertex   1.584443e-002 -3.047959e+000 1.778000e+000
      vertex   1.069061e+000 -1.576748e+000 1.778000e+000
      vertex   8.923181e-001 -1.683090e+000 1.778000e+000
    endloop
  endfacet
  facet normal -0.000000e+000 0.000000e+000 1.000000e+000
    outer loop
      vertex   7.051132e-001 -1.769701e+000 1.778000e+000
      vertex   1.584443e-002 -3.047959e+000 1.778000e+000
      vertex   8.923181e-001 -1.683090e+000 1.778000e+000
    endloop
  endfacet
  facet normal 0.000000e+000 0.000000e+000 1.000000e+000
    outer loop
      vertex   7.051132e-001 -1.769701e+000 1.778000e+000
      vertex   5.096415e-001 -1.835563e+000 1.778000e+000
      vertex   1.584443e-002 -3.047959e+000 1.778000e+000
    endloop
  endfacet
  facet normal 0.000000e+000 -0.000000e+000 1.000000e+000
    outer loop
      vertex   1.584443e-002 -3.047959e+000 1.778000e+000
      vertex   5.096415e-001 -1.835563e+000 1.778000e+000
      vertex   3.081947e-001 -1.879905e+000 1.778000e+000
    endloop
  endfacet
  facet normal -0.000000e+000 0.000000e+000 1.000000e+000
    outer loop
      vertex   1.031346e-001 -1.902206e+000 1.778000e+000
      vertex   1.584443e-002 -3.047959e+000 1.778000e+000
      vertex   3.081947e-001 -1.879905e+000 1.778000e+000
    endloop
  endfacet
  facet normal 0.000000e+000 0.000000e+000 1.000000e+000
    outer loop
      vertex   1.031346e-001 -1.902206e+000 1.778000e+000
      vertex   -1.031346e-001 -1.902206e+000 1.778000e+000
      vertex   1.584443e-002 -3.047959e+000 1.778000e+000
    endloop
  endfacet
  facet normal 0.000000e+000 0.000000e+000 1.000000e+000
    outer loop
      vertex   1.584443e-002 -3.047959e+000 1.778000e+000
      vertex   -1.031346e-001 -1.902206e+000 1.778000e+000
      vertex   -3.081947e-001 -1.879905e+000 1.778000e+000
    endloop
  endfacet
  facet normal -0.000000e+000 -0.000000e+000 1.000000e+000
    outer loop
      vertex   -5.096415e-001 -1.835563e+000 1.778000e+000
      vertex   1.584443e-002 -3.047959e+000 1.778000e+000
      vertex   -3.081947e-001 -1.879905e+000 1.778000e+000
    endloop
  endfacet
  facet normal 0.000000e+000 0.000000e+000 1.000000e+000
    outer loop
      vertex   -5.096415e-001 -1.835563e+000 1.778000e+000
      vertex   -7.051132e-001 -1.769701e+000 1.778000e+000
      vertex   1.584443e-002 -3.047959e+000 1.778000e+000
    endloop
  endfacet
  facet normal 0.000000e+000 0.000000e+000 1.000000e+000
    outer loop
      vertex   1.584443e-002 -3.047959e+000 1.778000e+000
      vertex   -7.051132e-001 -1.769701e+000 1.778000e+000
      vertex   -8.923181e-001 -1.683090e+000 1.778000e+000
    endloop
  endfacet
  facet normal -0.000000e+000 -0.000000e+000 1.000000e+000
    outer loop
      vertex   -2.631688e+000 -1.537701e+000 1.778000e+000
      vertex   -8.923181e-001 -1.683090e+000 1.778000e+000
      vertex   -1.069061e+000 -1.576748e+000 1.778000e+000
    endloop
  endfacet
  facet normal 0.000000e+000 0.000000e+000 1.000000e+000
    outer loop
      vertex   -1.233271e+000 -1.451919e+000 1.778000e+000
      vertex   -2.631688e+000 -1.537701e+000 1.778000e+000
      vertex   -1.069061e+000 -1.576748e+000 1.778000e+000
    endloop
  endfacet
  facet normal 0.000000e+000 0.000000e+000 1.000000e+000
    outer loop
      vertex   -1.233271e+000 -1.451919e+000 1.778000e+000
      vertex   -1.383021e+000 -1.310067e+000 1.778000e+000
      vertex   -2.631688e+000 -1.537701e+000 1.778000e+000
    endloop
  endfacet
  facet normal 0.000000e+000 -0.000000e+000 1.000000e+000
    outer loop
      vertex   -2.631688e+000 -1.537701e+000 1.778000e+000
      vertex   -1.383021e+000 -1.310067e+000 1.778000e+000
      vertex   -1.516557e+000 -1.152857e+000 1.778000e+000
    endloop
  endfacet
  facet normal -0.000000e+000 0.000000e+000 1.000000e+000
    outer loop
      vertex   -1.632313e+000 -9.821301e-001 1.778000e+000
      vertex   -2.631688e+000 -1.537701e+000 1.778000e+000
      vertex   -1.516557e+000 -1.152857e+000 1.778000e+000
    endloop
  endfacet
  facet normal 0.000000e+000 0.000000e+000 1.000000e+000
    outer loop
      vertex   -1.632313e+000 -9.821301e-001 1.778000e+000
      vertex   -1.728931e+000 -7.998887e-001 1.778000e+000
      vertex   -2.631688e+000 -1.537701e+000 1.778000e+000
    endloop
  endfacet
  facet normal 0.000000e+000 -0.000000e+000 1.000000e+000
    outer loop
      vertex   -2.631688e+000 -1.537701e+000 1.778000e+000
      vertex   -1.728931e+000 -7.998887e-001 1.778000e+000
      vertex   -1.805279e+000 -6.082694e-001 1.778000e+000
    endloop
  endfacet
  facet normal -0.000000e+000 0.000000e+000 1.000000e+000
    outer loop
      vertex   -1.860462e+000 -4.095187e-001 1.778000e+000
      vertex   -2.631688e+000 -1.537701e+000 1.778000e+000
      vertex   -1.805279e+000 -6.082694e-001 1.778000e+000
    endloop
  endfacet
  facet normal 0.000000e+000 0.000000e+000 1.000000e+000
    outer loop
      vertex   -1.860462e+000 -4.095187e-001 1.778000e+000
      vertex   -1.893833e+000 -2.059667e-001 1.778000e+000
      vertex   -2.631688e+000 -1.537701e+000 1.778000e+000
    endloop
  endfacet
  facet normal 0.000000e+000 -0.000000e+000 1.000000e+000
    outer loop
      vertex   -2.631688e+000 -1.537701e+000 1.778000e+000
      vertex   -1.893833e+000 -2.059667e-001 1.778000e+000
      vertex   -1.905000e+000 -2.332952e-016 1.778000e+000
    endloop
  endfacet
  facet normal -0.000000e+000 0.000000e+000 1.000000e+000
    outer loop
      vertex   -2.647532e+000 1.510258e+000 1.778000e+000
      vertex   -2.631688e+000 -1.537701e+000 1.778000e+000
      vertex   -1.905000e+000 -2.332952e-016 1.778000e+000
    endloop
  endfacet
  facet normal 0.000000e+000 0.000000e+000 1.000000e+000
    outer loop
      vertex   -2.647532e+000 1.510258e+000 1.778000e+000
      vertex   -1.069061e+000 1.576748e+000 1.778000e+000
      vertex   -1.584443e-002 3.047959e+000 1.778000e+000
    endloop
  endfacet
  facet normal 0.000000e+000 0.000000e+000 1.000000e+000
    outer loop
      vertex   -1.584443e-002 3.047959e+000 1.778000e+000
      vertex   8.923181e-001 1.683090e+000 1.778000e+000
      vertex   2.631688e+000 1.537701e+000 1.778000e+000
    endloop
  endfacet
  facet normal 0.000000e+000 0.000000e+000 1.000000e+000
    outer loop
      vertex   2.631688e+000 1.537701e+000 1.778000e+000
      vertex   1.905000e+000 0.000000e+000 1.778000e+000
      vertex   2.647532e+000 -1.510258e+000 1.778000e+000
    endloop
  endfacet
  facet normal 0.000000e+000 0.000000e+000 1.000000e+000
    outer loop
      vertex   1.584443e-002 -3.047959e+000 1.778000e+000
      vertex   -8.923181e-001 -1.683090e+000 1.778000e+000
      vertex   -2.631688e+000 -1.537701e+000 1.778000e+000
    endloop
  endfacet
  facet normal 4.954914e-001 8.686129e-001 0.000000e+000
    outer loop
      vertex   1.584443e-002 -3.047959e+000 1.778000e+000
      vertex   -2.631688e+000 -1.537701e+000 1.778000e+000
      vertex   1.584443e-002 -3.047959e+000 2.540000e+000
    endloop
  endfacet
  facet normal 4.954914e-001 8.686129e-001 -0.000000e+000
    outer loop
      vertex   1.584443e-002 -3.047959e+000 2.540000e+000
      vertex   -2.631688e+000 -1.537701e+000 1.778000e+000
      vertex   -2.631688e+000 -1.537701e+000 2.540000e+000
    endloop
  endfacet
  facet normal 9.999865e-001 5.198303e-003 0.000000e+000
    outer loop
      vertex   -2.631688e+000 -1.537701e+000 1.778000e+000
      vertex   -2.647532e+000 1.510258e+000 1.778000e+000
      vertex   -2.631688e+000 -1.537701e+000 2.540000e+000
    endloop
  endfacet
  facet normal 9.999865e-001 5.198303e-003 -1.162543e-015
    outer loop
      vertex   -2.631688e+000 -1.537701e+000 2.540000e+000
      vertex   -2.647532e+000 1.510258e+000 1.778000e+000
      vertex   -2.647532e+000 1.510258e+000 2.540000e+000
    endloop
  endfacet
  facet normal 5.044951e-001 -8.634146e-001 -1.147233e-015
    outer loop
      vertex   -2.647532e+000 1.510258e+000 1.778000e+000
      vertex   -1.584443e-002 3.047959e+000 1.778000e+000
      vertex   -2.647532e+000 1.510258e+000 2.540000e+000
    endloop
  endfacet
  facet normal 5.044951e-001 -8.634146e-001 1.837605e-016
    outer loop
      vertex   -2.647532e+000 1.510258e+000 2.540000e+000
      vertex   -1.584443e-002 3.047959e+000 1.778000e+000
      vertex   -1.584443e-002 3.047959e+000 2.540000e+000
    endloop
  endfacet
  facet normal -4.954914e-001 -8.686129e-001 -1.912055e-016
    outer loop
      vertex   -1.584443e-002 3.047959e+000 1.778000e+000
      vertex   2.631688e+000 1.537701e+000 1.778000e+000
      vertex   -1.584443e-002 3.047959e+000 2.540000e+000
    endloop
  endfacet
  facet normal -4.954914e-001 -8.686129e-001 0.000000e+000
    outer loop
      vertex   -1.584443e-002 3.047959e+000 2.540000e+000
      vertex   2.631688e+000 1.537701e+000 1.778000e+000
      vertex   2.631688e+000 1.537701e+000 2.540000e+000
    endloop
  endfacet
  facet normal -5.044951e-001 8.634146e-001 0.000000e+000
    outer loop
      vertex   2.647532e+000 -1.510258e+000 1.778000e+000
      vertex   1.584443e-002 -3.047959e+000 1.778000e+000
      vertex   2.647532e+000 -1.510258e+000 2.540000e+000
    endloop
  endfacet
  facet normal -5.044951e-001 8.634146e-001 0.000000e+000
    outer loop
      vertex   2.647532e+000 -1.510258e+000 2.540000e+000
      vertex   1.584443e-002 -3.047959e+000 1.778000e+000
      vertex   1.584443e-002 -3.047959e+000 2.540000e+000
    endloop
  endfacet
  facet normal -9.999865e-001 -5.198303e-003 0.000000e+000
    outer loop
      vertex   2.631688e+000 1.537701e+000 1.778000e+000
      vertex   2.647532e+000 -1.510258e+000 1.778000e+000
      vertex   2.631688e+000 1.537701e+000 2.540000e+000
    endloop
  endfacet
  facet normal -9.999865e-001 -5.198303e-003 0.000000e+000
    outer loop
      vertex   2.631688e+000 1.537701e+000 2.540000e+000
      vertex   2.647532e+000 -1.510258e+000 1.778000e+000
      vertex   2.647532e+000 -1.510258e+000 2.540000e+000
    endloop
  endfacet
  facet normal -0.000000e+000 1.000000e+000 0.000000e+000
    outer loop
      vertex   -2.667000e+000 4.445000e+000 2.540000e+000
      vertex   2.667000e+000 4.445000e+000 2.540000e+000
      vertex   -2.667000e+000 4.445000e+000 0.000000e+000
    endloop
  endfacet
  facet normal -0.000000e+000 1.000000e+000 0.000000e+000
    outer loop
      vertex   -2.667000e+000 4.445000e+000 0.000000e+000
      vertex   2.667000e+000 4.445000e+000 2.540000e+000
      vertex   2.667000e+000 4.445000e+000 0.000000e+000
    endloop
  endfacet
  facet normal -0.000000e+000 -1.000000e+000 -0.000000e+000
    outer loop
      vertex   2.667000e+000 -4.445000e+000 2.540000e+000
      vertex   -2.667000e+000 -4.445000e+000 2.540000e+000
      vertex   2.667000e+000 -4.445000e+000 0.000000e+000
    endloop
  endfacet
  facet normal -0.000000e+000 -1.000000e+000 -0.000000e+000
    outer loop
      vertex   2.667000e+000 -4.445000e+000 0.000000e+000
      vertex   -2.667000e+000 -4.445000e+000 2.540000e+000
      vertex   -2.667000e+000 -4.445000e+000 0.000000e+000
    endloop
  endfacet
  facet normal -0.000000e+000 -0.000000e+000 1.000000e+000
    outer loop
      vertex   -3.175000e+000 3.937000e+000 2.540000e+000
      vertex   -2.647532e+000 1.510258e+000 2.540000e+000
      vertex   -2.667000e+000 4.445000e+000 2.540000e+000
    endloop
  endfacet
  facet normal -0.000000e+000 0.000000e+000 1.000000e+000
    outer loop
      vertex   -3.175000e+000 3.937000e+000 2.540000e+000
      vertex   -3.175000e+000 -3.937000e+000 2.540000e+000
      vertex   -2.647532e+000 1.510258e+000 2.540000e+000
    endloop
  endfacet
  facet normal -0.000000e+000 0.000000e+000 1.000000e+000
    outer loop
      vertex   -2.647532e+000 1.510258e+000 2.540000e+000
      vertex   -3.175000e+000 -3.937000e+000 2.540000e+000
      vertex   -2.631688e+000 -1.537701e+000 2.540000e+000
    endloop
  endfacet
  facet normal 0.000000e+000 0.000000e+000 1.000000e+000
    outer loop
      vertex   -2.631688e+000 -1.537701e+000 2.540000e+000
      vertex   -3.175000e+000 -3.937000e+000 2.540000e+000
      vertex   -2.667000e+000 -4.445000e+000 2.540000e+000
    endloop
  endfacet
  facet normal -0.000000e+000 0.000000e+000 1.000000e+000
    outer loop
      vertex   1.584443e-002 -3.047959e+000 2.540000e+000
      vertex   -2.667000e+000 -4.445000e+000 2.540000e+000
      vertex   2.667000e+000 -4.445000e+000 2.540000e+000
    endloop
  endfacet
  facet normal -0.000000e+000 0.000000e+000 1.000000e+000
    outer loop
      vertex   2.647532e+000 -1.510258e+000 2.540000e+000
      vertex   2.667000e+000 -4.445000e+000 2.540000e+000
      vertex   3.175000e+000 -3.937000e+000 2.540000e+000
    endloop
  endfacet
  facet normal 0.000000e+000 0.000000e+000 1.000000e+000
    outer loop
      vertex   3.175000e+000 3.937000e+000 2.540000e+000
      vertex   2.647532e+000 -1.510258e+000 2.540000e+000
      vertex   3.175000e+000 -3.937000e+000 2.540000e+000
    endloop
  endfacet
  facet normal 0.000000e+000 0.000000e+000 1.000000e+000
    outer loop
      vertex   3.175000e+000 3.937000e+000 2.540000e+000
      vertex   2.631688e+000 1.537701e+000 2.540000e+000
      vertex   2.647532e+000 -1.510258e+000 2.540000e+000
    endloop
  endfacet
  facet normal 0.000000e+000 0.000000e+000 1.000000e+000
    outer loop
      vertex   3.175000e+000 3.937000e+000 2.540000e+000
      vertex   2.667000e+000 4.445000e+000 2.540000e+000
      vertex   2.631688e+000 1.537701e+000 2.540000e+000
    endloop
  endfacet
  facet normal 0.000000e+000 -0.000000e+000 1.000000e+000
    outer loop
      vertex   2.631688e+000 1.537701e+000 2.540000e+000
      vertex   2.667000e+000 4.445000e+000 2.540000e+000
      vertex   -1.584443e-002 3.047959e+000 2.540000e+000
    endloop
  endfacet
  facet normal 0.000000e+000 -0.000000e+000 1.000000e+000
    outer loop
      vertex   -1.584443e-002 3.047959e+000 2.540000e+000
      vertex   2.667000e+000 4.445000e+000 2.540000e+000
      vertex   -2.667000e+000 4.445000e+000 2.540000e+000
    endloop
  endfacet
  facet normal 0.000000e+000 -0.000000e+000 1.000000e+000
    outer loop
      vertex   -2.647532e+000 1.510258e+000 2.540000e+000
      vertex   -1.584443e-002 3.047959e+000 2.540000e+000
      vertex   -2.667000e+000 4.445000e+000 2.540000e+000
    endloop
  endfacet
  facet normal -0.000000e+000 0.000000e+000 1.000000e+000
    outer loop
      vertex   -2.631688e+000 -1.537701e+000 2.540000e+000
      vertex   -2.667000e+000 -4.445000e+000 2.540000e+000
      vertex   1.584443e-002 -3.047959e+000 2.540000e+000
    endloop
  endfacet
  facet normal -0.000000e+000 -0.000000e+000 1.000000e+000
    outer loop
      vertex   1.584443e-002 -3.047959e+000 2.540000e+000
      vertex   2.667000e+000 -4.445000e+000 2.540000e+000
      vertex   2.647532e+000 -1.510258e+000 2.540000e+000
    endloop
  endfacet
endsolid
