solid ascii
  facet normal -1.000000e+000 -1.165588e-016 0.000000e+000
    outer loop
      vertex   -2.667000e+000 3.352800e+001 0.000000e+000
      vertex   -2.667000e+000 2.590800e+001 0.000000e+000
      vertex   -2.667000e+000 3.352800e+001 3.810000e+001
    endloop
  endfacet
  facet normal -1.000000e+000 -1.165588e-016 0.000000e+000
    outer loop
      vertex   -2.667000e+000 3.352800e+001 3.810000e+001
      vertex   -2.667000e+000 2.590800e+001 0.000000e+000
      vertex   -2.667000e+000 2.590800e+001 3.810000e+001
    endloop
  endfacet
  facet normal -1.000000e+000 -1.165588e-016 0.000000e+000
    outer loop
      vertex   -2.667000e+000 3.352800e+001 7.620000e+001
      vertex   -2.667000e+000 2.590800e+001 3.810000e+001
      vertex   -2.667000e+000 2.590800e+001 7.620000e+001
    endloop
  endfacet
  facet normal -1.000000e+000 -1.165588e-016 2.173754e-032
    outer loop
      vertex   -2.667000e+000 3.352800e+001 7.620000e+001
      vertex   -2.667000e+000 3.352800e+001 3.810000e+001
      vertex   -2.667000e+000 2.590800e+001 3.810000e+001
    endloop
  endfacet
  facet normal 0.000000e+000 -1.000000e+000 0.000000e+000
    outer loop
      vertex   -2.908300e+001 3.352800e+001 0.000000e+000
      vertex   -2.667000e+000 3.352800e+001 0.000000e+000
      vertex   -2.908300e+001 3.352800e+001 3.810000e+001
    endloop
  endfacet
  facet normal 0.000000e+000 -1.000000e+000 0.000000e+000
    outer loop
      vertex   -2.908300e+001 3.352800e+001 3.810000e+001
      vertex   -2.667000e+000 3.352800e+001 0.000000e+000
      vertex   -2.667000e+000 3.352800e+001 3.810000e+001
    endloop
  endfacet
  facet normal 0.000000e+000 -1.000000e+000 1.864942e-016
    outer loop
      vertex   -2.908300e+001 3.352800e+001 7.620000e+001
      vertex   -2.667000e+000 3.352800e+001 3.810000e+001
      vertex   -2.667000e+000 3.352800e+001 7.620000e+001
    endloop
  endfacet
  facet normal 0.000000e+000 -1.000000e+000 1.864942e-016
    outer loop
      vertex   -2.908300e+001 3.352800e+001 7.620000e+001
      vertex   -2.908300e+001 3.352800e+001 3.810000e+001
      vertex   -2.667000e+000 3.352800e+001 3.810000e+001
    endloop
  endfacet
  facet normal 1.000000e+000 0.000000e+000 -0.000000e+000
    outer loop
      vertex   -2.908300e+001 2.590800e+001 0.000000e+000
      vertex   -2.908300e+001 3.352800e+001 0.000000e+000
      vertex   -2.908300e+001 2.590800e+001 3.810000e+001
    endloop
  endfacet
  facet normal 1.000000e+000 -0.000000e+000 0.000000e+000
    outer loop
      vertex   -2.908300e+001 2.590800e+001 3.810000e+001
      vertex   -2.908300e+001 3.352800e+001 0.000000e+000
      vertex   -2.908300e+001 3.352800e+001 3.810000e+001
    endloop
  endfacet
  facet normal 1.000000e+000 -0.000000e+000 0.000000e+000
    outer loop
      vertex   -2.908300e+001 2.590800e+001 7.620000e+001
      vertex   -2.908300e+001 3.352800e+001 3.810000e+001
      vertex   -2.908300e+001 3.352800e+001 7.620000e+001
    endloop
  endfacet
  facet normal 1.000000e+000 -0.000000e+000 0.000000e+000
    outer loop
      vertex   -2.908300e+001 2.590800e+001 7.620000e+001
      vertex   -2.908300e+001 2.590800e+001 3.810000e+001
      vertex   -2.908300e+001 3.352800e+001 3.810000e+001
    endloop
  endfacet
  facet normal -0.000000e+000 -1.000000e+000 0.000000e+000
    outer loop
      vertex   -2.908300e+001 2.590800e+001 0.000000e+000
      vertex   -2.908300e+001 2.590800e+001 3.810000e+001
      vertex   -3.035300e+001 2.590800e+001 0.000000e+000
    endloop
  endfacet
  facet normal 0.000000e+000 -1.000000e+000 0.000000e+000
    outer loop
      vertex   -3.035300e+001 2.590800e+001 0.000000e+000
      vertex   -2.908300e+001 2.590800e+001 3.810000e+001
      vertex   -3.035300e+001 2.590800e+001 3.810000e+001
    endloop
  endfacet
  facet normal 0.000000e+000 -1.000000e+000 0.000000e+000
    outer loop
      vertex   -3.035300e+001 2.590800e+001 3.810000e+001
      vertex   -2.908300e+001 2.590800e+001 3.810000e+001
      vertex   -2.908300e+001 2.590800e+001 7.620000e+001
    endloop
  endfacet
  facet normal 0.000000e+000 -1.000000e+000 0.000000e+000
    outer loop
      vertex   -3.035300e+001 2.590800e+001 7.620000e+001
      vertex   -3.035300e+001 2.590800e+001 3.810000e+001
      vertex   -2.908300e+001 2.590800e+001 7.620000e+001
    endloop
  endfacet
  facet normal 1.000000e+000 0.000000e+000 -0.000000e+000
    outer loop
      vertex   -3.035300e+001 1.981200e+001 0.000000e+000
      vertex   -3.035300e+001 2.590800e+001 0.000000e+000
      vertex   -3.035300e+001 1.981200e+001 3.810000e+001
    endloop
  endfacet
  facet normal 1.000000e+000 -0.000000e+000 0.000000e+000
    outer loop
      vertex   -3.035300e+001 1.981200e+001 3.810000e+001
      vertex   -3.035300e+001 2.590800e+001 0.000000e+000
      vertex   -3.035300e+001 2.590800e+001 3.810000e+001
    endloop
  endfacet
  facet normal 1.000000e+000 -0.000000e+000 0.000000e+000
    outer loop
      vertex   -3.035300e+001 1.981200e+001 7.620000e+001
      vertex   -3.035300e+001 2.590800e+001 3.810000e+001
      vertex   -3.035300e+001 2.590800e+001 7.620000e+001
    endloop
  endfacet
  facet normal 1.000000e+000 -0.000000e+000 0.000000e+000
    outer loop
      vertex   -3.035300e+001 1.981200e+001 7.620000e+001
      vertex   -3.035300e+001 1.981200e+001 3.810000e+001
      vertex   -3.035300e+001 2.590800e+001 3.810000e+001
    endloop
  endfacet
  facet normal -2.797412e-015 1.000000e+000 0.000000e+000
    outer loop
      vertex   -3.035300e+001 1.981200e+001 0.000000e+000
      vertex   -3.035300e+001 1.981200e+001 3.810000e+001
      vertex   -2.908300e+001 1.981200e+001 0.000000e+000
    endloop
  endfacet
  facet normal -2.797412e-015 1.000000e+000 0.000000e+000
    outer loop
      vertex   -2.908300e+001 1.981200e+001 0.000000e+000
      vertex   -3.035300e+001 1.981200e+001 3.810000e+001
      vertex   -2.908300e+001 1.981200e+001 3.810000e+001
    endloop
  endfacet
  facet normal -2.797412e-015 1.000000e+000 0.000000e+000
    outer loop
      vertex   -2.908300e+001 1.981200e+001 3.810000e+001
      vertex   -3.035300e+001 1.981200e+001 3.810000e+001
      vertex   -3.035300e+001 1.981200e+001 7.620000e+001
    endloop
  endfacet
  facet normal -2.797412e-015 1.000000e+000 0.000000e+000
    outer loop
      vertex   -2.908300e+001 1.981200e+001 7.620000e+001
      vertex   -2.908300e+001 1.981200e+001 3.810000e+001
      vertex   -3.035300e+001 1.981200e+001 7.620000e+001
    endloop
  endfacet
  facet normal 1.000000e+000 0.000000e+000 -0.000000e+000
    outer loop
      vertex   -2.908300e+001 -1.981200e+001 0.000000e+000
      vertex   -2.908300e+001 1.981200e+001 0.000000e+000
      vertex   -2.908300e+001 -1.981200e+001 3.810000e+001
    endloop
  endfacet
  facet normal 1.000000e+000 -0.000000e+000 0.000000e+000
    outer loop
      vertex   -2.908300e+001 -1.981200e+001 3.810000e+001
      vertex   -2.908300e+001 1.981200e+001 0.000000e+000
      vertex   -2.908300e+001 1.981200e+001 3.810000e+001
    endloop
  endfacet
  facet normal 1.000000e+000 -0.000000e+000 0.000000e+000
    outer loop
      vertex   -2.908300e+001 -1.981200e+001 7.620000e+001
      vertex   -2.908300e+001 1.981200e+001 3.810000e+001
      vertex   -2.908300e+001 1.981200e+001 7.620000e+001
    endloop
  endfacet
  facet normal 1.000000e+000 -0.000000e+000 0.000000e+000
    outer loop
      vertex   -2.908300e+001 -1.981200e+001 7.620000e+001
      vertex   -2.908300e+001 -1.981200e+001 3.810000e+001
      vertex   -2.908300e+001 1.981200e+001 3.810000e+001
    endloop
  endfacet
  facet normal -0.000000e+000 -1.000000e+000 0.000000e+000
    outer loop
      vertex   -2.908300e+001 -1.981200e+001 0.000000e+000
      vertex   -2.908300e+001 -1.981200e+001 3.810000e+001
      vertex   -3.035300e+001 -1.981200e+001 0.000000e+000
    endloop
  endfacet
  facet normal 0.000000e+000 -1.000000e+000 0.000000e+000
    outer loop
      vertex   -3.035300e+001 -1.981200e+001 0.000000e+000
      vertex   -2.908300e+001 -1.981200e+001 3.810000e+001
      vertex   -3.035300e+001 -1.981200e+001 3.810000e+001
    endloop
  endfacet
  facet normal 0.000000e+000 -1.000000e+000 -9.324708e-017
    outer loop
      vertex   -3.035300e+001 -1.981200e+001 3.810000e+001
      vertex   -2.908300e+001 -1.981200e+001 3.810000e+001
      vertex   -2.908300e+001 -1.981200e+001 7.620000e+001
    endloop
  endfacet
  facet normal 0.000000e+000 -1.000000e+000 -9.324708e-017
    outer loop
      vertex   -3.035300e+001 -1.981200e+001 7.620000e+001
      vertex   -3.035300e+001 -1.981200e+001 3.810000e+001
      vertex   -2.908300e+001 -1.981200e+001 7.620000e+001
    endloop
  endfacet
  facet normal 1.000000e+000 0.000000e+000 -0.000000e+000
    outer loop
      vertex   -3.035300e+001 -2.590800e+001 0.000000e+000
      vertex   -3.035300e+001 -1.981200e+001 0.000000e+000
      vertex   -3.035300e+001 -2.590800e+001 3.810000e+001
    endloop
  endfacet
  facet normal 1.000000e+000 -0.000000e+000 0.000000e+000
    outer loop
      vertex   -3.035300e+001 -2.590800e+001 3.810000e+001
      vertex   -3.035300e+001 -1.981200e+001 0.000000e+000
      vertex   -3.035300e+001 -1.981200e+001 3.810000e+001
    endloop
  endfacet
  facet normal 1.000000e+000 -0.000000e+000 -0.000000e+000
    outer loop
      vertex   -3.035300e+001 -2.590800e+001 7.620000e+001
      vertex   -3.035300e+001 -1.981200e+001 3.810000e+001
      vertex   -3.035300e+001 -1.981200e+001 7.620000e+001
    endloop
  endfacet
  facet normal 1.000000e+000 -0.000000e+000 0.000000e+000
    outer loop
      vertex   -3.035300e+001 -2.590800e+001 7.620000e+001
      vertex   -3.035300e+001 -2.590800e+001 3.810000e+001
      vertex   -3.035300e+001 -1.981200e+001 3.810000e+001
    endloop
  endfacet
  facet normal -0.000000e+000 1.000000e+000 0.000000e+000
    outer loop
      vertex   -3.035300e+001 -2.590800e+001 0.000000e+000
      vertex   -3.035300e+001 -2.590800e+001 3.810000e+001
      vertex   -2.908300e+001 -2.590800e+001 0.000000e+000
    endloop
  endfacet
  facet normal 0.000000e+000 1.000000e+000 -0.000000e+000
    outer loop
      vertex   -2.908300e+001 -2.590800e+001 0.000000e+000
      vertex   -3.035300e+001 -2.590800e+001 3.810000e+001
      vertex   -2.908300e+001 -2.590800e+001 3.810000e+001
    endloop
  endfacet
  facet normal 0.000000e+000 1.000000e+000 -0.000000e+000
    outer loop
      vertex   -2.908300e+001 -2.590800e+001 3.810000e+001
      vertex   -3.035300e+001 -2.590800e+001 3.810000e+001
      vertex   -3.035300e+001 -2.590800e+001 7.620000e+001
    endloop
  endfacet
  facet normal 0.000000e+000 1.000000e+000 0.000000e+000
    outer loop
      vertex   -2.908300e+001 -2.590800e+001 7.620000e+001
      vertex   -2.908300e+001 -2.590800e+001 3.810000e+001
      vertex   -3.035300e+001 -2.590800e+001 7.620000e+001
    endloop
  endfacet
  facet normal 1.000000e+000 0.000000e+000 -0.000000e+000
    outer loop
      vertex   -2.908300e+001 -3.352800e+001 0.000000e+000
      vertex   -2.908300e+001 -2.590800e+001 0.000000e+000
      vertex   -2.908300e+001 -3.352800e+001 3.810000e+001
    endloop
  endfacet
  facet normal 1.000000e+000 -0.000000e+000 0.000000e+000
    outer loop
      vertex   -2.908300e+001 -3.352800e+001 3.810000e+001
      vertex   -2.908300e+001 -2.590800e+001 0.000000e+000
      vertex   -2.908300e+001 -2.590800e+001 3.810000e+001
    endloop
  endfacet
  facet normal 1.000000e+000 -0.000000e+000 0.000000e+000
    outer loop
      vertex   -2.908300e+001 -3.352800e+001 7.620000e+001
      vertex   -2.908300e+001 -2.590800e+001 3.810000e+001
      vertex   -2.908300e+001 -2.590800e+001 7.620000e+001
    endloop
  endfacet
  facet normal 1.000000e+000 -0.000000e+000 0.000000e+000
    outer loop
      vertex   -2.908300e+001 -3.352800e+001 7.620000e+001
      vertex   -2.908300e+001 -3.352800e+001 3.810000e+001
      vertex   -2.908300e+001 -2.590800e+001 3.810000e+001
    endloop
  endfacet
  facet normal 0.000000e+000 1.000000e+000 -0.000000e+000
    outer loop
      vertex   -2.667000e+000 -3.352800e+001 0.000000e+000
      vertex   -2.908300e+001 -3.352800e+001 0.000000e+000
      vertex   -2.667000e+000 -3.352800e+001 3.810000e+001
    endloop
  endfacet
  facet normal 0.000000e+000 1.000000e+000 -0.000000e+000
    outer loop
      vertex   -2.667000e+000 -3.352800e+001 3.810000e+001
      vertex   -2.908300e+001 -3.352800e+001 0.000000e+000
      vertex   -2.908300e+001 -3.352800e+001 3.810000e+001
    endloop
  endfacet
  facet normal 0.000000e+000 1.000000e+000 -1.864942e-016
    outer loop
      vertex   -2.667000e+000 -3.352800e+001 7.620000e+001
      vertex   -2.908300e+001 -3.352800e+001 3.810000e+001
      vertex   -2.908300e+001 -3.352800e+001 7.620000e+001
    endloop
  endfacet
  facet normal 0.000000e+000 1.000000e+000 -1.864942e-016
    outer loop
      vertex   -2.667000e+000 -3.352800e+001 7.620000e+001
      vertex   -2.667000e+000 -3.352800e+001 3.810000e+001
      vertex   -2.908300e+001 -3.352800e+001 3.810000e+001
    endloop
  endfacet
  facet normal -1.000000e+000 0.000000e+000 0.000000e+000
    outer loop
      vertex   -2.667000e+000 -2.590800e+001 0.000000e+000
      vertex   -2.667000e+000 -3.352800e+001 0.000000e+000
      vertex   -2.667000e+000 -2.590800e+001 3.810000e+001
    endloop
  endfacet
  facet normal -1.000000e+000 -0.000000e+000 0.000000e+000
    outer loop
      vertex   -2.667000e+000 -2.590800e+001 3.810000e+001
      vertex   -2.667000e+000 -3.352800e+001 0.000000e+000
      vertex   -2.667000e+000 -3.352800e+001 3.810000e+001
    endloop
  endfacet
  facet normal -1.000000e+000 -0.000000e+000 0.000000e+000
    outer loop
      vertex   -2.667000e+000 -2.590800e+001 7.620000e+001
      vertex   -2.667000e+000 -3.352800e+001 3.810000e+001
      vertex   -2.667000e+000 -3.352800e+001 7.620000e+001
    endloop
  endfacet
  facet normal -1.000000e+000 -0.000000e+000 -0.000000e+000
    outer loop
      vertex   -2.667000e+000 -2.590800e+001 7.620000e+001
      vertex   -2.667000e+000 -2.590800e+001 3.810000e+001
      vertex   -2.667000e+000 -3.352800e+001 3.810000e+001
    endloop
  endfacet
  facet normal -0.000000e+000 1.000000e+000 0.000000e+000
    outer loop
      vertex   -2.667000e+000 -2.590800e+001 0.000000e+000
      vertex   -2.667000e+000 -2.590800e+001 3.810000e+001
      vertex   -1.397000e+000 -2.590800e+001 0.000000e+000
    endloop
  endfacet
  facet normal 0.000000e+000 1.000000e+000 -0.000000e+000
    outer loop
      vertex   -1.397000e+000 -2.590800e+001 0.000000e+000
      vertex   -2.667000e+000 -2.590800e+001 3.810000e+001
      vertex   -1.397000e+000 -2.590800e+001 3.810000e+001
    endloop
  endfacet
  facet normal 0.000000e+000 1.000000e+000 -0.000000e+000
    outer loop
      vertex   -1.397000e+000 -2.590800e+001 3.810000e+001
      vertex   -2.667000e+000 -2.590800e+001 3.810000e+001
      vertex   -2.667000e+000 -2.590800e+001 7.620000e+001
    endloop
  endfacet
  facet normal 0.000000e+000 1.000000e+000 0.000000e+000
    outer loop
      vertex   -1.397000e+000 -2.590800e+001 7.620000e+001
      vertex   -1.397000e+000 -2.590800e+001 3.810000e+001
      vertex   -2.667000e+000 -2.590800e+001 7.620000e+001
    endloop
  endfacet
  facet normal -1.000000e+000 0.000000e+000 0.000000e+000
    outer loop
      vertex   -1.397000e+000 -1.981200e+001 0.000000e+000
      vertex   -1.397000e+000 -2.590800e+001 0.000000e+000
      vertex   -1.397000e+000 -1.981200e+001 3.810000e+001
    endloop
  endfacet
  facet normal -1.000000e+000 -0.000000e+000 0.000000e+000
    outer loop
      vertex   -1.397000e+000 -1.981200e+001 3.810000e+001
      vertex   -1.397000e+000 -2.590800e+001 0.000000e+000
      vertex   -1.397000e+000 -2.590800e+001 3.810000e+001
    endloop
  endfacet
  facet normal -1.000000e+000 -0.000000e+000 0.000000e+000
    outer loop
      vertex   -1.397000e+000 -1.981200e+001 7.620000e+001
      vertex   -1.397000e+000 -2.590800e+001 3.810000e+001
      vertex   -1.397000e+000 -2.590800e+001 7.620000e+001
    endloop
  endfacet
  facet normal -1.000000e+000 -0.000000e+000 -0.000000e+000
    outer loop
      vertex   -1.397000e+000 -1.981200e+001 7.620000e+001
      vertex   -1.397000e+000 -1.981200e+001 3.810000e+001
      vertex   -1.397000e+000 -2.590800e+001 3.810000e+001
    endloop
  endfacet
  facet normal -0.000000e+000 -1.000000e+000 0.000000e+000
    outer loop
      vertex   -1.397000e+000 -1.981200e+001 0.000000e+000
      vertex   -1.397000e+000 -1.981200e+001 3.810000e+001
      vertex   -2.667000e+000 -1.981200e+001 0.000000e+000
    endloop
  endfacet
  facet normal 0.000000e+000 -1.000000e+000 0.000000e+000
    outer loop
      vertex   -2.667000e+000 -1.981200e+001 0.000000e+000
      vertex   -1.397000e+000 -1.981200e+001 3.810000e+001
      vertex   -2.667000e+000 -1.981200e+001 3.810000e+001
    endloop
  endfacet
  facet normal 0.000000e+000 -1.000000e+000 0.000000e+000
    outer loop
      vertex   -2.667000e+000 -1.981200e+001 3.810000e+001
      vertex   -1.397000e+000 -1.981200e+001 3.810000e+001
      vertex   -1.397000e+000 -1.981200e+001 7.620000e+001
    endloop
  endfacet
  facet normal 0.000000e+000 -1.000000e+000 0.000000e+000
    outer loop
      vertex   -2.667000e+000 -1.981200e+001 7.620000e+001
      vertex   -2.667000e+000 -1.981200e+001 3.810000e+001
      vertex   -1.397000e+000 -1.981200e+001 7.620000e+001
    endloop
  endfacet
  facet normal -1.000000e+000 -2.988688e-017 0.000000e+000
    outer loop
      vertex   -2.667000e+000 -4.953000e+000 0.000000e+000
      vertex   -2.667000e+000 -1.981200e+001 0.000000e+000
      vertex   -2.667000e+000 -4.953000e+000 3.810000e+001
    endloop
  endfacet
  facet normal -1.000000e+000 -2.988688e-017 0.000000e+000
    outer loop
      vertex   -2.667000e+000 -4.953000e+000 3.810000e+001
      vertex   -2.667000e+000 -1.981200e+001 0.000000e+000
      vertex   -2.667000e+000 -1.981200e+001 3.810000e+001
    endloop
  endfacet
  facet normal -1.000000e+000 -2.988688e-017 0.000000e+000
    outer loop
      vertex   -2.667000e+000 -4.953000e+000 7.620000e+001
      vertex   -2.667000e+000 -1.981200e+001 3.810000e+001
      vertex   -2.667000e+000 -1.981200e+001 7.620000e+001
    endloop
  endfacet
  facet normal -1.000000e+000 -2.988688e-017 -0.000000e+000
    outer loop
      vertex   -2.667000e+000 -4.953000e+000 7.620000e+001
      vertex   -2.667000e+000 -4.953000e+000 3.810000e+001
      vertex   -2.667000e+000 -1.981200e+001 3.810000e+001
    endloop
  endfacet
  facet normal -1.398706e-016 1.000000e+000 0.000000e+000
    outer loop
      vertex   3.683000e+000 -4.953000e+000 0.000000e+000
      vertex   -2.667000e+000 -4.953000e+000 0.000000e+000
      vertex   3.683000e+000 -4.953000e+000 3.810000e+001
    endloop
  endfacet
  facet normal -1.398706e-016 1.000000e+000 0.000000e+000
    outer loop
      vertex   3.683000e+000 -4.953000e+000 3.810000e+001
      vertex   -2.667000e+000 -4.953000e+000 0.000000e+000
      vertex   -2.667000e+000 -4.953000e+000 3.810000e+001
    endloop
  endfacet
  facet normal 0.000000e+000 1.000000e+000 -0.000000e+000
    outer loop
      vertex   3.683000e+000 -4.953000e+000 7.620000e+001
      vertex   -2.667000e+000 -4.953000e+000 3.810000e+001
      vertex   -2.667000e+000 -4.953000e+000 7.620000e+001
    endloop
  endfacet
  facet normal -1.398706e-016 1.000000e+000 2.331177e-017
    outer loop
      vertex   3.683000e+000 -4.953000e+000 7.620000e+001
      vertex   3.683000e+000 -4.953000e+000 3.810000e+001
      vertex   -2.667000e+000 -4.953000e+000 3.810000e+001
    endloop
  endfacet
  facet normal -1.000000e+000 0.000000e+000 0.000000e+000
    outer loop
      vertex   3.683000e+000 4.953000e+000 0.000000e+000
      vertex   3.683000e+000 -4.953000e+000 0.000000e+000
      vertex   3.683000e+000 4.953000e+000 3.810000e+001
    endloop
  endfacet
  facet normal -1.000000e+000 -0.000000e+000 0.000000e+000
    outer loop
      vertex   3.683000e+000 4.953000e+000 3.810000e+001
      vertex   3.683000e+000 -4.953000e+000 0.000000e+000
      vertex   3.683000e+000 -4.953000e+000 3.810000e+001
    endloop
  endfacet
  facet normal -1.000000e+000 -0.000000e+000 0.000000e+000
    outer loop
      vertex   3.683000e+000 4.953000e+000 7.620000e+001
      vertex   3.683000e+000 -4.953000e+000 3.810000e+001
      vertex   3.683000e+000 -4.953000e+000 7.620000e+001
    endloop
  endfacet
  facet normal -1.000000e+000 -0.000000e+000 -0.000000e+000
    outer loop
      vertex   3.683000e+000 4.953000e+000 7.620000e+001
      vertex   3.683000e+000 4.953000e+000 3.810000e+001
      vertex   3.683000e+000 -4.953000e+000 3.810000e+001
    endloop
  endfacet
  facet normal 0.000000e+000 -1.000000e+000 0.000000e+000
    outer loop
      vertex   -2.667000e+000 4.953000e+000 0.000000e+000
      vertex   3.683000e+000 4.953000e+000 0.000000e+000
      vertex   -2.667000e+000 4.953000e+000 3.810000e+001
    endloop
  endfacet
  facet normal 0.000000e+000 -1.000000e+000 0.000000e+000
    outer loop
      vertex   -2.667000e+000 4.953000e+000 3.810000e+001
      vertex   3.683000e+000 4.953000e+000 0.000000e+000
      vertex   3.683000e+000 4.953000e+000 3.810000e+001
    endloop
  endfacet
  facet normal 0.000000e+000 -1.000000e+000 0.000000e+000
    outer loop
      vertex   -2.667000e+000 4.953000e+000 7.620000e+001
      vertex   3.683000e+000 4.953000e+000 3.810000e+001
      vertex   3.683000e+000 4.953000e+000 7.620000e+001
    endloop
  endfacet
  facet normal 0.000000e+000 -1.000000e+000 0.000000e+000
    outer loop
      vertex   -2.667000e+000 4.953000e+000 7.620000e+001
      vertex   -2.667000e+000 4.953000e+000 3.810000e+001
      vertex   3.683000e+000 4.953000e+000 3.810000e+001
    endloop
  endfacet
  facet normal -1.000000e+000 -2.986417e-017 0.000000e+000
    outer loop
      vertex   -2.667000e+000 1.982330e+001 0.000000e+000
      vertex   -2.667000e+000 4.953000e+000 0.000000e+000
      vertex   -2.667000e+000 1.982330e+001 3.810000e+001
    endloop
  endfacet
  facet normal -1.000000e+000 -2.986417e-017 0.000000e+000
    outer loop
      vertex   -2.667000e+000 1.982330e+001 3.810000e+001
      vertex   -2.667000e+000 4.953000e+000 0.000000e+000
      vertex   -2.667000e+000 4.953000e+000 3.810000e+001
    endloop
  endfacet
  facet normal -1.000000e+000 -2.986417e-017 0.000000e+000
    outer loop
      vertex   -2.667000e+000 1.982330e+001 7.620000e+001
      vertex   -2.667000e+000 4.953000e+000 3.810000e+001
      vertex   -2.667000e+000 4.953000e+000 7.620000e+001
    endloop
  endfacet
  facet normal -1.000000e+000 -2.986417e-017 -0.000000e+000
    outer loop
      vertex   -2.667000e+000 1.982330e+001 7.620000e+001
      vertex   -2.667000e+000 1.982330e+001 3.810000e+001
      vertex   -2.667000e+000 4.953000e+000 3.810000e+001
    endloop
  endfacet
  facet normal -0.000000e+000 1.000000e+000 0.000000e+000
    outer loop
      vertex   -2.667000e+000 1.982330e+001 0.000000e+000
      vertex   -2.667000e+000 1.982330e+001 3.810000e+001
      vertex   -1.397000e+000 1.982330e+001 0.000000e+000
    endloop
  endfacet
  facet normal 0.000000e+000 1.000000e+000 -0.000000e+000
    outer loop
      vertex   -1.397000e+000 1.982330e+001 0.000000e+000
      vertex   -2.667000e+000 1.982330e+001 3.810000e+001
      vertex   -1.397000e+000 1.982330e+001 3.810000e+001
    endloop
  endfacet
  facet normal 0.000000e+000 1.000000e+000 -0.000000e+000
    outer loop
      vertex   -1.397000e+000 1.982330e+001 3.810000e+001
      vertex   -2.667000e+000 1.982330e+001 3.810000e+001
      vertex   -2.667000e+000 1.982330e+001 7.620000e+001
    endloop
  endfacet
  facet normal 0.000000e+000 1.000000e+000 0.000000e+000
    outer loop
      vertex   -1.397000e+000 1.982330e+001 7.620000e+001
      vertex   -1.397000e+000 1.982330e+001 3.810000e+001
      vertex   -2.667000e+000 1.982330e+001 7.620000e+001
    endloop
  endfacet
  facet normal -1.000000e+000 0.000000e+000 0.000000e+000
    outer loop
      vertex   -1.397000e+000 2.590800e+001 0.000000e+000
      vertex   -1.397000e+000 1.982330e+001 0.000000e+000
      vertex   -1.397000e+000 2.590800e+001 3.810000e+001
    endloop
  endfacet
  facet normal -1.000000e+000 -0.000000e+000 0.000000e+000
    outer loop
      vertex   -1.397000e+000 2.590800e+001 3.810000e+001
      vertex   -1.397000e+000 1.982330e+001 0.000000e+000
      vertex   -1.397000e+000 1.982330e+001 3.810000e+001
    endloop
  endfacet
  facet normal -1.000000e+000 -0.000000e+000 0.000000e+000
    outer loop
      vertex   -1.397000e+000 2.590800e+001 7.620000e+001
      vertex   -1.397000e+000 1.982330e+001 3.810000e+001
      vertex   -1.397000e+000 1.982330e+001 7.620000e+001
    endloop
  endfacet
  facet normal -1.000000e+000 -0.000000e+000 -0.000000e+000
    outer loop
      vertex   -1.397000e+000 2.590800e+001 7.620000e+001
      vertex   -1.397000e+000 2.590800e+001 3.810000e+001
      vertex   -1.397000e+000 1.982330e+001 3.810000e+001
    endloop
  endfacet
  facet normal -0.000000e+000 -1.000000e+000 0.000000e+000
    outer loop
      vertex   -1.397000e+000 2.590800e+001 0.000000e+000
      vertex   -1.397000e+000 2.590800e+001 3.810000e+001
      vertex   -2.667000e+000 2.590800e+001 0.000000e+000
    endloop
  endfacet
  facet normal 0.000000e+000 -1.000000e+000 0.000000e+000
    outer loop
      vertex   -2.667000e+000 2.590800e+001 0.000000e+000
      vertex   -1.397000e+000 2.590800e+001 3.810000e+001
      vertex   -2.667000e+000 2.590800e+001 3.810000e+001
    endloop
  endfacet
  facet normal 0.000000e+000 -1.000000e+000 0.000000e+000
    outer loop
      vertex   -2.667000e+000 2.590800e+001 3.810000e+001
      vertex   -1.397000e+000 2.590800e+001 3.810000e+001
      vertex   -1.397000e+000 2.590800e+001 7.620000e+001
    endloop
  endfacet
  facet normal 0.000000e+000 -1.000000e+000 0.000000e+000
    outer loop
      vertex   -2.667000e+000 2.590800e+001 7.620000e+001
      vertex   -2.667000e+000 2.590800e+001 3.810000e+001
      vertex   -1.397000e+000 2.590800e+001 7.620000e+001
    endloop
  endfacet
  facet normal 0.000000e+000 1.000000e+000 -0.000000e+000
    outer loop
      vertex   5.715000e+000 6.985000e+000 0.000000e+000
      vertex   -6.350000e-001 6.985000e+000 0.000000e+000
      vertex   5.715000e+000 6.985000e+000 3.810000e+001
    endloop
  endfacet
  facet normal 0.000000e+000 1.000000e+000 -0.000000e+000
    outer loop
      vertex   5.715000e+000 6.985000e+000 3.810000e+001
      vertex   -6.350000e-001 6.985000e+000 0.000000e+000
      vertex   -6.350000e-001 6.985000e+000 3.810000e+001
    endloop
  endfacet
  facet normal 0.000000e+000 1.000000e+000 -0.000000e+000
    outer loop
      vertex   5.715000e+000 6.985000e+000 7.620000e+001
      vertex   -6.350000e-001 6.985000e+000 3.810000e+001
      vertex   -6.350000e-001 6.985000e+000 7.620000e+001
    endloop
  endfacet
  facet normal 0.000000e+000 1.000000e+000 0.000000e+000
    outer loop
      vertex   5.715000e+000 6.985000e+000 7.620000e+001
      vertex   5.715000e+000 6.985000e+000 3.810000e+001
      vertex   -6.350000e-001 6.985000e+000 3.810000e+001
    endloop
  endfacet
  facet normal 1.000000e+000 0.000000e+000 -0.000000e+000
    outer loop
      vertex   5.715000e+000 -6.985000e+000 0.000000e+000
      vertex   5.715000e+000 6.985000e+000 0.000000e+000
      vertex   5.715000e+000 -6.985000e+000 3.810000e+001
    endloop
  endfacet
  facet normal 1.000000e+000 -0.000000e+000 0.000000e+000
    outer loop
      vertex   5.715000e+000 -6.985000e+000 3.810000e+001
      vertex   5.715000e+000 6.985000e+000 0.000000e+000
      vertex   5.715000e+000 6.985000e+000 3.810000e+001
    endloop
  endfacet
  facet normal 1.000000e+000 -0.000000e+000 0.000000e+000
    outer loop
      vertex   5.715000e+000 -6.985000e+000 7.620000e+001
      vertex   5.715000e+000 6.985000e+000 3.810000e+001
      vertex   5.715000e+000 6.985000e+000 7.620000e+001
    endloop
  endfacet
  facet normal 1.000000e+000 -0.000000e+000 0.000000e+000
    outer loop
      vertex   5.715000e+000 -6.985000e+000 7.620000e+001
      vertex   5.715000e+000 -6.985000e+000 3.810000e+001
      vertex   5.715000e+000 6.985000e+000 3.810000e+001
    endloop
  endfacet
  facet normal 0.000000e+000 -1.000000e+000 0.000000e+000
    outer loop
      vertex   -6.350000e-001 -6.985000e+000 0.000000e+000
      vertex   5.715000e+000 -6.985000e+000 0.000000e+000
      vertex   -6.350000e-001 -6.985000e+000 3.810000e+001
    endloop
  endfacet
  facet normal 0.000000e+000 -1.000000e+000 0.000000e+000
    outer loop
      vertex   -6.350000e-001 -6.985000e+000 3.810000e+001
      vertex   5.715000e+000 -6.985000e+000 0.000000e+000
      vertex   5.715000e+000 -6.985000e+000 3.810000e+001
    endloop
  endfacet
  facet normal 0.000000e+000 -1.000000e+000 0.000000e+000
    outer loop
      vertex   -6.350000e-001 -6.985000e+000 7.620000e+001
      vertex   5.715000e+000 -6.985000e+000 3.810000e+001
      vertex   5.715000e+000 -6.985000e+000 7.620000e+001
    endloop
  endfacet
  facet normal 0.000000e+000 -1.000000e+000 0.000000e+000
    outer loop
      vertex   -6.350000e-001 -6.985000e+000 7.620000e+001
      vertex   -6.350000e-001 -6.985000e+000 3.810000e+001
      vertex   5.715000e+000 -6.985000e+000 3.810000e+001
    endloop
  endfacet
  facet normal 1.000000e+000 -7.770590e-017 0.000000e+000
    outer loop
      vertex   -6.350000e-001 -3.556000e+001 0.000000e+000
      vertex   -6.350000e-001 -6.985000e+000 0.000000e+000
      vertex   -6.350000e-001 -3.556000e+001 3.810000e+001
    endloop
  endfacet
  facet normal 1.000000e+000 -7.770590e-017 0.000000e+000
    outer loop
      vertex   -6.350000e-001 -3.556000e+001 3.810000e+001
      vertex   -6.350000e-001 -6.985000e+000 0.000000e+000
      vertex   -6.350000e-001 -6.985000e+000 3.810000e+001
    endloop
  endfacet
  facet normal 1.000000e+000 -7.770590e-017 0.000000e+000
    outer loop
      vertex   -6.350000e-001 -3.556000e+001 7.620000e+001
      vertex   -6.350000e-001 -6.985000e+000 3.810000e+001
      vertex   -6.350000e-001 -6.985000e+000 7.620000e+001
    endloop
  endfacet
  facet normal 1.000000e+000 -7.770590e-017 0.000000e+000
    outer loop
      vertex   -6.350000e-001 -3.556000e+001 7.620000e+001
      vertex   -6.350000e-001 -3.556000e+001 3.810000e+001
      vertex   -6.350000e-001 -6.985000e+000 3.810000e+001
    endloop
  endfacet
  facet normal -2.331177e-016 -1.000000e+000 0.000000e+000
    outer loop
      vertex   -3.111500e+001 -3.556000e+001 0.000000e+000
      vertex   -6.350000e-001 -3.556000e+001 0.000000e+000
      vertex   -3.111500e+001 -3.556000e+001 3.810000e+001
    endloop
  endfacet
  facet normal -2.331177e-016 -1.000000e+000 0.000000e+000
    outer loop
      vertex   -3.111500e+001 -3.556000e+001 3.810000e+001
      vertex   -6.350000e-001 -3.556000e+001 0.000000e+000
      vertex   -6.350000e-001 -3.556000e+001 3.810000e+001
    endloop
  endfacet
  facet normal -4.662354e-016 -1.000000e+000 0.000000e+000
    outer loop
      vertex   -3.111500e+001 -3.556000e+001 7.620000e+001
      vertex   -6.350000e-001 -3.556000e+001 3.810000e+001
      vertex   -6.350000e-001 -3.556000e+001 7.620000e+001
    endloop
  endfacet
  facet normal -2.331177e-016 -1.000000e+000 1.864942e-016
    outer loop
      vertex   -3.111500e+001 -3.556000e+001 7.620000e+001
      vertex   -3.111500e+001 -3.556000e+001 3.810000e+001
      vertex   -6.350000e-001 -3.556000e+001 3.810000e+001
    endloop
  endfacet
  facet normal -1.000000e+000 0.000000e+000 0.000000e+000
    outer loop
      vertex   -3.111500e+001 3.556000e+001 0.000000e+000
      vertex   -3.111500e+001 7.105427e-015 0.000000e+000
      vertex   -3.111500e+001 3.556000e+001 3.810000e+001
    endloop
  endfacet
  facet normal -1.000000e+000 -0.000000e+000 0.000000e+000
    outer loop
      vertex   -3.111500e+001 3.556000e+001 3.810000e+001
      vertex   -3.111500e+001 7.105427e-015 0.000000e+000
      vertex   -3.111500e+001 1.421085e-014 3.810000e+001
    endloop
  endfacet
  facet normal -1.000000e+000 -0.000000e+000 0.000000e+000
    outer loop
      vertex   -3.111500e+001 3.556000e+001 7.620000e+001
      vertex   -3.111500e+001 1.421085e-014 3.810000e+001
      vertex   -3.111500e+001 7.105427e-015 7.620000e+001
    endloop
  endfacet
  facet normal -1.000000e+000 -0.000000e+000 0.000000e+000
    outer loop
      vertex   -3.111500e+001 3.556000e+001 7.620000e+001
      vertex   -3.111500e+001 3.556000e+001 3.810000e+001
      vertex   -3.111500e+001 1.421085e-014 3.810000e+001
    endloop
  endfacet
  facet normal -1.000000e+000 0.000000e+000 0.000000e+000
    outer loop
      vertex   -3.111500e+001 7.105427e-015 0.000000e+000
      vertex   -3.111500e+001 -3.556000e+001 0.000000e+000
      vertex   -3.111500e+001 1.421085e-014 3.810000e+001
    endloop
  endfacet
  facet normal -1.000000e+000 -0.000000e+000 0.000000e+000
    outer loop
      vertex   -3.111500e+001 1.421085e-014 3.810000e+001
      vertex   -3.111500e+001 -3.556000e+001 0.000000e+000
      vertex   -3.111500e+001 -3.556000e+001 3.810000e+001
    endloop
  endfacet
  facet normal -1.000000e+000 -0.000000e+000 0.000000e+000
    outer loop
      vertex   -3.111500e+001 7.105427e-015 7.620000e+001
      vertex   -3.111500e+001 -3.556000e+001 3.810000e+001
      vertex   -3.111500e+001 -3.556000e+001 7.620000e+001
    endloop
  endfacet
  facet normal -1.000000e+000 -0.000000e+000 -0.000000e+000
    outer loop
      vertex   -3.111500e+001 7.105427e-015 7.620000e+001
      vertex   -3.111500e+001 1.421085e-014 3.810000e+001
      vertex   -3.111500e+001 -3.556000e+001 3.810000e+001
    endloop
  endfacet
  facet normal -2.331177e-016 1.000000e+000 0.000000e+000
    outer loop
      vertex   -6.350000e-001 3.556000e+001 0.000000e+000
      vertex   -3.111500e+001 3.556000e+001 0.000000e+000
      vertex   -6.350000e-001 3.556000e+001 3.810000e+001
    endloop
  endfacet
  facet normal -2.331177e-016 1.000000e+000 0.000000e+000
    outer loop
      vertex   -6.350000e-001 3.556000e+001 3.810000e+001
      vertex   -3.111500e+001 3.556000e+001 0.000000e+000
      vertex   -3.111500e+001 3.556000e+001 3.810000e+001
    endloop
  endfacet
  facet normal 0.000000e+000 1.000000e+000 -1.864942e-016
    outer loop
      vertex   -6.350000e-001 3.556000e+001 7.620000e+001
      vertex   -3.111500e+001 3.556000e+001 3.810000e+001
      vertex   -3.111500e+001 3.556000e+001 7.620000e+001
    endloop
  endfacet
  facet normal -2.331177e-016 1.000000e+000 0.000000e+000
    outer loop
      vertex   -6.350000e-001 3.556000e+001 7.620000e+001
      vertex   -6.350000e-001 3.556000e+001 3.810000e+001
      vertex   -3.111500e+001 3.556000e+001 3.810000e+001
    endloop
  endfacet
  facet normal 1.000000e+000 3.496765e-017 0.000000e+000
    outer loop
      vertex   -6.350000e-001 6.985000e+000 0.000000e+000
      vertex   -6.350000e-001 3.556000e+001 0.000000e+000
      vertex   -6.350000e-001 6.985000e+000 3.810000e+001
    endloop
  endfacet
  facet normal 1.000000e+000 3.496765e-017 -0.000000e+000
    outer loop
      vertex   -6.350000e-001 6.985000e+000 3.810000e+001
      vertex   -6.350000e-001 3.556000e+001 0.000000e+000
      vertex   -6.350000e-001 3.556000e+001 3.810000e+001
    endloop
  endfacet
  facet normal 1.000000e+000 3.496765e-017 -0.000000e+000
    outer loop
      vertex   -6.350000e-001 6.985000e+000 7.620000e+001
      vertex   -6.350000e-001 3.556000e+001 3.810000e+001
      vertex   -6.350000e-001 3.556000e+001 7.620000e+001
    endloop
  endfacet
  facet normal 1.000000e+000 3.496765e-017 0.000000e+000
    outer loop
      vertex   -6.350000e-001 6.985000e+000 7.620000e+001
      vertex   -6.350000e-001 6.985000e+000 3.810000e+001
      vertex   -6.350000e-001 3.556000e+001 3.810000e+001
    endloop
  endfacet
  facet normal 0.000000e+000 0.000000e+000 1.000000e+000
    outer loop
      vertex   -6.350000e-001 3.556000e+001 7.620000e+001
      vertex   -1.397000e+000 1.982330e+001 7.620000e+001
      vertex   -6.350000e-001 6.985000e+000 7.620000e+001
    endloop
  endfacet
  facet normal 0.000000e+000 0.000000e+000 1.000000e+000
    outer loop
      vertex   -6.350000e-001 3.556000e+001 7.620000e+001
      vertex   -1.397000e+000 2.590800e+001 7.620000e+001
      vertex   -1.397000e+000 1.982330e+001 7.620000e+001
    endloop
  endfacet
  facet normal 0.000000e+000 0.000000e+000 1.000000e+000
    outer loop
      vertex   -6.350000e-001 3.556000e+001 7.620000e+001
      vertex   -2.667000e+000 3.352800e+001 7.620000e+001
      vertex   -1.397000e+000 2.590800e+001 7.620000e+001
    endloop
  endfacet
  facet normal 0.000000e+000 0.000000e+000 1.000000e+000
    outer loop
      vertex   -6.350000e-001 3.556000e+001 7.620000e+001
      vertex   -3.111500e+001 3.556000e+001 7.620000e+001
      vertex   -2.667000e+000 3.352800e+001 7.620000e+001
    endloop
  endfacet
  facet normal 0.000000e+000 0.000000e+000 1.000000e+000
    outer loop
      vertex   -2.667000e+000 3.352800e+001 7.620000e+001
      vertex   -3.111500e+001 3.556000e+001 7.620000e+001
      vertex   -2.908300e+001 3.352800e+001 7.620000e+001
    endloop
  endfacet
  facet normal 0.000000e+000 0.000000e+000 1.000000e+000
    outer loop
      vertex   -2.908300e+001 3.352800e+001 7.620000e+001
      vertex   -3.111500e+001 3.556000e+001 7.620000e+001
      vertex   -3.035300e+001 2.590800e+001 7.620000e+001
    endloop
  endfacet
  facet normal 0.000000e+000 -0.000000e+000 1.000000e+000
    outer loop
      vertex   -2.908300e+001 2.590800e+001 7.620000e+001
      vertex   -2.908300e+001 3.352800e+001 7.620000e+001
      vertex   -3.035300e+001 2.590800e+001 7.620000e+001
    endloop
  endfacet
  facet normal 0.000000e+000 0.000000e+000 1.000000e+000
    outer loop
      vertex   -3.035300e+001 2.590800e+001 7.620000e+001
      vertex   -3.111500e+001 3.556000e+001 7.620000e+001
      vertex   -3.035300e+001 1.981200e+001 7.620000e+001
    endloop
  endfacet
  facet normal 0.000000e+000 0.000000e+000 1.000000e+000
    outer loop
      vertex   -3.035300e+001 1.981200e+001 7.620000e+001
      vertex   -3.111500e+001 3.556000e+001 7.620000e+001
      vertex   -3.111500e+001 7.105427e-015 7.620000e+001
    endloop
  endfacet
  facet normal 0.000000e+000 0.000000e+000 1.000000e+000
    outer loop
      vertex   -2.908300e+001 1.981200e+001 7.620000e+001
      vertex   -3.111500e+001 7.105427e-015 7.620000e+001
      vertex   -2.908300e+001 -1.981200e+001 7.620000e+001
    endloop
  endfacet
  facet normal 0.000000e+000 0.000000e+000 1.000000e+000
    outer loop
      vertex   -2.908300e+001 1.981200e+001 7.620000e+001
      vertex   -3.035300e+001 1.981200e+001 7.620000e+001
      vertex   -3.111500e+001 7.105427e-015 7.620000e+001
    endloop
  endfacet
  facet normal 0.000000e+000 0.000000e+000 1.000000e+000
    outer loop
      vertex   -2.908300e+001 -1.981200e+001 7.620000e+001
      vertex   -3.111500e+001 7.105427e-015 7.620000e+001
      vertex   -3.035300e+001 -1.981200e+001 7.620000e+001
    endloop
  endfacet
  facet normal 0.000000e+000 0.000000e+000 1.000000e+000
    outer loop
      vertex   -3.035300e+001 -1.981200e+001 7.620000e+001
      vertex   -3.111500e+001 7.105427e-015 7.620000e+001
      vertex   -3.111500e+001 -3.556000e+001 7.620000e+001
    endloop
  endfacet
  facet normal -0.000000e+000 0.000000e+000 1.000000e+000
    outer loop
      vertex   -3.035300e+001 -2.590800e+001 7.620000e+001
      vertex   -3.111500e+001 -3.556000e+001 7.620000e+001
      vertex   -2.908300e+001 -3.352800e+001 7.620000e+001
    endloop
  endfacet
  facet normal 0.000000e+000 0.000000e+000 1.000000e+000
    outer loop
      vertex   -2.908300e+001 -2.590800e+001 7.620000e+001
      vertex   -3.035300e+001 -2.590800e+001 7.620000e+001
      vertex   -2.908300e+001 -3.352800e+001 7.620000e+001
    endloop
  endfacet
  facet normal -0.000000e+000 -0.000000e+000 1.000000e+000
    outer loop
      vertex   -3.111500e+001 -3.556000e+001 7.620000e+001
      vertex   -6.350000e-001 -3.556000e+001 7.620000e+001
      vertex   -2.908300e+001 -3.352800e+001 7.620000e+001
    endloop
  endfacet
  facet normal -0.000000e+000 -0.000000e+000 1.000000e+000
    outer loop
      vertex   -2.908300e+001 -3.352800e+001 7.620000e+001
      vertex   -6.350000e-001 -3.556000e+001 7.620000e+001
      vertex   -2.667000e+000 -3.352800e+001 7.620000e+001
    endloop
  endfacet
  facet normal -0.000000e+000 -0.000000e+000 1.000000e+000
    outer loop
      vertex   -2.667000e+000 -3.352800e+001 7.620000e+001
      vertex   -6.350000e-001 -3.556000e+001 7.620000e+001
      vertex   -1.397000e+000 -2.590800e+001 7.620000e+001
    endloop
  endfacet
  facet normal -0.000000e+000 0.000000e+000 1.000000e+000
    outer loop
      vertex   -2.667000e+000 -2.590800e+001 7.620000e+001
      vertex   -2.667000e+000 -3.352800e+001 7.620000e+001
      vertex   -1.397000e+000 -2.590800e+001 7.620000e+001
    endloop
  endfacet
  facet normal -0.000000e+000 -0.000000e+000 1.000000e+000
    outer loop
      vertex   -1.397000e+000 -2.590800e+001 7.620000e+001
      vertex   -6.350000e-001 -3.556000e+001 7.620000e+001
      vertex   -1.397000e+000 -1.981200e+001 7.620000e+001
    endloop
  endfacet
  facet normal -0.000000e+000 0.000000e+000 1.000000e+000
    outer loop
      vertex   -1.397000e+000 -1.981200e+001 7.620000e+001
      vertex   -6.350000e-001 -3.556000e+001 7.620000e+001
      vertex   -6.350000e-001 -6.985000e+000 7.620000e+001
    endloop
  endfacet
  facet normal 0.000000e+000 -0.000000e+000 1.000000e+000
    outer loop
      vertex   -2.667000e+000 -1.981200e+001 7.620000e+001
      vertex   -6.350000e-001 -6.985000e+000 7.620000e+001
      vertex   -2.667000e+000 -4.953000e+000 7.620000e+001
    endloop
  endfacet
  facet normal 0.000000e+000 0.000000e+000 1.000000e+000
    outer loop
      vertex   -2.667000e+000 -1.981200e+001 7.620000e+001
      vertex   -1.397000e+000 -1.981200e+001 7.620000e+001
      vertex   -6.350000e-001 -6.985000e+000 7.620000e+001
    endloop
  endfacet
  facet normal -0.000000e+000 0.000000e+000 1.000000e+000
    outer loop
      vertex   -2.667000e+000 -4.953000e+000 7.620000e+001
      vertex   -6.350000e-001 -6.985000e+000 7.620000e+001
      vertex   3.683000e+000 -4.953000e+000 7.620000e+001
    endloop
  endfacet
  facet normal -0.000000e+000 0.000000e+000 1.000000e+000
    outer loop
      vertex   3.683000e+000 -4.953000e+000 7.620000e+001
      vertex   -6.350000e-001 -6.985000e+000 7.620000e+001
      vertex   5.715000e+000 -6.985000e+000 7.620000e+001
    endloop
  endfacet
  facet normal 0.000000e+000 0.000000e+000 1.000000e+000
    outer loop
      vertex   5.715000e+000 6.985000e+000 7.620000e+001
      vertex   3.683000e+000 -4.953000e+000 7.620000e+001
      vertex   5.715000e+000 -6.985000e+000 7.620000e+001
    endloop
  endfacet
  facet normal 0.000000e+000 0.000000e+000 1.000000e+000
    outer loop
      vertex   5.715000e+000 6.985000e+000 7.620000e+001
      vertex   3.683000e+000 4.953000e+000 7.620000e+001
      vertex   3.683000e+000 -4.953000e+000 7.620000e+001
    endloop
  endfacet
  facet normal 0.000000e+000 0.000000e+000 1.000000e+000
    outer loop
      vertex   5.715000e+000 6.985000e+000 7.620000e+001
      vertex   -6.350000e-001 6.985000e+000 7.620000e+001
      vertex   3.683000e+000 4.953000e+000 7.620000e+001
    endloop
  endfacet
  facet normal 0.000000e+000 0.000000e+000 1.000000e+000
    outer loop
      vertex   3.683000e+000 4.953000e+000 7.620000e+001
      vertex   -6.350000e-001 6.985000e+000 7.620000e+001
      vertex   -2.667000e+000 4.953000e+000 7.620000e+001
    endloop
  endfacet
  facet normal 0.000000e+000 -0.000000e+000 1.000000e+000
    outer loop
      vertex   -2.667000e+000 4.953000e+000 7.620000e+001
      vertex   -6.350000e-001 6.985000e+000 7.620000e+001
      vertex   -2.667000e+000 1.982330e+001 7.620000e+001
    endloop
  endfacet
  facet normal -0.000000e+000 -0.000000e+000 1.000000e+000
    outer loop
      vertex   -2.667000e+000 1.982330e+001 7.620000e+001
      vertex   -6.350000e-001 6.985000e+000 7.620000e+001
      vertex   -1.397000e+000 1.982330e+001 7.620000e+001
    endloop
  endfacet
  facet normal 0.000000e+000 -0.000000e+000 1.000000e+000
    outer loop
      vertex   -2.667000e+000 2.590800e+001 7.620000e+001
      vertex   -1.397000e+000 2.590800e+001 7.620000e+001
      vertex   -2.667000e+000 3.352800e+001 7.620000e+001
    endloop
  endfacet
  facet normal 0.000000e+000 -0.000000e+000 1.000000e+000
    outer loop
      vertex   -3.035300e+001 -2.590800e+001 7.620000e+001
      vertex   -3.035300e+001 -1.981200e+001 7.620000e+001
      vertex   -3.111500e+001 -3.556000e+001 7.620000e+001
    endloop
  endfacet
  facet normal 0.000000e+000 0.000000e+000 -1.000000e+000
    outer loop
      vertex   -6.350000e-001 6.985000e+000 0.000000e+000
      vertex   -1.397000e+000 1.982330e+001 0.000000e+000
      vertex   -6.350000e-001 3.556000e+001 0.000000e+000
    endloop
  endfacet
  facet normal 0.000000e+000 0.000000e+000 -1.000000e+000
    outer loop
      vertex   -6.350000e-001 6.985000e+000 0.000000e+000
      vertex   -2.667000e+000 1.982330e+001 0.000000e+000
      vertex   -1.397000e+000 1.982330e+001 0.000000e+000
    endloop
  endfacet
  facet normal -0.000000e+000 0.000000e+000 -1.000000e+000
    outer loop
      vertex   -6.350000e-001 6.985000e+000 0.000000e+000
      vertex   -2.667000e+000 4.953000e+000 0.000000e+000
      vertex   -2.667000e+000 1.982330e+001 0.000000e+000
    endloop
  endfacet
  facet normal -0.000000e+000 -0.000000e+000 -1.000000e+000
    outer loop
      vertex   -6.350000e-001 6.985000e+000 0.000000e+000
      vertex   3.683000e+000 4.953000e+000 0.000000e+000
      vertex   -2.667000e+000 4.953000e+000 0.000000e+000
    endloop
  endfacet
  facet normal 0.000000e+000 -0.000000e+000 -1.000000e+000
    outer loop
      vertex   -6.350000e-001 6.985000e+000 0.000000e+000
      vertex   5.715000e+000 6.985000e+000 0.000000e+000
      vertex   3.683000e+000 4.953000e+000 0.000000e+000
    endloop
  endfacet
  facet normal 0.000000e+000 0.000000e+000 -1.000000e+000
    outer loop
      vertex   3.683000e+000 4.953000e+000 0.000000e+000
      vertex   5.715000e+000 6.985000e+000 0.000000e+000
      vertex   5.715000e+000 -6.985000e+000 0.000000e+000
    endloop
  endfacet
  facet normal -0.000000e+000 -0.000000e+000 -1.000000e+000
    outer loop
      vertex   3.683000e+000 -4.953000e+000 0.000000e+000
      vertex   5.715000e+000 -6.985000e+000 0.000000e+000
      vertex   -6.350000e-001 -6.985000e+000 0.000000e+000
    endloop
  endfacet
  facet normal 0.000000e+000 -0.000000e+000 -1.000000e+000
    outer loop
      vertex   -2.667000e+000 -4.953000e+000 0.000000e+000
      vertex   -6.350000e-001 -6.985000e+000 0.000000e+000
      vertex   -2.667000e+000 -1.981200e+001 0.000000e+000
    endloop
  endfacet
  facet normal 0.000000e+000 -0.000000e+000 -1.000000e+000
    outer loop
      vertex   -2.667000e+000 -4.953000e+000 0.000000e+000
      vertex   3.683000e+000 -4.953000e+000 0.000000e+000
      vertex   -6.350000e-001 -6.985000e+000 0.000000e+000
    endloop
  endfacet
  facet normal -0.000000e+000 -0.000000e+000 -1.000000e+000
    outer loop
      vertex   3.683000e+000 4.953000e+000 0.000000e+000
      vertex   5.715000e+000 -6.985000e+000 0.000000e+000
      vertex   3.683000e+000 -4.953000e+000 0.000000e+000
    endloop
  endfacet
  facet normal 0.000000e+000 -0.000000e+000 -1.000000e+000
    outer loop
      vertex   -2.667000e+000 -1.981200e+001 0.000000e+000
      vertex   -6.350000e-001 -6.985000e+000 0.000000e+000
      vertex   -1.397000e+000 -1.981200e+001 0.000000e+000
    endloop
  endfacet
  facet normal 0.000000e+000 -0.000000e+000 -1.000000e+000
    outer loop
      vertex   -1.397000e+000 -1.981200e+001 0.000000e+000
      vertex   -6.350000e-001 -6.985000e+000 0.000000e+000
      vertex   -6.350000e-001 -3.556000e+001 0.000000e+000
    endloop
  endfacet
  facet normal -0.000000e+000 -0.000000e+000 -1.000000e+000
    outer loop
      vertex   -1.397000e+000 -2.590800e+001 0.000000e+000
      vertex   -6.350000e-001 -3.556000e+001 0.000000e+000
      vertex   -2.667000e+000 -3.352800e+001 0.000000e+000
    endloop
  endfacet
  facet normal 0.000000e+000 -0.000000e+000 -1.000000e+000
    outer loop
      vertex   -2.667000e+000 -2.590800e+001 0.000000e+000
      vertex   -1.397000e+000 -2.590800e+001 0.000000e+000
      vertex   -2.667000e+000 -3.352800e+001 0.000000e+000
    endloop
  endfacet
  facet normal 0.000000e+000 0.000000e+000 -1.000000e+000
    outer loop
      vertex   -6.350000e-001 -3.556000e+001 0.000000e+000
      vertex   -3.111500e+001 -3.556000e+001 0.000000e+000
      vertex   -2.667000e+000 -3.352800e+001 0.000000e+000
    endloop
  endfacet
  facet normal -0.000000e+000 0.000000e+000 -1.000000e+000
    outer loop
      vertex   -2.667000e+000 -3.352800e+001 0.000000e+000
      vertex   -3.111500e+001 -3.556000e+001 0.000000e+000
      vertex   -2.908300e+001 -3.352800e+001 0.000000e+000
    endloop
  endfacet
  facet normal -0.000000e+000 0.000000e+000 -1.000000e+000
    outer loop
      vertex   -2.908300e+001 -3.352800e+001 0.000000e+000
      vertex   -3.111500e+001 -3.556000e+001 0.000000e+000
      vertex   -3.035300e+001 -2.590800e+001 0.000000e+000
    endloop
  endfacet
  facet normal -0.000000e+000 -0.000000e+000 -1.000000e+000
    outer loop
      vertex   -2.908300e+001 -2.590800e+001 0.000000e+000
      vertex   -2.908300e+001 -3.352800e+001 0.000000e+000
      vertex   -3.035300e+001 -2.590800e+001 0.000000e+000
    endloop
  endfacet
  facet normal -0.000000e+000 0.000000e+000 -1.000000e+000
    outer loop
      vertex   -3.035300e+001 -2.590800e+001 0.000000e+000
      vertex   -3.111500e+001 -3.556000e+001 0.000000e+000
      vertex   -3.035300e+001 -1.981200e+001 0.000000e+000
    endloop
  endfacet
  facet normal -0.000000e+000 0.000000e+000 -1.000000e+000
    outer loop
      vertex   -3.035300e+001 -1.981200e+001 0.000000e+000
      vertex   -3.111500e+001 -3.556000e+001 0.000000e+000
      vertex   -3.111500e+001 7.105427e-015 0.000000e+000
    endloop
  endfacet
  facet normal 0.000000e+000 0.000000e+000 -1.000000e+000
    outer loop
      vertex   -2.908300e+001 -1.981200e+001 0.000000e+000
      vertex   -3.111500e+001 7.105427e-015 0.000000e+000
      vertex   -2.908300e+001 1.981200e+001 0.000000e+000
    endloop
  endfacet
  facet normal 0.000000e+000 0.000000e+000 -1.000000e+000
    outer loop
      vertex   -2.908300e+001 -1.981200e+001 0.000000e+000
      vertex   -3.035300e+001 -1.981200e+001 0.000000e+000
      vertex   -3.111500e+001 7.105427e-015 0.000000e+000
    endloop
  endfacet
  facet normal -0.000000e+000 0.000000e+000 -1.000000e+000
    outer loop
      vertex   -2.908300e+001 1.981200e+001 0.000000e+000
      vertex   -3.111500e+001 7.105427e-015 0.000000e+000
      vertex   -3.035300e+001 1.981200e+001 0.000000e+000
    endloop
  endfacet
  facet normal -0.000000e+000 0.000000e+000 -1.000000e+000
    outer loop
      vertex   -3.035300e+001 1.981200e+001 0.000000e+000
      vertex   -3.111500e+001 7.105427e-015 0.000000e+000
      vertex   -3.111500e+001 3.556000e+001 0.000000e+000
    endloop
  endfacet
  facet normal 0.000000e+000 0.000000e+000 -1.000000e+000
    outer loop
      vertex   -3.035300e+001 2.590800e+001 0.000000e+000
      vertex   -3.111500e+001 3.556000e+001 0.000000e+000
      vertex   -2.908300e+001 3.352800e+001 0.000000e+000
    endloop
  endfacet
  facet normal 0.000000e+000 0.000000e+000 -1.000000e+000
    outer loop
      vertex   -2.908300e+001 2.590800e+001 0.000000e+000
      vertex   -3.035300e+001 2.590800e+001 0.000000e+000
      vertex   -2.908300e+001 3.352800e+001 0.000000e+000
    endloop
  endfacet
  facet normal 0.000000e+000 -0.000000e+000 -1.000000e+000
    outer loop
      vertex   -3.111500e+001 3.556000e+001 0.000000e+000
      vertex   -6.350000e-001 3.556000e+001 0.000000e+000
      vertex   -2.908300e+001 3.352800e+001 0.000000e+000
    endloop
  endfacet
  facet normal 0.000000e+000 -0.000000e+000 -1.000000e+000
    outer loop
      vertex   -2.908300e+001 3.352800e+001 0.000000e+000
      vertex   -6.350000e-001 3.556000e+001 0.000000e+000
      vertex   -2.667000e+000 3.352800e+001 0.000000e+000
    endloop
  endfacet
  facet normal 0.000000e+000 -0.000000e+000 -1.000000e+000
    outer loop
      vertex   -2.667000e+000 3.352800e+001 0.000000e+000
      vertex   -6.350000e-001 3.556000e+001 0.000000e+000
      vertex   -1.397000e+000 2.590800e+001 0.000000e+000
    endloop
  endfacet
  facet normal 0.000000e+000 0.000000e+000 -1.000000e+000
    outer loop
      vertex   -2.667000e+000 2.590800e+001 0.000000e+000
      vertex   -2.667000e+000 3.352800e+001 0.000000e+000
      vertex   -1.397000e+000 2.590800e+001 0.000000e+000
    endloop
  endfacet
  facet normal -0.000000e+000 -0.000000e+000 -1.000000e+000
    outer loop
      vertex   -3.035300e+001 2.590800e+001 0.000000e+000
      vertex   -3.035300e+001 1.981200e+001 0.000000e+000
      vertex   -3.111500e+001 3.556000e+001 0.000000e+000
    endloop
  endfacet
  facet normal 0.000000e+000 0.000000e+000 -1.000000e+000
    outer loop
      vertex   -1.397000e+000 -2.590800e+001 0.000000e+000
      vertex   -1.397000e+000 -1.981200e+001 0.000000e+000
      vertex   -6.350000e-001 -3.556000e+001 0.000000e+000
    endloop
  endfacet
  facet normal 0.000000e+000 0.000000e+000 -1.000000e+000
    outer loop
      vertex   -1.397000e+000 1.982330e+001 0.000000e+000
      vertex   -1.397000e+000 2.590800e+001 0.000000e+000
      vertex   -6.350000e-001 3.556000e+001 0.000000e+000
    endloop
  endfacet
endsolid
